<svg width="74" height="75" viewBox="0 0 74 75" fill="none" xmlns="http://www.w3.org/2000/svg">
<g opacity="0.7">
<path d="M60.1253 39.0423C60.1253 34.7873 63.5787 31.334 67.8337 31.334V28.2507C67.8337 15.9173 64.7503 12.834 52.417 12.834H21.5837C9.25033 12.834 6.16699 15.9173 6.16699 28.2507V29.7923C10.422 29.7923 13.8753 33.2457 13.8753 37.5007C13.8753 41.7557 10.422 45.209 6.16699 45.209V46.7507C6.16699 59.084 9.25033 62.1673 21.5837 62.1673H52.417C64.7503 62.1673 67.8337 59.084 67.8337 46.7507C63.5787 46.7507 60.1253 43.2973 60.1253 39.0423Z" stroke="#EDEDED" stroke-width="4.7323" stroke-linecap="round" stroke-linejoin="round"/>
<path d="M30.833 12.834L30.833 62.1673" stroke="#EDEDED" stroke-width="4.7323" stroke-linecap="round" stroke-linejoin="round" stroke-dasharray="15.77 15.77"/>
</g>
</svg>
