<svg width="38" height="38" viewBox="0 0 38 38" fill="none" xmlns="http://www.w3.org/2000/svg">
<path d="M29.2438 26.6476L29.8613 31.6509C30.0197 32.9651 28.6105 33.8834 27.4863 33.2025L20.8522 29.2601C20.1238 29.2601 19.4114 29.2126 18.7147 29.1176C19.8864 27.7401 20.583 25.9984 20.583 24.1142C20.583 19.6176 16.688 15.976 11.8747 15.976C10.038 15.976 8.34385 16.4984 6.93468 17.4167C6.88718 17.0209 6.87134 16.6251 6.87134 16.2134C6.87134 9.00923 13.1255 3.16675 20.8522 3.16675C28.5788 3.16675 34.833 9.00923 34.833 16.2134C34.833 20.4884 32.6322 24.2726 29.2438 26.6476Z" stroke="#D2C288" stroke-width="2" stroke-linecap="round" stroke-linejoin="round"/>
<path d="M20.5834 24.1143C20.5834 25.9985 19.8868 27.7402 18.7151 29.1177C17.1476 31.0177 14.6617 32.2368 11.8751 32.2368L7.74258 34.691C7.04591 35.1185 6.15924 34.5327 6.25424 33.7252L6.65008 30.6061C4.52841 29.1336 3.16675 26.7743 3.16675 24.1143C3.16675 21.3277 4.65509 18.8735 6.93509 17.4169C8.34426 16.4985 10.0384 15.9761 11.8751 15.9761C16.6884 15.9761 20.5834 19.6177 20.5834 24.1143Z" stroke="#D2C288" stroke-width="2" stroke-linecap="round" stroke-linejoin="round"/>
</svg>
