<svg width="20" height="20" viewBox="0 0 20 20" fill="none" xmlns="http://www.w3.org/2000/svg">
<mask id="mask0_520_4544" style="mask-type:luminance" maskUnits="userSpaceOnUse" x="0" y="0" width="20" height="20">
<path d="M19.6517 0.0117188H0.17334V19.4898H19.6517V0.0117188Z" fill="white"/>
</mask>
<g mask="url(#mask0_520_4544)">
<mask id="path-2-outside-1_520_4544" maskUnits="userSpaceOnUse" x="0.318848" y="0.15625" width="19" height="19" fill="black">
<rect fill="white" x="0.318848" y="0.15625" width="19" height="19"/>
<path d="M1.83013 6.87363H17.9944V4.2828C17.9936 4.05325 17.9056 3.83332 17.7494 3.671C17.5932 3.50869 17.3816 3.41716 17.1607 3.4164H15.9765V4.43327C15.9765 4.68457 15.8804 4.92559 15.7094 5.10329C15.5385 5.28099 15.3066 5.38082 15.0648 5.38082C14.823 5.38082 14.5911 5.28099 14.4201 5.10329C14.2491 4.92559 14.1531 4.68457 14.1531 4.43327V3.41496H5.6714V4.43182C5.66722 4.68038 5.56929 4.91729 5.39869 5.09153C5.22809 5.26577 4.99847 5.36341 4.75929 5.36341C4.5201 5.36341 4.29049 5.26577 4.11989 5.09153C3.94929 4.91729 3.85136 4.68038 3.84718 4.43182V3.41496H2.66485C2.44399 3.41572 2.23238 3.50724 2.07621 3.66956C1.92003 3.83188 1.83197 4.05181 1.83124 4.28136L1.83013 6.87363ZM13.619 13.205H16.0993C16.2179 13.2054 16.3315 13.2546 16.4152 13.3419L16.4166 13.3433C16.5005 13.4304 16.5478 13.5485 16.5483 13.6717V15.9243C16.548 16.0479 16.5006 16.1662 16.4166 16.2536H16.4152C16.3315 16.3408 16.2179 16.3899 16.0993 16.3902H13.619C13.5005 16.3899 13.3868 16.3408 13.3031 16.2536H13.3014C13.2175 16.1662 13.1702 16.0478 13.17 15.9243V13.6717C13.1705 13.5489 13.2178 13.4312 13.3014 13.3445L13.3031 13.343C13.3869 13.2558 13.5004 13.2066 13.619 13.2062M16.0365 13.7375H13.6813V15.862H16.037L16.0365 13.7375ZM13.619 8.97638H16.0993C16.2184 8.97646 16.3325 9.02565 16.4167 9.11316C16.5009 9.20067 16.5482 9.31933 16.5483 9.44308V11.6957C16.548 11.8192 16.5006 11.9374 16.4166 12.0247H16.4152C16.3737 12.0678 16.3245 12.1019 16.2703 12.1252C16.216 12.1485 16.1579 12.1605 16.0993 12.1604H13.619C13.5601 12.1604 13.5017 12.1484 13.4472 12.125C13.3927 12.1016 13.3432 12.0672 13.3015 12.0239C13.2598 11.9806 13.2267 11.9292 13.2042 11.8725C13.1816 11.8159 13.17 11.7553 13.17 11.694V9.44135C13.1703 9.31789 13.2176 9.19957 13.3014 9.11212L13.3031 9.11038C13.3872 9.02385 13.5007 8.97511 13.619 8.97465M16.0365 9.50517H13.6813V11.6302H16.037L16.0365 9.50517ZM3.7252 13.205H6.20463C6.32347 13.2053 6.43735 13.2546 6.5214 13.3419V13.3433C6.60557 13.4303 6.65322 13.5483 6.65394 13.6717V15.9243C6.65379 15.9856 6.64203 16.0461 6.61934 16.1026C6.59664 16.1591 6.56346 16.2104 6.52168 16.2536C6.43762 16.3408 6.32372 16.39 6.20491 16.3902H3.7252C3.60638 16.39 3.49249 16.3408 3.40843 16.2536C3.32458 16.1661 3.27735 16.0478 3.27699 15.9243V13.6717C3.27743 13.549 3.32435 13.4315 3.40759 13.3445L3.40926 13.343C3.49305 13.2558 3.60663 13.2066 3.7252 13.2062M6.14266 13.7375H3.78661V15.862H6.14322L6.14266 13.7375ZM8.67128 13.2062H11.151C11.2697 13.2067 11.3834 13.2559 11.4675 13.343L11.4691 13.3445C11.5524 13.432 11.5992 13.5498 11.5997 13.6728V15.9255C11.5995 16.049 11.5523 16.1673 11.4683 16.2547C11.3843 16.3418 11.2705 16.3909 11.1518 16.3913H8.67239C8.55329 16.3912 8.4391 16.342 8.35484 16.2545C8.27057 16.167 8.22309 16.0484 8.22279 15.9246V13.672C8.22323 13.5482 8.27076 13.4297 8.355 13.3423C8.43923 13.2548 8.55333 13.2056 8.67239 13.2053M11.0899 13.7367H8.7338V15.8611H11.0907L11.0899 13.7367ZM8.73796 8.97523H11.2174C11.3365 8.9753 11.4506 9.0245 11.5348 9.112C11.619 9.19951 11.6664 9.31817 11.6664 9.44193V11.6946C11.6661 11.818 11.6187 11.9363 11.5347 12.0235C11.4506 12.1108 11.3368 12.1599 11.218 12.1601H8.73796C8.67894 12.1603 8.62046 12.1483 8.56589 12.1249C8.51132 12.1016 8.46171 12.0672 8.41993 12.0239C8.37814 11.9806 8.34498 11.9291 8.32236 11.8725C8.29974 11.8158 8.28809 11.755 8.28809 11.6937V9.44106C8.28845 9.3176 8.33568 9.19928 8.41953 9.11183L8.42119 9.1101C8.50556 9.02341 8.61933 8.97465 8.73796 8.97436M11.1554 9.50489H8.79937V11.6299H11.1554V9.50489ZM3.8558 8.97523H6.33551C6.45457 8.9753 6.56875 9.0245 6.65294 9.112C6.73714 9.19951 6.78447 9.31817 6.78454 9.44193V11.6946C6.78456 11.8179 6.73761 11.9363 6.65394 12.0238C6.61215 12.0673 6.5625 12.1017 6.50785 12.1251C6.4532 12.1486 6.39463 12.1606 6.33551 12.1604H3.8558C3.73675 12.1603 3.6226 12.1111 3.53834 12.0237C3.45408 11.9363 3.40657 11.8177 3.4062 11.694V9.44135C3.40634 9.38013 3.41809 9.31954 3.44079 9.26304C3.46348 9.20655 3.49668 9.15526 3.53847 9.11212L3.54014 9.11038C3.62399 9.0236 3.73746 8.97481 3.8558 8.97465M6.27326 9.50517H3.91748V11.6302H6.2741L6.27326 9.50517ZM15.466 3.14984V2.10438C15.466 1.99386 15.4238 1.88786 15.3486 1.8097C15.2734 1.73155 15.1714 1.68764 15.0651 1.68764C14.9587 1.68764 14.8567 1.73155 14.7815 1.8097C14.7063 1.88786 14.6641 1.99386 14.6641 2.10438V4.43182C14.6641 4.54235 14.7063 4.64835 14.7815 4.7265C14.8567 4.80465 14.9587 4.84856 15.0651 4.84856C15.1714 4.84856 15.2734 4.80465 15.3486 4.7265C15.4238 4.64835 15.466 4.54235 15.466 4.43182V3.14984ZM14.1531 2.88356V2.1038C14.1531 1.8525 14.2491 1.61148 14.4201 1.43378C14.5911 1.25608 14.823 1.15625 15.0648 1.15625C15.3066 1.15625 15.5385 1.25608 15.7094 1.43378C15.8804 1.61148 15.9765 1.8525 15.9765 2.1038V2.88356H17.1596C17.5163 2.88463 17.8582 3.0324 18.1104 3.29459C18.3626 3.55677 18.5047 3.91205 18.5056 4.2828V16.9455C18.5055 17.1291 18.4705 17.3108 18.4027 17.4802C18.3348 17.6497 18.2354 17.8035 18.1102 17.9329C17.9857 18.0629 17.8376 18.166 17.6747 18.2365C17.5117 18.3069 17.337 18.3432 17.1605 18.3433H2.66485C2.48834 18.3433 2.31358 18.307 2.1506 18.2366C1.98761 18.1661 1.83961 18.063 1.71509 17.9329C1.58974 17.8036 1.4902 17.6498 1.4222 17.4803C1.35421 17.3109 1.31908 17.1291 1.31885 16.9455V4.2828C1.31881 4.09907 1.35372 3.91714 1.42158 3.74749C1.48944 3.57783 1.58891 3.42379 1.71426 3.29424C1.83868 3.16404 1.98665 3.0607 2.14965 2.99018C2.31264 2.91965 2.48745 2.88332 2.66401 2.88328H3.84746V2.10351C3.85163 1.85496 3.94957 1.61805 4.12017 1.44381C4.29076 1.26956 4.52038 1.17193 4.75957 1.17193C4.99875 1.17193 5.22837 1.26956 5.39897 1.44381C5.56957 1.61805 5.6675 1.85496 5.67167 2.10351V2.88328L14.1531 2.88356ZM5.16039 3.14984V2.10438C5.16039 1.99386 5.11815 1.88786 5.04295 1.8097C4.96776 1.73155 4.86577 1.68764 4.75943 1.68764C4.65309 1.68764 4.5511 1.73155 4.4759 1.8097C4.40071 1.88786 4.35846 1.99386 4.35846 2.10438V4.43182C4.35846 4.54235 4.40071 4.64835 4.4759 4.7265C4.5511 4.80465 4.65309 4.84856 4.75943 4.84856C4.86577 4.84856 4.96776 4.80465 5.04295 4.7265C5.11815 4.64835 5.16039 4.54235 5.16039 4.43182V3.14984ZM17.9944 7.40415H1.83013V16.9455C1.83086 17.1751 1.91892 17.395 2.0751 17.5573C2.23127 17.7196 2.44287 17.8112 2.66374 17.8119H17.1596C17.3805 17.8112 17.5921 17.7196 17.7483 17.5573C17.9044 17.395 17.9925 17.1751 17.9932 16.9455L17.9944 7.40415Z"/>
</mask>
<path d="M1.83013 6.87363H17.9944V4.2828C17.9936 4.05325 17.9056 3.83332 17.7494 3.671C17.5932 3.50869 17.3816 3.41716 17.1607 3.4164H15.9765V4.43327C15.9765 4.68457 15.8804 4.92559 15.7094 5.10329C15.5385 5.28099 15.3066 5.38082 15.0648 5.38082C14.823 5.38082 14.5911 5.28099 14.4201 5.10329C14.2491 4.92559 14.1531 4.68457 14.1531 4.43327V3.41496H5.6714V4.43182C5.66722 4.68038 5.56929 4.91729 5.39869 5.09153C5.22809 5.26577 4.99847 5.36341 4.75929 5.36341C4.5201 5.36341 4.29049 5.26577 4.11989 5.09153C3.94929 4.91729 3.85136 4.68038 3.84718 4.43182V3.41496H2.66485C2.44399 3.41572 2.23238 3.50724 2.07621 3.66956C1.92003 3.83188 1.83197 4.05181 1.83124 4.28136L1.83013 6.87363ZM13.619 13.205H16.0993C16.2179 13.2054 16.3315 13.2546 16.4152 13.3419L16.4166 13.3433C16.5005 13.4304 16.5478 13.5485 16.5483 13.6717V15.9243C16.548 16.0479 16.5006 16.1662 16.4166 16.2536H16.4152C16.3315 16.3408 16.2179 16.3899 16.0993 16.3902H13.619C13.5005 16.3899 13.3868 16.3408 13.3031 16.2536H13.3014C13.2175 16.1662 13.1702 16.0478 13.17 15.9243V13.6717C13.1705 13.5489 13.2178 13.4312 13.3014 13.3445L13.3031 13.343C13.3869 13.2558 13.5004 13.2066 13.619 13.2062M16.0365 13.7375H13.6813V15.862H16.037L16.0365 13.7375ZM13.619 8.97638H16.0993C16.2184 8.97646 16.3325 9.02565 16.4167 9.11316C16.5009 9.20067 16.5482 9.31933 16.5483 9.44308V11.6957C16.548 11.8192 16.5006 11.9374 16.4166 12.0247H16.4152C16.3737 12.0678 16.3245 12.1019 16.2703 12.1252C16.216 12.1485 16.1579 12.1605 16.0993 12.1604H13.619C13.5601 12.1604 13.5017 12.1484 13.4472 12.125C13.3927 12.1016 13.3432 12.0672 13.3015 12.0239C13.2598 11.9806 13.2267 11.9292 13.2042 11.8725C13.1816 11.8159 13.17 11.7553 13.17 11.694V9.44135C13.1703 9.31789 13.2176 9.19957 13.3014 9.11212L13.3031 9.11038C13.3872 9.02385 13.5007 8.97511 13.619 8.97465M16.0365 9.50517H13.6813V11.6302H16.037L16.0365 9.50517ZM3.7252 13.205H6.20463C6.32347 13.2053 6.43735 13.2546 6.5214 13.3419V13.3433C6.60557 13.4303 6.65322 13.5483 6.65394 13.6717V15.9243C6.65379 15.9856 6.64203 16.0461 6.61934 16.1026C6.59664 16.1591 6.56346 16.2104 6.52168 16.2536C6.43762 16.3408 6.32372 16.39 6.20491 16.3902H3.7252C3.60638 16.39 3.49249 16.3408 3.40843 16.2536C3.32458 16.1661 3.27735 16.0478 3.27699 15.9243V13.6717C3.27743 13.549 3.32435 13.4315 3.40759 13.3445L3.40926 13.343C3.49305 13.2558 3.60663 13.2066 3.7252 13.2062M6.14266 13.7375H3.78661V15.862H6.14322L6.14266 13.7375ZM8.67128 13.2062H11.151C11.2697 13.2067 11.3834 13.2559 11.4675 13.343L11.4691 13.3445C11.5524 13.432 11.5992 13.5498 11.5997 13.6728V15.9255C11.5995 16.049 11.5523 16.1673 11.4683 16.2547C11.3843 16.3418 11.2705 16.3909 11.1518 16.3913H8.67239C8.55329 16.3912 8.4391 16.342 8.35484 16.2545C8.27057 16.167 8.22309 16.0484 8.22279 15.9246V13.672C8.22323 13.5482 8.27076 13.4297 8.355 13.3423C8.43923 13.2548 8.55333 13.2056 8.67239 13.2053M11.0899 13.7367H8.7338V15.8611H11.0907L11.0899 13.7367ZM8.73796 8.97523H11.2174C11.3365 8.9753 11.4506 9.0245 11.5348 9.112C11.619 9.19951 11.6664 9.31817 11.6664 9.44193V11.6946C11.6661 11.818 11.6187 11.9363 11.5347 12.0235C11.4506 12.1108 11.3368 12.1599 11.218 12.1601H8.73796C8.67894 12.1603 8.62046 12.1483 8.56589 12.1249C8.51132 12.1016 8.46171 12.0672 8.41993 12.0239C8.37814 11.9806 8.34498 11.9291 8.32236 11.8725C8.29974 11.8158 8.28809 11.755 8.28809 11.6937V9.44106C8.28845 9.3176 8.33568 9.19928 8.41953 9.11183L8.42119 9.1101C8.50556 9.02341 8.61933 8.97465 8.73796 8.97436M11.1554 9.50489H8.79937V11.6299H11.1554V9.50489ZM3.8558 8.97523H6.33551C6.45457 8.9753 6.56875 9.0245 6.65294 9.112C6.73714 9.19951 6.78447 9.31817 6.78454 9.44193V11.6946C6.78456 11.8179 6.73761 11.9363 6.65394 12.0238C6.61215 12.0673 6.5625 12.1017 6.50785 12.1251C6.4532 12.1486 6.39463 12.1606 6.33551 12.1604H3.8558C3.73675 12.1603 3.6226 12.1111 3.53834 12.0237C3.45408 11.9363 3.40657 11.8177 3.4062 11.694V9.44135C3.40634 9.38013 3.41809 9.31954 3.44079 9.26304C3.46348 9.20655 3.49668 9.15526 3.53847 9.11212L3.54014 9.11038C3.62399 9.0236 3.73746 8.97481 3.8558 8.97465M6.27326 9.50517H3.91748V11.6302H6.2741L6.27326 9.50517ZM15.466 3.14984V2.10438C15.466 1.99386 15.4238 1.88786 15.3486 1.8097C15.2734 1.73155 15.1714 1.68764 15.0651 1.68764C14.9587 1.68764 14.8567 1.73155 14.7815 1.8097C14.7063 1.88786 14.6641 1.99386 14.6641 2.10438V4.43182C14.6641 4.54235 14.7063 4.64835 14.7815 4.7265C14.8567 4.80465 14.9587 4.84856 15.0651 4.84856C15.1714 4.84856 15.2734 4.80465 15.3486 4.7265C15.4238 4.64835 15.466 4.54235 15.466 4.43182V3.14984ZM14.1531 2.88356V2.1038C14.1531 1.8525 14.2491 1.61148 14.4201 1.43378C14.5911 1.25608 14.823 1.15625 15.0648 1.15625C15.3066 1.15625 15.5385 1.25608 15.7094 1.43378C15.8804 1.61148 15.9765 1.8525 15.9765 2.1038V2.88356H17.1596C17.5163 2.88463 17.8582 3.0324 18.1104 3.29459C18.3626 3.55677 18.5047 3.91205 18.5056 4.2828V16.9455C18.5055 17.1291 18.4705 17.3108 18.4027 17.4802C18.3348 17.6497 18.2354 17.8035 18.1102 17.9329C17.9857 18.0629 17.8376 18.166 17.6747 18.2365C17.5117 18.3069 17.337 18.3432 17.1605 18.3433H2.66485C2.48834 18.3433 2.31358 18.307 2.1506 18.2366C1.98761 18.1661 1.83961 18.063 1.71509 17.9329C1.58974 17.8036 1.4902 17.6498 1.4222 17.4803C1.35421 17.3109 1.31908 17.1291 1.31885 16.9455V4.2828C1.31881 4.09907 1.35372 3.91714 1.42158 3.74749C1.48944 3.57783 1.58891 3.42379 1.71426 3.29424C1.83868 3.16404 1.98665 3.0607 2.14965 2.99018C2.31264 2.91965 2.48745 2.88332 2.66401 2.88328H3.84746V2.10351C3.85163 1.85496 3.94957 1.61805 4.12017 1.44381C4.29076 1.26956 4.52038 1.17193 4.75957 1.17193C4.99875 1.17193 5.22837 1.26956 5.39897 1.44381C5.56957 1.61805 5.6675 1.85496 5.67167 2.10351V2.88328L14.1531 2.88356ZM5.16039 3.14984V2.10438C5.16039 1.99386 5.11815 1.88786 5.04295 1.8097C4.96776 1.73155 4.86577 1.68764 4.75943 1.68764C4.65309 1.68764 4.5511 1.73155 4.4759 1.8097C4.40071 1.88786 4.35846 1.99386 4.35846 2.10438V4.43182C4.35846 4.54235 4.40071 4.64835 4.4759 4.7265C4.5511 4.80465 4.65309 4.84856 4.75943 4.84856C4.86577 4.84856 4.96776 4.80465 5.04295 4.7265C5.11815 4.64835 5.16039 4.54235 5.16039 4.43182V3.14984ZM17.9944 7.40415H1.83013V16.9455C1.83086 17.1751 1.91892 17.395 2.0751 17.5573C2.23127 17.7196 2.44287 17.8112 2.66374 17.8119H17.1596C17.3805 17.8112 17.5921 17.7196 17.7483 17.5573C17.9044 17.395 17.9925 17.1751 17.9932 16.9455L17.9944 7.40415Z" fill="#C4B581"/>
<path d="M1.83013 6.87363L1.60097 6.87353L1.60087 7.10278H1.83013V6.87363ZM17.9944 6.87363V7.10278H18.2235V6.87363H17.9944ZM17.9944 4.2828H18.2235L18.2235 4.28207L17.9944 4.2828ZM17.1607 3.4164L17.1615 3.18724H17.1607V3.4164ZM15.9765 3.4164V3.18724H15.7473V3.4164H15.9765ZM15.0648 5.38082V5.60998V5.38082ZM14.1531 4.43327H13.9239H14.1531ZM14.1531 3.41496H14.3822V3.1858H14.1531V3.41496ZM5.6714 3.41496V3.1858H5.44224V3.41496H5.6714ZM5.6714 4.43182L5.90055 4.43567V4.43182H5.6714ZM3.84718 4.43182H3.61799L3.61806 4.43567L3.84718 4.43182ZM3.84718 3.41496H4.07634V3.1858H3.84718V3.41496ZM2.66485 3.41496V3.1858L2.66406 3.1858L2.66485 3.41496ZM1.83124 4.28136L1.60208 4.28063L1.60208 4.28126L1.83124 4.28136ZM16.0993 13.205L16.1 12.9758H16.0993V13.205ZM16.4152 13.3419L16.2498 13.5005L16.2501 13.5008L16.4152 13.3419ZM16.4166 13.3433L16.2515 13.5022L16.2515 13.5023L16.4166 13.3433ZM16.5483 13.6717H16.7775L16.7775 13.6708L16.5483 13.6717ZM16.5483 15.9243L16.7775 15.925V15.9243H16.5483ZM16.4166 16.2536V16.4827H16.5142L16.5818 16.4124L16.4166 16.2536ZM16.4152 16.2536V16.0244H16.3175L16.2499 16.0949L16.4152 16.2536ZM16.0993 16.3902V16.6193L16.0997 16.6193L16.0993 16.3902ZM13.619 16.3902L13.6186 16.6193H13.619V16.3902ZM13.3031 16.2536L13.4684 16.0949L13.4008 16.0244H13.3031V16.2536ZM13.3014 16.2536L13.1362 16.4123L13.2038 16.4827H13.3014V16.2536ZM13.17 15.9243H12.9408L12.9408 15.9248L13.17 15.9243ZM13.17 13.6717L12.9408 13.6707V13.6717H13.17ZM13.3014 13.3445L13.1514 13.1713L13.1436 13.178L13.1364 13.1854L13.3014 13.3445ZM13.3031 13.343L13.4531 13.5163L13.461 13.5094L13.4683 13.5018L13.3031 13.343ZM16.0365 13.7375L16.2656 13.7375L16.2656 13.5084H16.0365V13.7375ZM13.6813 13.7375V13.5084H13.4521V13.7375H13.6813ZM13.6813 15.862H13.4521V16.0911H13.6813V15.862ZM16.037 15.862V16.0911H16.2663L16.2662 15.8619L16.037 15.862ZM16.0993 8.97638L16.0994 8.74722H16.0993V8.97638ZM16.4167 9.11316L16.5819 8.95428L16.4167 9.11316ZM16.5483 9.44308H16.7775V9.44295L16.5483 9.44308ZM16.5483 11.6957L16.7775 11.6964V11.6957H16.5483ZM16.4166 12.0247V12.2538H16.5141L16.5817 12.1836L16.4166 12.0247ZM16.4152 12.0247V11.7955H16.3177L16.2501 11.8657L16.4152 12.0247ZM16.0993 12.1604L16.0995 11.9312H16.0993V12.1604ZM13.619 12.1604V11.9312L13.6189 11.9312L13.619 12.1604ZM13.17 11.694H13.3991H13.17ZM13.17 9.44135L12.9408 9.44069V9.44135H13.17ZM13.3014 9.11212L13.1363 8.95323L13.136 8.95353L13.3014 9.11212ZM13.3031 9.11038L13.1388 8.95065L13.1379 8.9515L13.3031 9.11038ZM16.0365 9.50517L16.2656 9.50511L16.2656 9.27602H16.0365V9.50517ZM13.6813 9.50517V9.27602H13.4521V9.50517H13.6813ZM13.6813 11.6302H13.4521V11.8593H13.6813V11.6302ZM16.037 11.6302V11.8593H16.2663L16.2662 11.6301L16.037 11.6302ZM6.20463 13.205L6.20531 12.9758H6.20463V13.205ZM6.5214 13.3419H6.75056V13.2495L6.68651 13.183L6.5214 13.3419ZM6.5214 13.3433H6.29224V13.4361L6.35674 13.5027L6.5214 13.3433ZM6.65394 13.6717H6.8831L6.8831 13.6704L6.65394 13.6717ZM6.65394 15.9243L6.8831 15.9249V15.9243H6.65394ZM6.52168 16.2536L6.35704 16.0942L6.35663 16.0946L6.52168 16.2536ZM6.20491 16.3902V16.6193L6.20532 16.6193L6.20491 16.3902ZM3.7252 16.3902L3.72479 16.6193H3.7252V16.3902ZM3.40843 16.2536L3.24301 16.4122L3.24338 16.4125L3.40843 16.2536ZM3.27699 15.9243H3.04784L3.04784 15.925L3.27699 15.9243ZM3.27699 13.6717L3.04784 13.6709V13.6717H3.27699ZM3.40759 13.3445L3.25758 13.1713L3.24947 13.1783L3.24204 13.186L3.40759 13.3445ZM3.40926 13.343L3.55927 13.5163L3.56721 13.5094L3.57449 13.5018L3.40926 13.343ZM6.14266 13.7375L6.37182 13.7375L6.37176 13.5084H6.14266V13.7375ZM3.78661 13.7375V13.5084H3.55745V13.7375H3.78661ZM3.78661 15.862H3.55745V16.0911H3.78661V15.862ZM6.14322 15.862V16.0911H6.37244L6.37238 15.8619L6.14322 15.862ZM11.151 13.2062L11.152 12.977H11.151V13.2062ZM11.4675 13.343L11.3025 13.5021L11.3097 13.5095L11.3175 13.5163L11.4675 13.343ZM11.4691 13.3445L11.6352 13.1865L11.6275 13.1785L11.6192 13.1713L11.4691 13.3445ZM11.5997 13.6728H11.8289L11.8289 13.6719L11.5997 13.6728ZM11.5997 15.9255L11.8289 15.9259V15.9255H11.5997ZM11.4683 16.2547L11.6332 16.4138L11.6336 16.4135L11.4683 16.2547ZM11.1518 16.3913V16.6205L11.1526 16.6205L11.1518 16.3913ZM8.67239 16.3913L8.67209 16.6205H8.67239V16.3913ZM8.22279 15.9246H7.99364L7.99364 15.9252L8.22279 15.9246ZM8.22279 13.672L7.99364 13.6712V13.672H8.22279ZM11.0899 13.7367L11.319 13.7366L11.3189 13.5075H11.0899V13.7367ZM8.7338 13.7367V13.5075H8.50464V13.7367H8.7338ZM8.7338 15.8611H8.50464V16.0902H8.7338V15.8611ZM11.0907 15.8611V16.0902H11.3199L11.3198 15.861L11.0907 15.8611ZM11.2174 8.97523L11.2175 8.74607H11.2174V8.97523ZM11.5348 9.112L11.7 8.95312L11.5348 9.112ZM11.6664 9.44193H11.8956V9.44179L11.6664 9.44193ZM11.6664 11.6946L11.8956 11.6952V11.6946H11.6664ZM11.5347 12.0235L11.6997 12.1825L11.6998 12.1825L11.5347 12.0235ZM11.218 12.1601V12.3893L11.2184 12.3893L11.218 12.1601ZM8.73796 12.1601V11.931L8.73737 11.931L8.73796 12.1601ZM8.28809 11.6937H8.51725H8.28809ZM8.28809 9.44106L8.05894 9.4404V9.44106H8.28809ZM8.41953 9.11183L8.25439 8.95295L8.25411 8.95324L8.41953 9.11183ZM8.42119 9.1101L8.25696 8.95027L8.25606 8.95121L8.42119 9.1101ZM11.1554 9.50489H11.3846V9.27573H11.1554V9.50489ZM8.79937 9.50489V9.27573H8.57022V9.50489H8.79937ZM8.79937 11.6299H8.57022V11.859H8.79937V11.6299ZM11.1554 11.6299V11.859H11.3846V11.6299H11.1554ZM6.33551 8.97523L6.33565 8.74607H6.33551V8.97523ZM6.65294 9.112L6.81807 8.95312L6.65294 9.112ZM6.78454 9.44193H7.0137L7.0137 9.44179L6.78454 9.44193ZM6.78454 11.6946H6.55539V11.6946L6.78454 11.6946ZM6.65394 12.0238L6.81912 12.1826L6.81958 12.1822L6.65394 12.0238ZM6.33551 12.1604L6.33616 11.9312H6.33551V12.1604ZM3.8558 12.1604L3.8555 12.3896H3.8558V12.1604ZM3.4062 11.694H3.17705L3.17705 11.6947L3.4062 11.694ZM3.4062 9.44135L3.17705 9.44084V9.44135H3.4062ZM3.53847 9.11212L3.70307 9.27156L3.7036 9.271L3.53847 9.11212ZM3.54014 9.11038L3.37534 8.95115L3.375 8.9515L3.54014 9.11038ZM6.27326 9.50517L6.50242 9.50508L6.50233 9.27602H6.27326V9.50517ZM3.91748 9.50517V9.27602H3.68833V9.50517H3.91748ZM3.91748 11.6302H3.68833V11.8593H3.91748V11.6302ZM6.2741 11.6302V11.8593H6.50334L6.50325 11.6301L6.2741 11.6302ZM15.466 2.10438H15.2369H15.466ZM15.0651 4.84856V5.07772V4.84856ZM14.1531 2.88356L14.1531 3.11272L14.3822 3.11273V2.88356H14.1531ZM14.1531 2.1038H13.9239H14.1531ZM15.0648 1.15625V0.927093V1.15625ZM15.9765 2.1038H16.2056H15.9765ZM15.9765 2.88356H15.7473V3.11272H15.9765V2.88356ZM17.1596 2.88356L17.1603 2.65441H17.1596V2.88356ZM18.5056 4.2828H18.7348L18.7348 4.28221L18.5056 4.2828ZM18.5056 16.9455L18.7348 16.9457V16.9455H18.5056ZM18.1102 17.9329L17.9455 17.7736L17.9448 17.7744L18.1102 17.9329ZM17.1605 18.3433V18.5725H17.1606L17.1605 18.3433ZM2.66485 18.3433L2.66477 18.5725H2.66485V18.3433ZM1.71509 17.9329L1.88059 17.7744L1.87966 17.7735L1.71509 17.9329ZM1.31885 16.9455H1.08969L1.08969 16.9458L1.31885 16.9455ZM1.31885 4.2828H1.548V4.28275L1.31885 4.2828ZM1.71426 3.29424L1.87895 3.45358L1.87993 3.45256L1.71426 3.29424ZM2.66401 2.88328V2.65412H2.66396L2.66401 2.88328ZM3.84746 2.88328V3.11243H4.07662V2.88328H3.84746ZM3.84746 2.10351L3.6183 2.09967V2.10351H3.84746ZM5.67167 2.10351H5.90086L5.9008 2.09967L5.67167 2.10351ZM5.67167 2.88328H5.44252V3.11242L5.67167 3.11243L5.67167 2.88328ZM5.16039 2.10438H4.93124H5.16039ZM4.35846 4.43182H4.12931H4.35846ZM4.75943 4.84856V5.07772V4.84856ZM17.9944 7.40415L18.2235 7.40418L18.2235 7.175H17.9944V7.40415ZM1.83013 7.40415V7.175H1.60097V7.40415H1.83013ZM1.83013 16.9455H1.60097L1.60097 16.9463L1.83013 16.9455ZM2.66374 17.8119L2.66295 18.0411H2.66374V17.8119ZM17.1596 17.8119V18.0411L17.1604 18.0411L17.1596 17.8119ZM17.9932 16.9455L18.2224 16.9463V16.9456L17.9932 16.9455ZM1.83013 6.87363V7.10278H17.9944V6.87363V6.64447H1.83013V6.87363ZM17.9944 6.87363H18.2235V4.2828H17.9944H17.7652V6.87363H17.9944ZM17.9944 4.2828L18.2235 4.28207C18.2226 3.99478 18.1125 3.71784 17.9145 3.51212L17.7494 3.671L17.5843 3.82989C17.6987 3.9488 17.7647 4.11172 17.7652 4.28353L17.9944 4.2828ZM17.7494 3.671L17.9145 3.51212C17.7163 3.3061 17.4458 3.18822 17.1615 3.18724L17.1607 3.4164L17.16 3.64556C17.3174 3.6461 17.4701 3.71127 17.5843 3.82989L17.7494 3.671ZM17.1607 3.4164V3.18724H15.9765V3.4164V3.64556H17.1607V3.4164ZM15.9765 3.4164H15.7473V4.43327H15.9765H16.2056V3.4164H15.9765ZM15.9765 4.43327H15.7473C15.7473 4.62659 15.6733 4.8103 15.5443 4.9444L15.7094 5.10329L15.8746 5.26217C16.0875 5.04088 16.2056 4.74256 16.2056 4.43327H15.9765ZM15.7094 5.10329L15.5443 4.9444C15.4156 5.07821 15.2429 5.15166 15.0648 5.15166V5.38082V5.60998C15.3703 5.60998 15.6614 5.48377 15.8746 5.26217L15.7094 5.10329ZM15.0648 5.38082V5.15166C14.8867 5.15166 14.714 5.07821 14.5852 4.9444L14.4201 5.10329L14.255 5.26217C14.4682 5.48377 14.7593 5.60998 15.0648 5.60998V5.38082ZM14.4201 5.10329L14.5852 4.9444C14.4562 4.8103 14.3822 4.62659 14.3822 4.43327H14.1531H13.9239C13.9239 4.74256 14.0421 5.04088 14.255 5.26217L14.4201 5.10329ZM14.1531 4.43327H14.3822V3.41496H14.1531H13.9239V4.43327H14.1531ZM14.1531 3.41496V3.1858H5.6714V3.41496V3.64411H14.1531V3.41496ZM5.6714 3.41496H5.44224V4.43182H5.6714H5.90055V3.41496H5.6714ZM5.6714 4.43182L5.44227 4.42797C5.43906 4.6192 5.36367 4.79974 5.23495 4.93121L5.39869 5.09153L5.56243 5.25185C5.77491 5.03483 5.89538 4.74156 5.90052 4.43567L5.6714 4.43182ZM5.39869 5.09153L5.23495 4.93121C5.10651 5.06239 4.93552 5.13425 4.75929 5.13425V5.36341V5.59256C5.06143 5.59256 5.34967 5.46915 5.56243 5.25185L5.39869 5.09153ZM4.75929 5.36341V5.13425C4.58306 5.13425 4.41207 5.06239 4.28363 4.93121L4.11989 5.09153L3.95615 5.25185C4.16891 5.46915 4.45715 5.59256 4.75929 5.59256V5.36341ZM4.11989 5.09153L4.28363 4.93121C4.15491 4.79974 4.07952 4.6192 4.07631 4.42797L3.84718 4.43182L3.61806 4.43567C3.6232 4.74156 3.74367 5.03483 3.95615 5.25185L4.11989 5.09153ZM3.84718 4.43182H4.07634V3.41496H3.84718H3.61803V4.43182H3.84718ZM3.84718 3.41496V3.1858H2.66485V3.41496V3.64411H3.84718V3.41496ZM2.66485 3.41496L2.66406 3.1858C2.37979 3.18678 2.1093 3.30466 1.91107 3.51068L2.07621 3.66956L2.24134 3.82844C2.35547 3.70983 2.50819 3.64465 2.66564 3.64411L2.66485 3.41496ZM2.07621 3.66956L1.91107 3.51068C1.71314 3.7164 1.603 3.99334 1.60208 4.28063L1.83124 4.28136L2.0604 4.28209C2.06094 4.11028 2.12693 3.94735 2.24134 3.82844L2.07621 3.66956ZM1.83124 4.28136L1.60208 4.28126L1.60097 6.87353L1.83013 6.87363L2.05928 6.87373L2.0604 4.28145L1.83124 4.28136ZM13.619 13.205V13.4342H16.0993V13.205V12.9758H13.619V13.205ZM16.0993 13.205L16.0986 13.4341C16.1536 13.4343 16.2082 13.4571 16.2498 13.5005L16.4152 13.3419L16.5806 13.1833C16.4548 13.0521 16.2822 12.9764 16.1 12.9758L16.0993 13.205ZM16.4152 13.3419L16.2501 13.5008L16.2515 13.5022L16.4166 13.3433L16.5817 13.1844L16.5804 13.183L16.4152 13.3419ZM16.4166 13.3433L16.2515 13.5023C16.2937 13.546 16.3189 13.6071 16.3192 13.6726L16.5483 13.6717L16.7775 13.6708C16.7767 13.4898 16.7073 13.3149 16.5817 13.1844L16.4166 13.3433ZM16.5483 13.6717H16.3192V15.9243H16.5483H16.7775V13.6717H16.5483ZM16.5483 15.9243L16.3192 15.9237C16.319 15.9895 16.2937 16.0508 16.2515 16.0947L16.4166 16.2536L16.5818 16.4124C16.7076 16.2816 16.777 16.1062 16.7775 15.925L16.5483 15.9243ZM16.4166 16.2536V16.0244H16.4152V16.2536V16.4827H16.4166V16.2536ZM16.4152 16.2536L16.2499 16.0949C16.2083 16.1382 16.1538 16.1609 16.0989 16.161L16.0993 16.3902L16.0997 16.6193C16.2819 16.619 16.4547 16.5434 16.5806 16.4122L16.4152 16.2536ZM16.0993 16.3902V16.161H13.619V16.3902V16.6193H16.0993V16.3902ZM13.619 16.3902L13.6194 16.161C13.5645 16.1609 13.51 16.1382 13.4684 16.0949L13.3031 16.2536L13.1377 16.4122C13.2636 16.5434 13.4364 16.619 13.6186 16.6193L13.619 16.3902ZM13.3031 16.2536V16.0244H13.3014V16.2536V16.4827H13.3031V16.2536ZM13.3014 16.2536L13.4667 16.0948C13.4245 16.0509 13.3993 15.9896 13.3991 15.9239L13.17 15.9243L12.9408 15.9248C12.9412 16.106 13.0105 16.2815 13.1362 16.4123L13.3014 16.2536ZM13.17 15.9243H13.3991V13.6717H13.17H12.9408V15.9243H13.17ZM13.17 13.6717L13.3991 13.6727C13.3994 13.6076 13.4245 13.5469 13.4664 13.5035L13.3014 13.3445L13.1364 13.1854C13.011 13.3156 12.9416 13.4901 12.9408 13.6707L13.17 13.6717ZM13.3014 13.3445L13.4514 13.5177L13.4531 13.5163L13.3031 13.343L13.1531 13.1698L13.1514 13.1713L13.3014 13.3445ZM13.3031 13.343L13.4683 13.5018C13.5101 13.4584 13.5648 13.4355 13.62 13.4353L13.619 13.2062L13.6181 12.977C13.4361 12.9777 13.2637 13.0533 13.1379 13.1843L13.3031 13.343ZM16.0365 13.7375V13.5084H13.6813V13.7375V13.9667H16.0365V13.7375ZM13.6813 13.7375H13.4521V15.862H13.6813H13.9104V13.7375H13.6813ZM13.6813 15.862V16.0911H16.037V15.862V15.6328H13.6813V15.862ZM16.037 15.862L16.2662 15.8619L16.2656 13.7375L16.0365 13.7375L15.8073 13.7376L15.8079 15.862L16.037 15.862ZM13.619 8.97638V9.20554H16.0993V8.97638V8.74722H13.619V8.97638ZM16.0993 8.97638L16.0991 9.20554C16.1546 9.20557 16.2096 9.2284 16.2516 9.27204L16.4167 9.11316L16.5819 8.95428C16.4555 8.82291 16.2821 8.74734 16.0994 8.74722L16.0993 8.97638ZM16.4167 9.11316L16.2516 9.27204C16.2939 9.31599 16.3191 9.3774 16.3192 9.44322L16.5483 9.44308L16.7775 9.44295C16.7774 9.26125 16.708 9.08534 16.5819 8.95428L16.4167 9.11316ZM16.5483 9.44308H16.3192V11.6957H16.5483H16.7775V9.44308H16.5483ZM16.5483 11.6957L16.3192 11.6951C16.319 11.7607 16.2937 11.8219 16.2515 11.8657L16.4166 12.0247L16.5817 12.1836C16.7075 12.0529 16.777 11.8776 16.7775 11.6964L16.5483 11.6957ZM16.4166 12.0247V11.7955H16.4152V12.0247V12.2538H16.4166V12.0247ZM16.4152 12.0247L16.2501 11.8657C16.2295 11.8871 16.2055 11.9036 16.1798 11.9147L16.2703 12.1252L16.3607 12.3358C16.4434 12.3003 16.5179 12.2484 16.5803 12.1836L16.4152 12.0247ZM16.2703 12.1252L16.1798 11.9147C16.1541 11.9257 16.1268 11.9313 16.0995 11.9312L16.0993 12.1604L16.099 12.3896C16.1891 12.3897 16.278 12.3713 16.3607 12.3358L16.2703 12.1252ZM16.0993 12.1604V11.9312H13.619V12.1604V12.3896H16.0993V12.1604ZM13.619 12.1604L13.6189 11.9312C13.5913 11.9313 13.5637 11.9256 13.5377 11.9145L13.4472 12.125L13.3567 12.3355C13.4396 12.3712 13.5289 12.3896 13.6192 12.3896L13.619 12.1604ZM13.4472 12.125L13.5377 11.9145C13.5117 11.9033 13.4874 11.8866 13.4666 11.865L13.3015 12.0239L13.1364 12.1828C13.199 12.2478 13.2738 12.2999 13.3567 12.3355L13.4472 12.125ZM13.3015 12.0239L13.4666 11.865C13.4458 11.8433 13.4288 11.8171 13.417 11.7877L13.2042 11.8725L12.9913 11.9574C13.0247 12.0412 13.0739 12.1179 13.1364 12.1828L13.3015 12.0239ZM13.2042 11.8725L13.417 11.7877C13.4053 11.7582 13.3991 11.7264 13.3991 11.694H13.17H12.9408C12.9408 11.7842 12.9579 11.8737 12.9913 11.9574L13.2042 11.8725ZM13.17 11.694H13.3991V9.44135H13.17H12.9408V11.694H13.17ZM13.17 9.44135L13.3991 9.44201C13.3993 9.37618 13.4246 9.31477 13.4668 9.2707L13.3014 9.11212L13.136 8.95353C13.0106 9.08438 12.9413 9.25961 12.9408 9.44069L13.17 9.44135ZM13.3014 9.11212L13.4665 9.271L13.4682 9.26927L13.3031 9.11038L13.1379 8.9515L13.1363 8.95323L13.3014 9.11212ZM13.3031 9.11038L13.4674 9.27012C13.5095 9.22677 13.5645 9.20402 13.6199 9.2038L13.619 8.97465L13.6181 8.74549C13.4368 8.7462 13.2649 8.82093 13.1388 8.95065L13.3031 9.11038ZM16.0365 9.50517V9.27602H13.6813V9.50517V9.73433H16.0365V9.50517ZM13.6813 9.50517H13.4521V11.6302H13.6813H13.9104V9.50517H13.6813ZM13.6813 11.6302V11.8593H16.037V11.6302V11.401H13.6813V11.6302ZM16.037 11.6302L16.2662 11.6301L16.2656 9.50511L16.0365 9.50517L15.8073 9.50523L15.8079 11.6302L16.037 11.6302ZM3.7252 13.205V13.4342H6.20463V13.205V12.9758H3.7252V13.205ZM6.20463 13.205L6.20395 13.4341C6.25936 13.4343 6.31432 13.4572 6.35629 13.5008L6.5214 13.3419L6.68651 13.183C6.56038 13.0519 6.38758 12.9764 6.20531 12.9758L6.20463 13.205ZM6.5214 13.3419H6.29224V13.3433H6.5214H6.75056V13.3419H6.5214ZM6.5214 13.3433L6.35674 13.5027C6.399 13.5464 6.42441 13.6074 6.42479 13.673L6.65394 13.6717L6.8831 13.6704C6.88204 13.4892 6.81215 13.3142 6.68606 13.184L6.5214 13.3433ZM6.65394 13.6717H6.42479V15.9243H6.65394H6.8831V13.6717H6.65394ZM6.65394 15.9243L6.42479 15.9238C6.42471 15.9561 6.41849 15.9879 6.4067 16.0172L6.61934 16.1026L6.83198 16.1881C6.86557 16.1044 6.88288 16.015 6.8831 15.9249L6.65394 15.9243ZM6.61934 16.1026L6.4067 16.0172C6.39491 16.0466 6.3779 16.0726 6.35704 16.0942L6.52168 16.2536L6.68631 16.413C6.74902 16.3482 6.79837 16.2717 6.83198 16.1881L6.61934 16.1026ZM6.52168 16.2536L6.35663 16.0946C6.3147 16.1381 6.25981 16.1609 6.2045 16.161L6.20491 16.3902L6.20532 16.6193C6.38763 16.619 6.56053 16.5436 6.68673 16.4125L6.52168 16.2536ZM6.20491 16.3902V16.161H3.7252V16.3902V16.6193H6.20491V16.3902ZM3.7252 16.3902L3.72561 16.161C3.67029 16.1609 3.6154 16.1381 3.57348 16.0946L3.40843 16.2536L3.24338 16.4125C3.36957 16.5436 3.54247 16.619 3.72479 16.6193L3.7252 16.3902ZM3.40843 16.2536L3.57385 16.095C3.5316 16.0509 3.50634 15.9895 3.50615 15.9237L3.27699 15.9243L3.04784 15.925C3.04836 16.1061 3.11757 16.2813 3.24301 16.4122L3.40843 16.2536ZM3.27699 15.9243H3.50615V13.6717H3.27699H3.04784V15.9243H3.27699ZM3.27699 13.6717L3.50615 13.6725C3.50638 13.6073 3.53138 13.5466 3.57315 13.5029L3.40759 13.3445L3.24204 13.186C3.11732 13.3163 3.04848 13.4907 3.04784 13.6709L3.27699 13.6717ZM3.40759 13.3445L3.5576 13.5177L3.55927 13.5163L3.40926 13.343L3.25925 13.1698L3.25758 13.1713L3.40759 13.3445ZM3.40926 13.343L3.57449 13.5018C3.61626 13.4584 3.67097 13.4355 3.72614 13.4353L3.7252 13.2062L3.72426 12.977C3.54228 12.9777 3.36984 13.0533 3.24403 13.1843L3.40926 13.343ZM6.14266 13.7375V13.5084H3.78661V13.7375V13.9667H6.14266V13.7375ZM3.78661 13.7375H3.55745V15.862H3.78661H4.01576V13.7375H3.78661ZM3.78661 15.862V16.0911H6.14322V15.862V15.6328H3.78661V15.862ZM6.14322 15.862L6.37238 15.8619L6.37182 13.7375L6.14266 13.7375L5.91351 13.7376L5.91406 15.862L6.14322 15.862ZM8.67128 13.2062V13.4353H11.151V13.2062V12.977H8.67128V13.2062ZM11.151 13.2062L11.15 13.4353C11.2055 13.4355 11.2604 13.4585 11.3025 13.5021L11.4675 13.343L11.6325 13.184C11.5064 13.0533 11.334 12.9778 11.152 12.977L11.151 13.2062ZM11.4675 13.343L11.3175 13.5163L11.3191 13.5177L11.4691 13.3445L11.6192 13.1713L11.6175 13.1698L11.4675 13.343ZM11.4691 13.3445L11.3031 13.5024C11.3452 13.5467 11.3703 13.608 11.3706 13.6738L11.5997 13.6728L11.8289 13.6719C11.8282 13.4917 11.7595 13.3173 11.6352 13.1865L11.4691 13.3445ZM11.5997 13.6728H11.3706V15.9255H11.5997H11.8289V13.6728H11.5997ZM11.5997 15.9255L11.3706 15.9251C11.3705 15.9908 11.3452 16.0521 11.3031 16.096L11.4683 16.2547L11.6336 16.4135C11.7593 16.2826 11.8286 16.1072 11.8289 15.9259L11.5997 15.9255ZM11.4683 16.2547L11.3034 16.0956C11.2614 16.1392 11.2065 16.162 11.1511 16.1622L11.1518 16.3913L11.1526 16.6205C11.3346 16.6199 11.5071 16.5445 11.6332 16.4138L11.4683 16.2547ZM11.1518 16.3913V16.1622H8.67239V16.3913V16.6205H11.1518V16.3913ZM8.67239 16.3913L8.67268 16.1622C8.61712 16.1621 8.56198 16.1392 8.51987 16.0955L8.35484 16.2545L8.1898 16.4135C8.31623 16.5447 8.48946 16.6203 8.67209 16.6205L8.67239 16.3913ZM8.35484 16.2545L8.51987 16.0955C8.47748 16.0515 8.45211 15.99 8.45195 15.9241L8.22279 15.9246L7.99364 15.9252C7.99407 16.1068 8.06366 16.2825 8.1898 16.4135L8.35484 16.2545ZM8.22279 15.9246H8.45195V13.672H8.22279H7.99364V15.9246H8.22279ZM8.22279 13.672L8.45195 13.6728C8.45218 13.6068 8.4776 13.5453 8.52003 13.5013L8.355 13.3423L8.18996 13.1833C8.06392 13.3141 7.99428 13.4897 7.99364 13.6712L8.22279 13.672ZM8.355 13.3423L8.52003 13.5013C8.56218 13.4575 8.61735 13.4346 8.67297 13.4344L8.67239 13.2053L8.6718 12.9761C8.48932 12.9766 8.31629 13.0522 8.18996 13.1833L8.355 13.3423ZM11.0899 13.7367V13.5075H8.7338V13.7367V13.9658H11.0899V13.7367ZM8.7338 13.7367H8.50464V15.8611H8.7338H8.96295V13.7367H8.7338ZM8.7338 15.8611V16.0902H11.0907V15.8611V15.6319H8.7338V15.8611ZM11.0907 15.8611L11.3198 15.861L11.319 13.7366L11.0899 13.7367L10.8607 13.7368L10.8615 15.8612L11.0907 15.8611ZM8.73796 8.97523V9.20438H11.2174V8.97523V8.74607H8.73796V8.97523ZM11.2174 8.97523L11.2172 9.20438C11.2727 9.20442 11.3277 9.22724 11.3697 9.27089L11.5348 9.112L11.7 8.95312C11.5736 8.82175 11.4002 8.74619 11.2175 8.74607L11.2174 8.97523ZM11.5348 9.112L11.3697 9.27089C11.412 9.31484 11.4372 9.37625 11.4373 9.44206L11.6664 9.44193L11.8956 9.44179C11.8955 9.2601 11.8261 9.08419 11.7 8.95312L11.5348 9.112ZM11.6664 9.44193H11.4373V11.6946H11.6664H11.8956V9.44193H11.6664ZM11.6664 11.6946L11.4373 11.6939C11.4371 11.7596 11.4118 11.8208 11.3696 11.8646L11.5347 12.0235L11.6998 12.1825C11.8256 12.0518 11.8951 11.8764 11.8956 11.6952L11.6664 11.6946ZM11.5347 12.0235L11.3697 11.8645C11.3278 11.908 11.2728 11.9308 11.2175 11.931L11.218 12.1601L11.2184 12.3893C11.4007 12.3889 11.5735 12.3135 11.6997 12.1825L11.5347 12.0235ZM11.218 12.1601V11.931H8.73796V12.1601V12.3893H11.218V12.1601ZM8.73796 12.1601L8.73737 11.931C8.70975 11.931 8.68216 11.9254 8.6561 11.9143L8.56589 12.1249L8.47568 12.3356C8.55877 12.3712 8.64813 12.3895 8.73855 12.3893L8.73796 12.1601ZM8.56589 12.1249L8.6561 11.9143C8.63003 11.9031 8.60573 11.8865 8.58486 11.8648L8.41993 12.0239L8.25499 12.183C8.31769 12.248 8.39261 12.3 8.47568 12.3356L8.56589 12.1249ZM8.41993 12.0239L8.58486 11.8648C8.56397 11.8432 8.54695 11.817 8.53518 11.7875L8.32236 11.8725L8.10954 11.9574C8.14301 12.0413 8.1923 12.118 8.25499 12.183L8.41993 12.0239ZM8.32236 11.8725L8.53518 11.7875C8.52341 11.758 8.51725 11.7261 8.51725 11.6937H8.28809L8.05894 11.6937C8.05894 11.784 8.07606 11.8736 8.10954 11.9574L8.32236 11.8725ZM8.28809 11.6937H8.51725V9.44106H8.28809H8.05894V11.6937H8.28809ZM8.28809 9.44106L8.51725 9.44172C8.51744 9.37589 8.5427 9.31448 8.58495 9.27041L8.41953 9.11183L8.25411 8.95324C8.12867 9.08409 8.05946 9.25932 8.05894 9.4404L8.28809 9.44106ZM8.41953 9.11183L8.58466 9.27071L8.58633 9.26898L8.42119 9.1101L8.25606 8.95121L8.25439 8.95295L8.41953 9.11183ZM8.42119 9.1101L8.58542 9.26992C8.62773 9.22644 8.68291 9.20365 8.73853 9.20352L8.73796 8.97436L8.73739 8.7452C8.55575 8.74566 8.38338 8.82037 8.25697 8.95028L8.42119 9.1101ZM11.1554 9.50489V9.27573H8.79937V9.50489V9.73404H11.1554V9.50489ZM8.79937 9.50489H8.57022V11.6299H8.79937H9.02853V9.50489H8.79937ZM8.79937 11.6299V11.859H11.1554V11.6299V11.4007H8.79937V11.6299ZM11.1554 11.6299H11.3846V9.50489H11.1554H10.9263V11.6299H11.1554ZM3.8558 8.97523V9.20438H6.33551V8.97523V8.74607H3.8558V8.97523ZM6.33551 8.97523L6.33536 9.20438C6.39079 9.20442 6.44581 9.22724 6.48781 9.27089L6.65294 9.112L6.81807 8.95312C6.69168 8.82175 6.51836 8.74619 6.33565 8.74607L6.33551 8.97523ZM6.65294 9.112L6.48781 9.27089C6.53009 9.31484 6.55535 9.37625 6.55539 9.44206L6.78454 9.44193L7.0137 9.44179C7.01359 9.2601 6.94418 9.08419 6.81807 8.95312L6.65294 9.112ZM6.78454 9.44193H6.55539V11.6946H6.78454H7.0137V9.44193H6.78454ZM6.78454 11.6946L6.55539 11.6946C6.55539 11.7602 6.53034 11.8215 6.48831 11.8654L6.65394 12.0238L6.81958 12.1822C6.94487 12.0511 7.01372 11.8757 7.0137 11.6945L6.78454 11.6946ZM6.65394 12.0238L6.48877 11.865C6.4679 11.8867 6.4436 11.9034 6.41751 11.9145L6.50785 12.1251L6.59819 12.3357C6.68139 12.3001 6.75639 12.2479 6.81912 12.1826L6.65394 12.0238ZM6.50785 12.1251L6.41751 11.9145C6.39143 11.9257 6.36381 11.9313 6.33616 11.9312L6.33551 12.1604L6.33485 12.3896C6.42544 12.3898 6.51496 12.3714 6.59819 12.3357L6.50785 12.1251ZM6.33551 12.1604V11.9312H3.8558V12.1604V12.3896H6.33551V12.1604ZM3.8558 12.1604L3.85609 11.9312C3.80055 11.9312 3.74543 11.9083 3.70333 11.8646L3.53834 12.0237L3.37336 12.1827C3.49977 12.3139 3.67295 12.3893 3.8555 12.3896L3.8558 12.1604ZM3.53834 12.0237L3.70333 11.8646C3.66094 11.8207 3.63556 11.7592 3.63536 11.6933L3.4062 11.694L3.17705 11.6947C3.17759 11.8762 3.24723 12.0519 3.37336 12.1827L3.53834 12.0237ZM3.4062 11.694H3.63536V9.44135H3.4062H3.17705V11.694H3.4062ZM3.4062 9.44135L3.63536 9.44186C3.63543 9.40957 3.64164 9.37781 3.65343 9.34847L3.44079 9.26304L3.22815 9.17762C3.19454 9.26126 3.17725 9.35069 3.17705 9.44084L3.4062 9.44135ZM3.44079 9.26304L3.65343 9.34847C3.66521 9.31914 3.68222 9.29308 3.70307 9.27156L3.53847 9.11212L3.37387 8.95268C3.31114 9.01744 3.26176 9.09395 3.22815 9.17762L3.44079 9.26304ZM3.53847 9.11212L3.7036 9.271L3.70527 9.26927L3.54014 9.11038L3.375 8.9515L3.37334 8.95323L3.53847 9.11212ZM3.54014 9.11038L3.70493 9.26962C3.74664 9.22645 3.80118 9.20388 3.85611 9.20381L3.8558 8.97465L3.85548 8.74549C3.67375 8.74574 3.50134 8.82076 3.37534 8.95115L3.54014 9.11038ZM6.27326 9.50517V9.27602H3.91748V9.50517V9.73433H6.27326V9.50517ZM3.91748 9.50517H3.68833V11.6302H3.91748H4.14664V9.50517H3.91748ZM3.91748 11.6302V11.8593H6.2741V11.6302V11.401H3.91748V11.6302ZM6.2741 11.6302L6.50325 11.6301L6.50242 9.50508L6.27326 9.50517L6.0441 9.50526L6.04494 11.6303L6.2741 11.6302ZM15.466 3.14984H15.6952V2.10438H15.466H15.2369V3.14984H15.466ZM15.466 2.10438H15.6952C15.6952 1.93587 15.6309 1.77257 15.5137 1.65082L15.3486 1.8097L15.1834 1.96859C15.2167 2.00315 15.2369 2.05184 15.2369 2.10438H15.466ZM15.3486 1.8097L15.5137 1.65082C15.3963 1.52877 15.2351 1.45849 15.0651 1.45849V1.68764V1.9168C15.1077 1.9168 15.1505 1.93433 15.1834 1.96859L15.3486 1.8097ZM15.0651 1.68764V1.45849C14.895 1.45849 14.7338 1.52877 14.6164 1.65082L14.7815 1.8097L14.9467 1.96859C14.9796 1.93433 15.0224 1.9168 15.0651 1.9168V1.68764ZM14.7815 1.8097L14.6164 1.65082C14.4993 1.77257 14.4349 1.93587 14.4349 2.10438H14.6641H14.8932C14.8932 2.05184 14.9134 2.00315 14.9467 1.96859L14.7815 1.8097ZM14.6641 2.10438H14.4349V4.43182H14.6641H14.8932V2.10438H14.6641ZM14.6641 4.43182H14.4349C14.4349 4.60033 14.4993 4.76364 14.6164 4.88538L14.7815 4.7265L14.9467 4.56762C14.9134 4.53306 14.8932 4.48436 14.8932 4.43182H14.6641ZM14.7815 4.7265L14.6164 4.88538C14.7338 5.00743 14.895 5.07772 15.0651 5.07772V4.84856V4.6194C15.0224 4.6194 14.9796 4.60188 14.9467 4.56762L14.7815 4.7265ZM15.0651 4.84856V5.07772C15.2351 5.07772 15.3963 5.00743 15.5137 4.88538L15.3486 4.7265L15.1834 4.56762C15.1505 4.60188 15.1077 4.6194 15.0651 4.6194V4.84856ZM15.3486 4.7265L15.5137 4.88538C15.6309 4.76364 15.6952 4.60033 15.6952 4.43182H15.466H15.2369C15.2369 4.48436 15.2167 4.53306 15.1834 4.56762L15.3486 4.7265ZM15.466 4.43182H15.6952V3.14984H15.466H15.2369V4.43182H15.466ZM14.1531 2.88356H14.3822V2.1038H14.1531H13.9239V2.88356H14.1531ZM14.1531 2.1038H14.3822C14.3822 1.91048 14.4562 1.72677 14.5852 1.59267L14.4201 1.43378L14.255 1.2749C14.0421 1.49619 13.9239 1.79451 13.9239 2.1038H14.1531ZM14.4201 1.43378L14.5852 1.59267C14.714 1.45886 14.8867 1.38541 15.0648 1.38541V1.15625V0.927093C14.7593 0.927093 14.4682 1.0533 14.255 1.2749L14.4201 1.43378ZM15.0648 1.15625V1.38541C15.2429 1.38541 15.4156 1.45886 15.5443 1.59267L15.7094 1.43378L15.8746 1.2749C15.6614 1.0533 15.3703 0.927093 15.0648 0.927093V1.15625ZM15.7094 1.43378L15.5443 1.59267C15.6733 1.72677 15.7473 1.91048 15.7473 2.1038H15.9765H16.2056C16.2056 1.79451 16.0875 1.49619 15.8746 1.2749L15.7094 1.43378ZM15.9765 2.1038H15.7473V2.88356H15.9765H16.2056V2.1038H15.9765ZM15.9765 2.88356V3.11272H17.1596V2.88356V2.65441H15.9765V2.88356ZM17.1596 2.88356L17.1589 3.11272C17.4522 3.1136 17.7351 3.23501 17.9452 3.45345L18.1104 3.29459L18.2755 3.13572C17.9812 2.8298 17.5805 2.65566 17.1603 2.65441L17.1596 2.88356ZM18.1104 3.29459L17.9452 3.45345C18.1556 3.6722 18.2757 3.97042 18.2765 4.28339L18.5056 4.2828L18.7348 4.28221C18.7337 3.85369 18.5695 3.44135 18.2755 3.13572L18.1104 3.29459ZM18.5056 4.2828H18.2765V16.9455H18.5056H18.7348V4.2828H18.5056ZM18.5056 16.9455L18.2765 16.9454C18.2764 17.0999 18.2469 17.2528 18.1899 17.395L18.4027 17.4802L18.6154 17.5654C18.6941 17.3688 18.7346 17.1582 18.7348 16.9457L18.5056 16.9455ZM18.4027 17.4802L18.1899 17.395C18.133 17.5373 18.0498 17.6658 17.9455 17.7736L18.1102 17.9329L18.2749 18.0923C18.4211 17.9412 18.5366 17.7621 18.6154 17.5654L18.4027 17.4802ZM18.1102 17.9329L17.9448 17.7744C17.8411 17.8826 17.7183 17.968 17.5838 18.0261L17.6747 18.2365L17.7656 18.4468C17.957 18.3641 18.1302 18.2432 18.2757 18.0915L18.1102 17.9329ZM17.6747 18.2365L17.5838 18.0261C17.4493 18.0842 17.3054 18.1141 17.1603 18.1142L17.1605 18.3433L17.1606 18.5725C17.3685 18.5723 17.5741 18.5295 17.7656 18.4468L17.6747 18.2365ZM17.1605 18.3433V18.1142H2.66485V18.3433V18.5725H17.1605V18.3433ZM2.66485 18.3433L2.66492 18.1142C2.51984 18.1141 2.37598 18.0843 2.24149 18.0262L2.1506 18.2366L2.0597 18.4469C2.25119 18.5297 2.45684 18.5724 2.66477 18.5725L2.66485 18.3433ZM2.1506 18.2366L2.24149 18.0262C2.10699 17.9681 1.98426 17.8827 1.88058 17.7744L1.71509 17.9329L1.54959 18.0914C1.69497 18.2432 1.86824 18.3642 2.0597 18.4469L2.1506 18.2366ZM1.71509 17.9329L1.87966 17.7735C1.77528 17.6658 1.69195 17.5372 1.63488 17.395L1.4222 17.4803L1.20953 17.5657C1.28845 17.7623 1.40419 17.9414 1.55052 18.0924L1.71509 17.9329ZM1.4222 17.4803L1.63488 17.395C1.57779 17.2527 1.5482 17.0999 1.548 16.9452L1.31885 16.9455L1.08969 16.9458C1.08996 17.1584 1.13062 17.369 1.20953 17.5657L1.4222 17.4803ZM1.31885 16.9455H1.548V4.2828H1.31885H1.08969V16.9455H1.31885ZM1.31885 4.2828L1.548 4.28275C1.54797 4.12802 1.57739 3.97501 1.63435 3.83259L1.42158 3.74749L1.20882 3.66238C1.13006 3.85927 1.08965 4.07011 1.08969 4.28285L1.31885 4.2828ZM1.42158 3.74749L1.63435 3.83259C1.69131 3.69018 1.77458 3.56145 1.87895 3.45358L1.71426 3.29424L1.54956 3.1349C1.40324 3.28614 1.28757 3.46548 1.20882 3.66238L1.42158 3.74749ZM1.71426 3.29424L1.87993 3.45256C1.98349 3.34419 2.10617 3.25868 2.24065 3.20049L2.14965 2.99018L2.05864 2.77986C1.86713 2.86273 1.69387 2.98389 1.54859 3.13591L1.71426 3.29424ZM2.14965 2.99018L2.24065 3.20049C2.37511 3.14231 2.51898 3.11247 2.66407 3.11243L2.66401 2.88328L2.66396 2.65412C2.45593 2.65417 2.25018 2.69698 2.05864 2.77986L2.14965 2.99018ZM2.66401 2.88328V3.11243H3.84746V2.88328V2.65412H2.66401V2.88328ZM3.84746 2.88328H4.07662V2.10351H3.84746H3.6183V2.88328H3.84746ZM3.84746 2.10351L4.07659 2.10736C4.0798 1.91614 4.15519 1.73559 4.28391 1.60412L4.12017 1.44381L3.95642 1.28349C3.74395 1.5005 3.62347 1.79378 3.61834 2.09967L3.84746 2.10351ZM4.12017 1.44381L4.28391 1.60412C4.41235 1.47294 4.58334 1.40109 4.75957 1.40109V1.17193V0.942773C4.45743 0.942773 4.16918 1.06619 3.95642 1.28349L4.12017 1.44381ZM4.75957 1.17193V1.40109C4.9358 1.40109 5.10679 1.47294 5.23523 1.60412L5.39897 1.44381L5.56271 1.28349C5.34995 1.06619 5.06171 0.942773 4.75957 0.942773V1.17193ZM5.39897 1.44381L5.23523 1.60412C5.36395 1.73559 5.43934 1.91614 5.44255 2.10736L5.67167 2.10351L5.9008 2.09967C5.89566 1.79378 5.77519 1.5005 5.56271 1.28349L5.39897 1.44381ZM5.67167 2.10351H5.44252V2.88328H5.67167H5.90083V2.10351H5.67167ZM5.67167 2.88328L5.67167 3.11243L14.1531 3.11272L14.1531 2.88356L14.1531 2.65441L5.67168 2.65412L5.67167 2.88328ZM5.16039 3.14984H5.38955V2.10438H5.16039H4.93124V3.14984H5.16039ZM5.16039 2.10438H5.38955C5.38955 1.93587 5.32523 1.77257 5.20809 1.65082L5.04295 1.8097L4.87782 1.96859C4.91107 2.00315 4.93124 2.05184 4.93124 2.10438H5.16039ZM5.04295 1.8097L5.20809 1.65082C5.09066 1.52877 4.92946 1.45849 4.75943 1.45849V1.68764V1.9168C4.80208 1.9168 4.84486 1.93433 4.87782 1.96859L5.04295 1.8097ZM4.75943 1.68764V1.45849C4.58939 1.45849 4.4282 1.52877 4.31077 1.65082L4.4759 1.8097L4.64104 1.96859C4.674 1.93433 4.71678 1.9168 4.75943 1.9168V1.68764ZM4.4759 1.8097L4.31077 1.65082C4.19363 1.77257 4.12931 1.93587 4.12931 2.10438H4.35846H4.58762C4.58762 2.05184 4.60779 2.00315 4.64104 1.96859L4.4759 1.8097ZM4.35846 2.10438H4.12931V4.43182H4.35846H4.58762V2.10438H4.35846ZM4.35846 4.43182H4.12931C4.12931 4.60033 4.19363 4.76364 4.31077 4.88538L4.4759 4.7265L4.64104 4.56762C4.60779 4.53306 4.58762 4.48436 4.58762 4.43182H4.35846ZM4.4759 4.7265L4.31077 4.88538C4.4282 5.00743 4.58939 5.07772 4.75943 5.07772V4.84856V4.6194C4.71678 4.6194 4.674 4.60188 4.64104 4.56762L4.4759 4.7265ZM4.75943 4.84856V5.07772C4.92946 5.07772 5.09066 5.00743 5.20809 4.88538L5.04295 4.7265L4.87782 4.56762C4.84486 4.60188 4.80208 4.6194 4.75943 4.6194V4.84856ZM5.04295 4.7265L5.20809 4.88538C5.32523 4.76364 5.38955 4.60033 5.38955 4.43182H5.16039H4.93124C4.93124 4.48436 4.91107 4.53306 4.87782 4.56762L5.04295 4.7265ZM5.16039 4.43182H5.38955V3.14984H5.16039H4.93124V4.43182H5.16039ZM17.9944 7.40415V7.175H1.83013V7.40415V7.63331H17.9944V7.40415ZM1.83013 7.40415H1.60097V16.9455H1.83013H2.05928V7.40415H1.83013ZM1.83013 16.9455L1.60097 16.9463C1.60189 17.2336 1.71202 17.5105 1.90996 17.7162L2.0751 17.5573L2.24023 17.3984C2.12582 17.2795 2.05983 17.1166 2.05928 16.9448L1.83013 16.9455ZM2.0751 17.5573L1.90996 17.7162C2.10818 17.9222 2.37868 18.0401 2.66295 18.0411L2.66374 17.8119L2.66453 17.5828C2.50707 17.5822 2.35435 17.5171 2.24023 17.3984L2.0751 17.5573ZM2.66374 17.8119V18.0411H17.1596V17.8119V17.5828H2.66374V17.8119ZM17.1596 17.8119L17.1604 18.0411C17.4447 18.0401 17.7152 17.9222 17.9134 17.7162L17.7483 17.5573L17.5831 17.3984C17.469 17.5171 17.3163 17.5822 17.1588 17.5828L17.1596 17.8119ZM17.7483 17.5573L17.9134 17.7162C18.1113 17.5105 18.2215 17.2336 18.2224 16.9463L17.9932 16.9455L17.7641 16.9448C17.7635 17.1166 17.6976 17.2795 17.5831 17.3984L17.7483 17.5573ZM17.9932 16.9455L18.2224 16.9456L18.2235 7.40418L17.9944 7.40415L17.7652 7.40413L17.7641 16.9455L17.9932 16.9455Z" fill="#C4B581" mask="url(#path-2-outside-1_520_4544)"/>
</g>
</svg>
