<svg width="969" height="129" viewBox="0 0 969 129" fill="none" xmlns="http://www.w3.org/2000/svg">
<g clip-path="url(#clip0_3_2)">
<rect width="969" height="129" fill="black" fill-opacity="0.46"/>
<path opacity="0.14" d="M67.3951 92.24V124.8H35.0851C34.1485 118.935 31.3673 113.521 27.1452 109.344C22.9231 105.167 17.4797 102.444 11.605 101.57V69H43.915C44.8497 74.8668 47.63 80.2829 51.8523 84.462C56.0746 88.6412 61.519 91.3657 67.3951 92.24Z" stroke="#C4B681" stroke-width="3" stroke-miterlimit="10"/>
<path opacity="0.14" d="M197.395 92.24V124.8H165.085C164.148 118.935 161.367 113.521 157.145 109.344C152.923 105.167 147.48 102.444 141.605 101.57V69H173.915C174.85 74.8668 177.63 80.2829 181.852 84.462C186.075 88.6412 191.519 91.3657 197.395 92.24Z" stroke="#C4B681" stroke-width="3" stroke-miterlimit="10"/>
<path opacity="0.14" d="M327.395 92.24V124.8H295.085C294.148 118.935 291.367 113.521 287.145 109.344C282.923 105.167 277.48 102.444 271.605 101.57V69H303.915C304.85 74.8668 307.63 80.2829 311.852 84.462C316.075 88.6412 321.519 91.3657 327.395 92.24Z" stroke="#C4B681" stroke-width="3" stroke-miterlimit="10"/>
<path opacity="0.14" d="M457.395 92.24V124.8H425.085C424.148 118.935 421.367 113.521 417.145 109.344C412.923 105.167 407.48 102.444 401.605 101.57V69H433.915C434.85 74.8668 437.63 80.2829 441.852 84.462C446.075 88.6412 451.519 91.3657 457.395 92.24Z" stroke="#C4B681" stroke-width="3" stroke-miterlimit="10"/>
<path opacity="0.14" d="M587.395 92.24V124.8H555.085C554.148 118.935 551.367 113.521 547.145 109.344C542.923 105.167 537.48 102.444 531.605 101.57V69H563.915C564.85 74.8668 567.63 80.2829 571.852 84.462C576.075 88.6412 581.519 91.3657 587.395 92.24Z" stroke="#C4B681" stroke-width="3" stroke-miterlimit="10"/>
<path opacity="0.14" d="M717.395 92.24V124.8H685.085C684.148 118.935 681.367 113.521 677.145 109.344C672.923 105.167 667.48 102.444 661.605 101.57V69H693.915C694.85 74.8668 697.63 80.2829 701.852 84.462C706.075 88.6412 711.519 91.3657 717.395 92.24Z" stroke="#C4B681" stroke-width="3" stroke-miterlimit="10"/>
<path opacity="0.14" d="M847.395 92.24V124.8H815.085C814.148 118.935 811.367 113.521 807.145 109.344C802.923 105.167 797.48 102.444 791.605 101.57V69H823.915C824.85 74.8668 827.63 80.2829 831.852 84.462C836.075 88.6412 841.519 91.3657 847.395 92.24Z" stroke="#C4B681" stroke-width="3" stroke-miterlimit="10"/>
<path opacity="0.14" d="M977.395 92.24V124.8H945.085C944.148 118.935 941.367 113.521 937.145 109.344C932.923 105.167 927.48 102.444 921.605 101.57V69H953.915C954.85 74.8668 957.63 80.2829 961.852 84.462C966.075 88.6412 971.519 91.3657 977.395 92.24Z" stroke="#C4B681" stroke-width="3" stroke-miterlimit="10"/>
<path opacity="0.14" d="M75.605 36.5598L75.605 3.99981L107.915 3.99981C108.852 9.86477 111.633 15.2786 115.855 19.4558C120.077 23.633 125.52 26.356 131.395 27.2298L131.395 59.7998L99.0851 59.7998C98.1504 53.933 95.3701 48.5169 91.1478 44.3378C86.9255 40.1586 81.4811 37.4341 75.605 36.5598Z" stroke="#C4B681" stroke-width="3" stroke-miterlimit="10"/>
<path opacity="0.14" d="M205.605 36.5598L205.605 3.99981L237.915 3.99981C238.852 9.86477 241.633 15.2786 245.855 19.4558C250.077 23.633 255.52 26.356 261.395 27.2298L261.395 59.7998L229.085 59.7998C228.15 53.933 225.37 48.5169 221.148 44.3378C216.926 40.1586 211.481 37.4341 205.605 36.5598Z" stroke="#C4B681" stroke-width="3" stroke-miterlimit="10"/>
<path opacity="0.14" d="M335.605 36.5598L335.605 3.99981L367.915 3.99981C368.852 9.86477 371.633 15.2786 375.855 19.4558C380.077 23.633 385.52 26.356 391.395 27.2298L391.395 59.7998L359.085 59.7998C358.15 53.933 355.37 48.5169 351.148 44.3378C346.926 40.1586 341.481 37.4341 335.605 36.5598Z" stroke="#C4B681" stroke-width="3" stroke-miterlimit="10"/>
<path opacity="0.14" d="M465.605 36.5598L465.605 3.99981L497.915 3.99981C498.852 9.86477 501.633 15.2786 505.855 19.4558C510.077 23.633 515.52 26.356 521.395 27.2298L521.395 59.7998L489.085 59.7998C488.15 53.933 485.37 48.5169 481.148 44.3378C476.925 40.1586 471.481 37.4341 465.605 36.5598Z" stroke="#C4B681" stroke-width="3" stroke-miterlimit="10"/>
<path opacity="0.14" d="M595.605 36.5598L595.605 3.99981L627.915 3.99981C628.852 9.86477 631.633 15.2786 635.855 19.4558C640.077 23.633 645.52 26.356 651.395 27.2298L651.395 59.7998L619.085 59.7998C618.15 53.933 615.37 48.5169 611.148 44.3378C606.925 40.1586 601.481 37.4341 595.605 36.5598Z" stroke="#C4B681" stroke-width="3" stroke-miterlimit="10"/>
<path opacity="0.14" d="M725.605 36.5598L725.605 3.99981L757.915 3.99981C758.852 9.86477 761.633 15.2786 765.855 19.4558C770.077 23.633 775.52 26.356 781.395 27.2298L781.395 59.7998L749.085 59.7998C748.15 53.933 745.37 48.5169 741.148 44.3378C736.925 40.1586 731.481 37.4341 725.605 36.5598Z" stroke="#C4B681" stroke-width="3" stroke-miterlimit="10"/>
<path opacity="0.14" d="M855.605 36.5598L855.605 3.99981L887.915 3.99981C888.852 9.86477 891.633 15.2786 895.855 19.4558C900.077 23.633 905.52 26.356 911.395 27.2298L911.395 59.7998L879.085 59.7998C878.15 53.933 875.37 48.5169 871.148 44.3378C866.925 40.1586 861.481 37.4341 855.605 36.5598Z" stroke="#C4B681" stroke-width="3" stroke-miterlimit="10"/>
<path opacity="0.14" d="M75.605 92.24V124.8H107.915C108.852 118.935 111.633 113.521 115.855 109.344C120.077 105.167 125.52 102.444 131.395 101.57V69H99.0851C98.1504 74.8668 95.3701 80.2829 91.1478 84.462C86.9255 88.6412 81.4811 91.3657 75.605 92.24Z" stroke="#C4B681" stroke-width="3" stroke-miterlimit="10"/>
<path opacity="0.14" d="M205.605 92.24V124.8H237.915C238.852 118.935 241.633 113.521 245.855 109.344C250.077 105.167 255.52 102.444 261.395 101.57V69H229.085C228.15 74.8668 225.37 80.2829 221.148 84.462C216.926 88.6412 211.481 91.3657 205.605 92.24Z" stroke="#C4B681" stroke-width="3" stroke-miterlimit="10"/>
<path opacity="0.14" d="M335.605 92.24V124.8H367.915C368.852 118.935 371.633 113.521 375.855 109.344C380.077 105.167 385.52 102.444 391.395 101.57V69H359.085C358.15 74.8668 355.37 80.2829 351.148 84.462C346.926 88.6412 341.481 91.3657 335.605 92.24Z" stroke="#C4B681" stroke-width="3" stroke-miterlimit="10"/>
<path opacity="0.14" d="M465.605 92.24V124.8H497.915C498.852 118.935 501.633 113.521 505.855 109.344C510.077 105.167 515.52 102.444 521.395 101.57V69H489.085C488.15 74.8668 485.37 80.2829 481.148 84.462C476.925 88.6412 471.481 91.3657 465.605 92.24Z" stroke="#C4B681" stroke-width="3" stroke-miterlimit="10"/>
<path opacity="0.14" d="M595.605 92.24V124.8H627.915C628.852 118.935 631.633 113.521 635.855 109.344C640.077 105.167 645.52 102.444 651.395 101.57V69H619.085C618.15 74.8668 615.37 80.2829 611.148 84.462C606.925 88.6412 601.481 91.3657 595.605 92.24Z" stroke="#C4B681" stroke-width="3" stroke-miterlimit="10"/>
<path opacity="0.14" d="M725.605 92.24V124.8H757.915C758.852 118.935 761.633 113.521 765.855 109.344C770.077 105.167 775.52 102.444 781.395 101.57V69H749.085C748.15 74.8668 745.37 80.2829 741.148 84.462C736.925 88.6412 731.481 91.3657 725.605 92.24Z" stroke="#C4B681" stroke-width="3" stroke-miterlimit="10"/>
<path opacity="0.14" d="M855.605 92.24V124.8H887.915C888.852 118.935 891.633 113.521 895.855 109.344C900.077 105.167 905.52 102.444 911.395 101.57V69H879.085C878.15 74.8668 875.37 80.2829 871.148 84.462C866.925 88.6412 861.481 91.3657 855.605 92.24Z" stroke="#C4B681" stroke-width="3" stroke-miterlimit="10"/>
<path opacity="0.14" d="M67.3951 36.5598L67.3951 3.99982L35.0851 3.99982C34.1485 9.86477 31.3673 15.2787 27.1452 19.4558C22.9231 23.633 17.4797 26.356 11.605 27.2298L11.605 59.7998L43.915 59.7998C44.8497 53.933 47.63 48.5169 51.8523 44.3378C56.0746 40.1587 61.519 37.4341 67.3951 36.5598Z" stroke="#C4B681" stroke-width="3" stroke-miterlimit="10"/>
<path opacity="0.14" d="M197.395 36.5598L197.395 3.99982L165.085 3.99982C164.148 9.86477 161.367 15.2787 157.145 19.4558C152.923 23.633 147.48 26.356 141.605 27.2298L141.605 59.7998L173.915 59.7998C174.85 53.933 177.63 48.5169 181.852 44.3378C186.075 40.1587 191.519 37.4341 197.395 36.5598Z" stroke="#C4B681" stroke-width="3" stroke-miterlimit="10"/>
<path opacity="0.14" d="M327.395 36.5598L327.395 3.99982L295.085 3.99982C294.148 9.86477 291.367 15.2787 287.145 19.4558C282.923 23.633 277.48 26.356 271.605 27.2298L271.605 59.7998L303.915 59.7998C304.85 53.933 307.63 48.5169 311.852 44.3378C316.075 40.1587 321.519 37.4341 327.395 36.5598Z" stroke="#C4B681" stroke-width="3" stroke-miterlimit="10"/>
<path opacity="0.14" d="M457.395 36.5598L457.395 3.99982L425.085 3.99982C424.148 9.86477 421.367 15.2787 417.145 19.4558C412.923 23.633 407.48 26.356 401.605 27.2298L401.605 59.7998L433.915 59.7998C434.85 53.933 437.63 48.5169 441.852 44.3378C446.075 40.1587 451.519 37.4341 457.395 36.5598Z" stroke="#C4B681" stroke-width="3" stroke-miterlimit="10"/>
<path opacity="0.14" d="M587.395 36.5598L587.395 3.99982L555.085 3.99982C554.148 9.86477 551.367 15.2787 547.145 19.4558C542.923 23.633 537.48 26.356 531.605 27.2298L531.605 59.7998L563.915 59.7998C564.85 53.933 567.63 48.5169 571.852 44.3378C576.075 40.1587 581.519 37.4341 587.395 36.5598Z" stroke="#C4B681" stroke-width="3" stroke-miterlimit="10"/>
<path opacity="0.14" d="M717.395 36.5598L717.395 3.99982L685.085 3.99982C684.148 9.86477 681.367 15.2787 677.145 19.4558C672.923 23.633 667.48 26.356 661.605 27.2298L661.605 59.7998L693.915 59.7998C694.85 53.933 697.63 48.5169 701.852 44.3378C706.075 40.1587 711.519 37.4341 717.395 36.5598Z" stroke="#C4B681" stroke-width="3" stroke-miterlimit="10"/>
<path opacity="0.14" d="M847.395 36.5598L847.395 3.99982L815.085 3.99982C814.148 9.86477 811.367 15.2787 807.145 19.4558C802.923 23.633 797.48 26.356 791.605 27.2298L791.605 59.7998L823.915 59.7998C824.85 53.933 827.63 48.5169 831.852 44.3378C836.075 40.1587 841.519 37.4341 847.395 36.5598Z" stroke="#C4B681" stroke-width="3" stroke-miterlimit="10"/>
<path opacity="0.14" d="M977.395 36.5598L977.395 3.99982L945.085 3.99982C944.148 9.86477 941.367 15.2787 937.145 19.4558C932.923 23.633 927.48 26.356 921.605 27.2298L921.605 59.7998L953.915 59.7998C954.85 53.933 957.63 48.5169 961.852 44.3378C966.075 40.1587 971.519 37.4341 977.395 36.5598Z" stroke="#C4B681" stroke-width="3" stroke-miterlimit="10"/>
<path opacity="0.14" d="M71.105 50C79.1132 50 85.605 56.4919 85.605 64.5C85.605 72.5081 79.1132 79 71.105 79C63.0969 79 56.605 72.5081 56.605 64.5C56.605 56.4919 63.0969 50 71.105 50Z" stroke="#C4B681" stroke-width="3" stroke-miterlimit="10"/>
<path opacity="0.14" d="M201.105 50C209.113 50 215.605 56.4919 215.605 64.5C215.605 72.5081 209.113 79 201.105 79C193.097 79 186.605 72.5081 186.605 64.5C186.605 56.4919 193.097 50 201.105 50Z" stroke="#C4B681" stroke-width="3" stroke-miterlimit="10"/>
<path opacity="0.14" d="M331.105 50C339.113 50 345.605 56.4919 345.605 64.5C345.605 72.5081 339.113 79 331.105 79C323.097 79 316.605 72.5081 316.605 64.5C316.605 56.4919 323.097 50 331.105 50Z" stroke="#C4B681" stroke-width="3" stroke-miterlimit="10"/>
<path opacity="0.14" d="M461.105 50C469.113 50 475.605 56.4919 475.605 64.5C475.605 72.5081 469.113 79 461.105 79C453.097 79 446.605 72.5081 446.605 64.5C446.605 56.4919 453.097 50 461.105 50Z" stroke="#C4B681" stroke-width="3" stroke-miterlimit="10"/>
<path opacity="0.14" d="M591.105 50C599.113 50 605.605 56.4919 605.605 64.5C605.605 72.5081 599.113 79 591.105 79C583.097 79 576.605 72.5081 576.605 64.5C576.605 56.4919 583.097 50 591.105 50Z" stroke="#C4B681" stroke-width="3" stroke-miterlimit="10"/>
<path opacity="0.14" d="M721.105 50C729.113 50 735.605 56.4919 735.605 64.5C735.605 72.5081 729.113 79 721.105 79C713.097 79 706.605 72.5081 706.605 64.5C706.605 56.4919 713.097 50 721.105 50Z" stroke="#C4B681" stroke-width="3" stroke-miterlimit="10"/>
<path opacity="0.14" d="M851.105 50C859.113 50 865.605 56.4919 865.605 64.5C865.605 72.5081 859.113 79 851.105 79C843.097 79 836.605 72.5081 836.605 64.5C836.605 56.4919 843.097 50 851.105 50Z" stroke="#C4B681" stroke-width="3" stroke-miterlimit="10"/>
<path opacity="0.14" d="M981.105 50C989.113 50 995.605 56.4919 995.605 64.5C995.605 72.5081 989.113 79 981.105 79C973.097 79 966.605 72.5081 966.605 64.5C966.605 56.4919 973.097 50 981.105 50Z" stroke="#C4B681" stroke-width="3" stroke-miterlimit="10"/>
<path opacity="0.14" d="M21 -0.89502C21 7.11311 14.5081 13.605 6.5 13.605C-1.50813 13.605 -8 7.11311 -8 -0.895021C-8 -8.90315 -1.50813 -15.395 6.5 -15.395C14.5081 -15.395 21 -8.90315 21 -0.89502Z" stroke="#C4B681" stroke-width="3" stroke-miterlimit="10"/>
<path opacity="0.14" d="M151 -0.89502C151 7.11311 144.508 13.605 136.5 13.605C128.492 13.605 122 7.11311 122 -0.895021C122 -8.90315 128.492 -15.395 136.5 -15.395C144.508 -15.395 151 -8.90315 151 -0.89502Z" stroke="#C4B681" stroke-width="3" stroke-miterlimit="10"/>
<path opacity="0.14" d="M281 -0.89502C281 7.11311 274.508 13.605 266.5 13.605C258.492 13.605 252 7.11311 252 -0.895021C252 -8.90315 258.492 -15.395 266.5 -15.395C274.508 -15.395 281 -8.90315 281 -0.89502Z" stroke="#C4B681" stroke-width="3" stroke-miterlimit="10"/>
<path opacity="0.14" d="M541 -0.89502C541 7.11311 534.508 13.605 526.5 13.605C518.492 13.605 512 7.11311 512 -0.895021C512 -8.90315 518.492 -15.395 526.5 -15.395C534.508 -15.395 541 -8.90315 541 -0.89502Z" stroke="#C4B681" stroke-width="3" stroke-miterlimit="10"/>
<path opacity="0.14" d="M671 -0.89502C671 7.11311 664.508 13.605 656.5 13.605C648.492 13.605 642 7.11311 642 -0.895021C642 -8.90315 648.492 -15.395 656.5 -15.395C664.508 -15.395 671 -8.90315 671 -0.89502Z" stroke="#C4B681" stroke-width="3" stroke-miterlimit="10"/>
<path opacity="0.14" d="M931 -0.89502C931 7.11311 924.508 13.605 916.5 13.605C908.492 13.605 902 7.11311 902 -0.895021C902 -8.90315 908.492 -15.395 916.5 -15.395C924.508 -15.395 931 -8.90315 931 -0.89502Z" stroke="#C4B681" stroke-width="3" stroke-miterlimit="10"/>
<path opacity="0.14" d="M21 129.5C21 137.508 14.5081 144 6.5 144C-1.50813 144 -8 137.508 -8 129.5C-8 121.492 -1.50813 115 6.5 115C14.5081 115 21 121.492 21 129.5Z" stroke="#C4B681" stroke-width="3" stroke-miterlimit="10"/>
<path opacity="0.14" d="M151 129.5C151 137.508 144.508 144 136.5 144C128.492 144 122 137.508 122 129.5C122 121.492 128.492 115 136.5 115C144.508 115 151 121.492 151 129.5Z" stroke="#C4B681" stroke-width="3" stroke-miterlimit="10"/>
<path opacity="0.14" d="M281 129.5C281 137.508 274.508 144 266.5 144C258.492 144 252 137.508 252 129.5C252 121.492 258.492 115 266.5 115C274.508 115 281 121.492 281 129.5Z" stroke="#C4B681" stroke-width="3" stroke-miterlimit="10"/>
<path opacity="0.14" d="M411 129.5C411 137.508 404.508 144 396.5 144C388.492 144 382 137.508 382 129.5C382 121.492 388.492 115 396.5 115C404.508 115 411 121.492 411 129.5Z" stroke="#C4B681" stroke-width="3" stroke-miterlimit="10"/>
<path opacity="0.14" d="M541 129.5C541 137.508 534.508 144 526.5 144C518.492 144 512 137.508 512 129.5C512 121.492 518.492 115 526.5 115C534.508 115 541 121.492 541 129.5Z" stroke="#C4B681" stroke-width="3" stroke-miterlimit="10"/>
<path opacity="0.14" d="M671 129.5C671 137.508 664.508 144 656.5 144C648.492 144 642 137.508 642 129.5C642 121.492 648.492 115 656.5 115C664.508 115 671 121.492 671 129.5Z" stroke="#C4B681" stroke-width="3" stroke-miterlimit="10"/>
<path opacity="0.14" d="M801 129.5C801 137.508 794.508 144 786.5 144C778.492 144 772 137.508 772 129.5C772 121.492 778.492 115 786.5 115C794.508 115 801 121.492 801 129.5Z" stroke="#C4B681" stroke-width="3" stroke-miterlimit="10"/>
<path opacity="0.14" d="M931 129.5C931 137.508 924.508 144 916.5 144C908.492 144 902 137.508 902 129.5C902 121.492 908.492 115 916.5 115C924.508 115 931 121.492 931 129.5Z" stroke="#C4B681" stroke-width="3" stroke-miterlimit="10"/>
<path opacity="0.14" d="M382 -0.10498C382 -8.11311 388.492 -14.605 396.5 -14.605C404.508 -14.605 411 -8.11311 411 -0.104979C411 7.90315 404.508 14.395 396.5 14.395C388.492 14.395 382 7.90315 382 -0.10498Z" stroke="#C4B681" stroke-width="3" stroke-miterlimit="10"/>
<path opacity="0.14" d="M772 -0.10498C772 -8.11311 778.492 -14.605 786.5 -14.605C794.508 -14.605 801 -8.11311 801 -0.104979C801 7.90315 794.508 14.395 786.5 14.395C778.492 14.395 772 7.90315 772 -0.10498Z" stroke="#C4B681" stroke-width="3" stroke-miterlimit="10"/>
</g>
<defs>
<clipPath id="clip0_3_2">
<rect width="969" height="129" fill="white"/>
</clipPath>
</defs>
</svg>
