<svg width="25" height="25" viewBox="0 0 25 25" fill="none" xmlns="http://www.w3.org/2000/svg">
<g clip-path="url(#clip0_766_2759)">
<path d="M10.5054 7.29722C10.536 7.41177 10.5666 7.52013 10.6034 7.6223C10.6056 7.62809 10.6091 7.63332 10.6135 7.63763C10.6179 7.64195 10.6232 7.64525 10.629 7.6473C10.6349 7.64936 10.641 7.65013 10.6472 7.64955C10.6533 7.64898 10.6592 7.64708 10.6645 7.64397C10.8055 7.56516 10.9387 7.47289 11.0623 7.36843C11.0623 7.36843 11.0623 7.34986 11.0623 7.33438C11.0463 7.13227 11.003 6.93332 10.9338 6.74304C10.842 6.49537 10.7349 6.34985 10.6278 6.34985C10.5396 6.35242 10.456 6.39028 10.3953 6.45512C10.3832 6.46785 10.3737 6.48289 10.3674 6.49937C10.3611 6.51585 10.3581 6.53343 10.3586 6.55109C10.357 6.56136 10.357 6.57179 10.3586 6.58205C10.3796 6.82305 10.4184 7.06211 10.4748 7.29722" fill="#C4B681"/>
<path d="M18.1799 19.8174C18.1432 19.8174 18.0514 19.8638 17.8739 20.1517C17.8494 20.192 17.8219 20.2322 17.7974 20.2756C17.7953 20.28 17.7945 20.285 17.7952 20.29C17.7959 20.2949 17.798 20.2994 17.8013 20.3031C17.8046 20.3068 17.8089 20.3094 17.8137 20.3105C17.8184 20.3117 17.8234 20.3114 17.828 20.3096C18.0108 20.2098 18.172 20.074 18.3023 19.9103C18.3023 19.9103 18.3023 19.9103 18.3023 19.8855C18.2893 19.8666 18.2725 19.8508 18.253 19.839C18.2335 19.8273 18.2117 19.8199 18.1891 19.8174" fill="#C4B681"/>
<path d="M18.4061 5.99379C18.4612 5.89163 18.3755 5.35912 18.0481 5.3746C17.9805 5.37729 17.9144 5.39473 17.8542 5.42573C17.794 5.45672 17.7411 5.50054 17.6992 5.55417C17.9113 5.73638 18.1496 5.88464 18.4061 5.99379Z" fill="#C4B681"/>
<path d="M12.3994 0.117676C10.8087 0.117676 9.23354 0.434735 7.76392 1.05074C6.2943 1.66675 4.95902 2.56964 3.83434 3.70785C2.70965 4.84605 1.8176 6.19727 1.20913 7.68434C0.600657 9.1714 0.287684 10.7652 0.288086 12.3746C0.288086 15.6246 1.5641 18.7414 3.83542 21.0394C6.10674 23.3375 9.18731 24.6285 12.3994 24.6285C15.6116 24.6285 18.6921 23.3375 20.9635 21.0394C23.2348 18.7414 24.5108 15.6246 24.5108 12.3746C24.5112 10.7652 24.1982 9.1714 23.5898 7.68434C22.9813 6.19727 22.0892 4.84605 20.9645 3.70785C19.8399 2.56964 18.5046 1.66675 17.035 1.05074C15.5653 0.434735 13.9902 0.117676 12.3994 0.117676ZM21.6161 9.7152C21.6742 9.67185 21.7079 9.68424 21.7232 9.69662C21.7316 9.7083 21.7362 9.7224 21.7362 9.73687C21.7362 9.75135 21.7316 9.76545 21.7232 9.77712C21.6439 9.98838 21.5413 10.1899 21.4172 10.3777C21.307 10.4737 20.9551 10.74 20.4655 11.1115C19.4037 11.9195 17.6289 13.2787 16.4876 14.2663C16.4816 14.2684 16.4751 14.2684 16.4692 14.2663C16.4633 14.2684 16.4568 14.2684 16.4508 14.2663C16.4508 14.2663 16.4508 14.2446 16.4508 14.1486C16.4508 14.0527 16.4814 14.0279 16.5029 13.9536C16.5316 13.8395 16.5737 13.7294 16.6283 13.6254C17.0606 13.1873 17.5238 12.7817 18.0145 12.4118C18.0162 12.4079 18.017 12.4037 18.017 12.3994C18.017 12.3952 18.0162 12.3909 18.0145 12.387C18.0771 12.173 18.108 11.9508 18.1063 11.7276C18.1081 11.5084 18.0334 11.2957 17.8951 11.127C17.7951 11.0064 17.6775 10.902 17.5463 10.8174C17.5143 10.7977 17.4837 10.776 17.4545 10.7524C17.4545 10.7524 17.4361 10.7183 17.4545 10.6471C17.4675 10.6041 17.485 10.5626 17.5065 10.5232C17.5249 10.4923 17.5463 10.4582 17.5769 10.4675C17.7543 10.5385 17.906 10.6627 18.0114 10.8236C18.1592 11.03 18.2404 11.2776 18.244 11.5325C18.2407 11.7583 18.2161 11.9833 18.1705 12.2044C18.1693 12.2095 18.1696 12.2149 18.1716 12.2198C18.1736 12.2246 18.177 12.2288 18.1814 12.2315C18.1859 12.2343 18.1911 12.2355 18.1963 12.2351C18.2015 12.2347 18.2064 12.2326 18.2103 12.2291L18.5898 11.9381C19.4435 11.2941 21.4967 9.75545 21.5946 9.68424M17.886 14.2198C17.8904 14.3052 17.9203 14.3872 17.9716 14.4551C17.991 14.48 18.0156 14.5002 18.0436 14.5141C18.0717 14.5281 18.1025 14.5354 18.1338 14.5356C18.1804 14.5324 18.2245 14.5136 18.2594 14.4822C18.2943 14.4508 18.3179 14.4087 18.3266 14.3623C18.3266 14.3158 18.3511 14.2694 18.3847 14.2756C18.4184 14.2818 18.4184 14.3777 18.4153 14.4056C18.4014 14.4866 18.3778 14.5656 18.345 14.6409C18.325 14.7009 18.2872 14.7533 18.2369 14.7909C18.1866 14.8286 18.126 14.8497 18.0634 14.8514C18.0159 14.849 17.9696 14.8355 17.9282 14.8119C17.8868 14.7882 17.8513 14.7551 17.8248 14.7152C17.7533 14.6117 17.7149 14.4885 17.7146 14.3623C17.7326 13.9731 17.8577 13.5967 18.0757 13.2756C18.0757 13.2508 18.1216 13.1889 18.1583 13.2106C18.195 13.2322 18.1583 13.2818 18.1583 13.3313C18.1588 13.3385 18.1588 13.3458 18.1583 13.353C18.0987 13.4585 18.0465 13.5682 18.0022 13.6811C17.9325 13.8517 17.9001 14.0354 17.9074 14.2198M16.61 12.1022C16.6435 12.1012 16.6762 12.0912 16.7047 12.0733C16.7332 12.0553 16.7565 12.0301 16.7721 12C16.7986 11.9514 16.8182 11.8993 16.8303 11.8452C16.8303 11.8452 16.8303 11.8452 16.8303 11.8298C16.8303 11.8143 16.8731 11.7585 16.9007 11.7678C16.9282 11.7771 16.9251 11.8483 16.9221 11.87C16.9035 11.9685 16.8727 12.0642 16.8303 12.1548C16.7538 12.3251 16.6559 12.4087 16.5243 12.4087C16.473 12.4074 16.4229 12.3932 16.3785 12.3672C16.3342 12.3412 16.2969 12.3044 16.2703 12.2601C16.1992 12.1463 16.163 12.0138 16.1663 11.8793C16.186 11.4435 16.3088 11.0188 16.5243 10.6409V10.6254C16.5296 10.6136 16.5394 10.6043 16.5514 10.5997C16.5634 10.5951 16.5768 10.5954 16.5885 10.6006C16.61 10.6006 16.6222 10.6347 16.6069 10.678C16.5457 10.8267 16.4937 10.9691 16.4508 11.1084C16.3796 11.3069 16.3423 11.5163 16.3407 11.7276C16.3407 11.9071 16.4723 12.0929 16.5855 12.0929M17.9686 9.50467H17.7758C17.6289 9.50467 17.4698 9.53563 17.4147 9.54802C17.3408 9.5558 17.2704 9.58424 17.2115 9.63017C17.1526 9.6761 17.1075 9.7377 17.0812 9.80808C17.0812 9.80808 17.0812 9.80808 17.0812 9.82356C17.0756 9.83966 17.0645 9.8532 17.0499 9.86172C17.0353 9.87024 17.0182 9.87318 17.0016 9.87C16.9833 9.87 16.9557 9.84523 16.9649 9.77402C17.0106 9.59966 17.0763 9.43132 17.1608 9.27248L17.2128 9.15793C17.2798 9.0021 17.4053 8.8796 17.5616 8.81737C17.825 8.75387 18.096 8.72884 18.3664 8.74306C18.3936 8.74501 18.4202 8.75261 18.4444 8.76539C18.4686 8.77817 18.49 8.79587 18.5071 8.81737C18.5248 8.84562 18.5362 8.87744 18.5404 8.9106C18.5446 8.94376 18.5416 8.97745 18.5316 9.00932C18.4875 9.18142 18.426 9.34846 18.348 9.50777C18.2509 9.72706 18.1066 9.92167 17.9257 10.0774C17.8679 10.1185 17.8022 10.1469 17.733 10.161C17.5067 10.2165 17.2886 10.3019 17.0843 10.4149C17.0375 10.4391 16.9866 10.4538 16.9343 10.4582C16.9184 10.4637 16.9012 10.4637 16.8854 10.4582C16.8831 10.4529 16.8819 10.4471 16.8819 10.4412C16.8819 10.4354 16.8831 10.4296 16.8854 10.4242C16.8901 10.4042 16.8991 10.3855 16.9118 10.3694C16.9245 10.3534 16.9405 10.3403 16.9588 10.3313C17.1118 10.2384 17.3597 10.0805 17.5708 9.93811C17.7304 9.83132 17.8808 9.7112 18.0206 9.57898C18.027 9.57274 18.0313 9.56466 18.0329 9.55585C18.0345 9.54704 18.0334 9.53793 18.0297 9.52978C18.0261 9.52163 18.02 9.51484 18.0123 9.51034C18.0046 9.50585 17.9958 9.50387 17.9869 9.50467M18.1736 8.14245C18.2562 8.14245 18.3419 8.00622 18.3725 7.95359C18.4031 7.90096 18.4276 7.89167 18.4521 7.90096C18.4765 7.91025 18.4827 7.93811 18.4735 7.97217C18.4427 8.05485 18.4049 8.13462 18.3603 8.21056C18.2746 8.35607 18.192 8.43037 18.1093 8.43656C18.0545 8.43486 18.0023 8.41283 17.9625 8.37465C17.8756 8.27629 17.8305 8.14726 17.837 8.01551C17.8532 7.67672 17.9589 7.34851 18.143 7.06504C18.1675 7.03099 18.195 7.01861 18.2134 7.03099C18.2317 7.04337 18.2348 7.06505 18.2134 7.1022C18.0978 7.34121 18.0204 7.59721 17.9839 7.86071C17.9839 7.99384 18.0665 8.14245 18.1736 8.14245ZM19.416 7.39941C19.4236 7.39559 19.4319 7.3936 19.4404 7.3936C19.4489 7.3936 19.4573 7.39559 19.4649 7.39941C19.7174 7.48178 19.9337 7.65031 20.0769 7.87619C20.1309 7.95715 20.177 8.04321 20.2146 8.13316C20.2163 8.1379 20.2195 8.14198 20.2236 8.14487C20.2277 8.14776 20.2326 8.14931 20.2376 8.14931C20.2425 8.14931 20.2474 8.14776 20.2515 8.14487C20.2556 8.14198 20.2588 8.1379 20.2605 8.13316C20.2605 8.0186 20.2605 7.87929 20.2605 7.80189C20.2605 7.72449 20.2605 7.69043 20.2605 7.67495C20.2605 7.41179 20.4257 7.16412 20.5665 7.15483C20.6186 7.15629 20.6682 7.17745 20.7056 7.21414C20.743 7.25082 20.7654 7.30036 20.7685 7.35297C20.7724 7.39525 20.7609 7.43751 20.736 7.47175C20.7112 7.50598 20.6748 7.52982 20.6338 7.53873C20.6117 7.5445 20.5886 7.5445 20.5665 7.53873C20.5328 7.53873 20.4808 7.49848 20.438 7.53873C20.4279 7.64167 20.4279 7.74538 20.438 7.84833C20.438 7.95049 20.438 8.05576 20.438 8.13935C20.4363 8.28226 20.4261 8.42494 20.4074 8.5666C20.3737 8.82666 20.337 8.87619 20.3003 8.87619C20.2636 8.87619 20.2299 8.81427 20.1534 8.63471C20.1289 8.57588 20.1044 8.52015 20.0769 8.46443C20.0504 8.40407 20.0208 8.34517 19.9882 8.28795C19.9592 8.23437 19.9254 8.18359 19.8872 8.13625C19.8668 8.11049 19.8432 8.08758 19.8168 8.06814C19.8078 8.06578 19.7983 8.06578 19.7893 8.06814V8.09291C19.7893 8.12387 19.7678 8.15792 19.7372 8.16412C19.6355 8.14308 19.5407 8.0962 19.4618 8.02789C19.4233 7.99938 19.3918 7.96213 19.3701 7.91912C19.3483 7.87611 19.3367 7.82854 19.3364 7.78021C19.3442 7.66606 19.3882 7.5575 19.4618 7.47062M19.1191 9.28486C19.1406 9.1352 19.1797 8.98866 19.2354 8.84833C19.2458 8.82266 19.2581 8.79782 19.2721 8.77402C19.2886 8.74529 19.3104 8.72005 19.3364 8.69972C19.3421 8.69697 19.3484 8.69554 19.3547 8.69554C19.3611 8.69554 19.3674 8.69697 19.3731 8.69972C19.3823 8.70379 19.3897 8.71097 19.3942 8.72002C19.3987 8.72906 19.3999 8.73941 19.3976 8.74926C19.3917 8.77811 19.3824 8.80617 19.3701 8.83285C19.2578 9.07549 19.2063 9.34238 19.2201 9.60994C19.229 9.71979 19.2636 9.82592 19.3211 9.91953C19.3397 9.95712 19.3668 9.98966 19.4004 10.0144C19.4339 10.0392 19.4728 10.0555 19.5139 10.062C19.572 10.062 19.624 10.0186 19.6669 9.93502C19.6979 9.87696 19.7196 9.81424 19.7311 9.74926C19.7311 9.68734 19.7709 9.68424 19.7831 9.68424C19.7954 9.68424 19.826 9.70282 19.8199 9.7895C19.804 9.90557 19.7731 10.019 19.7281 10.127C19.6577 10.2849 19.5689 10.3715 19.468 10.3777C19.4347 10.3777 19.4019 10.3708 19.3714 10.3575C19.3408 10.3442 19.3133 10.3247 19.2905 10.3003C19.1548 10.142 19.0847 9.93689 19.0947 9.72759C19.0948 9.58013 19.1081 9.43299 19.1344 9.28796M15.9153 5.08982C15.912 5.0025 15.9288 4.91558 15.9643 4.83594L16.0806 4.74926C16.2213 4.64399 17.2832 3.82046 17.3352 3.82046C17.3428 3.81978 17.3504 3.82149 17.3569 3.82538C17.3635 3.82926 17.3687 3.83512 17.3719 3.84214C17.3719 3.86691 17.3719 3.93192 17.3719 3.97836C17.3671 4.0331 17.3458 4.08501 17.3107 4.12697C17.2342 4.19817 16.3437 4.8669 16.1938 4.98145L15.9735 5.13935C15.9245 5.1796 15.9306 5.12078 15.9306 5.0991M13.4643 3.27557C13.5469 3.18889 13.6693 3.03718 13.703 2.99693C13.7366 2.95669 13.7366 2.97526 13.7917 2.99693L13.96 3.08053C14.0824 3.14245 14.2293 3.22294 14.3364 3.28176C14.3854 3.30653 14.4313 3.33749 14.4619 3.35607C14.4667 3.35983 14.4726 3.36188 14.4787 3.36188C14.4848 3.36188 14.4907 3.35983 14.4955 3.35607C14.5261 3.32201 14.5781 3.257 14.6302 3.20127C14.8994 2.89167 14.9362 2.87309 14.9576 2.87C15.0133 2.88977 15.0666 2.91573 15.1167 2.9474C15.1993 2.99693 15.2972 3.05885 15.4013 3.11768C15.5053 3.1765 15.6124 3.23842 15.6828 3.28486L15.7899 3.35607C15.8266 3.38393 15.8358 3.39322 15.8358 3.4087C15.8358 3.42418 15.8358 3.43966 15.7501 3.53563C15.6644 3.63161 15.6491 3.64709 15.5849 3.72449C15.503 3.83157 15.4107 3.9301 15.3095 4.01861C15.2789 4.01861 15.2391 3.99384 15.083 3.88548C14.9759 3.81118 14.8413 3.72139 14.725 3.64709C14.6544 3.59989 14.5808 3.55749 14.5047 3.52015C14.5013 3.51711 14.497 3.51543 14.4925 3.51543C14.4879 3.51543 14.4836 3.51711 14.4802 3.52015C14.4404 3.5604 14.3333 3.69353 14.2599 3.78331C14.1038 3.97526 14.0885 4.01241 14.0549 4.01241C14.0029 3.9986 13.9533 3.97667 13.908 3.9474L13.6418 3.79879C13.5714 3.75854 13.4674 3.69972 13.3878 3.64709C13.3083 3.59446 13.2593 3.56659 13.2593 3.53563C13.2593 3.50468 13.3052 3.43966 13.4643 3.27557ZM14.0763 4.43037C14.0734 4.4844 14.0565 4.53671 14.0273 4.58208C13.9264 4.69353 13.1706 5.2508 12.9502 5.43037L12.1363 6.07433C12.0852 6.11522 12.0321 6.15345 11.9772 6.18888C11.9537 6.20771 11.9266 6.22141 11.8976 6.22913H11.8792C11.8272 6.20436 11.8089 6.03718 11.8211 5.96597C11.8333 5.89477 11.8609 5.91025 11.9466 5.84833C12.0322 5.78641 12.3627 5.53873 12.6167 5.36226C12.7758 5.24461 13.9508 4.3282 14.009 4.28486C14.0124 4.2814 14.0165 4.27865 14.0209 4.27677C14.0254 4.2749 14.0302 4.27393 14.035 4.27393C14.0398 4.27393 14.0446 4.2749 14.0491 4.27677C14.0535 4.27865 14.0576 4.2814 14.061 4.28486C14.0776 4.33191 14.0776 4.38332 14.061 4.43037M11.307 2.70282C11.3163 2.69738 11.3269 2.69452 11.3376 2.69452C11.3484 2.69452 11.3589 2.69738 11.3682 2.70282C11.6773 2.91379 11.9061 3.225 12.0169 3.58517C12.0169 3.59174 12.0195 3.59804 12.0241 3.60268C12.0287 3.60733 12.0349 3.60994 12.0414 3.60994C12.0479 3.60994 12.0541 3.60733 12.0587 3.60268C12.0633 3.59804 12.0659 3.59174 12.0659 3.58517C12.0613 3.49442 12.0613 3.40348 12.0659 3.31272C12.0764 3.13169 12.1135 2.95326 12.1761 2.78331C12.2495 2.60374 12.3535 2.51396 12.4821 2.51396C12.5185 2.51039 12.5551 2.51791 12.5873 2.53557C12.6195 2.55322 12.6457 2.5802 12.6626 2.61304C12.6853 2.65898 12.6938 2.71074 12.6871 2.76164C12.6812 2.8103 12.6667 2.8575 12.6442 2.90096C12.6167 2.95359 12.583 2.98145 12.5494 2.98145C12.5096 2.98145 12.4851 2.9474 12.4668 2.91644C12.4484 2.88548 12.427 2.85452 12.3841 2.85452C12.2373 2.85452 12.2342 3.19817 12.2281 3.52944C12.2281 3.56659 12.2281 3.60684 12.2281 3.64709C12.2281 3.99384 12.2005 4.22604 12.124 4.29724C12.1084 4.31022 12.0891 4.31781 12.069 4.31892C12.0261 4.31892 11.9925 4.22294 11.9037 3.96598C11.8639 3.84523 11.818 3.70591 11.7721 3.60375C11.7262 3.50158 11.6742 3.44276 11.662 3.43966L11.6314 3.43347C11.613 3.46133 11.5947 3.48919 11.5702 3.48919C11.4889 3.45894 11.4118 3.41837 11.3407 3.36845C11.203 3.27557 11.1326 3.19508 11.1326 3.13006C11.1428 2.96804 11.2027 2.81328 11.304 2.68734M10.3462 4.14554C10.3707 4.11149 10.3921 4.11149 10.4441 4.14554C10.5027 4.17254 10.5599 4.20251 10.6155 4.23532C10.7379 4.30034 10.8848 4.38703 10.9919 4.44895C11.099 4.51087 11.1724 4.54802 11.1846 4.58517C11.1969 4.62232 11.1143 4.70901 11.0745 4.77093C11.0347 4.83285 10.9674 4.90715 10.9154 4.97526C10.7593 5.1796 10.7409 5.21985 10.7103 5.21985C10.6797 5.21985 10.6491 5.19817 10.5635 5.15173L10.285 4.98145C10.2146 4.93811 10.1106 4.87619 10.031 4.82046C9.95147 4.76474 9.90251 4.73378 9.90251 4.70282C9.90251 4.67186 9.94841 4.59755 10.1045 4.42418C10.1861 4.33472 10.2628 4.24065 10.334 4.14244M9.38843 3.52325C9.50616 3.26721 9.67615 3.03931 9.88721 2.85452C9.93311 2.81427 9.96065 2.83285 9.96677 2.85452C9.97289 2.87619 9.99431 2.88239 9.96677 2.93192C9.93196 2.99436 9.88755 3.0508 9.83519 3.0991C9.74969 3.1902 9.67941 3.29476 9.62711 3.4087C9.57646 3.50627 9.53939 3.61045 9.51695 3.7183C9.49388 3.81291 9.50472 3.91274 9.54755 4.00003C9.55712 4.01271 9.56908 4.02333 9.58274 4.0313C9.59639 4.03928 9.61147 4.04443 9.62711 4.04647C9.70667 4.04647 9.82295 3.96288 9.90863 3.87619C9.93311 3.85142 9.95759 3.84213 9.97595 3.85761C9.99431 3.87309 9.97595 3.92573 9.97595 3.94121C9.93025 4.02312 9.87475 4.09903 9.81071 4.16721C9.77207 4.22257 9.72131 4.26814 9.66239 4.30036C9.60347 4.33258 9.53799 4.35059 9.47105 4.35297C9.31193 4.35297 9.25991 4.15173 9.26603 3.98455C9.27758 3.82691 9.32024 3.67321 9.39149 3.53254M8.92638 7.06504C8.92638 6.96907 8.92638 6.86381 8.94168 6.7895C8.95367 6.60868 8.99076 6.43046 9.05184 6.26009C9.12528 6.08362 9.22931 5.99074 9.35783 5.99074C9.39426 5.98717 9.43091 5.9947 9.46308 6.01235C9.49524 6.03 9.52146 6.05698 9.53837 6.08981C9.56102 6.13576 9.56955 6.18752 9.56285 6.23842C9.55838 6.28836 9.5438 6.33684 9.52001 6.38084C9.49247 6.43037 9.45881 6.45824 9.42515 6.45824C9.38537 6.45824 9.36395 6.42418 9.34253 6.39322C9.32111 6.36226 9.30275 6.3313 9.25991 6.3313C9.1161 6.3313 9.10998 6.67495 9.10386 7.00622C9.10386 7.04647 9.10386 7.08672 9.10386 7.12387C9.10386 7.47371 9.07632 7.70282 8.99982 7.77403C8.99262 7.7813 8.98401 7.78698 8.97453 7.79071C8.96505 7.79444 8.9549 7.79614 8.94474 7.7957C8.9019 7.7957 8.86824 7.69663 8.7795 7.43966C8.73972 7.31892 8.69382 7.18269 8.64792 7.07743C8.60202 6.97217 8.55306 6.91644 8.53776 6.91335C8.52816 6.92356 8.51993 6.93501 8.51328 6.9474C8.49492 6.97217 8.47656 7.00003 8.45208 7.00003C8.37162 6.97018 8.29546 6.92957 8.22564 6.87929C8.08489 6.78641 8.01451 6.70901 8.01451 6.6409C8.02411 6.47968 8.08412 6.32572 8.18587 6.20127C8.19517 6.19584 8.20572 6.19297 8.21647 6.19297C8.22721 6.19297 8.23776 6.19584 8.24706 6.20127C8.54813 6.41241 8.77017 6.71995 8.87742 7.07433C8.87916 7.07907 8.88229 7.08316 8.88639 7.08605C8.89049 7.08893 8.89537 7.09048 8.90037 7.09048C8.90537 7.09048 8.91024 7.08893 8.91435 7.08605C8.91845 7.08316 8.92158 7.07907 8.92332 7.07433M6.68954 5.29105C6.92812 5.22754 7.15677 5.13063 7.36885 5.00313C7.46983 4.9505 7.57387 4.89477 7.67485 4.84833C7.83155 4.77499 7.9838 4.69228 8.13079 4.60065C8.21953 4.54183 8.27767 4.49848 8.31133 4.47062C8.31515 4.46848 8.31834 4.46534 8.32056 4.46153C8.32278 4.45772 8.32395 4.45337 8.32395 4.44895C8.32395 4.44452 8.32278 4.44018 8.32056 4.43637C8.31834 4.43256 8.31515 4.42942 8.31133 4.42728C8.03937 4.38121 7.76258 4.37183 7.48819 4.39941C7.30068 4.44291 7.13466 4.5527 7.02002 4.70901C6.97718 4.75235 6.94658 4.73997 6.93128 4.73068C6.91598 4.72139 6.91292 4.66257 6.93128 4.58208C6.99496 4.41837 7.0804 4.26421 7.18526 4.12387C7.29151 3.94068 7.44767 3.79235 7.63507 3.69663C8.04099 3.61027 8.46184 3.62837 8.85906 3.74926C8.86914 3.75566 8.87767 3.76427 8.88402 3.77445C8.89038 3.78463 8.8944 3.79612 8.89578 3.80808C8.88507 4.00392 8.8157 4.19181 8.69688 4.34678L8.62956 4.46133C8.52131 4.69403 8.3708 4.90408 8.18587 5.08053C7.87987 5.29725 7.50043 5.32821 6.71096 5.34988C6.67424 5.34988 6.66812 5.3282 6.66812 5.31891C6.66812 5.30963 6.66812 5.28796 6.7079 5.27867M6.90986 6.60994C6.92822 6.57898 6.94658 6.54802 6.96188 6.51706C6.97718 6.4861 7.0139 6.43037 7.05062 6.45204C7.08734 6.47371 7.08428 6.50467 7.05062 6.58207V6.60684C6.98162 6.71642 6.92126 6.83133 6.87008 6.9505C6.78784 7.12769 6.74601 7.32131 6.74768 7.51706C6.74787 7.60937 6.77678 7.69927 6.8303 7.77403C6.84962 7.80134 6.8748 7.82387 6.90394 7.83996C6.93308 7.85604 6.96544 7.86525 6.9986 7.86691C7.04816 7.86537 7.0958 7.84719 7.13403 7.81524C7.17226 7.78329 7.19889 7.73939 7.20974 7.69043C7.22504 7.64399 7.24034 7.59136 7.27705 7.60065C7.31377 7.60994 7.30765 7.70901 7.30459 7.73997C7.28819 7.82535 7.25932 7.90778 7.21892 7.98455C7.19316 8.04609 7.15079 8.09905 7.09668 8.13738C7.04257 8.1757 6.97889 8.19784 6.91292 8.20127C6.74156 8.20127 6.55796 7.98765 6.55796 7.66257C6.56213 7.46483 6.60585 7.26999 6.68648 7.08981C6.75783 6.92415 6.84066 6.76379 6.93434 6.60994M5.90313 5.31273C5.96165 5.15165 6.03436 4.99623 6.12039 4.84833C6.12969 4.83457 6.13787 4.82007 6.14487 4.80498C6.17467 4.7434 6.21391 4.68698 6.26115 4.6378C6.26115 4.6378 6.30092 4.59755 6.3254 4.61303C6.34988 4.62851 6.3254 4.66257 6.3254 4.70282C6.3046 4.75939 6.27574 4.81259 6.23973 4.86071L6.22137 4.88857C6.14634 5.01122 6.0906 5.14491 6.05613 5.28486C6.01635 5.4027 5.99367 5.52576 5.98881 5.65019C5.98881 5.7926 6.07449 6.04647 6.24279 6.04647C6.34988 6.04647 6.4325 5.91334 6.46004 5.86071V5.84214C6.46004 5.82356 6.49982 5.78331 6.53042 5.79879C6.56102 5.81427 6.54572 5.86071 6.53042 5.87619C6.50262 5.96509 6.46244 6.04953 6.41108 6.12697C6.3816 6.18439 6.33792 6.23311 6.28429 6.26838C6.23067 6.30365 6.16893 6.32426 6.10509 6.32821C6.05976 6.32802 6.01516 6.31664 5.97517 6.29506C5.93517 6.27348 5.90099 6.24235 5.87559 6.20436C5.82476 6.12985 5.7932 6.04363 5.78379 5.95359C5.76254 5.73587 5.79296 5.51616 5.87253 5.31273M4.59346 6.38084C4.69899 6.15199 4.84173 5.94269 5.01574 5.76164L5.04328 5.73068C5.05288 5.72176 5.06543 5.71681 5.07847 5.71681C5.0915 5.71681 5.10406 5.72176 5.11366 5.73068C5.12566 5.74378 5.13352 5.76021 5.13625 5.77785C5.13898 5.7955 5.13644 5.81357 5.12896 5.82975C5.01065 6.01815 4.91414 6.21968 4.84132 6.43037C4.76746 6.67832 4.75382 6.94065 4.80154 7.19508C4.83097 7.37102 4.89665 7.53874 4.99432 7.68734C5.1059 7.85821 5.24934 8.00543 5.41659 8.12077C5.62053 8.26053 5.84594 8.36514 6.08367 8.43037C6.38322 8.51095 6.6917 8.55256 7.00166 8.55421H7.08122C7.91417 8.54675 8.74059 8.4046 9.52919 8.13316C9.77181 8.05263 10.0098 7.95858 10.2422 7.85143C10.2507 7.84747 10.2577 7.84078 10.2622 7.83239C10.2666 7.824 10.2682 7.81437 10.2666 7.80498C10.2666 7.77712 10.2666 7.75235 10.2513 7.72758C10.1918 7.41598 10.155 7.10038 10.1412 6.78331C10.1548 6.51845 10.2303 6.26062 10.3615 6.03099C10.5114 5.76164 10.692 5.60684 10.8572 5.60684C10.8984 5.61097 10.9384 5.62352 10.9747 5.64374C11.011 5.66397 11.0429 5.69144 11.0684 5.72449C11.1415 5.81257 11.2004 5.91185 11.2428 6.01861C11.3487 6.2908 11.4037 6.58056 11.405 6.8731C11.3998 7.26515 11.2413 7.63916 10.9643 7.91334C10.9215 7.95978 10.8756 8.00312 10.8297 8.04647C10.8226 8.05396 10.8186 8.06395 10.8186 8.07434C10.8186 8.08472 10.8226 8.0947 10.8297 8.1022C10.8504 8.13541 10.8728 8.16745 10.897 8.19817C10.9854 8.30588 11.1073 8.3801 11.2428 8.4087C11.3975 8.45018 11.557 8.47099 11.7171 8.47062C12.2317 8.45466 12.7438 8.39145 13.2471 8.28177C13.5704 8.21821 13.8893 8.13341 14.2018 8.02789C14.2064 8.02613 14.2105 8.02297 14.2133 8.01882C14.2162 8.01467 14.2177 8.00973 14.2177 8.00467C14.2177 7.99962 14.2162 7.99469 14.2133 7.99054C14.2105 7.98638 14.2064 7.98321 14.2018 7.98146L14.0794 7.95669C13.4919 7.84833 12.6901 7.69663 12.2434 7.64709H12.2189V7.61923C12.265 7.28302 12.4411 6.97905 12.7085 6.77402C12.9405 6.62123 13.1974 6.51118 13.4674 6.44895C13.6624 6.39841 13.849 6.31913 14.0212 6.21365C14.3702 5.9429 14.6677 5.61038 14.8994 5.23223C15.0677 4.98455 15.181 4.82046 15.2911 4.82046C15.4717 4.82046 15.5267 5.06814 15.5971 5.35297C15.6377 5.569 15.7099 5.7777 15.8113 5.97217C15.8662 6.06851 15.9458 6.1481 16.0417 6.20258C16.1375 6.25706 16.2461 6.28441 16.356 6.28176C16.662 6.28176 16.9129 5.93502 17.1883 5.56659C17.3412 5.34523 17.5133 5.13802 17.7024 4.9474C17.8685 4.77319 18.0938 4.66919 18.3327 4.65638C18.5255 4.65638 18.6877 4.82046 18.7978 5.13006C18.8735 5.3483 18.9158 5.57694 18.9233 5.80808C18.8982 6.15191 18.7628 6.47805 18.5377 6.73687C18.1705 6.73687 17.58 6.33749 17.3138 6.16721L17.2526 6.12697C17.2446 6.11957 17.2343 6.11546 17.2235 6.11546C17.2127 6.11546 17.2023 6.11957 17.1944 6.12697L17.1149 6.24461C16.9313 6.51706 16.5916 7.03099 16.1969 7.03099C16.0441 7.01959 15.8967 6.96971 15.7678 6.88589C15.639 6.80208 15.533 6.68699 15.4594 6.55112C15.3485 6.34983 15.2651 6.13424 15.2116 5.91025C15.1687 5.72758 15.1351 5.57279 15.0769 5.57279C15.0188 5.57279 15.0218 5.60065 14.979 5.65638C14.9221 5.73357 14.87 5.81422 14.8229 5.89787C14.6863 6.12939 14.5307 6.34894 14.3578 6.55421C14.1787 6.76531 13.9563 6.93435 13.706 7.04956C13.7014 7.05132 13.6973 7.05449 13.6945 7.05864C13.6916 7.06279 13.6901 7.06773 13.6901 7.07279C13.6901 7.07784 13.6916 7.08278 13.6945 7.08693C13.6973 7.09108 13.7014 7.09425 13.706 7.09601C14.9576 7.29105 15.4594 7.32201 16.9588 7.59136C16.9955 7.59136 17.0139 7.60994 17.02 7.62542C17.0261 7.6409 16.9772 7.79879 16.8548 7.98146C16.7799 8.08846 16.7153 8.2025 16.662 8.32201C16.662 8.34678 16.6344 8.35607 16.6038 8.35297L16.509 8.3344C16.1348 8.24243 15.7486 8.21005 15.3646 8.23842C15.1301 8.28172 14.9019 8.35452 14.6852 8.45514C14.2467 8.63418 13.7981 8.78717 13.3419 8.91334C12.7435 9.07821 12.1262 9.16253 11.5059 9.16412C11.3255 9.16829 11.1458 9.13783 10.9766 9.07433C10.8211 9.0112 10.6871 8.90362 10.591 8.76474C10.5159 8.65358 10.4581 8.53141 10.4196 8.40251C10.4174 8.39672 10.4139 8.39149 10.4095 8.38717C10.4051 8.38286 10.3998 8.37956 10.3939 8.3775C10.3881 8.37545 10.382 8.37468 10.3758 8.37526C10.3697 8.37583 10.3638 8.37773 10.3584 8.38083C10.1921 8.48025 10.0194 8.56817 9.84131 8.64399C9.3394 8.86529 8.81506 9.03035 8.27766 9.13625C7.74881 9.23568 7.21215 9.28646 6.67424 9.28796C6.33375 9.29135 5.9946 9.24441 5.66751 9.14864C5.41247 9.07079 5.17386 8.94588 4.96372 8.78022C4.78801 8.63713 4.64324 8.45904 4.53838 8.257C4.4404 8.04897 4.37634 7.82628 4.34866 7.59755C4.30536 7.17167 4.38284 6.74212 4.57204 6.35916M15.5696 14.579C15.5084 14.1301 15.4349 13.6223 15.3707 13.0867C15.334 12.7771 15.2881 12.4675 15.2483 12.1579C15.1136 11.1084 14.9943 9.68115 14.9759 9.42728C14.9639 9.3993 14.9495 9.37238 14.9331 9.34678C14.8808 9.27679 14.85 9.19283 14.8444 9.1053C14.8852 8.99009 14.9407 8.8808 15.0096 8.78022C15.0462 8.71725 15.086 8.65628 15.1289 8.59755C15.1871 8.52325 15.2116 8.51087 15.2299 8.51087C15.2384 8.50995 15.2469 8.51231 15.2537 8.51748C15.2605 8.52265 15.2651 8.53025 15.2666 8.53873C15.3274 8.74748 15.4105 8.94888 15.5145 9.13935C15.6831 9.46018 15.8224 9.79595 15.9306 10.1424C15.9713 10.2618 15.9808 10.3898 15.9582 10.514C15.9544 10.5159 15.9502 10.5169 15.9459 10.5169C15.9417 10.5169 15.9375 10.5159 15.9337 10.514C15.9092 10.514 15.8847 10.4861 15.7379 10.2911L15.6369 10.1548C15.6185 10.1363 15.6032 10.1146 15.5879 10.096C15.5726 10.0774 15.5573 10.0527 15.542 10.0496C15.5267 10.0465 15.5114 10.1363 15.5114 10.1982C15.5114 10.2601 15.5329 10.4551 15.5359 10.5078C15.5359 10.6316 15.5665 10.74 15.5849 10.8638C15.6277 11.1713 15.6736 11.4809 15.7226 11.7926C15.7226 11.8483 15.7226 11.901 15.747 11.9567C15.9531 13.0883 16.088 14.232 16.151 15.3808C16.152 15.8466 16.0797 16.3096 15.9368 16.7524C15.8757 16.9551 15.7882 17.1488 15.6767 17.3282C15.6767 17.3282 15.643 17.3685 15.6185 17.3685C15.591 17.3685 15.5849 17.3096 15.6185 17.127C15.701 16.8242 15.7452 16.5122 15.7501 16.1982C15.7165 15.6648 15.6552 15.1337 15.5665 14.6068M12.2801 15.6626C12.2537 15.6642 12.2278 15.6705 12.2036 15.6811C12.169 15.6939 12.1311 15.6939 12.0965 15.6811C12.0879 15.6751 12.0815 15.6664 12.0781 15.6564C12.0769 15.5905 12.0998 15.5266 12.1424 15.4768C12.168 15.44 12.2013 15.4093 12.2399 15.3868C12.2785 15.3644 12.3214 15.3507 12.3658 15.3468C12.3746 15.3464 12.3834 15.3482 12.3913 15.352C12.3993 15.3557 12.4063 15.3614 12.4117 15.3685C12.4521 15.434 12.4683 15.5118 12.4576 15.5883C12.4523 15.6517 12.4389 15.7141 12.4178 15.774C12.3946 15.8483 12.3813 15.9253 12.378 16.0031C12.378 16.0589 12.4821 16.1208 12.5708 16.1208C12.6279 16.1176 12.6831 16.0983 12.7299 16.065C12.7789 16.031 12.8034 16 12.8034 15.9907C12.7969 15.9563 12.7887 15.9222 12.7789 15.8886C12.728 15.7338 12.7011 15.5719 12.6993 15.4087C12.7079 15.3667 12.7191 15.3254 12.733 15.2849C12.7544 15.2322 12.7789 15.1765 12.8156 15.1765C12.8523 15.1765 12.8646 15.2229 12.8676 15.2415C12.8707 15.2601 12.8676 15.3127 12.886 15.3623C12.895 15.4853 12.9218 15.6063 12.9655 15.7214C12.9872 15.7832 13.0247 15.8381 13.0741 15.8805C13.1236 15.9229 13.1832 15.9514 13.2471 15.9629C13.2544 15.9643 13.2619 15.9638 13.2689 15.9614C13.276 15.959 13.2823 15.9547 13.2872 15.9491C13.2922 15.9435 13.2956 15.9367 13.2971 15.9293C13.2986 15.922 13.2983 15.9143 13.296 15.9072C13.2715 15.8298 13.2287 15.7214 13.1981 15.6347C13.161 15.547 13.1293 15.457 13.1032 15.3654C13.1167 15.3151 13.1352 15.2664 13.1583 15.2198C13.1697 15.1921 13.183 15.1652 13.1981 15.1393C13.1981 15.1084 13.2256 15.0929 13.2409 15.0929C13.2562 15.0929 13.2685 15.0929 13.2807 15.1393L13.3113 15.2229C13.3419 15.2972 13.3756 15.3963 13.4031 15.4892C13.4639 15.6575 13.507 15.8319 13.5316 16.0093C13.5308 16.0757 13.5195 16.1416 13.498 16.2044C13.4796 16.2508 13.4521 16.3034 13.4154 16.3034C13.2712 16.3027 13.1306 16.2585 13.0114 16.1765C12.97 16.1468 12.9311 16.1136 12.8952 16.0774C12.8755 16.1273 12.8509 16.175 12.8217 16.2198C12.797 16.2755 12.7593 16.3244 12.7119 16.3621C12.6645 16.3999 12.6087 16.4254 12.5494 16.4366H12.5218C12.456 16.4375 12.3916 16.4168 12.3382 16.3777C12.2879 16.3374 12.2532 16.2804 12.2403 16.2167C12.229 16.1049 12.2415 15.992 12.277 15.8855C12.3046 15.7864 12.3321 15.6811 12.2923 15.6657M10.6338 13.031L10.7318 13.0929L10.7991 13.1332C10.8174 13.1332 10.8358 13.1703 10.8358 13.2818C10.8376 13.3158 10.8376 13.3499 10.8358 13.3839C10.8355 13.4142 10.8234 13.4431 10.8021 13.4644H10.7807C10.7164 13.4297 10.6559 13.3882 10.6002 13.3406C10.5438 13.2994 10.4915 13.2527 10.4441 13.2013C10.415 13.0844 10.415 12.9621 10.4441 12.8452C10.5665 12.5914 11.7109 11.7462 12.4698 11.1889C12.7452 10.9846 12.9625 10.8267 13.0512 10.7524C13.0585 10.7492 13.0663 10.7476 13.0742 10.7476C13.0821 10.7476 13.0899 10.7492 13.0971 10.7524C13.1076 10.7595 13.1162 10.7692 13.122 10.7806C13.1279 10.7919 13.1309 10.8046 13.1308 10.8174C13.1308 10.8638 13.1491 11.0217 13.0818 11.0681C12.6657 11.3592 12.0934 11.8205 11.5702 12.226C11.2336 12.4861 10.7103 12.9133 10.6736 12.9474C10.6579 12.9591 10.6435 12.9726 10.6308 12.9876C10.6276 12.9896 10.625 12.9923 10.6232 12.9956C10.6214 12.9988 10.6204 13.0025 10.6204 13.0062C10.6204 13.01 10.6214 13.0136 10.6232 13.0169C10.625 13.0201 10.6276 13.0229 10.6308 13.0248M9.0702 10.0805C9.03654 10.0805 9.03654 10.0248 9.0396 10.0093C9.04261 9.95653 9.05291 9.90442 9.0702 9.85452C9.10386 9.75235 9.12528 9.74926 9.13752 9.74926C9.29731 9.75966 9.44672 9.83302 9.55367 9.95359C9.68715 10.0749 9.7952 10.2221 9.87141 10.3864C9.94763 10.5507 9.99046 10.7289 9.99737 10.9102C9.9921 11.2021 9.93831 11.491 9.83825 11.7647C9.83704 11.77 9.83734 11.7754 9.83911 11.7805C9.84089 11.7855 9.84407 11.7899 9.84826 11.7932C9.85246 11.7965 9.8575 11.7984 9.86278 11.7989C9.86806 11.7993 9.87336 11.7982 9.87803 11.7957C10.0188 11.6873 10.3462 11.4428 10.5971 11.2632C11.1112 10.8979 11.8211 10.3963 12.9319 9.53873C12.9502 9.53873 13.0145 9.47991 13.0512 9.50777C13.0879 9.53563 13.0696 9.55421 13.0512 9.59446C12.9607 9.80476 12.8423 10.0016 12.6993 10.1796C12.4484 10.387 10.1993 12.1146 9.75869 12.4397C9.51083 12.6223 9.24461 12.8483 9.009 13.0589C8.77338 13.2694 8.59896 13.4056 8.47044 13.4923C8.45953 13.4961 8.44769 13.4961 8.43678 13.4923H8.4123C8.4123 13.4923 8.38476 13.4582 8.4123 13.4056C8.47922 13.1893 8.57061 12.9815 8.68464 12.7864L9.21095 12.3592L9.59039 12.0496C9.59919 12.0424 9.6056 12.0327 9.60875 12.0217C9.72925 11.7262 9.7996 11.4121 9.81683 11.0929C9.81017 10.871 9.7361 10.6565 9.60469 10.4787C9.47329 10.3009 9.29093 10.1683 9.08244 10.0991M12.6963 13.7957C12.7065 13.8079 12.7191 13.8177 12.7334 13.8247C12.7476 13.8316 12.7631 13.8354 12.7789 13.8359C12.8646 13.8205 12.9105 13.6811 12.9349 13.6037C12.9349 13.5821 12.9594 13.5325 12.9961 13.5387C13.0329 13.5449 13.042 13.6409 13.042 13.644C13.0431 13.741 13.0318 13.8378 13.0084 13.9319C12.9594 14.0991 12.8676 14.192 12.7391 14.2013H12.7177C12.6861 14.202 12.6547 14.1963 12.6252 14.1846C12.5958 14.1729 12.569 14.1554 12.5463 14.1332C12.479 14.0464 12.4295 13.947 12.4006 13.8407C12.3717 13.7344 12.364 13.6233 12.378 13.514C12.3959 13.0712 12.5154 12.6388 12.7269 12.2508C12.7269 12.226 12.7544 12.2198 12.7666 12.2198C12.7741 12.22 12.7813 12.2225 12.7873 12.2269C12.7933 12.2314 12.7978 12.2375 12.8003 12.2446C12.807 12.2575 12.8105 12.2718 12.8105 12.2864C12.8105 12.301 12.807 12.3153 12.8003 12.3282C12.6457 12.6675 12.5544 13.0328 12.531 13.4056C12.5281 13.4812 12.5407 13.5565 12.5681 13.6269C12.5955 13.6972 12.637 13.7611 12.6901 13.8143M6.95576 13.7276C7.0445 13.7276 7.09958 13.5821 7.12712 13.5047C7.1348 13.4804 7.14615 13.4574 7.16078 13.4366C7.16624 13.433 7.17262 13.431 7.17914 13.431C7.18565 13.431 7.19203 13.433 7.19749 13.4366C7.22197 13.4366 7.22198 13.4768 7.22198 13.5109C7.21637 13.6033 7.19993 13.6948 7.17302 13.7833C7.11488 13.9567 7.02002 14.0527 6.89762 14.062H6.8762C6.81685 14.0619 6.75981 14.0386 6.71708 13.9969C6.61799 13.8833 6.56355 13.7367 6.56408 13.5852C6.57065 13.3693 6.62503 13.1577 6.7232 12.966C6.76961 12.8668 6.82711 12.7733 6.89456 12.6873C6.89714 12.6841 6.9004 12.6815 6.90411 12.6797C6.90782 12.6779 6.91187 12.677 6.91598 12.677C6.92009 12.677 6.92414 12.6779 6.92785 12.6797C6.93155 12.6815 6.93482 12.6841 6.9374 12.6873C6.95576 12.6873 6.95882 12.7245 6.9374 12.7493C6.82146 12.9375 6.74636 13.1486 6.71708 13.3685C6.71708 13.579 6.83642 13.7338 6.94658 13.7338M6.39884 12.2756L5.92761 12.6223C5.91044 12.6382 5.89202 12.6527 5.87253 12.6657L5.65527 12.839C5.56347 12.9072 5.52981 12.9226 5.51451 12.9226C5.50744 12.9185 5.5015 12.9127 5.49722 12.9057C5.49295 12.8986 5.49048 12.8906 5.49003 12.8824C5.4869 12.8336 5.4934 12.7846 5.50916 12.7384C5.52492 12.6921 5.54962 12.6495 5.58183 12.613C5.95209 12.3344 7.16996 11.4273 7.21892 11.3994C7.22179 11.3961 7.22532 11.3935 7.22928 11.3917C7.23323 11.3899 7.23752 11.3889 7.24186 11.3889C7.24621 11.3889 7.2505 11.3899 7.25446 11.3917C7.25841 11.3935 7.26194 11.3961 7.26481 11.3994C7.26481 11.3994 7.29235 11.4242 7.26481 11.5263C7.25894 11.5726 7.2455 11.6176 7.22503 11.6595C7.20362 11.6904 6.9527 11.8762 6.39272 12.2787M5.56347 10.2446C5.48697 10.161 5.46555 10.1394 5.46555 10.1208C5.48568 10.036 5.52207 9.95606 5.57265 9.88548C5.5777 9.88091 5.58424 9.87838 5.59101 9.87838C5.59779 9.87838 5.60432 9.88091 5.60937 9.88548C5.75313 9.96916 5.87244 10.0899 5.95515 10.2353C6.08891 10.4177 6.1771 10.6302 6.21219 10.8545C6.24515 11.1157 6.19703 11.3808 6.07449 11.613C6.07123 11.6213 6.06582 11.6286 6.05882 11.6341C6.05181 11.6395 6.04348 11.6429 6.03471 11.644C6.03471 11.644 6.00411 11.6254 6.03471 11.5759C6.08627 11.4386 6.1102 11.2923 6.10509 11.1455C6.10509 10.7988 5.75931 10.4397 5.59407 10.2663M2.70852 10.6626C2.70584 10.6579 2.70442 10.6525 2.70442 10.6471C2.70442 10.6417 2.70584 10.6363 2.70852 10.6316C2.71512 10.6108 2.72585 10.5915 2.74006 10.575C2.75426 10.5585 2.77165 10.5451 2.79114 10.5356C2.95944 10.4459 3.24096 10.288 3.47351 10.1424C3.66365 10.0311 3.84205 9.90038 4.00595 9.75235C4.00986 9.74891 4.01259 9.7443 4.01374 9.73919C4.0149 9.73408 4.01442 9.72873 4.01238 9.72391C4.01034 9.71909 4.00684 9.71505 4.00238 9.71237C3.99793 9.7097 3.99275 9.70852 3.98759 9.70901L3.72137 9.72449C3.55613 9.72449 3.38172 9.75545 3.31746 9.76783C3.23846 9.7725 3.16223 9.7989 3.09698 9.84418C3.03173 9.88947 2.97994 9.95191 2.9472 10.0248V10.0434C2.93907 10.0595 2.92613 10.0727 2.91021 10.081C2.89429 10.0894 2.87619 10.0924 2.85846 10.0898C2.83704 10.0898 2.80644 10.065 2.81562 9.99074C2.86775 9.81479 2.94179 9.64625 3.03594 9.48919L3.09408 9.37464C3.1574 9.21396 3.27732 9.08271 3.43067 9.00622C3.72674 8.93942 4.03052 8.91442 4.33336 8.93192C4.3636 8.93205 4.39345 8.93876 4.4209 8.95158C4.44836 8.9644 4.47276 8.98303 4.49248 9.00622C4.51144 9.0339 4.52356 9.06578 4.52782 9.09918C4.53208 9.13258 4.52835 9.16653 4.51696 9.19817C4.46774 9.37074 4.39894 9.53697 4.31195 9.69353C4.20027 9.91843 4.03905 10.1144 3.84071 10.2663C3.77454 10.308 3.70058 10.3354 3.62345 10.3468C3.37274 10.4039 3.12938 10.4901 2.89824 10.6037C2.84516 10.6283 2.78816 10.643 2.72994 10.6471C2.71324 10.6538 2.69463 10.6538 2.67792 10.6471M4.04267 15.5047C4.00793 15.6392 3.95104 15.7669 3.87437 15.8824C3.83981 15.9354 3.7948 15.9807 3.74214 16.0153C3.68948 16.05 3.63033 16.0732 3.56837 16.0836H3.51635C3.41764 16.082 3.32252 16.0459 3.24708 15.9815C3.13582 15.8829 3.04974 15.7587 2.99616 15.6192C2.91456 15.4111 2.86303 15.1921 2.84316 14.9691C2.80715 14.5107 2.83912 14.0494 2.93802 13.6006C3.01213 13.2524 3.10405 12.9083 3.21342 12.5697L3.25932 12.418C3.28074 12.3406 3.32358 12.2941 3.36642 12.3034C3.40925 12.3127 3.42455 12.3437 3.40619 12.4768C3.40619 12.4923 3.40619 12.5325 3.38477 12.5883C3.25468 13.172 3.1809 13.7672 3.16446 14.3654C3.1691 14.5602 3.20635 14.7528 3.27462 14.935C3.32184 15.0636 3.39961 15.1784 3.50105 15.2694C3.52661 15.2922 3.55699 15.3088 3.58988 15.318C3.62276 15.3271 3.65728 15.3285 3.69077 15.322C3.84377 15.2849 3.92027 15.031 3.95699 14.9072L3.97535 14.8452C3.99983 14.7957 4.03655 14.7709 4.07021 14.7771C4.10387 14.7833 4.13753 14.8019 4.13753 14.9195C4.12894 15.1167 4.09709 15.3121 4.04267 15.5016M10.4686 20.9226C10.4513 21.0038 10.4225 21.0821 10.3829 21.1548C10.3585 21.2186 10.3169 21.2742 10.2628 21.3153C10.2087 21.3563 10.1443 21.3812 10.0769 21.387C10.0294 21.3875 9.98232 21.3775 9.93899 21.3577C9.89566 21.3379 9.85711 21.3089 9.82601 21.2725C9.75013 21.3484 9.64814 21.3917 9.54143 21.3932H9.48941C9.39331 21.3778 9.30153 21.3419 9.22013 21.288C9.14979 21.2455 9.07342 21.2141 8.9937 21.1951C8.83439 21.1786 8.67356 21.1859 8.51634 21.2167C8.32432 21.2495 8.12958 21.263 7.93495 21.257C7.71149 21.2189 7.49772 21.1364 7.30601 21.0141C7.1143 20.8919 6.94845 20.7324 6.81806 20.5449L6.77216 20.4768C6.77216 20.4582 6.74768 20.4335 6.77216 20.4149C6.79664 20.3963 6.815 20.4149 6.82724 20.4366C7.04018 20.688 7.32031 20.872 7.63402 20.9665C7.94773 21.061 8.2817 21.0618 8.5959 20.9691C8.72301 20.9377 8.85377 20.9242 8.98452 20.9288C9.14169 20.9339 9.29474 20.9809 9.42821 21.065C9.48909 21.111 9.56343 21.135 9.63935 21.1332C9.75869 21.1332 9.86579 20.9876 9.94535 20.901C10.0249 20.8143 10.0035 20.8205 10.0249 20.8205C10.0307 20.8179 10.0369 20.8166 10.0433 20.8166C10.0496 20.8166 10.0558 20.8179 10.0616 20.8205C10.0769 20.8452 10.0616 20.8793 10.0616 20.9257C10.0616 20.9722 10.0249 21.0372 10.0616 21.0712C10.0983 21.1053 10.1106 21.1022 10.1595 21.1022C10.2789 21.1022 10.3034 21.0186 10.3309 20.9195C10.3584 20.8205 10.3768 20.7493 10.4747 20.74C10.4788 20.7372 10.4836 20.7357 10.4885 20.7357C10.4934 20.7357 10.4982 20.7372 10.5023 20.74C10.516 20.7896 10.516 20.8421 10.5023 20.8917M8.62956 20.1796C8.73666 20.1796 8.80398 20.0527 8.8254 20.0093C8.84682 19.966 8.8713 19.9381 8.89578 19.9474C8.92026 19.9567 8.92638 19.9784 8.9172 20.0186C8.89888 20.1122 8.86799 20.2028 8.8254 20.288C8.80464 20.3414 8.76961 20.3879 8.72422 20.4224C8.67883 20.4568 8.62487 20.4778 8.56836 20.483H8.52552C8.48934 20.475 8.45552 20.4585 8.42681 20.4349C8.3981 20.4112 8.37531 20.381 8.36028 20.3468C8.31536 20.2893 8.28303 20.2228 8.26542 20.1517C8.25784 19.9385 8.29976 19.7264 8.38782 19.5325C8.44995 19.3872 8.53239 19.2517 8.63262 19.1301C8.6571 19.1022 8.6877 19.0712 8.71218 19.0898C8.73666 19.1084 8.71218 19.1455 8.71218 19.1703L8.68464 19.2167C8.53156 19.4432 8.44751 19.7102 8.4429 19.9846C8.44364 20.0314 8.45918 20.0769 8.48726 20.1142C8.51534 20.1515 8.55448 20.1788 8.59896 20.192M14.2507 21.74C14.2507 21.74 14.1589 22.226 13.8652 22.2663H13.8346C13.7645 22.2645 13.6977 22.2357 13.6479 22.1858C13.5783 22.1063 13.5263 22.0127 13.4951 21.9113C13.464 21.8099 13.4545 21.7029 13.4674 21.5976C13.4943 21.1968 13.6048 20.8064 13.7917 20.452C13.7917 20.452 13.8621 20.3127 13.9111 20.3344C13.96 20.3561 13.9111 20.3963 13.9111 20.4366L13.8866 20.4892C13.7215 20.8341 13.6417 21.2145 13.654 21.5976C13.656 21.6524 13.6686 21.7064 13.6912 21.7563C13.7138 21.8062 13.7459 21.8512 13.7856 21.8886C13.8025 21.9028 13.822 21.9135 13.843 21.9199C13.8641 21.9263 13.8862 21.9282 13.908 21.9257C13.963 21.9068 14.0137 21.8771 14.0573 21.8384C14.1009 21.7996 14.1364 21.7525 14.162 21.6997C14.1865 21.6564 14.2048 21.6378 14.2262 21.6471C14.2477 21.6564 14.2507 21.6997 14.2446 21.7493M18.2838 20.2818C18.2223 20.3853 18.1402 20.4748 18.0428 20.5446C17.9453 20.6144 17.8346 20.663 17.7177 20.6873C17.6292 20.6986 17.5394 20.6901 17.4545 20.6626C17.3885 20.6404 17.3186 20.633 17.2495 20.6409C17.0142 20.7309 16.8042 20.8775 16.6375 21.0681C16.2874 21.4411 15.8509 21.7198 15.3676 21.8793C15.2883 21.8991 15.2074 21.9116 15.1259 21.9164C15.0666 21.9254 15.006 21.9134 14.9545 21.8824C14.9515 21.8761 14.95 21.8692 14.95 21.8623C14.95 21.8553 14.9515 21.8484 14.9545 21.8421C14.9545 21.8421 14.9698 21.7957 15.0922 21.7678C15.3795 21.7024 15.6497 21.5757 15.8847 21.3963C16.0932 21.2348 16.2886 21.0567 16.4692 20.8638C16.7507 20.579 16.9925 20.3282 17.2862 20.3096C17.3779 20.3061 17.4694 20.3208 17.5555 20.353C17.5605 20.3563 17.5663 20.3581 17.5723 20.3581C17.5783 20.3581 17.5842 20.3563 17.5891 20.353C17.6412 20.2539 17.7085 20.1363 17.7789 20.0248C17.9931 19.6811 18.1614 19.5016 18.2807 19.4985C18.3329 19.5092 18.381 19.5347 18.4195 19.5719C18.4579 19.6092 18.4851 19.6567 18.498 19.709C18.4855 19.9207 18.4145 20.1245 18.2929 20.2972M21.0469 17.2013C20.8182 17.5577 20.5019 17.8479 20.1289 18.0434C19.6569 18.3104 19.1597 18.5293 18.6448 18.6966C18.127 18.872 17.5986 19.0137 17.0628 19.1208C16.6603 19.209 16.2506 19.2598 15.8388 19.2725H15.8052C15.7962 19.2728 15.7875 19.2759 15.7803 19.2814C15.7732 19.287 15.768 19.2947 15.7654 19.3034C15.7379 19.3901 15.7073 19.4768 15.6797 19.5573C15.6522 19.6378 15.6491 19.6502 15.6338 19.6935C15.6031 19.7992 15.5653 19.9026 15.5206 20.0031C15.4961 20.0527 15.4686 20.1022 15.438 20.1022C15.386 20.0805 15.438 19.9443 15.438 19.9381C15.4808 19.8019 15.5329 19.6285 15.591 19.4025C15.5967 19.3753 15.6038 19.3484 15.6124 19.322C15.6142 19.3159 15.6147 19.3094 15.6138 19.3031C15.6129 19.2967 15.6106 19.2907 15.6071 19.2854C15.6036 19.28 15.5989 19.2756 15.5935 19.2723C15.5881 19.269 15.582 19.2669 15.5757 19.2663C15.4293 19.25 15.2861 19.2125 15.1504 19.1548C15.0388 19.1036 14.9179 19.0762 14.7954 19.0743C14.1528 19.0743 13.6173 19.9319 13.1063 20.6997C12.878 21.0949 12.6288 21.4773 12.3597 21.8452C12.2547 21.9643 12.1342 22.0684 12.0016 22.1548C11.8938 22.2501 11.7564 22.3042 11.6133 22.3076C11.4702 22.311 11.3304 22.2635 11.2183 22.1734C11.0745 22.0403 10.6063 20.9969 11.2183 19.4489C11.2856 19.2756 11.3499 19.1394 11.3988 19.0372C11.401 19.0327 11.4018 19.0277 11.4011 19.0228C11.4004 19.0179 11.3982 19.0133 11.3949 19.0097C11.3917 19.006 11.3873 19.0034 11.3826 19.0022C11.3778 19.0011 11.3728 19.0014 11.3682 19.0031C11.2953 19.0385 11.2164 19.0595 11.1357 19.065C11.036 19.0658 10.9374 19.0452 10.8461 19.0047C10.7549 18.9641 10.6732 18.9045 10.6063 18.8298C10.5265 18.7348 10.4577 18.631 10.4013 18.5202C10.3992 18.5163 10.3961 18.5131 10.3923 18.5108C10.3885 18.5086 10.3842 18.5074 10.3799 18.5074C10.3755 18.5074 10.3712 18.5086 10.3674 18.5108C10.3637 18.5131 10.3606 18.5163 10.3584 18.5202C10.2654 18.6591 10.1632 18.7915 10.0524 18.9164C9.8955 19.0956 9.67626 19.2065 9.44045 19.226H9.33641C9.03042 19.226 8.75808 18.9938 8.58366 18.5263C8.47071 18.2263 8.38967 17.915 8.34192 17.5976V17.5016C8.34192 17.495 8.33934 17.4887 8.33475 17.4841C8.33016 17.4794 8.32394 17.4768 8.31744 17.4768C8.31095 17.4768 8.30472 17.4794 8.30013 17.4841C8.29554 17.4887 8.29296 17.495 8.29296 17.5016C8.23858 17.7799 8.15867 18.0525 8.05429 18.3158C7.9833 18.4895 7.89514 18.6555 7.79113 18.8112C7.67485 18.9846 7.35355 19.3963 6.4631 19.74C6.19323 19.8413 5.91305 19.9119 5.62773 19.9505C5.62351 19.9519 5.61905 19.9525 5.61461 19.9522C5.61016 19.9519 5.60582 19.9507 5.60184 19.9487C5.59785 19.9467 5.5943 19.9439 5.59139 19.9405C5.58848 19.9371 5.58628 19.9331 5.58489 19.9288C5.58134 19.9164 5.58214 19.9032 5.58716 19.8913C5.59218 19.8795 5.60111 19.8697 5.61243 19.8638C6.22743 19.5337 6.7863 19.1062 7.26788 18.5976C7.48765 18.3791 7.68078 18.1349 7.84315 17.87C7.96327 17.6848 8.03487 17.4717 8.05123 17.2508C8.05123 17.2167 8.05123 17.1486 8.05123 17.0558C8.05168 17.048 8.04992 17.0403 8.04615 17.0336C8.04238 17.0268 8.03676 17.0213 8.02997 17.0177C8.02319 17.0141 8.01552 17.0126 8.00789 17.0133C8.00026 17.014 7.993 17.0169 7.98697 17.0217C7.5856 17.2817 7.19941 17.565 6.8303 17.87C6.27339 18.3158 5.71341 18.7493 5.14426 18.7493H5.02492C4.86382 18.7347 4.71357 18.6609 4.60264 18.5418C4.4765 18.4074 4.38965 18.2402 4.35172 18.0589C4.22658 17.5182 4.29037 16.9504 4.53226 16.452C4.89184 15.7943 5.38765 15.223 5.98575 14.7771C5.99038 14.7728 5.99408 14.7675 5.99661 14.7616C5.99914 14.7558 6.00044 14.7495 6.00044 14.7431C6.00044 14.7367 5.99914 14.7303 5.99661 14.7245C5.99408 14.7186 5.99038 14.7134 5.98575 14.709L5.67975 14.3994L5.53287 14.2601C5.34621 14.0774 5.17486 13.8793 5.00656 13.6811C4.8811 13.5418 4.76176 13.3963 4.64242 13.2539C4.52308 13.1115 4.03043 12.4118 3.83153 12.1734C3.80137 12.1507 3.76847 12.132 3.73361 12.1177C3.65044 12.0931 3.57606 12.0447 3.51941 11.9784C3.48731 11.8591 3.46883 11.7365 3.46433 11.613C3.4601 11.5409 3.4601 11.4685 3.46433 11.3963C3.46433 11.2972 3.46433 11.2756 3.49493 11.2632C3.50116 11.2573 3.50937 11.254 3.51788 11.254C3.5264 11.254 3.5346 11.2573 3.54083 11.2632C3.7117 11.3941 3.89521 11.5071 4.08857 11.6007C4.41164 11.7584 4.71904 11.9471 5.00656 12.1641C5.10448 12.2384 5.24524 12.3901 5.24524 12.4459C5.24852 12.4548 5.24852 12.4647 5.24524 12.4737C5.22688 12.4737 5.1871 12.4737 4.9576 12.4087L4.79542 12.3592L4.72198 12.3406C4.72198 12.3406 4.67608 12.322 4.66078 12.3406C4.64548 12.3592 4.73116 12.4923 4.7434 12.5078C4.79236 12.5759 5.23606 13.0712 5.31255 13.1517C5.48697 13.3437 5.66139 13.5356 5.84193 13.7214C5.94903 13.8298 6.07143 13.9443 6.19995 14.0712C6.57541 14.4194 6.92614 14.7939 7.24952 15.192C7.53192 15.5406 7.75151 15.9367 7.89823 16.3623C7.90016 16.3683 7.90339 16.3739 7.90769 16.3785C7.91198 16.3832 7.91724 16.3868 7.92308 16.3892C7.92892 16.3915 7.93521 16.3926 7.94149 16.3922C7.94777 16.3918 7.9539 16.3901 7.95943 16.387L8.00227 16.3592C8.00945 16.3554 8.01535 16.3496 8.01917 16.3424C8.023 16.3352 8.02457 16.327 8.02369 16.3189C7.93495 15.2198 7.77583 13.4025 7.65955 12.0589C7.57081 11.0527 7.50655 10.3282 7.50655 10.288C7.52676 10.1514 7.57925 10.0219 7.65955 9.91025C7.70691 9.8012 7.76536 9.69744 7.83397 9.60065C7.84502 9.59381 7.85773 9.59019 7.87069 9.59019C7.88365 9.59019 7.89635 9.59381 7.90741 9.60065C7.94107 9.61613 7.95331 9.66566 7.96249 9.72139C8.03899 10.3406 8.10019 11.1301 8.15833 11.8886C8.24401 13.0186 8.32968 14.1889 8.5041 15.2446C8.54388 15.4892 8.57448 15.7276 8.60508 15.9567C8.60587 15.9636 8.60826 15.9701 8.61207 15.9759C8.61589 15.9816 8.621 15.9864 8.62699 15.9897C8.63298 15.993 8.63968 15.9949 8.64651 15.995C8.65335 15.9952 8.66012 15.9938 8.66628 15.9907C9.11941 15.7721 9.5854 15.5818 10.0616 15.4211C9.93311 15.2601 9.84131 15.1455 9.84131 15.0372C9.83013 14.7972 9.8944 14.5599 10.0249 14.3592C10.0864 14.2736 10.1686 14.2053 10.2636 14.161C10.3677 14.111 10.4819 14.0866 10.5971 14.0898C10.8981 14.1579 11.1809 14.291 11.4264 14.4799C11.5692 14.5716 11.7043 14.6752 11.8303 14.7895C11.9496 14.9041 12.0078 14.9969 12.0078 15.065C11.9944 15.2023 11.9614 15.3368 11.9098 15.4644C11.8823 15.5356 11.8578 15.6006 11.8333 15.6502C11.8089 15.6997 11.7752 15.7431 11.766 15.7462L11.5059 15.7616C11.378 15.7632 11.2503 15.7725 11.1234 15.7895L10.7562 15.8762C10.747 15.8782 10.7387 15.8833 10.7327 15.8905C10.7266 15.8978 10.723 15.9069 10.7226 15.9164C10.7243 15.9308 10.7243 15.9454 10.7226 15.9598V15.9907C10.7196 16.0473 10.7104 16.1034 10.695 16.1579C10.6614 16.2725 10.64 16.2787 10.6277 16.2787C10.6155 16.2787 10.6002 16.2787 10.591 16.2539C10.5561 16.163 10.5163 16.0741 10.4717 15.9876C10.4671 15.979 10.4598 15.9721 10.4509 15.9681C10.442 15.9642 10.4321 15.9634 10.4227 15.966C9.83944 16.1262 9.27278 16.3429 8.73054 16.613C8.72303 16.6174 8.71681 16.6237 8.71251 16.6314C8.70821 16.639 8.70598 16.6476 8.70606 16.6564C8.74401 17.0621 8.82401 17.4626 8.94474 17.8514C8.99766 18.018 9.09011 18.169 9.21401 18.2911C9.3334 18.3979 9.48929 18.4535 9.64853 18.4459C9.86126 18.4393 10.0632 18.3494 10.2116 18.1951C10.3514 18.0423 10.4832 17.8821 10.6063 17.7152C10.6706 17.6347 10.7593 17.548 10.8205 17.5852C10.8817 17.6223 10.8389 17.6811 10.8205 17.7585C10.7849 17.831 10.7768 17.9142 10.7976 17.9923C10.8185 18.0705 10.8669 18.1382 10.9337 18.1827C11.0657 18.2856 11.2293 18.3382 11.3958 18.3313C11.5433 18.3269 11.6831 18.2634 11.7844 18.1548C11.8919 18.0437 11.9873 17.9213 12.069 17.7895C12.1355 17.6678 12.2274 17.5621 12.3382 17.4799C12.3933 17.452 12.4209 17.4613 12.4331 17.4799C12.4453 17.4985 12.4331 17.5635 12.4331 17.6007L12.4086 17.6347C12.3709 17.677 12.3511 17.7326 12.3535 17.7895C12.3869 17.8775 12.4449 17.9536 12.5205 18.0086C12.596 18.0636 12.6859 18.0951 12.7789 18.0991C12.9808 18.0991 13.0543 17.9753 13.1338 17.7895C13.1897 17.5229 13.3037 17.2722 13.4674 17.0558C13.5194 17.0248 13.5469 17.0372 13.5622 17.0558C13.5775 17.0743 13.5775 17.1393 13.5622 17.1765C13.5177 17.2302 13.4938 17.2984 13.4949 17.3685C13.4949 17.4397 13.6112 17.5542 13.7458 17.613C13.8109 17.6351 13.8791 17.6466 13.9478 17.6471H14.0029C14.0934 17.6425 14.181 17.6136 14.2568 17.5635C14.3303 17.514 14.3517 17.4644 14.3517 17.4489C14.3517 17.3313 14.2966 16.9381 14.2048 16.3406C14.009 15.0093 13.6754 12.7833 13.4551 10.0558C13.4436 10.0291 13.4303 10.0032 13.4154 9.97836C13.3613 9.9091 13.3293 9.8249 13.3236 9.73687C13.3648 9.6209 13.4203 9.51064 13.4888 9.4087C13.5347 9.33749 13.5745 9.27557 13.6112 9.22913C13.6479 9.18269 13.6938 9.14245 13.7091 9.14245C13.7134 9.14155 13.7177 9.14158 13.722 9.14254C13.7262 9.1435 13.7302 9.14536 13.7337 9.14799C13.7372 9.15063 13.74 9.15398 13.7421 9.15783C13.7442 9.16168 13.7455 9.16593 13.7458 9.17031C13.8083 9.37889 13.8924 9.58022 13.9967 9.77093C14.1643 10.0919 14.3026 10.4276 14.4098 10.774C14.4496 10.8935 14.4601 11.021 14.4404 11.1455C14.4316 11.1492 14.4217 11.1492 14.4129 11.1455C14.3884 11.1455 14.3639 11.1177 14.2201 10.9226L14.1161 10.7864C14.1161 10.7678 14.0855 10.7462 14.0671 10.7276C14.0488 10.709 14.0396 10.6842 14.0243 10.6811C14.009 10.6781 13.9906 10.8081 13.9906 10.8236C13.9906 11.2911 14.165 12.4675 14.3364 13.6099C14.5078 14.7524 14.6914 15.9536 14.6914 16.4366C14.7154 16.7696 14.6695 17.1041 14.5567 17.418C14.5567 17.4551 14.5322 17.4923 14.5169 17.5325C14.4509 17.785 14.3307 18.0196 14.165 18.2198C14.1181 18.2756 14.06 18.3207 13.9946 18.3522C13.9292 18.3837 13.858 18.4008 13.7856 18.4025C13.5555 18.4 13.3331 18.3181 13.1553 18.1703C13.1516 18.1652 13.1467 18.161 13.1411 18.1582C13.1356 18.1553 13.1294 18.1538 13.1231 18.1538C13.1169 18.1538 13.1107 18.1553 13.1051 18.1582C13.0995 18.161 13.0947 18.1652 13.091 18.1703C13.0379 18.2932 12.9744 18.4113 12.9013 18.5233C12.8618 18.5906 12.8077 18.6479 12.743 18.6908C12.6783 18.7337 12.6047 18.7611 12.528 18.7709C12.3531 18.7752 12.1829 18.7134 12.0506 18.5976C11.9965 18.5493 11.95 18.4929 11.9129 18.4304C11.9087 18.424 11.903 18.4187 11.8964 18.4151C11.8897 18.4115 11.8822 18.4096 11.8747 18.4096C11.8671 18.4096 11.8596 18.4115 11.853 18.4151C11.8463 18.4187 11.8406 18.424 11.8364 18.4304L11.8058 18.4892C11.5981 18.8124 11.4363 19.1637 11.3254 19.5325C10.9888 21.3313 11.5182 21.3901 11.6865 21.3901C11.7983 21.3783 11.9062 21.3416 12.0025 21.2827C12.0988 21.2239 12.181 21.1443 12.2434 21.0496C12.4644 20.7432 12.6687 20.4249 12.8554 20.096C13.1329 19.6342 13.4581 19.2036 13.8254 18.8112C13.9667 18.6407 14.1401 18.5003 14.3355 18.3983C14.531 18.2962 14.7445 18.2345 14.9637 18.2167C15.0953 18.2136 15.2256 18.2433 15.3431 18.3034C15.4739 18.3655 15.6151 18.4023 15.7593 18.4118C15.7704 18.4125 15.7815 18.4096 15.7909 18.4035C15.8002 18.3973 15.8074 18.3883 15.8113 18.3777C15.9031 18.0929 15.9949 17.8421 16.0928 17.613C16.2863 17.1439 16.5416 16.7034 16.8517 16.3034C16.9757 16.1452 17.1221 16.0065 17.2862 15.8917C17.4172 15.7949 17.5739 15.7399 17.736 15.7338C18.089 15.7313 18.4315 15.8553 18.703 16.0836C18.8099 16.1607 18.8999 16.2594 18.9673 16.3734C19.0347 16.4875 19.0781 16.6144 19.0947 16.7462C19.0562 17.0433 18.9616 17.3303 18.8162 17.5914C18.7642 17.7059 18.7091 17.8143 18.6632 17.901C19.0649 17.7767 19.4584 17.6267 19.8413 17.452C20.2064 17.2938 20.5483 17.0855 20.8572 16.8328C20.8572 16.8328 20.8572 16.805 20.8419 16.7369C20.8078 16.6499 20.758 16.5701 20.695 16.5016C20.6376 16.4314 20.5551 16.3869 20.4655 16.3777C20.2805 16.3785 20.0964 16.4035 19.9178 16.452C19.824 16.4788 19.7275 16.4944 19.6301 16.4985C19.4037 16.4985 19.0977 16.3437 19.061 16.161C19.0146 15.9165 19.0304 15.664 19.1069 15.4273C19.1701 15.2288 19.2744 15.0462 19.4129 14.8917C19.4834 14.8007 19.5722 14.726 19.6736 14.6726C19.7749 14.6192 19.8863 14.5883 20.0004 14.5821C20.1844 14.6112 20.3564 14.6928 20.4961 14.8174C20.6347 14.9468 20.747 15.1025 20.8266 15.2756C20.9834 15.624 21.0757 15.9987 21.0989 16.3808C21.1319 16.6414 21.1058 16.9061 21.0224 17.1548M21.1418 13.3406L20.9796 13.5263C20.8977 13.6334 20.8054 13.7319 20.7042 13.8205C20.6736 13.8205 20.6308 13.7957 20.4778 13.6904C20.3707 13.613 20.236 13.5233 20.1197 13.452C20.0545 13.4083 19.9871 13.368 19.9178 13.3313C19.9092 13.3254 19.8991 13.3223 19.8887 13.3223C19.8784 13.3223 19.8682 13.3254 19.8596 13.3313L19.6546 13.579C19.4986 13.7709 19.4802 13.8081 19.4496 13.8081C19.419 13.8081 19.3884 13.7895 19.3027 13.7431C19.2171 13.6966 19.1283 13.6471 19.0365 13.5945C18.9447 13.5418 18.8621 13.4954 18.7825 13.4428C18.703 13.3901 18.6693 13.3592 18.6693 13.3406C18.6693 13.322 18.7152 13.2415 18.8713 13.0774C18.957 12.9907 19.0794 12.839 19.113 12.7988C19.1467 12.7585 19.1467 12.7802 19.2018 12.7988L19.3701 12.8824C19.4924 12.9443 19.6393 13.0248 19.7464 13.0836L19.8596 13.1517C19.8671 13.1575 19.8763 13.1606 19.8857 13.1606C19.8951 13.1606 19.9042 13.1575 19.9117 13.1517L20.0371 13.0062C20.3095 12.6966 20.3431 12.6781 20.3645 12.675C20.422 12.694 20.4766 12.7211 20.5267 12.7554L20.8113 12.9257C20.9245 12.9907 21.0224 13.0465 21.0928 13.0929C21.1303 13.1137 21.1661 13.1376 21.1999 13.1641C21.2366 13.1889 21.2458 13.2013 21.2458 13.2168C21.2458 13.2322 21.2458 13.2477 21.1571 13.3437M21.9741 14.5202C21.9756 14.5449 21.9756 14.5697 21.9741 14.5945C21.9221 14.774 21.8088 15.0712 21.6405 15.0712H21.6222C21.4906 15.0712 21.3988 14.9072 21.3896 14.6904C21.3874 14.4023 21.4502 14.1175 21.5732 13.8576C21.6446 13.6676 21.7482 13.4916 21.8792 13.3375C21.8792 13.3375 21.9159 13.3034 21.9374 13.322C21.9588 13.3406 21.9374 13.3684 21.9374 13.3963C21.9374 13.4242 21.9037 13.452 21.8823 13.4923L21.8394 13.5666C21.6724 13.8657 21.5799 14.2015 21.5702 14.5449C21.5673 14.5792 21.5722 14.6138 21.5844 14.6459C21.5966 14.6781 21.6158 14.7071 21.6405 14.7307C21.6505 14.7405 21.6627 14.7476 21.6761 14.7514C21.6894 14.7552 21.7035 14.7555 21.717 14.7524C21.7721 14.7524 21.8609 14.6192 21.9068 14.5109C21.9068 14.4892 21.9374 14.4459 21.968 14.4582C21.9986 14.4706 21.9924 14.4954 21.9924 14.5202M22.0353 11.4056C22.0132 11.4117 21.99 11.4117 21.968 11.4056C21.9312 11.4056 21.8823 11.3654 21.8364 11.4056C21.8294 11.5087 21.8294 11.6121 21.8364 11.7152C21.8364 11.8174 21.8364 11.9226 21.8364 12.0062C21.8344 12.15 21.8252 12.2937 21.8088 12.4366C21.7752 12.6935 21.7354 12.7276 21.6987 12.7276C21.662 12.7276 21.6314 12.6657 21.5518 12.4861L21.4784 12.3158C21.4508 12.257 21.4202 12.1951 21.3896 12.1393C21.3595 12.0864 21.3258 12.0358 21.2887 11.9876C21.2683 11.9619 21.2446 11.939 21.2183 11.9195C21.2092 11.9179 21.1998 11.9179 21.1907 11.9195C21.1907 11.9195 21.1907 11.9381 21.1907 11.9443C21.1907 11.9505 21.1693 12.0093 21.1387 12.0155C21.0359 11.995 20.94 11.9481 20.8603 11.8793C20.8227 11.8508 20.7921 11.8139 20.7708 11.7715C20.7496 11.729 20.7383 11.6822 20.7379 11.6347C20.7446 11.5203 20.7887 11.4114 20.8633 11.3251C20.87 11.3203 20.878 11.3177 20.8863 11.3177C20.8945 11.3177 20.9025 11.3203 20.9092 11.3251C21.1616 11.406 21.378 11.5735 21.5212 11.7988C21.5736 11.8791 21.6187 11.9641 21.6558 12.0527C21.6576 12.0574 21.6607 12.0615 21.6648 12.0644C21.6689 12.0673 21.6738 12.0688 21.6788 12.0688C21.6838 12.0688 21.6887 12.0673 21.6928 12.0644C21.6969 12.0615 21.7 12.0574 21.7017 12.0527C21.7017 11.9381 21.7017 11.8019 21.7017 11.7245C21.7017 11.6471 21.7017 11.6161 21.7017 11.5976C21.7017 11.3344 21.87 11.0898 22.0077 11.0774C22.0595 11.0789 22.1088 11.1002 22.1457 11.137C22.1826 11.1737 22.2043 11.2232 22.2066 11.2756C22.2114 11.3175 22.2005 11.3598 22.1762 11.3941C22.1519 11.4284 22.1159 11.4524 22.0751 11.4613" fill="#C4B681"/>
<path d="M19.771 15.3158C19.563 15.3158 19.4161 15.5201 19.3916 15.5356C19.4389 15.6039 19.5016 15.6597 19.5745 15.6985C19.6474 15.7372 19.7284 15.7578 19.8108 15.7585C19.9853 15.7647 20.1587 15.7275 20.3157 15.6502C20.184 15.4713 19.9887 15.3513 19.771 15.3158Z" fill="#C4B681"/>
<path d="M10.4807 15.1486C10.4879 15.1536 10.4964 15.1564 10.5052 15.1564C10.5139 15.1564 10.5225 15.1536 10.5297 15.1486L10.9152 15.034C10.919 15.0319 10.9222 15.0288 10.9245 15.0249C10.9267 15.0211 10.9278 15.0168 10.9278 15.0124C10.9278 15.0079 10.9267 15.0036 10.9245 14.9998C10.9222 14.996 10.919 14.9928 10.9152 14.9907C10.8364 14.9313 10.7536 14.8775 10.6674 14.8297C10.5245 14.7411 10.3651 14.6832 10.1992 14.6594C10.1638 14.6603 10.1287 14.6665 10.0951 14.678C10.0913 14.6801 10.0881 14.6833 10.0859 14.6871C10.0837 14.6909 10.0825 14.6952 10.0825 14.6997C10.0825 14.7041 10.0837 14.7084 10.0859 14.7123C10.0881 14.7161 10.0913 14.7192 10.0951 14.7213C10.2414 14.8395 10.3701 14.9781 10.4776 15.1331" fill="#C4B681"/>
<path d="M6.22421 14.8699C6.21649 14.8633 6.20674 14.8597 6.19667 14.8597C6.18659 14.8597 6.17684 14.8633 6.16913 14.8699C5.86313 15.1052 4.98492 15.8823 4.73094 16.4395C4.64838 16.6012 4.59943 16.7782 4.58712 16.9597C4.58435 17.0975 4.60934 17.2344 4.66056 17.3621C4.70056 17.4598 4.76113 17.5475 4.83804 17.6191C4.96208 17.7288 5.1201 17.7912 5.28479 17.7956C5.84477 17.7956 6.30988 17.4426 6.79642 17.0649C7.00756 16.9008 7.28907 16.681 7.59813 16.4767C7.60566 16.4682 7.60982 16.4572 7.60982 16.4457C7.60982 16.4343 7.60566 16.4233 7.59813 16.4148C7.17801 15.8619 6.71444 15.3442 6.21197 14.8668" fill="#C4B681"/>
<path d="M18.6142 17.0805C18.4936 16.8979 18.3301 16.7483 18.1384 16.6451C17.9468 16.5419 17.7328 16.4884 17.5157 16.4891C17.3709 16.5014 17.2305 16.5454 17.1042 16.6181C16.9779 16.6908 16.8688 16.7905 16.7844 16.9102C16.5377 17.217 16.3395 17.5606 16.1969 17.9288C16.1479 18.0495 16.0653 18.2724 16.0316 18.3684C16.0296 18.3738 16.0288 18.3795 16.0296 18.3852C16.0303 18.391 16.0325 18.3964 16.0358 18.401C16.0392 18.4056 16.0436 18.4093 16.0488 18.4118C16.0539 18.4142 16.0596 18.4152 16.0653 18.4148C16.3033 18.4101 16.5406 18.3873 16.7752 18.3467C17.1425 18.2686 17.4976 18.1405 17.8309 17.9659C18.1653 17.8272 18.4607 17.6071 18.6907 17.3251C18.7091 17.291 18.6907 17.2012 18.6142 17.0805Z" fill="#C4B681"/>
</g>
<defs>
<clipPath id="clip0_766_2759">
<rect width="24.2415" height="24.5108" fill="white" transform="translate(0.288086 0.117676)"/>
</clipPath>
</defs>
</svg>
