<svg width="295" height="139" viewBox="0 0 295 139" fill="none" xmlns="http://www.w3.org/2000/svg">
<g clip-path="url(#clip0_654_1212)">
<mask id="mask0_654_1212" style="mask-type:luminance" maskUnits="userSpaceOnUse" x="0" y="0" width="295" height="139">
<path d="M295 0H0V139H295V0Z" fill="white"/>
</mask>
<g mask="url(#mask0_654_1212)">
<path d="M58.1639 40.7153C58.3381 41.3649 58.5123 41.9794 58.7213 42.5588C58.7341 42.5916 58.7539 42.6213 58.7791 42.6457C58.8044 42.6702 58.8345 42.6889 58.8676 42.7006C58.9006 42.7122 58.9358 42.7166 58.9707 42.7133C59.0056 42.7101 59.0393 42.6993 59.0697 42.6817C59.8722 42.2347 60.6305 41.7115 61.3342 41.1191C61.3342 41.1191 61.3342 41.0137 61.3342 40.926C61.2428 39.7798 60.9967 38.6516 60.6026 37.5725C60.08 36.168 59.4703 35.3428 58.8607 35.3428C58.3584 35.3574 57.8823 35.572 57.5368 35.9397C57.4678 36.0119 57.4138 36.0972 57.378 36.1907C57.3421 36.2841 57.325 36.3838 57.3277 36.484C57.3191 36.5422 57.3191 36.6014 57.3277 36.6596C57.4474 38.0262 57.6687 39.3819 57.9897 40.7153" fill="#C4B681"/>
<path d="M101.852 111.716C101.643 111.716 101.12 111.98 100.11 113.612C99.9704 113.841 99.8136 114.069 99.6743 114.315C99.662 114.34 99.6576 114.368 99.6616 114.396C99.6655 114.424 99.6776 114.45 99.6964 114.471C99.7152 114.492 99.7397 114.506 99.7668 114.513C99.7939 114.52 99.8224 114.518 99.8485 114.508C100.889 113.942 101.807 113.172 102.549 112.243C102.549 112.243 102.549 112.243 102.549 112.103C102.475 111.996 102.379 111.906 102.268 111.839C102.157 111.772 102.033 111.731 101.904 111.716" fill="#C4B681"/>
<path d="M103.141 33.3234C103.455 32.744 102.967 29.7241 101.103 29.8119C100.719 29.8272 100.342 29.9261 99.9995 30.1019C99.6567 30.2777 99.3557 30.5262 99.1172 30.8303C100.324 31.8636 101.681 32.7044 103.141 33.3234Z" fill="#C4B681"/>
<path d="M68.9466 0C59.8909 -2.9131e-07 50.924 1.79803 42.5578 5.29139C34.1917 8.78475 26.5903 13.905 20.1878 20.3597C13.7853 26.8144 8.70711 34.4772 5.24325 42.9103C1.77938 51.3433 -0.00228574 60.3816 2.20075e-06 69.5088C2.20075e-06 87.939 7.26399 105.614 20.194 118.647C33.124 131.679 50.6608 139 68.9466 139C87.2323 139 104.769 131.679 117.699 118.647C130.629 105.614 137.893 87.939 137.893 69.5088C137.895 60.3816 136.114 51.3433 132.65 42.9103C129.186 34.4772 124.108 26.8144 117.705 20.3597C111.303 13.905 103.701 8.78475 95.3353 5.29139C86.9692 1.79803 78.0022 -2.9131e-07 68.9466 0ZM121.414 54.4272C121.745 54.1814 121.937 54.2516 122.024 54.3218C122.072 54.3881 122.098 54.468 122.098 54.5501C122.098 54.6322 122.072 54.7121 122.024 54.7783C121.573 55.9764 120.988 57.119 120.282 58.1844C119.655 58.7287 117.652 60.2386 114.864 62.3455C108.82 66.9279 98.7166 74.6355 92.2191 80.2362C92.1853 80.2483 92.1484 80.2483 92.1146 80.2362C92.0807 80.2483 92.0439 80.2483 92.01 80.2362C92.01 80.2362 92.01 80.1133 92.01 79.569C92.01 79.0248 92.1842 78.8843 92.3062 78.4629C92.4698 77.8161 92.7096 77.1913 93.0204 76.6019C95.481 74.1172 98.1184 71.8169 100.911 69.7195C100.921 69.6973 100.926 69.6734 100.926 69.6493C100.926 69.6251 100.921 69.6012 100.911 69.579C101.268 68.3653 101.444 67.1051 101.434 65.8393C101.445 64.5966 101.019 63.3902 100.232 62.4333C99.6625 61.7497 98.9929 61.1576 98.2462 60.6776C98.0643 60.5662 97.8897 60.4431 97.7236 60.3088C97.7236 60.3088 97.6191 60.1157 97.7236 59.7119C97.7979 59.4681 97.8971 59.2327 98.0198 59.0096C98.1243 58.834 98.2462 58.6409 98.4204 58.6936C99.4303 59.096 100.294 59.8007 100.894 60.7127C101.735 61.8836 102.198 63.2877 102.218 64.7333C102.199 66.0137 102.059 67.2895 101.8 68.5432C101.793 68.5721 101.795 68.6027 101.806 68.6304C101.817 68.6581 101.837 68.6815 101.862 68.6971C101.887 68.7128 101.917 68.7199 101.946 68.7175C101.976 68.7151 102.004 68.7032 102.026 68.6836L104.186 67.0332C109.046 63.3813 120.735 54.6554 121.292 54.2516M100.18 79.9729C100.205 80.457 100.375 80.9221 100.668 81.3072C100.778 81.4483 100.918 81.5627 101.077 81.6417C101.237 81.7207 101.413 81.7624 101.591 81.7637C101.856 81.7451 102.107 81.6385 102.306 81.4606C102.504 81.2827 102.639 81.0436 102.688 80.7805C102.688 80.5171 102.828 80.2538 103.019 80.2889C103.211 80.324 103.211 80.8683 103.193 81.0263C103.114 81.4858 102.979 81.9338 102.793 82.3606C102.679 82.701 102.464 82.9979 102.178 83.2114C101.891 83.4249 101.546 83.5446 101.19 83.5545C100.92 83.5411 100.656 83.4642 100.42 83.3301C100.184 83.196 99.9827 83.0084 99.8314 82.782C99.4248 82.1949 99.206 81.4965 99.2043 80.7805C99.307 78.5735 100.019 76.4392 101.26 74.6179C101.26 74.4775 101.521 74.1263 101.73 74.2492C101.939 74.3721 101.73 74.653 101.73 74.934C101.733 74.9749 101.733 75.0159 101.73 75.0568C101.391 75.6553 101.094 76.2772 100.842 76.9179C100.445 77.8849 100.26 78.9272 100.302 79.9729M92.9158 67.9638C93.1068 67.9581 93.2929 67.9015 93.4551 67.7998C93.6173 67.698 93.7498 67.5546 93.8391 67.3844C93.9897 67.1088 94.1011 66.8133 94.1701 66.5065C94.1701 66.5065 94.1701 66.5065 94.1701 66.4187C94.1701 66.3309 94.4139 66.0149 94.5707 66.0676C94.7275 66.1203 94.7101 66.5241 94.6926 66.647C94.5871 67.2055 94.4115 67.7483 94.1701 68.2622C93.7346 69.2279 93.1771 69.7019 92.4281 69.7019C92.1364 69.6948 91.8511 69.6138 91.5985 69.4666C91.3458 69.3193 91.134 69.1105 90.9823 68.8592C90.5775 68.2141 90.3714 67.4627 90.39 66.6996C90.5023 64.2281 91.2013 61.8198 92.4281 59.6768V59.589C92.4585 59.5218 92.514 59.4694 92.5824 59.4431C92.6509 59.4169 92.7269 59.4188 92.7939 59.4485C92.9158 59.4485 92.9855 59.6417 92.8984 59.8875C92.55 60.7302 92.2539 61.5378 92.01 62.3279C91.6044 63.4539 91.3924 64.6414 91.3829 65.8393C91.3829 66.8577 92.132 67.9111 92.7765 67.9111M100.65 53.2333H99.5527C98.7166 53.2333 97.8108 53.4089 97.4972 53.4791C97.0761 53.5232 96.6755 53.6845 96.3402 53.945C96.0049 54.2054 95.7481 54.5548 95.5985 54.9539C95.5985 54.9539 95.5985 54.9539 95.5985 55.0417C95.5668 55.133 95.5036 55.2098 95.4205 55.2581C95.3374 55.3064 95.2398 55.3231 95.1456 55.305C95.041 55.305 94.8843 55.1646 94.9365 54.7608C95.1964 53.772 95.5705 52.8173 96.0514 51.9165L96.3475 51.2669C96.7292 50.3832 97.4435 49.6885 98.3333 49.3356C99.8327 48.9755 101.375 48.8336 102.915 48.9142C103.07 48.9253 103.221 48.9684 103.359 49.0408C103.497 49.1133 103.618 49.2137 103.716 49.3356C103.817 49.4958 103.881 49.6763 103.905 49.8643C103.929 50.0524 103.912 50.2435 103.855 50.4242C103.604 51.4001 103.254 52.3474 102.81 53.2509C102.257 54.4944 101.436 55.5981 100.406 56.4814C100.077 56.7142 99.7032 56.8756 99.3088 56.9554C98.0206 57.2703 96.779 57.7543 95.6159 58.3951C95.3499 58.5322 95.06 58.6156 94.7623 58.6409C94.6719 58.6717 94.574 58.6717 94.4836 58.6409C94.4707 58.6104 94.464 58.5775 94.464 58.5443C94.464 58.5111 94.4707 58.4783 94.4836 58.4478C94.5104 58.3343 94.5618 58.2283 94.6341 58.1372C94.7064 58.0461 94.7978 57.9723 94.9017 57.9211C95.7727 57.3944 97.1837 56.4989 98.3856 55.6913C99.2941 55.0857 100.151 54.4045 100.946 53.6547C100.982 53.6193 101.007 53.5735 101.016 53.5235C101.026 53.4736 101.019 53.4219 100.998 53.3757C100.977 53.3295 100.943 53.291 100.899 53.2655C100.855 53.24 100.805 53.2287 100.755 53.2333M101.817 45.5082C102.288 45.5082 102.775 44.7357 102.95 44.4372C103.124 44.1387 103.263 44.086 103.402 44.1387C103.542 44.1914 103.577 44.3494 103.524 44.5425C103.349 45.0114 103.134 45.4638 102.88 45.8944C102.392 46.7196 101.922 47.141 101.451 47.1761C101.139 47.1665 100.842 47.0415 100.615 46.825C100.121 46.2672 99.8642 45.5354 99.9011 44.7883C99.9934 42.867 100.595 41.0058 101.643 39.3983C101.782 39.2051 101.939 39.1349 102.044 39.2051C102.148 39.2754 102.166 39.3983 102.044 39.609C101.386 40.9644 100.945 42.4162 100.737 43.9105C100.737 44.6654 101.208 45.5082 101.817 45.5082ZM108.89 41.2944C108.933 41.2728 108.981 41.2615 109.029 41.2615C109.077 41.2615 109.125 41.2728 109.168 41.2944C110.605 41.7615 111.837 42.7173 112.652 43.9983C112.96 44.4574 113.222 44.9454 113.436 45.4555C113.446 45.4824 113.464 45.5055 113.487 45.5219C113.511 45.5383 113.538 45.5471 113.567 45.5471C113.595 45.5471 113.623 45.5383 113.646 45.5219C113.67 45.5055 113.687 45.4824 113.697 45.4555C113.697 44.8059 113.697 44.0158 113.697 43.5769C113.697 43.1379 113.697 42.9448 113.697 42.857C113.697 41.3647 114.638 39.9601 115.439 39.9074C115.736 39.9157 116.018 40.0357 116.231 40.2438C116.444 40.4518 116.572 40.7328 116.589 41.0311C116.611 41.2708 116.546 41.5105 116.404 41.7046C116.263 41.8988 116.056 42.034 115.823 42.0845C115.697 42.1172 115.565 42.1172 115.439 42.0845C115.248 42.0845 114.952 41.8563 114.708 42.0845C114.65 42.6683 114.65 43.2564 114.708 43.8402C114.708 44.4196 114.708 45.0166 114.708 45.4906C114.698 46.301 114.64 47.1102 114.534 47.9135C114.342 49.3883 114.133 49.6692 113.924 49.6692C113.715 49.6692 113.523 49.3181 113.088 48.2998C112.948 47.9662 112.809 47.6501 112.652 47.3341C112.501 46.9918 112.333 46.6578 112.147 46.3333C111.982 46.0295 111.789 45.7415 111.572 45.473C111.456 45.3269 111.322 45.197 111.172 45.0868C111.12 45.0734 111.066 45.0734 111.015 45.0868V45.2273C111.015 45.4028 110.893 45.5959 110.719 45.6311C110.139 45.5118 109.6 45.2459 109.151 44.8585C108.931 44.6968 108.752 44.4856 108.628 44.2417C108.504 43.9978 108.439 43.728 108.437 43.454C108.481 42.8066 108.732 42.1909 109.151 41.6982M107.2 51.9867C107.322 51.138 107.545 50.307 107.862 49.5112C107.921 49.3656 107.991 49.2248 108.071 49.0898C108.165 48.9268 108.289 48.7837 108.437 48.6684C108.469 48.6528 108.505 48.6447 108.541 48.6447C108.577 48.6447 108.613 48.6528 108.646 48.6684C108.698 48.6915 108.74 48.7323 108.766 48.7836C108.791 48.8349 108.798 48.8935 108.785 48.9494C108.751 49.113 108.699 49.2721 108.628 49.4234C107.989 50.7994 107.696 52.3129 107.775 53.8302C107.825 54.4532 108.022 55.0551 108.35 55.586C108.455 55.7991 108.61 55.9836 108.801 56.1241C108.992 56.2647 109.213 56.3571 109.447 56.3936C109.778 56.3936 110.074 56.1478 110.318 55.6738C110.495 55.3445 110.618 54.9889 110.684 54.6203C110.684 54.2692 110.91 54.2516 110.98 54.2516C111.05 54.2516 111.224 54.357 111.189 54.8486C111.099 55.5068 110.923 56.1502 110.666 56.7623C110.266 57.6577 109.761 58.1493 109.186 58.1844C108.997 58.1842 108.809 58.1452 108.636 58.0697C108.462 57.9942 108.305 57.8839 108.175 57.7455C107.403 56.8477 107.004 55.6844 107.061 54.4974C107.061 53.6612 107.137 52.8268 107.287 52.0043M88.9616 28.1968C88.9425 27.7016 89.0379 27.2087 89.2403 26.7571L89.9023 26.2655C90.7036 25.6686 96.7482 20.9984 97.0443 20.9984C97.0875 20.9945 97.1308 21.0042 97.1682 21.0262C97.2057 21.0483 97.2354 21.0815 97.2533 21.1213C97.2533 21.2617 97.2533 21.6304 97.2533 21.8938C97.2263 22.2042 97.1046 22.4986 96.9049 22.7365C96.4694 23.1404 91.4004 26.9327 90.5468 27.5823L89.2926 28.4777C89.0139 28.706 89.0487 28.3724 89.0487 28.2495M75.0086 17.9083C75.4789 17.4167 76.1757 16.5564 76.3673 16.3282C76.5589 16.0999 76.5589 16.2053 76.8725 16.3282L77.8305 16.8022C78.5273 17.1534 79.3634 17.6098 79.9731 17.9434C80.2518 18.0839 80.5131 18.2595 80.6873 18.3648C80.7148 18.3862 80.7485 18.3977 80.7831 18.3977C80.8178 18.3977 80.8515 18.3862 80.879 18.3648C81.0531 18.1717 81.3493 17.803 81.6454 17.4869C83.1783 15.7312 83.3874 15.6259 83.5093 15.6083C83.8264 15.7204 84.1302 15.8676 84.4151 16.0472C84.8854 16.3282 85.4429 16.6793 86.0351 17.0129C86.6274 17.3465 87.2371 17.6976 87.6377 17.961L88.2474 18.3648C88.4564 18.5228 88.5087 18.5755 88.5087 18.6633C88.5087 18.7511 88.5087 18.8388 88.021 19.3831C87.5332 19.9274 87.4461 20.0152 87.0803 20.4541C86.6142 21.0614 86.089 21.6201 85.5125 22.122C85.3383 22.122 85.1119 21.9816 84.2235 21.3671C83.6138 20.9457 82.8474 20.4365 82.1854 20.0152C81.7836 19.7475 81.3646 19.507 80.9312 19.2953C80.912 19.278 80.8872 19.2685 80.8615 19.2685C80.8358 19.2685 80.811 19.278 80.7918 19.2953C80.5654 19.5236 79.9557 20.2785 79.5376 20.7877C78.6492 21.8762 78.5621 22.0869 78.3705 22.0869C78.0745 22.0086 77.7924 21.8842 77.5344 21.7182L76.0189 20.8755C75.6182 20.6472 75.026 20.3136 74.5731 20.0152C74.1202 19.7167 73.8415 19.5587 73.8415 19.3831C73.8415 19.2075 74.1027 18.8389 75.0086 17.9083ZM78.4925 24.4571C78.4757 24.7635 78.3797 25.0602 78.2138 25.3174C77.6389 25.9495 73.3363 29.1098 72.0821 30.1281L67.4485 33.78C67.1577 34.0118 66.8553 34.2287 66.5427 34.4296C66.4089 34.5363 66.2547 34.6141 66.0898 34.6578H65.9852C65.6891 34.5174 65.5846 33.5693 65.6543 33.1655C65.7239 32.7617 65.8807 32.8495 66.3685 32.4983C66.8562 32.1472 68.7375 30.7426 70.1833 29.7418C71.0892 29.0747 77.7783 23.8777 78.1092 23.6319C78.1287 23.6123 78.1517 23.5967 78.1771 23.5861C78.2026 23.5754 78.2298 23.57 78.2573 23.57C78.2848 23.57 78.3121 23.5754 78.3375 23.5861C78.3629 23.5967 78.386 23.6123 78.4054 23.6319C78.4997 23.8988 78.4997 24.1903 78.4054 24.4571M62.7278 14.6602C62.7807 14.6294 62.8408 14.6132 62.902 14.6132C62.9631 14.6132 63.0232 14.6294 63.0762 14.6602C64.8356 15.8566 66.1382 17.6215 66.7691 19.664C66.7691 19.7013 66.7838 19.737 66.8099 19.7633C66.8361 19.7897 66.8715 19.8045 66.9085 19.8045C66.9454 19.8045 66.9809 19.7897 67.007 19.7633C67.0331 19.737 67.0478 19.7013 67.0478 19.664C67.0214 19.1494 67.0214 18.6337 67.0478 18.119C67.1076 17.0924 67.3189 16.0805 67.6749 15.1167C68.093 14.0984 68.6853 13.5892 69.4169 13.5892C69.6242 13.569 69.8329 13.6117 70.016 13.7118C70.1991 13.8119 70.3484 13.9649 70.4446 14.1511C70.5736 14.4117 70.6221 14.7052 70.584 14.9938C70.5504 15.2698 70.4678 15.5374 70.3401 15.7839C70.1833 16.0824 69.9917 16.2404 69.8001 16.2404C69.5737 16.2404 69.4343 16.0473 69.3298 15.8717C69.2253 15.6961 69.1033 15.5205 68.8595 15.5205C68.0233 15.5205 68.0059 17.4694 67.9711 19.348C67.9711 19.5587 67.9711 19.7869 67.9711 20.0152C67.9711 21.9816 67.8143 23.2983 67.3788 23.7022C67.2899 23.7757 67.1801 23.8188 67.0653 23.8251C66.8214 23.8251 66.6298 23.2808 66.1246 21.8236C65.8981 21.1388 65.6368 20.3488 65.3755 19.7694C65.1143 19.19 64.8181 18.8564 64.7485 18.8388L64.5743 18.8037C64.4697 18.9617 64.3652 19.1197 64.2259 19.1197C63.7634 18.9482 63.3244 18.7181 62.9194 18.435C62.1355 17.9083 61.7349 17.4518 61.7349 17.0831C61.7929 16.1643 62.1339 15.2867 62.7104 14.5724M57.258 22.8419C57.3974 22.6487 57.5193 22.6487 57.8155 22.8419C58.1489 22.995 58.4745 23.1649 58.791 23.351C59.4877 23.7197 60.3239 24.2113 60.9336 24.5625C61.5433 24.9136 61.9613 25.1243 62.031 25.335C62.1007 25.5457 61.6304 26.0373 61.4039 26.3884C61.1774 26.7396 60.7942 27.1609 60.4981 27.5472C59.6097 28.706 59.5052 28.9342 59.331 28.9342C59.1568 28.9342 58.9826 28.8113 58.4948 28.548L56.9097 27.5823C56.509 27.3365 55.9167 26.9854 55.4638 26.6693C55.0109 26.3533 54.7322 26.1777 54.7322 26.0022C54.7322 25.8266 54.9935 25.4052 55.8819 24.422C56.3469 23.9147 56.7831 23.3813 57.1884 22.8243M51.8057 19.3129C52.4759 17.8609 53.4436 16.5684 54.6451 15.5205C54.9064 15.2923 55.0632 15.3976 55.098 15.5205C55.1329 15.6434 55.2548 15.6786 55.098 15.9595C54.8999 16.3136 54.647 16.6336 54.349 16.9076C53.8623 17.4241 53.4622 18.0171 53.1645 18.6633C52.8761 19.2166 52.6651 19.8074 52.5374 20.419C52.406 20.9555 52.4677 21.5217 52.7115 22.0167C52.766 22.0886 52.8341 22.1488 52.9119 22.194C52.9896 22.2392 53.0754 22.2685 53.1645 22.28C53.6174 22.28 54.2793 21.806 54.7671 21.3144C54.9064 21.1739 55.0458 21.1213 55.1503 21.209C55.2548 21.2968 55.1503 21.5953 55.1503 21.6831C54.8901 22.1476 54.5742 22.5781 54.2096 22.9648C53.9897 23.2787 53.7007 23.5371 53.3653 23.7198C53.0299 23.9026 52.6571 24.0047 52.2761 24.0182C51.3702 24.0182 51.0741 22.877 51.109 21.9289C51.1747 21.0349 51.4175 20.1633 51.8232 19.3656M49.1754 39.3983C49.1754 38.854 49.1754 38.257 49.2625 37.8357C49.3308 36.8102 49.5419 35.7996 49.8896 34.8334C50.3077 33.8327 50.8999 33.3059 51.6315 33.3059C51.8389 33.2857 52.0475 33.3284 52.2307 33.4285C52.4138 33.5286 52.563 33.6815 52.6593 33.8678C52.7882 34.1283 52.8368 34.4219 52.7986 34.7105C52.7732 34.9937 52.6902 35.2687 52.5548 35.5181C52.398 35.7991 52.2064 35.9571 52.0148 35.9571C51.7883 35.9571 51.6664 35.7639 51.5444 35.5884C51.4225 35.4128 51.318 35.2372 51.0741 35.2372C50.2554 35.2372 50.2206 37.1861 50.1857 39.0647C50.1857 39.2929 50.1857 39.5212 50.1857 39.7319C50.1857 41.7158 50.0289 43.0151 49.5935 43.4189C49.5525 43.4601 49.5035 43.4923 49.4495 43.5135C49.3955 43.5346 49.3378 43.5443 49.2799 43.5418C49.036 43.5418 48.8444 42.9799 48.3392 41.5227C48.1128 40.838 47.8515 40.0654 47.5902 39.4685C47.3289 38.8716 47.0502 38.5555 46.9631 38.538C46.9085 38.5959 46.8616 38.6609 46.8237 38.7311C46.7192 38.8716 46.6147 39.0296 46.4754 39.0296C46.0173 38.8603 45.5838 38.63 45.1863 38.3448C44.385 37.8181 43.9844 37.3792 43.9844 36.9929C44.039 36.0787 44.3806 35.2056 44.9599 34.4998C45.0128 34.469 45.0729 34.4528 45.134 34.4528C45.1952 34.4528 45.2553 34.469 45.3082 34.4998C47.0221 35.6972 48.2861 37.4412 48.8967 39.4509C48.9066 39.4778 48.9244 39.501 48.9477 39.5174C48.9711 39.5337 48.9989 39.5425 49.0273 39.5425C49.0558 39.5425 49.0835 39.5337 49.1069 39.5174C49.1302 39.501 49.1481 39.4778 49.158 39.4509M36.4417 29.338C37.7999 28.9778 39.1015 28.4283 40.3088 27.7052C40.8837 27.4067 41.4759 27.0907 42.0508 26.8274C42.9428 26.4114 43.8095 25.9424 44.6463 25.4228C45.1515 25.0892 45.4824 24.8434 45.6741 24.6854C45.6958 24.6732 45.714 24.6554 45.7266 24.6338C45.7393 24.6122 45.7459 24.5876 45.7459 24.5625C45.7459 24.5374 45.7393 24.5127 45.7266 24.4911C45.714 24.4695 45.6958 24.4517 45.6741 24.4396C44.1259 24.1783 42.5502 24.1252 40.9882 24.2815C39.9207 24.5283 38.9756 25.1508 38.323 26.0373C38.0791 26.2831 37.9049 26.2129 37.8178 26.1602C37.7307 26.1075 37.7133 25.7739 37.8178 25.3174C38.1803 24.3891 38.6668 23.5148 39.2637 22.719C39.8685 21.6801 40.7575 20.839 41.8243 20.2961C44.1351 19.8064 46.5309 19.909 48.7921 20.5946C48.8495 20.6309 48.8981 20.6797 48.9343 20.7374C48.9704 20.7951 48.9933 20.8603 49.0012 20.9282C48.9402 22.0387 48.5453 23.1042 47.8689 23.9831L47.4857 24.6327C46.8694 25.9523 46.0126 27.1435 44.9599 28.1441C43.2179 29.3731 41.0579 29.5487 36.5636 29.6716C36.3546 29.6716 36.3198 29.5487 36.3198 29.496C36.3198 29.4434 36.3198 29.3205 36.5462 29.2678M37.6959 36.8174C37.8004 36.6418 37.9049 36.4662 37.992 36.2907C38.0791 36.1151 38.2882 35.7991 38.4972 35.922C38.7062 36.0449 38.6888 36.2204 38.4972 36.6594V36.7998C38.1044 37.4212 37.7608 38.0729 37.4694 38.7487C37.0013 39.7535 36.7632 40.8515 36.7727 41.9616C36.7738 42.4851 36.9383 42.9949 37.243 43.4189C37.353 43.5737 37.4963 43.7015 37.6622 43.7927C37.8281 43.884 38.0123 43.9362 38.2011 43.9456C38.4832 43.9369 38.7544 43.8338 38.972 43.6526C39.1897 43.4714 39.3413 43.2224 39.403 42.9448C39.4901 42.6815 39.5772 42.383 39.7862 42.4357C39.9953 42.4883 39.9604 43.0502 39.943 43.2257C39.8496 43.7099 39.6853 44.1774 39.4553 44.6127C39.3086 44.9617 39.0675 45.2621 38.7594 45.4794C38.4514 45.6968 38.0889 45.8223 37.7133 45.8417C36.7378 45.8417 35.6926 44.6303 35.6926 42.7868C35.7164 41.6654 35.9653 40.5605 36.4243 39.5387C36.8305 38.5993 37.302 37.6899 37.8353 36.8174M31.9649 29.4609C32.298 28.5475 32.7119 27.6661 33.2017 26.8274C33.2546 26.7493 33.3012 26.6671 33.341 26.5815C33.5107 26.2323 33.7341 25.9123 34.003 25.6335C34.003 25.6335 34.2294 25.4052 34.3688 25.493C34.5081 25.5808 34.3688 25.7739 34.3688 26.0022C34.2504 26.323 34.086 26.6247 33.881 26.8976L33.7765 27.0556C33.3494 27.7511 33.0321 28.5092 32.8358 29.3029C32.6094 29.9712 32.4803 30.669 32.4526 31.3747C32.4526 32.1823 32.9404 33.622 33.8984 33.622C34.5081 33.622 34.9784 32.867 35.1352 32.5685V32.4632C35.1352 32.3578 35.3617 32.1296 35.5359 32.2174C35.7101 32.3052 35.623 32.5685 35.5359 32.6563C35.3776 33.1605 35.1488 33.6393 34.8565 34.0784C34.6887 34.4041 34.44 34.6804 34.1347 34.8804C33.8295 35.0804 33.478 35.1973 33.1146 35.2197C32.8565 35.2186 32.6026 35.1541 32.375 35.0317C32.1473 34.9093 31.9527 34.7328 31.8081 34.5174C31.5187 34.0948 31.3391 33.6059 31.2855 33.0952C31.1645 31.8605 31.3377 30.6146 31.7907 29.4609M24.5093 35.5181C25.1101 34.2204 25.9226 33.0334 26.9132 32.0067L27.07 31.8311C27.1246 31.7805 27.1961 31.7525 27.2703 31.7525C27.3445 31.7525 27.416 31.7805 27.4706 31.8311C27.5389 31.9054 27.5837 31.9986 27.5992 32.0987C27.6148 32.1987 27.6003 32.3012 27.5577 32.393C26.8843 33.4614 26.3348 34.6042 25.9203 35.799C25.4998 37.2052 25.4222 38.6928 25.6938 40.1357C25.8614 41.1335 26.2353 42.0846 26.7913 42.9273C27.4265 43.8963 28.243 44.7311 29.1952 45.3853C30.3561 46.1778 31.6393 46.7711 32.9926 47.141C34.6979 47.5979 36.454 47.8339 38.2185 47.8433H38.6714C43.4132 47.801 48.1178 46.9949 52.607 45.4555C53.9882 44.9988 55.3432 44.4654 56.6658 43.8578C56.7145 43.8354 56.7545 43.7975 56.7797 43.7499C56.8048 43.7023 56.8138 43.6476 56.8051 43.5944C56.8051 43.4364 56.8051 43.296 56.718 43.1555C56.3792 41.3884 56.1696 39.5986 56.0909 37.8006C56.1686 36.2985 56.5984 34.8364 57.3451 33.5342C58.1987 32.0067 59.2265 31.1289 60.1671 31.1289C60.4018 31.1523 60.6294 31.2234 60.836 31.3381C61.0426 31.4528 61.224 31.6086 61.3691 31.796C61.7855 32.2955 62.1207 32.8585 62.362 33.464C62.9651 35.0076 63.2782 36.6507 63.2852 38.3097C63.2557 40.533 62.3538 42.6541 60.7768 44.2089C60.5329 44.4723 60.2716 44.7181 60.0103 44.9639C59.9699 45.0064 59.9473 45.063 59.9473 45.1219C59.9473 45.1808 59.9699 45.2374 60.0103 45.2799C60.1281 45.4683 60.256 45.65 60.3936 45.8242C60.8969 46.435 61.5908 46.8559 62.362 47.0181C63.2429 47.2533 64.1507 47.3713 65.062 47.3692C67.9914 47.2787 70.9067 46.9202 73.7718 46.2982C75.6125 45.9378 77.428 45.4569 79.2067 44.8585C79.2333 44.8486 79.2563 44.8306 79.2726 44.8071C79.2888 44.7835 79.2975 44.7555 79.2975 44.7269C79.2975 44.6982 79.2888 44.6702 79.2726 44.6467C79.2563 44.6231 79.2333 44.6052 79.2067 44.5952L78.5099 44.4547C75.1653 43.8402 70.6014 42.9799 68.0582 42.699H67.9188V42.541C68.1815 40.6344 69.1838 38.9106 70.7059 37.7479C72.0268 36.8814 73.4894 36.2573 75.026 35.9044C76.1362 35.6178 77.1985 35.1682 78.1789 34.57C80.1654 33.0346 81.8593 31.1489 83.1783 29.0044C84.1364 27.5999 84.7809 26.6693 85.408 26.6693C86.4358 26.6693 86.7493 28.0739 87.15 29.6892C87.3809 30.9142 87.7919 32.0978 88.3694 33.2006C88.6821 33.7469 89.1351 34.1983 89.6807 34.5073C90.2263 34.8162 90.8444 34.9713 91.47 34.9563C93.212 34.9563 94.6404 32.9899 96.2082 30.9006C97.0788 29.6453 98.0581 28.4702 99.1346 27.3892C100.08 26.4012 101.363 25.8115 102.723 25.7388C103.82 25.7388 104.744 26.6693 105.371 28.425C105.801 29.6627 106.042 30.9593 106.085 32.2701C105.942 34.2199 105.172 36.0694 103.89 37.5372C101.8 37.5372 98.4379 35.2723 96.9223 34.3067L96.574 34.0784C96.5289 34.0365 96.4698 34.0132 96.4085 34.0132C96.3471 34.0132 96.288 34.0365 96.243 34.0784L95.7901 34.7456C94.7449 36.2907 92.8113 39.2051 90.5642 39.2051C89.6948 39.1405 88.8552 38.8576 88.122 38.3823C87.3887 37.907 86.7851 37.2543 86.3661 36.4838C85.7347 35.3423 85.26 34.1197 84.9551 32.8494C84.7112 31.8136 84.5196 30.9357 84.1887 30.9357C83.8577 30.9357 83.8751 31.0937 83.6312 31.4098C83.3076 31.8475 83.0109 32.3049 82.7428 32.7792C81.9648 34.0922 81.0792 35.3373 80.0951 36.5013C79.0756 37.6985 77.8094 38.6571 76.3847 39.3105C76.358 39.3204 76.335 39.3384 76.3188 39.362C76.3026 39.3855 76.2938 39.4135 76.2938 39.4422C76.2938 39.4708 76.3026 39.4988 76.3188 39.5224C76.335 39.5459 76.358 39.5639 76.3847 39.5738C83.5093 40.6799 86.3661 40.8555 94.9017 42.383C95.1107 42.383 95.2152 42.4883 95.2501 42.5761C95.2849 42.6639 95.0062 43.5593 94.3094 44.5952C93.8831 45.202 93.5156 45.8488 93.212 46.5265C93.212 46.6669 93.0552 46.7196 92.881 46.702L92.341 46.5967C90.2106 46.0752 88.0126 45.8916 85.8261 46.0524C84.4912 46.298 83.1921 46.7108 81.959 47.2814C79.4622 48.2968 76.9088 49.1644 74.3118 49.8799C70.905 50.8148 67.3908 51.293 63.8601 51.302C62.8326 51.3257 61.8101 51.1529 60.8465 50.7929C59.9612 50.4348 59.1986 49.8248 58.6516 49.0372C58.2241 48.4068 57.8951 47.714 57.6761 46.983C57.6633 46.9501 57.6435 46.9205 57.6183 46.896C57.5931 46.8715 57.5629 46.8528 57.5298 46.8412C57.4968 46.8295 57.4616 46.8252 57.4267 46.8284C57.3919 46.8317 57.3581 46.8425 57.3277 46.8601C56.3809 47.4238 55.3974 47.9224 54.3838 48.3524C51.5266 49.6074 48.5417 50.5435 45.4824 51.144C42.4718 51.7079 39.4167 51.9958 36.3546 52.0043C34.4163 52.0235 32.4856 51.7574 30.6236 51.2142C29.1717 50.7727 27.8133 50.0644 26.6171 49.1249C25.6168 48.3135 24.7927 47.3036 24.1957 46.1578C23.638 44.9781 23.2733 43.7152 23.1157 42.4181C22.8692 40.0029 23.3103 37.5669 24.3874 35.3952M86.9932 82.0095C86.6448 79.4637 86.2268 76.5843 85.8609 73.5469C85.6519 71.7912 85.3906 70.0355 85.1642 68.2798C84.3977 62.3279 83.7183 54.2341 83.6138 52.7944C83.5451 52.6357 83.4635 52.4831 83.3699 52.3379C83.0724 51.941 82.8968 51.4649 82.8648 50.9684C83.097 50.3151 83.4133 49.6953 83.8054 49.1249C84.0137 48.7679 84.2405 48.4221 84.4848 48.0891C84.8158 47.6677 84.9551 47.5975 85.0596 47.5975C85.1079 47.5922 85.1562 47.6057 85.195 47.635C85.2338 47.6643 85.2601 47.7074 85.2687 47.7555C85.6144 48.9393 86.0875 50.0814 86.6797 51.1616C87.6397 52.981 88.4327 54.8851 89.0487 56.8501C89.28 57.5271 89.3339 58.2528 89.2055 58.9569C89.1838 58.9678 89.16 58.9734 89.1358 58.9734C89.1116 58.9734 89.0878 58.9678 89.0661 58.9569C88.9268 58.9569 88.7874 58.7989 87.9513 57.6928L87.3764 56.9203C87.2719 56.815 87.1848 56.6921 87.0977 56.5867C87.0106 56.4814 86.9235 56.3409 86.8364 56.3234C86.7493 56.3058 86.6622 56.815 86.6622 57.1661C86.6622 57.5173 86.7842 58.6234 86.8016 58.9218C86.8016 59.6241 86.9758 60.2386 87.0803 60.9409C87.3242 62.6849 87.5855 64.4406 87.8642 66.208C87.8642 66.5241 87.8642 66.8225 88.0035 67.1386C89.1767 73.5558 89.9447 80.0415 90.3029 86.5568C90.309 89.1982 89.8974 91.8238 89.0836 94.3346C88.7359 95.4845 88.2379 96.5827 87.6029 97.6002C87.6029 97.6002 87.4113 97.8285 87.2719 97.8285C87.1151 97.8285 87.0803 97.4949 87.2719 96.459C87.7415 94.7423 87.9931 92.9725 88.021 91.1919C87.8294 88.1674 87.4806 85.1551 86.9758 82.1675M68.2672 88.1545C68.1171 88.1637 67.9697 88.1994 67.8317 88.2598C67.6348 88.3323 67.4189 88.3323 67.222 88.2598C67.1732 88.2255 67.1366 88.1763 67.1175 88.1194C67.1103 87.746 67.2406 87.3832 67.4833 87.1011C67.6293 86.8923 67.8187 86.7182 68.0384 86.5909C68.258 86.4635 68.5025 86.386 68.755 86.3637C68.8051 86.3616 68.855 86.3717 68.9004 86.393C68.9459 86.4144 68.9856 86.4465 69.0162 86.4866C69.2461 86.8582 69.3387 87.2996 69.2775 87.7331C69.2475 88.0927 69.1714 88.4467 69.0511 88.7866C68.9192 89.2077 68.8431 89.6445 68.8246 90.0858C68.8246 90.4018 69.4169 90.753 69.9221 90.753C70.2474 90.7351 70.5612 90.6256 70.8279 90.4369C71.1066 90.2438 71.2459 90.0682 71.2459 90.0155C71.2092 89.8202 71.1627 89.6268 71.1066 89.4362C70.8167 88.5582 70.6639 87.6401 70.6537 86.7148C70.7025 86.4768 70.7666 86.2422 70.8453 86.0125C70.9672 85.714 71.1066 85.398 71.3156 85.398C71.5247 85.398 71.5943 85.6614 71.6118 85.7667C71.6292 85.8721 71.6117 86.1705 71.7163 86.4514C71.7678 87.149 71.9204 87.8351 72.1692 88.4881C72.2926 88.8386 72.5059 89.15 72.7874 89.3905C73.0688 89.631 73.4085 89.7922 73.7718 89.8575C73.8133 89.8657 73.8563 89.8627 73.8964 89.849C73.9364 89.8354 73.9723 89.8114 74.0004 89.7795C74.0285 89.7476 74.048 89.7089 74.0567 89.6672C74.0655 89.6255 74.0634 89.5822 74.0505 89.5415C73.9111 89.1026 73.6673 88.4881 73.4931 87.9965C73.2819 87.4991 73.1015 86.9889 72.953 86.469C73.0298 86.184 73.1348 85.9075 73.2666 85.6438C73.3315 85.4865 73.4072 85.334 73.4931 85.1873C73.4931 85.0118 73.6498 84.924 73.7369 84.924C73.824 84.924 73.8937 84.924 73.9634 85.1873L74.1376 85.6614C74.3118 86.0827 74.5034 86.6446 74.6602 87.1713C75.0064 88.1258 75.2516 89.1145 75.3918 90.1209C75.3872 90.4976 75.3225 90.871 75.2002 91.227C75.0957 91.4903 74.9389 91.7888 74.7299 91.7888C73.9095 91.7845 73.1089 91.5339 72.4305 91.069C72.1948 90.9005 71.9734 90.7125 71.7685 90.5071C71.6564 90.7898 71.5164 91.0604 71.3505 91.3148C71.2098 91.6307 70.9953 91.9075 70.7253 92.1215C70.4553 92.3356 70.1378 92.4805 69.8001 92.5438H69.6433C69.2684 92.5489 68.9019 92.4319 68.5982 92.2102C68.3114 91.9816 68.1139 91.6583 68.0407 91.2972C67.9764 90.6632 68.0477 90.0226 68.2498 89.4186C68.4066 88.8568 68.5633 88.2598 68.3369 88.1721M58.8955 73.2309L59.4529 73.582L59.8361 73.8103C59.9407 73.8103 60.0452 74.021 60.0452 74.653C60.0554 74.846 60.0554 75.0394 60.0452 75.2324C60.0437 75.4041 59.9748 75.5682 59.8536 75.6889H59.7316C59.3654 75.492 59.0209 75.2566 58.7039 74.9866C58.383 74.753 58.0855 74.4884 57.8155 74.1966C57.6496 73.5339 57.6496 72.8401 57.8155 72.1775C58.5123 70.7378 65.0272 65.9447 69.3472 62.7844C70.915 61.6256 72.1518 60.7302 72.6569 60.3088C72.6982 60.291 72.7426 60.2818 72.7876 60.2818C72.8325 60.2818 72.8769 60.291 72.9182 60.3088C72.9779 60.3495 73.0267 60.4045 73.0601 60.4688C73.0936 60.5332 73.1107 60.6049 73.1098 60.6776C73.1098 60.9409 73.2143 61.8363 72.8311 62.0997C70.4621 63.7501 67.2046 66.3661 64.2259 68.666C62.3097 70.1408 59.331 72.5637 59.1219 72.7569C59.0322 72.8232 58.9504 72.8998 58.8781 72.9851C58.86 72.996 58.8451 73.0115 58.8347 73.0299C58.8244 73.0484 58.8189 73.0692 58.8189 73.0904C58.8189 73.1117 58.8244 73.1325 58.8347 73.151C58.8451 73.1694 58.86 73.1849 58.8781 73.1958M49.9941 56.4989C49.8025 56.4989 49.8025 56.1829 49.8199 56.0951C49.837 55.7958 49.8957 55.5003 49.9941 55.2173C50.1857 54.6379 50.3076 54.6203 50.3773 54.6203C51.287 54.6793 52.1375 55.0953 52.7464 55.7791C53.5062 56.467 54.1213 57.3016 54.5552 58.2335C54.9891 59.1654 55.2329 60.1756 55.2722 61.2042C55.2422 62.8593 54.936 64.4975 54.3664 66.05C54.3595 66.0796 54.3612 66.1106 54.3713 66.1392C54.3814 66.1679 54.3995 66.1929 54.4234 66.2114C54.4473 66.23 54.476 66.2412 54.5061 66.2437C54.5361 66.2462 54.5663 66.2399 54.5929 66.2256C55.3942 65.6111 57.258 64.2241 58.6864 63.2058C61.6129 61.134 65.6543 58.2898 71.9776 53.4264C72.0821 53.4264 72.4479 53.0928 72.6569 53.2509C72.866 53.4089 72.7614 53.5142 72.6569 53.7425C72.1417 54.9351 71.4678 56.0514 70.6537 57.0608C69.2253 58.2371 56.4219 68.034 53.9135 69.8775C52.5025 70.9134 50.987 72.195 49.6457 73.3889C48.3044 74.5828 47.3115 75.3553 46.5799 75.8469C46.5178 75.8683 46.4504 75.8683 46.3883 75.8469H46.2489C46.2489 75.8469 46.0921 75.6538 46.2489 75.3553C46.6298 74.1286 47.1501 72.9503 47.7992 71.8439L50.7954 69.421L52.9554 67.6653C53.0055 67.6247 53.042 67.5695 53.0599 67.5073C53.7459 65.8312 54.1464 64.0505 54.2445 62.2401C54.2065 60.9816 53.7849 59.7654 53.0368 58.757C52.2888 57.7486 51.2507 56.9969 50.0638 56.6043M70.6363 77.5675C70.6945 77.6365 70.7665 77.6925 70.8475 77.7318C70.9285 77.7711 71.0167 77.7929 71.1066 77.7958C71.5943 77.708 71.8556 76.9179 71.995 76.479C71.995 76.3561 72.1343 76.0752 72.3434 76.1103C72.5524 76.1454 72.6047 76.6897 72.6047 76.7072C72.6108 77.2575 72.5464 77.8064 72.413 78.34C72.1343 79.2881 71.6118 79.8148 70.8801 79.8675H70.7582C70.5783 79.8714 70.3995 79.8393 70.232 79.773C70.0646 79.7067 69.9118 79.6075 69.7827 79.4813C69.3995 78.9895 69.1174 78.4257 68.9529 77.8228C68.7884 77.2198 68.7448 76.5899 68.8246 75.9698C68.9266 73.4592 69.6065 71.0068 70.8105 68.8065C70.8105 68.666 70.9672 68.6309 71.0369 68.6309C71.0792 68.6321 71.1201 68.6461 71.1544 68.6712C71.1886 68.6962 71.2144 68.7312 71.2285 68.7714C71.2667 68.8445 71.2866 68.9258 71.2866 69.0084C71.2866 69.091 71.2667 69.1723 71.2285 69.2454C70.3483 71.1694 69.8286 73.2409 69.6956 75.3553C69.6788 75.7838 69.7506 76.2112 69.9066 76.6102C70.0625 77.0092 70.2991 77.3711 70.6014 77.6729M37.9572 77.1813C38.4624 77.1813 38.7759 76.3561 38.9327 75.9172C38.9764 75.7792 39.0411 75.6489 39.1243 75.5309C39.1554 75.5105 39.1917 75.4996 39.2288 75.4996C39.2659 75.4996 39.3022 75.5105 39.3333 75.5309C39.4727 75.5309 39.4727 75.7591 39.4727 75.9523C39.4408 76.4766 39.3472 76.9952 39.194 77.4973C38.863 78.4805 38.323 79.0248 37.6262 79.0774H37.5043C37.1664 79.0772 36.8417 78.9451 36.5985 78.7087C36.0344 78.064 35.7245 77.2332 35.7275 76.3736C35.7649 75.1496 36.0744 73.9496 36.6333 72.8622C36.8975 72.2997 37.2248 71.7695 37.6088 71.2821C37.6235 71.2637 37.6421 71.249 37.6632 71.2388C37.6843 71.2286 37.7074 71.2234 37.7307 71.2234C37.7541 71.2234 37.7772 71.2286 37.7983 71.2388C37.8194 71.249 37.838 71.2637 37.8527 71.2821C37.9572 71.2821 37.9746 71.4927 37.8527 71.6332C37.1926 72.701 36.7651 73.8979 36.5985 75.1446C36.5985 76.3385 37.2778 77.2164 37.9049 77.2164M34.7868 68.947L32.1042 70.9134C32.0065 71.0037 31.9016 71.0859 31.7907 71.1592L30.5539 72.1424C30.0313 72.5286 29.8397 72.6164 29.7526 72.6164C29.7123 72.5931 29.6785 72.56 29.6542 72.5201C29.6298 72.4803 29.6158 72.4349 29.6132 72.3882C29.5954 72.1114 29.6324 71.8337 29.7221 71.5714C29.8118 71.3092 29.9525 71.0676 30.1358 70.8607C32.2436 69.2805 39.1766 64.1363 39.4553 63.9783C39.4716 63.9596 39.4917 63.9446 39.5143 63.9344C39.5368 63.9241 39.5612 63.9188 39.5859 63.9188C39.6106 63.9188 39.6351 63.9241 39.6576 63.9344C39.6801 63.9446 39.7002 63.9596 39.7166 63.9783C39.7166 63.9783 39.8733 64.1187 39.7166 64.6981C39.6831 64.9607 39.6066 65.2158 39.4901 65.4531C39.3682 65.6287 37.9398 66.6821 34.752 68.9645M30.0313 57.4295C29.5958 56.9554 29.4739 56.8325 29.4739 56.7272C29.5884 56.2465 29.7956 55.7931 30.0836 55.3928C30.1123 55.3669 30.1495 55.3526 30.1881 55.3526C30.2266 55.3526 30.2638 55.3669 30.2926 55.3928C31.111 55.8674 31.7901 56.5519 32.261 57.3768C33.0225 58.4113 33.5245 59.616 33.7242 60.8882C33.9119 62.3693 33.6379 63.8725 32.9404 65.1897C32.9218 65.2369 32.891 65.2781 32.8512 65.309C32.8113 65.3399 32.7639 65.3594 32.7139 65.3653C32.7139 65.3653 32.5397 65.26 32.7139 64.979C33.0074 64.2006 33.1436 63.3709 33.1146 62.5386C33.1146 60.5722 31.1462 58.5356 30.2055 57.5524M13.7789 59.7997C13.7636 59.773 13.7555 59.7427 13.7555 59.7119C13.7555 59.6811 13.7636 59.6508 13.7789 59.6241C13.8164 59.5059 13.8775 59.3967 13.9584 59.3031C14.0393 59.2096 14.1382 59.1336 14.2492 59.0798C15.2073 58.5707 16.8099 57.6753 18.1337 56.8501C19.2161 56.2186 20.2317 55.4773 21.1648 54.6379C21.187 54.6184 21.2025 54.5922 21.2091 54.5633C21.2157 54.5343 21.213 54.5039 21.2014 54.4766C21.1897 54.4493 21.1698 54.4263 21.1445 54.4112C21.1191 54.396 21.0896 54.3893 21.0602 54.3921L19.5447 54.4799C18.6041 54.4799 17.6112 54.6554 17.2454 54.7257C16.7957 54.7521 16.3617 54.9018 15.9902 55.1586C15.6188 55.4154 15.324 55.7696 15.1376 56.1829V56.2883C15.0913 56.3799 15.0177 56.4546 14.927 56.5018C14.8364 56.5491 14.7334 56.5665 14.6324 56.5516C14.5105 56.5516 14.3363 56.4111 14.3885 55.9898C14.6853 54.9919 15.1068 54.0362 15.6428 53.1455L15.9737 52.4959C16.3342 51.5847 17.0169 50.8404 17.8899 50.4066C19.5753 50.0278 21.3046 49.886 23.0286 49.9852C23.2008 49.986 23.3707 50.024 23.527 50.0967C23.6832 50.1694 23.8222 50.2751 23.9345 50.4066C24.0424 50.5636 24.1114 50.7444 24.1356 50.9338C24.1598 51.1232 24.1387 51.3157 24.0738 51.4951C23.7936 52.4738 23.4019 53.4164 22.9067 54.3043C22.271 55.5797 21.3532 56.6909 20.2241 57.5524C19.8474 57.7887 19.4264 57.9441 18.9873 58.0089C17.5601 58.3327 16.1747 58.8217 14.8589 59.4661C14.5567 59.6053 14.2322 59.6885 13.9008 59.7119C13.8057 59.75 13.6998 59.75 13.6047 59.7119M21.3738 87.2591C21.176 88.0222 20.8521 88.7464 20.4157 89.401C20.219 89.7019 19.9627 89.9586 19.663 90.155C19.3632 90.3514 19.0264 90.4832 18.6738 90.5423H18.3776C17.8157 90.5329 17.2742 90.3283 16.8447 89.9629C16.2114 89.4041 15.7214 88.6994 15.4163 87.9087C14.9518 86.7282 14.6584 85.4865 14.5453 84.2217C14.3403 81.6223 14.5223 79.0066 15.0853 76.4614C15.5072 74.4865 16.0305 72.5351 16.6531 70.6149L16.9144 69.7546C17.0363 69.3157 17.2802 69.0523 17.5241 69.105C17.7679 69.1576 17.855 69.3332 17.7505 70.0882C17.7505 70.176 17.7505 70.4042 17.6286 70.7203C16.888 74.0307 16.468 77.4058 16.3744 80.798C16.4008 81.9029 16.6128 82.9952 17.0015 84.0286C17.2703 84.7576 17.713 85.4088 18.2905 85.9247C18.436 86.0543 18.609 86.1485 18.7962 86.2002C18.9834 86.252 19.1799 86.2598 19.3705 86.2232C20.2415 86.0125 20.677 84.5728 20.886 83.8705L20.9906 83.5194C21.1299 83.2385 21.3389 83.098 21.5306 83.1331C21.7222 83.1683 21.9138 83.2736 21.9138 83.9408C21.8649 85.0588 21.6836 86.1669 21.3738 87.2415M57.9548 117.984C57.8566 118.445 57.6923 118.888 57.4671 119.301C57.3282 119.663 57.0913 119.978 56.7833 120.211C56.4753 120.444 56.1087 120.585 55.7251 120.618C55.4545 120.62 55.1866 120.564 54.9399 120.452C54.6932 120.339 54.4738 120.174 54.2967 119.968C53.8647 120.399 53.2842 120.644 52.6767 120.653H52.3806C51.8335 120.565 51.311 120.362 50.8477 120.056C50.4472 119.815 50.0125 119.637 49.5586 119.529C48.6517 119.436 47.7361 119.477 46.8412 119.652C45.7481 119.838 44.6394 119.914 43.5314 119.88C42.2594 119.664 41.0424 119.196 39.9511 118.503C38.8597 117.81 37.9156 116.906 37.1733 115.842L36.912 115.456C36.912 115.351 36.7727 115.21 36.912 115.105C37.0514 114.999 37.1559 115.105 37.2256 115.228C38.4378 116.654 40.0325 117.697 41.8183 118.233C43.6042 118.769 45.5054 118.774 47.2941 118.247C48.0177 118.07 48.762 117.993 49.5063 118.019C50.4011 118.048 51.2724 118.315 52.0322 118.792C52.3787 119.052 52.8019 119.188 53.2341 119.178C53.9135 119.178 54.5232 118.353 54.9761 117.861C55.429 117.37 55.3071 117.405 55.429 117.405C55.462 117.39 55.4975 117.383 55.5335 117.383C55.5695 117.383 55.6051 117.39 55.638 117.405C55.7251 117.545 55.638 117.738 55.638 118.002C55.638 118.265 55.429 118.634 55.638 118.827C55.8471 119.02 55.9167 119.002 56.1954 119.002C56.8748 119.002 57.0142 118.528 57.1709 117.967C57.3277 117.405 57.4322 117.001 57.9897 116.948C58.0128 116.932 58.0401 116.924 58.0681 116.924C58.096 116.924 58.1233 116.932 58.1464 116.948C58.2245 117.23 58.2245 117.527 58.1464 117.809M47.4857 113.77C48.0954 113.77 48.4786 113.051 48.6005 112.805C48.7225 112.559 48.8618 112.401 49.0012 112.454C49.1405 112.506 49.1754 112.629 49.1231 112.857C49.0188 113.388 48.843 113.902 48.6005 114.385C48.4824 114.688 48.2829 114.952 48.0245 115.147C47.7661 115.342 47.459 115.461 47.1373 115.491H46.8934C46.6874 115.446 46.4949 115.352 46.3315 115.218C46.168 115.084 46.0383 114.913 45.9528 114.718C45.697 114.393 45.513 114.015 45.4128 113.612C45.3696 112.403 45.6082 111.2 46.1095 110.101C46.4632 109.277 46.9325 108.508 47.5031 107.819C47.6425 107.66 47.8167 107.485 47.956 107.59C48.0954 107.696 47.956 107.906 47.956 108.047L47.7992 108.31C46.9278 109.595 46.4493 111.108 46.4231 112.664C46.4273 112.93 46.5158 113.188 46.6756 113.4C46.8354 113.611 47.0583 113.766 47.3115 113.841M79.4854 122.619C79.4854 122.619 78.9628 125.376 77.2905 125.604H77.1163C76.7174 125.594 76.3374 125.43 76.0537 125.147C75.6577 124.697 75.3612 124.166 75.184 123.591C75.0068 123.016 74.953 122.409 75.026 121.812C75.1791 119.539 75.8084 117.325 76.8725 115.315C76.8725 115.315 77.2731 114.525 77.5518 114.648C77.8305 114.771 77.5518 114.999 77.5518 115.228L77.4125 115.526C76.4725 117.482 76.0181 119.639 76.0886 121.812C76.0997 122.123 76.1716 122.429 76.3002 122.712C76.4287 122.995 76.6113 123.25 76.8376 123.462C76.9335 123.543 77.0448 123.603 77.1646 123.639C77.2843 123.676 77.4102 123.687 77.5344 123.673C77.8473 123.565 78.1361 123.397 78.3842 123.177C78.6323 122.957 78.8349 122.69 78.9802 122.391C79.1196 122.145 79.2241 122.04 79.346 122.092C79.468 122.145 79.4854 122.391 79.4505 122.672M102.444 114.35C102.094 114.937 101.627 115.445 101.072 115.84C100.518 116.236 99.8875 116.512 99.2217 116.65C98.7182 116.713 98.2069 116.666 97.7236 116.509C97.348 116.384 96.9498 116.342 96.5565 116.386C95.2172 116.897 94.0214 117.728 93.0726 118.809C91.0795 120.924 88.5949 122.505 85.8435 123.409C85.3922 123.522 84.9315 123.592 84.4674 123.62C84.1298 123.671 83.7852 123.603 83.4919 123.427C83.4749 123.391 83.4661 123.352 83.4661 123.313C83.4661 123.273 83.4749 123.234 83.4919 123.199C83.4919 123.199 83.579 122.935 84.2758 122.777C85.9111 122.406 87.4492 121.688 88.7874 120.67C89.9741 119.754 91.0866 118.744 92.1146 117.651C93.7171 116.035 95.0933 114.613 96.7656 114.508C97.2876 114.488 97.8084 114.571 98.2985 114.754C98.3269 114.772 98.3603 114.783 98.3943 114.783C98.4284 114.783 98.4617 114.772 98.4901 114.754C98.7862 114.192 99.1695 113.525 99.5701 112.893C100.789 110.944 101.748 109.925 102.427 109.908C102.724 109.969 102.998 110.113 103.217 110.324C103.436 110.536 103.591 110.805 103.664 111.102C103.593 112.302 103.188 113.458 102.497 114.438M118.174 96.8804C116.872 98.9018 115.071 100.547 112.948 101.656C110.261 103.17 107.431 104.411 104.5 105.361C101.552 106.355 98.5437 107.158 95.4939 107.766C93.2022 108.266 90.8699 108.554 88.5261 108.626H88.3345C88.2832 108.628 88.2338 108.645 88.1931 108.677C88.1525 108.709 88.1227 108.752 88.1081 108.802C87.9513 109.293 87.7771 109.785 87.6203 110.241C87.4635 110.698 87.4461 110.768 87.359 111.014C87.184 111.613 86.9687 112.2 86.7145 112.77C86.5751 113.051 86.4184 113.331 86.2442 113.331C85.948 113.209 86.2442 112.436 86.2442 112.401C86.488 111.628 86.7842 110.645 87.1152 109.364C87.1476 109.209 87.1883 109.057 87.2371 108.907C87.2476 108.872 87.2503 108.836 87.245 108.8C87.2397 108.764 87.2266 108.729 87.2066 108.699C87.1867 108.669 87.1603 108.644 87.1294 108.625C87.0985 108.606 87.0639 108.595 87.028 108.591C86.195 108.499 85.3795 108.286 84.6067 107.959C83.9715 107.668 83.2836 107.513 82.5861 107.502C78.928 107.502 75.8795 112.366 72.9705 116.72C71.6709 118.961 70.2521 121.13 68.7201 123.216C68.1223 123.891 67.4368 124.482 66.682 124.972C66.0683 125.512 65.286 125.819 64.4712 125.838C63.6565 125.857 62.8608 125.588 62.2226 125.077C61.4039 124.322 58.7387 118.405 62.2226 109.627C62.6059 108.644 62.9717 107.871 63.2504 107.292C63.2626 107.267 63.267 107.238 63.2631 107.21C63.2592 107.182 63.247 107.156 63.2283 107.136C63.2095 107.115 63.185 107.1 63.1579 107.094C63.1307 107.087 63.1023 107.089 63.0762 107.099C62.6609 107.299 62.2116 107.418 61.7523 107.45C61.185 107.454 60.6233 107.337 60.1039 107.107C59.5846 106.877 59.1193 106.539 58.7387 106.115C58.2843 105.577 57.8927 104.988 57.5716 104.36C57.5595 104.338 57.5419 104.319 57.5204 104.307C57.499 104.294 57.4746 104.287 57.4497 104.287C57.4248 104.287 57.4003 104.294 57.3789 104.307C57.3574 104.319 57.3398 104.338 57.3277 104.36C56.7981 105.148 56.2161 105.898 55.5858 106.607C54.6923 107.623 53.4443 108.252 52.1019 108.363H51.5096C49.7676 108.363 48.2173 107.046 47.2244 104.395C46.5814 102.693 46.1201 100.928 45.8482 99.1277V98.5835C45.8482 98.5462 45.8336 98.5105 45.8074 98.4841C45.7813 98.4578 45.7458 98.443 45.7089 98.443C45.6719 98.443 45.6365 98.4578 45.6103 98.4841C45.5842 98.5105 45.5695 98.5462 45.5695 98.5835C45.2599 100.162 44.8051 101.708 44.2108 103.201C43.8067 104.186 43.3048 105.127 42.7127 106.01C42.0508 106.993 40.2217 109.328 35.1526 111.277C33.6163 111.852 32.0213 112.252 30.3971 112.471C30.3731 112.479 30.3477 112.483 30.3224 112.481C30.2971 112.479 30.2724 112.472 30.2497 112.461C30.227 112.45 30.2068 112.434 30.1902 112.414C30.1737 112.395 30.1611 112.373 30.1532 112.348C30.133 112.278 30.1376 112.203 30.1661 112.136C30.1947 112.068 30.2456 112.013 30.31 111.98C33.811 110.108 36.9925 107.683 39.734 104.799C40.9851 103.56 42.0846 102.175 43.0089 100.673C43.6927 99.6224 44.1003 98.4141 44.1934 97.1613C44.1934 96.9682 44.1934 96.5819 44.1934 96.0552C44.196 96.0113 44.1859 95.9676 44.1645 95.9294C44.143 95.8911 44.111 95.8599 44.0724 95.8395C44.0338 95.8191 43.9901 95.8104 43.9467 95.8144C43.9033 95.8184 43.8619 95.835 43.8276 95.8621C41.5427 97.3366 39.3442 98.9428 37.243 100.673C34.0726 103.201 30.8849 105.659 27.6448 105.659H26.9655C26.0483 105.577 25.1931 105.158 24.5616 104.483C23.8435 103.72 23.3491 102.772 23.1332 101.744C22.4207 98.6779 22.7839 95.458 24.1609 92.6316C26.2079 88.9016 29.0304 85.6615 32.4352 83.1331C32.4616 83.1085 32.4826 83.0786 32.497 83.0454C32.5114 83.0121 32.5188 82.9763 32.5188 82.94C32.5188 82.9038 32.5114 82.8679 32.497 82.8346C32.4826 82.8014 32.4616 82.7715 32.4352 82.7469L30.6932 80.9912L29.8571 80.2011C28.7945 79.1652 27.819 78.0416 26.8609 76.9179C26.1467 76.1279 25.4674 75.3027 24.788 74.495C24.1087 73.6874 21.3041 69.7195 20.1718 68.3676C20.0002 68.2387 19.8128 68.1325 19.6144 68.0516C19.1409 67.9121 18.7175 67.6377 18.395 67.2615C18.2123 66.5853 18.1071 65.8901 18.0815 65.1897C18.0574 64.7804 18.0574 64.37 18.0815 63.9607C18.0815 63.3989 18.0815 63.276 18.2557 63.2058C18.2912 63.1724 18.3378 63.1539 18.3863 63.1539C18.4348 63.1539 18.4815 63.1724 18.517 63.2058C19.4897 63.948 20.5344 64.5892 21.6351 65.1195C23.4743 66.014 25.2242 67.0841 26.8609 68.3149C27.4184 68.7363 28.2197 69.5966 28.2197 69.9126C28.2383 69.9636 28.2383 70.0196 28.2197 70.0706C28.1152 70.0706 27.8887 70.0706 26.5822 69.7019L25.659 69.421L25.2409 69.3157C25.2409 69.3157 24.9796 69.2103 24.8925 69.3157C24.8054 69.421 25.2932 70.176 25.3629 70.2637C25.6416 70.65 28.1674 73.4592 28.6029 73.9156C29.5958 75.0042 30.5887 76.0927 31.6165 77.1461C32.2262 77.7607 32.9229 78.4103 33.6546 79.1301C35.792 81.1044 37.7886 83.2283 39.6295 85.4858C41.2371 87.4626 42.4872 89.709 43.3224 92.1224C43.3334 92.1568 43.3518 92.1883 43.3763 92.2146C43.4007 92.241 43.4306 92.2616 43.4639 92.275C43.4972 92.2885 43.5329 92.2943 43.5687 92.2922C43.6045 92.2901 43.6393 92.2801 43.6708 92.2629L43.9147 92.1049C43.9556 92.0838 43.9891 92.0506 44.0109 92.0099C44.0327 91.9691 44.0417 91.9226 44.0366 91.8766C43.5314 85.6438 42.6256 75.3378 41.9637 67.718C41.4585 62.0119 41.0927 57.9035 41.0927 57.6753C41.2078 56.901 41.5065 56.1662 41.9637 55.5333C42.2333 54.9149 42.566 54.3265 42.9566 53.7776C43.0195 53.7388 43.0919 53.7183 43.1656 53.7183C43.2394 53.7183 43.3117 53.7388 43.3747 53.7776C43.5663 53.8654 43.636 54.1463 43.6882 54.4623C44.1237 57.9737 44.4721 62.4508 44.8031 66.7523C45.2908 73.1607 45.7786 79.7973 46.7715 85.7843C46.9979 87.1713 47.1721 88.5232 47.3463 89.8224C47.3508 89.8614 47.3644 89.8987 47.3861 89.9313C47.4078 89.9639 47.437 89.9907 47.4711 90.0096C47.5052 90.0285 47.5433 90.0389 47.5822 90.04C47.6211 90.041 47.6597 90.0326 47.6947 90.0155C50.2743 88.7755 52.927 87.6967 55.638 86.785C54.9064 85.8721 54.3838 85.2225 54.3838 84.608C54.3202 83.2471 54.6861 81.901 55.429 80.7629C55.7792 80.2775 56.247 79.8906 56.7877 79.6393C57.3802 79.3558 58.0308 79.2174 58.6864 79.2355C60.3997 79.6217 62.0099 80.3763 63.4072 81.4477C64.2205 81.9678 64.9895 82.5551 65.7065 83.2034C66.3859 83.853 66.7169 84.3797 66.7169 84.766C66.6408 85.5441 66.453 86.3071 66.1594 87.0308C66.0027 87.4346 65.8633 87.8033 65.7239 88.0843C65.5846 88.3652 65.393 88.611 65.3407 88.6285L63.8601 88.7163C63.1318 88.7254 62.4047 88.7781 61.6826 88.8743L59.5923 89.3659C59.5399 89.3775 59.4927 89.4061 59.4581 89.4473C59.4234 89.4886 59.4032 89.5402 59.4006 89.5942C59.4107 89.6758 59.4107 89.7584 59.4006 89.84V90.0155C59.3838 90.3365 59.3313 90.6545 59.2439 90.9636C59.0523 91.6133 58.9303 91.6484 58.8606 91.6484C58.791 91.6484 58.7039 91.6484 58.6516 91.5079C58.4529 90.9924 58.2261 90.4883 57.9722 89.998C57.9465 89.9487 57.9049 89.9097 57.8542 89.8874C57.8036 89.865 57.7469 89.8607 57.6935 89.8751C54.3732 90.784 51.1473 92.0128 48.0605 93.5445C48.0178 93.5694 47.9824 93.6053 47.9579 93.6485C47.9334 93.6916 47.9207 93.7406 47.9212 93.7903C48.1372 96.0911 48.5926 98.3626 49.2799 100.567C49.5812 101.512 50.1075 102.368 50.8128 103.061C51.4924 103.667 52.3799 103.982 53.2864 103.938C54.4974 103.901 55.6468 103.392 56.4916 102.516C57.2877 101.65 58.0378 100.741 58.7387 99.7949C59.1045 99.3384 59.6097 98.8468 59.9581 99.0575C60.3065 99.2682 60.0626 99.6018 59.9581 100.041C59.7554 100.452 59.7091 100.923 59.8278 101.367C59.9465 101.81 60.2222 102.194 60.6026 102.446C61.3541 103.029 62.2852 103.328 63.2329 103.289C64.0728 103.264 64.8685 102.904 65.4452 102.288C66.0574 101.658 66.6005 100.963 67.0653 100.216C67.444 99.526 67.967 98.9269 68.5982 98.4605C68.9117 98.3025 69.0685 98.3552 69.1382 98.4605C69.2079 98.5659 69.1382 98.9346 69.1382 99.1453L68.9988 99.3384C68.7839 99.5781 68.6712 99.8935 68.6853 100.216C68.875 100.715 69.2054 101.147 69.6356 101.459C70.0658 101.771 70.5771 101.949 71.1066 101.972C72.2563 101.972 72.6743 101.27 73.1273 100.216C73.4453 98.7042 74.094 97.2827 75.026 96.0552C75.3221 95.8796 75.4789 95.9499 75.566 96.0552C75.6531 96.1606 75.6531 96.5293 75.566 96.7399C75.3123 97.0444 75.1762 97.431 75.1828 97.8285C75.1828 98.2323 75.8447 98.8819 76.6112 99.2155C76.9818 99.3408 77.3699 99.406 77.7608 99.4086H78.0744C78.5895 99.3826 79.0885 99.219 79.5202 98.9346C79.9383 98.6537 80.0602 98.3727 80.0602 98.285C80.0602 97.6178 79.7467 95.388 79.2241 91.9995C78.1092 84.4499 76.2105 71.8263 74.9563 56.3585C74.8907 56.2072 74.8151 56.0605 74.7299 55.9196C74.4224 55.5268 74.2402 55.0493 74.2073 54.5501C74.442 53.8924 74.7581 53.2671 75.1479 52.689C75.4092 52.2852 75.6357 51.9341 75.8447 51.6707C76.0537 51.4074 76.315 51.1791 76.4021 51.1791C76.4263 51.1741 76.4513 51.1742 76.4754 51.1797C76.4996 51.1851 76.5223 51.1956 76.542 51.2106C76.5618 51.2255 76.5782 51.2445 76.5901 51.2664C76.602 51.2882 76.6092 51.3123 76.6112 51.3371C76.967 52.52 77.4458 53.6617 78.0396 54.7432C78.9935 56.5633 79.7807 58.4674 80.3912 60.4318C80.6173 61.1095 80.6771 61.8325 80.5654 62.5386C80.5151 62.5591 80.4589 62.5591 80.4086 62.5386C80.2693 62.5386 80.1299 62.3806 79.3112 61.2745L78.7189 60.502C78.7189 60.3966 78.5447 60.2737 78.4402 60.1684C78.3357 60.063 78.2834 59.9226 78.1963 59.905C78.1092 59.8875 78.0047 60.6249 78.0047 60.7127C78.0047 63.3638 78.9976 70.0355 79.9731 76.5141C80.9486 82.9927 81.9938 89.8049 81.9938 92.5438C82.1305 94.4327 81.8693 96.3294 81.2273 98.1094C81.2273 98.3201 81.088 98.5308 81.0009 98.759C80.6249 100.191 79.9409 101.521 78.9976 102.657C78.7303 102.973 78.3997 103.229 78.0274 103.407C77.6552 103.586 77.2497 103.683 76.8376 103.693C75.5275 103.679 74.2615 103.214 73.2492 102.376C73.2282 102.347 73.2007 102.323 73.1689 102.307C73.1371 102.291 73.1019 102.282 73.0663 102.282C73.0306 102.282 72.9955 102.291 72.9637 102.307C72.9319 102.323 72.9044 102.347 72.8834 102.376C72.5809 103.073 72.2196 103.743 71.8034 104.377C71.5787 104.759 71.2704 105.084 70.9021 105.328C70.5338 105.571 70.1152 105.726 69.6782 105.782C68.6826 105.806 67.7138 105.455 66.9607 104.799C66.6526 104.525 66.3882 104.205 66.1768 103.851C66.153 103.814 66.1207 103.785 66.0827 103.764C66.0447 103.744 66.0022 103.733 65.9591 103.733C65.916 103.733 65.8735 103.744 65.8355 103.764C65.7976 103.785 65.7652 103.814 65.7414 103.851L65.5672 104.184C64.3846 106.017 63.4639 108.009 62.8323 110.101C60.9161 120.302 63.9297 120.635 64.8878 120.635C65.5246 120.568 66.1389 120.36 66.6869 120.026C67.2349 119.692 67.7031 119.241 68.0582 118.704C69.3161 116.967 70.4792 115.161 71.5421 113.296C73.122 110.678 74.973 108.235 77.0641 106.01C77.8685 105.043 78.8557 104.247 79.9682 103.669C81.0807 103.09 82.2962 102.74 83.5441 102.639C84.2933 102.621 85.0354 102.79 85.7042 103.131C86.4488 103.483 87.2524 103.691 88.0732 103.745C88.1366 103.749 88.1996 103.733 88.2529 103.698C88.3063 103.663 88.3471 103.612 88.3694 103.552C88.8919 101.937 89.4145 100.515 89.972 99.2155C91.0736 96.5552 92.5267 94.057 94.292 91.7888C94.9977 90.8917 95.8313 90.1049 96.7656 89.4537C97.5115 88.9047 98.4032 88.5929 99.3262 88.5583C101.336 88.5445 103.286 89.2472 104.831 90.5423C105.44 90.9796 105.952 91.5392 106.336 92.1858C106.719 92.8324 106.966 93.5521 107.061 94.2995C106.841 95.9848 106.303 97.6119 105.475 99.0926C105.179 99.7422 104.866 100.357 104.604 100.848C106.891 100.143 109.131 99.2931 111.311 98.3025C113.39 97.4054 115.336 96.2238 117.094 94.7911C117.094 94.7911 117.094 94.6331 117.007 94.2468C116.813 93.7537 116.529 93.3012 116.171 92.9125C115.844 92.5145 115.375 92.2622 114.864 92.2102C113.811 92.2144 112.763 92.356 111.746 92.6316C111.213 92.7835 110.663 92.8718 110.109 92.8949C108.82 92.8949 107.078 92.0171 106.869 90.9812C106.605 89.5943 106.695 88.1625 107.13 86.8201C107.49 85.6944 108.084 84.659 108.872 83.7828C109.273 83.2668 109.779 82.8433 110.356 82.5405C110.933 82.2377 111.567 82.0626 112.217 82.027C113.264 82.1923 114.243 82.6552 115.039 83.3614C115.828 84.0957 116.467 84.9784 116.92 85.9598C117.813 87.936 118.338 90.0605 118.47 92.2278C118.658 93.7052 118.509 95.2063 118.035 96.617M118.714 74.9866L117.791 76.0401C117.325 76.6472 116.799 77.2059 116.223 77.708C116.049 77.708 115.805 77.5675 114.934 76.9706C114.324 76.5317 113.558 76.0225 112.896 75.6187C112.525 75.3706 112.141 75.1421 111.746 74.934C111.697 74.9007 111.64 74.883 111.581 74.883C111.522 74.883 111.464 74.9007 111.415 74.934L110.248 76.3385C109.36 77.4271 109.255 77.6377 109.081 77.6377C108.907 77.6377 108.733 77.5324 108.245 77.2691C107.757 77.0057 107.252 76.7248 106.73 76.4263C106.207 76.1279 105.737 75.8645 105.284 75.566C104.831 75.2675 104.639 75.092 104.639 74.9866C104.639 74.8813 104.901 74.4248 105.789 73.4943C106.277 73.0027 106.973 72.1424 107.165 71.9141C107.357 71.6859 107.357 71.8088 107.67 71.9141L108.628 72.3882C109.325 72.7393 110.161 73.1958 110.771 73.5294L111.415 73.9156C111.458 73.9484 111.51 73.9661 111.563 73.9661C111.617 73.9661 111.669 73.9484 111.712 73.9156L112.426 73.0904C113.976 71.3347 114.168 71.2294 114.29 71.2118C114.617 71.3201 114.928 71.4737 115.213 71.6683L116.833 72.634C117.477 73.0027 118.035 73.3187 118.435 73.582C118.649 73.7002 118.853 73.8353 119.045 73.9859C119.254 74.1263 119.306 74.1966 119.306 74.2843C119.306 74.3721 119.306 74.4599 118.801 75.0042M123.452 81.6759C123.461 81.8162 123.461 81.9569 123.452 82.0973C123.156 83.1156 122.512 84.8011 121.554 84.8011H121.449C120.7 84.8011 120.177 83.8705 120.125 82.6415C120.113 81.0076 120.47 79.3924 121.17 77.9187C121.577 76.8411 122.166 75.843 122.912 74.9691C122.912 74.9691 123.121 74.7759 123.243 74.8813C123.365 74.9866 123.243 75.1446 123.243 75.3026C123.243 75.4607 123.052 75.6187 122.93 75.8469L122.686 76.2683C121.735 77.9644 121.208 79.8689 121.153 81.8164C121.137 82.011 121.165 82.2068 121.234 82.3892C121.303 82.5716 121.413 82.7358 121.554 82.8698C121.61 82.9255 121.68 82.966 121.756 82.9875C121.832 83.0089 121.912 83.0107 121.989 82.9927C122.303 82.9927 122.808 82.2377 123.069 81.6232C123.069 81.5003 123.243 81.2545 123.417 81.3248C123.592 81.395 123.557 81.5354 123.557 81.6759M123.801 64.0134C123.675 64.0477 123.543 64.0477 123.417 64.0134C123.208 64.0134 122.93 63.7852 122.668 64.0134C122.629 64.598 122.629 65.1846 122.668 65.7691C122.668 66.3485 122.668 66.9454 122.668 67.4195C122.657 68.2351 122.605 69.0496 122.512 69.8599C122.32 71.3172 122.094 71.5103 121.885 71.5103C121.676 71.5103 121.501 71.1592 121.048 70.1409L120.63 69.1752C120.474 68.8416 120.299 68.4905 120.125 68.1744C119.954 67.8744 119.762 67.587 119.55 67.3142C119.434 67.168 119.3 67.0381 119.15 66.9279C119.098 66.9183 119.045 66.9183 118.993 66.9279C118.993 66.9279 118.993 67.0332 118.993 67.0684C118.993 67.1035 118.871 67.437 118.697 67.4722C118.111 67.3557 117.566 67.0897 117.112 66.6996C116.898 66.5379 116.723 66.3286 116.603 66.0881C116.482 65.8476 116.418 65.5822 116.415 65.3126C116.453 64.6638 116.704 64.0462 117.129 63.5569C117.167 63.5297 117.213 63.5151 117.26 63.5151C117.306 63.5151 117.352 63.5297 117.39 63.5569C118.827 64.0156 120.059 64.9658 120.874 66.2432C121.173 66.6986 121.429 67.1805 121.641 67.6828C121.651 67.7097 121.668 67.7329 121.692 67.7493C121.715 67.7657 121.743 67.7744 121.771 67.7744C121.8 67.7744 121.828 67.7657 121.851 67.7493C121.874 67.7329 121.892 67.7097 121.902 67.6828C121.902 67.0332 121.902 66.2607 121.902 65.8218C121.902 65.3829 121.902 65.2073 121.902 65.1019C121.902 63.6096 122.86 62.2226 123.644 62.1523C123.939 62.1609 124.219 62.2815 124.429 62.49C124.639 62.6984 124.763 62.9792 124.776 63.276C124.803 63.514 124.741 63.7535 124.603 63.9482C124.465 64.1429 124.259 64.2787 124.027 64.3294" fill="#C4B681"/>
<path d="M110.91 86.188C109.725 86.188 108.889 87.3468 108.75 87.4345C109.019 87.8216 109.376 88.1383 109.791 88.3581C110.206 88.578 110.668 88.6948 111.136 88.6987C112.13 88.7338 113.117 88.5228 114.011 88.0842C113.261 87.0698 112.149 86.3896 110.91 86.188Z" fill="#C4B681"/>
<path d="M58.0246 85.2398C58.0655 85.2685 58.1141 85.2839 58.1639 85.2839C58.2138 85.2839 58.2624 85.2685 58.3033 85.2398L60.4981 84.5902C60.5199 84.5781 60.5381 84.5603 60.5507 84.5387C60.5634 84.5171 60.57 84.4924 60.57 84.4673C60.57 84.4422 60.5634 84.4176 60.5507 84.396C60.5381 84.3744 60.5199 84.3566 60.4981 84.3444C60.0495 84.0074 59.578 83.7023 59.0872 83.4315C58.2737 82.9291 57.3666 82.6004 56.422 82.4658C56.2204 82.4707 56.0207 82.5062 55.8297 82.5712C55.8079 82.5833 55.7898 82.6011 55.7771 82.6227C55.7645 82.6443 55.7578 82.669 55.7578 82.6941C55.7578 82.7191 55.7645 82.7438 55.7771 82.7654C55.7898 82.787 55.8079 82.8048 55.8297 82.817C56.662 83.487 57.3952 84.2733 58.0071 85.1521" fill="#C4B681"/>
<path d="M33.7943 83.6601C33.7504 83.6229 33.6948 83.6025 33.6375 83.6025C33.5802 83.6025 33.5246 83.6229 33.4807 83.6601C31.7388 84.9944 26.7394 89.4012 25.2935 92.5615C24.8235 93.478 24.5449 94.4819 24.4748 95.5111C24.459 96.2927 24.6013 97.0692 24.8929 97.7936C25.1206 98.3475 25.4654 98.8448 25.9032 99.2508C26.6094 99.8729 27.5089 100.227 28.4465 100.252C31.6342 100.252 34.282 98.25 37.0517 96.1081C38.2537 95.1775 39.8563 93.931 41.6156 92.7722C41.6585 92.7239 41.6822 92.6614 41.6822 92.5966C41.6822 92.5319 41.6585 92.4694 41.6156 92.4211C39.224 89.2856 36.5851 86.3499 33.7246 83.6425" fill="#C4B681"/>
<path d="M104.326 96.1958C103.639 95.1602 102.708 94.312 101.617 93.7269C100.526 93.1418 99.3081 92.8379 98.0721 92.8423C97.2478 92.9118 96.4483 93.1614 95.7294 93.5737C95.0104 93.9861 94.3892 94.5513 93.9089 95.2301C92.5046 96.9698 91.3763 98.9184 90.5643 101.006C90.2856 101.691 89.8153 102.955 89.6237 103.5C89.6118 103.53 89.6078 103.563 89.6119 103.595C89.6161 103.627 89.6283 103.658 89.6475 103.684C89.6666 103.711 89.692 103.732 89.7213 103.745C89.7507 103.759 89.783 103.765 89.8153 103.763C91.17 103.736 92.5209 103.607 93.8566 103.377C95.9474 102.934 97.9691 102.207 99.8664 101.217C101.77 100.431 103.452 99.1821 104.761 97.5828C104.866 97.3896 104.761 96.8805 104.326 96.1958Z" fill="#C4B681"/>
<path d="M162.298 46.421C161.881 46.4647 161.461 46.3981 161.078 46.2279C160.973 46.1627 160.887 46.0689 160.832 45.9571C160.776 45.8454 160.753 45.7202 160.765 45.5958C160.75 45.4733 160.75 45.3496 160.765 45.2271C160.84 44.9692 160.933 44.7169 161.043 44.4721L161.862 42.2424H169.997L170.903 44.6653C171.03 44.9809 171.118 45.3111 171.164 45.6485C171.187 46.0168 171.187 46.3862 171.164 46.7546C171.164 47.1057 171.077 47.3866 171.06 47.5798C171.068 47.7084 171.068 47.8374 171.06 47.966H176.286V46.421C175.961 46.3992 175.639 46.3403 175.327 46.2454C175.058 46.16 174.817 46.0022 174.631 45.7889C174.368 45.4731 174.157 45.1176 174.004 44.7355C173.795 44.2615 173.516 43.6294 173.202 42.8218L168.691 30.8829C168.447 30.1982 168.22 29.6188 168.046 29.1272C167.916 28.7732 167.764 28.4273 167.593 28.0913H161.88V29.6188H162.663C162.967 29.6261 163.265 29.7042 163.534 29.847C163.615 29.9038 163.679 29.9805 163.722 30.0696C163.765 30.1587 163.784 30.2574 163.778 30.3562C163.814 30.5359 163.814 30.7208 163.778 30.9005C163.747 31.0435 163.706 31.1843 163.656 31.3218L159.18 42.9622C158.918 43.6469 158.692 44.2088 158.5 44.7179C158.309 45.2271 158.117 45.5607 157.943 45.8592C157.769 46.1576 157.612 46.4385 157.455 46.6668C157.298 46.895 157.159 47.0882 157.02 47.2813V47.8958H162.245L162.298 46.421ZM164.614 35.0615C164.911 34.2539 165.189 33.4638 165.451 32.7088C165.712 31.9539 165.921 31.3394 166.043 30.9531C166.147 31.3921 166.322 31.9714 166.565 32.7088C166.809 33.4462 167.088 34.2188 167.402 35.0615L169.37 40.434H162.576L164.614 35.0615Z" fill="#C4B681"/>
<path d="M178.933 29.8294C179.041 29.8629 179.14 29.9194 179.225 29.9952C179.309 30.071 179.376 30.1641 179.421 30.2684C179.564 30.6012 179.641 30.9591 179.647 31.3218C179.647 31.8017 179.647 32.4513 179.647 33.2707V38.3271C179.647 40.0828 179.647 41.4172 179.647 42.4355C179.642 43.2805 179.59 44.1246 179.491 44.9637C179.425 45.476 179.314 45.9813 179.16 46.4736C179.003 46.8791 178.817 47.2723 178.602 47.6499V47.966H190.796C190.796 47.7319 190.865 47.4159 191.005 47.0179C191.109 46.6317 191.231 46.2278 191.353 45.8065C191.475 45.3851 191.58 44.9813 191.702 44.595C191.784 44.2698 191.895 43.9525 192.033 43.6469H190.447C190.226 43.9867 189.988 44.3149 189.733 44.6301C189.508 44.9302 189.231 45.186 188.915 45.3851C188.552 45.6152 188.15 45.7759 187.73 45.8591C187.156 45.9706 186.572 46.0235 185.988 46.0171H185.222C184.902 46.0339 184.583 46.0339 184.263 46.0171C183.957 45.9826 183.667 45.8608 183.427 45.666C183.151 45.4222 182.946 45.1064 182.835 44.753C182.644 44.1888 182.561 43.5929 182.591 42.9973V37.7302C182.591 35.9393 182.591 34.5172 182.591 33.4638C182.595 32.6187 182.647 31.7745 182.748 30.9356C182.789 30.4324 182.894 29.9367 183.062 29.4608C183.211 29.092 183.386 28.7341 183.584 28.3898V28.0737H177.592V29.6188H178.097C178.386 29.6547 178.671 29.7134 178.951 29.7943" fill="#C4B681"/>
<path d="M205.76 46.2102C204.681 46.266 203.618 45.9296 202.764 45.2622C201.974 44.5949 201.338 43.7621 200.9 42.8217H199.437C199.506 43.1377 199.576 43.4889 199.646 43.8751C199.646 44.2614 199.802 44.6301 199.872 44.9988C199.942 45.3675 200.011 45.7362 200.081 46.0873C200.126 46.3954 200.19 46.7003 200.273 47.0003C201.043 47.4558 201.869 47.8099 202.729 48.0537C203.614 48.2943 204.529 48.4066 205.446 48.3873C206.628 48.4174 207.806 48.2452 208.93 47.8782C209.781 47.6003 210.564 47.1458 211.23 46.5438C211.808 46.0012 212.25 45.327 212.519 44.5774C212.798 43.819 212.94 43.0162 212.937 42.2072C212.934 41.1787 212.584 40.1818 211.944 39.3805C211.146 38.4412 210.119 37.7272 208.965 37.3087L205.185 35.7637C204.534 35.5298 203.94 35.1587 203.443 34.6752C203.089 34.2614 202.903 33.7287 202.92 33.1828C202.919 32.7641 202.99 32.3482 203.129 31.9538C203.268 31.5523 203.501 31.1907 203.809 30.9004C204.164 30.5596 204.594 30.3071 205.063 30.163C205.675 29.9584 206.317 29.8633 206.962 29.8821C207.484 29.878 208.003 29.9671 208.495 30.1454C208.956 30.3061 209.391 30.537 209.784 30.8302C210.154 31.1034 210.477 31.4355 210.742 31.8134C211.004 32.1689 211.204 32.5667 211.334 32.9897H212.641C212.484 32.2699 212.327 31.5149 212.205 30.7599C212.083 30.005 211.979 29.3905 211.892 28.8989C211.309 28.5534 210.69 28.2765 210.045 28.0737C209.094 27.7996 208.107 27.6752 207.119 27.705C206.069 27.6894 205.023 27.8375 204.018 28.1439C203.156 28.3854 202.351 28.7972 201.649 29.3554C201.014 29.8659 200.502 30.514 200.151 31.2515C199.798 32.0029 199.619 32.8255 199.628 33.6569C199.604 34.6836 199.979 35.6792 200.673 36.4309C201.537 37.3006 202.577 37.9715 203.722 38.3973L207.206 39.8019C207.872 40.0551 208.469 40.4643 208.948 40.9958C209.343 41.4911 209.542 42.1168 209.505 42.7515C209.538 43.67 209.213 44.5651 208.599 45.2446C208.208 45.6217 207.742 45.9094 207.231 46.0882C206.72 46.2669 206.176 46.3325 205.638 46.2805" fill="#C4B681"/>
<path d="M232.743 46.2454C232.473 46.16 232.232 46.0022 232.046 45.7889C231.783 45.4731 231.572 45.1176 231.419 44.7355C231.192 44.2615 230.931 43.6294 230.617 42.8042L226.106 30.8829C225.862 30.1982 225.635 29.6188 225.461 29.1272L225.235 28.5829C225.235 28.3898 225.06 28.2142 224.991 28.0913H219.277V29.6188H220.079C220.382 29.6261 220.681 29.7042 220.949 29.847C221.03 29.9038 221.095 29.9805 221.137 30.0696C221.18 30.1587 221.199 30.2574 221.193 30.3562C221.22 30.5366 221.22 30.72 221.193 30.9005L221.071 31.3218L216.595 42.9622C216.333 43.647 216.107 44.2088 215.898 44.7179C215.737 45.1132 215.557 45.4999 215.358 45.8767C215.184 46.1927 215.027 46.4561 214.87 46.6844L214.435 47.2988V47.9134H219.66V46.3683C219.244 46.4096 218.825 46.3431 218.441 46.1752C218.341 46.1051 218.261 46.0098 218.209 45.8989C218.157 45.788 218.135 45.6654 218.145 45.5431C218.13 45.4207 218.13 45.2969 218.145 45.1744C218.145 45.034 218.267 44.7882 218.406 44.4195L219.242 42.1897H227.36L228.283 44.6126C228.394 44.9335 228.481 45.2621 228.544 45.5958C228.566 45.9642 228.566 46.3335 228.544 46.7019C228.544 47.053 228.544 47.334 228.457 47.5271C228.439 47.6598 228.404 47.7896 228.353 47.9134H233.666V46.3683C233.341 46.3465 233.019 46.2876 232.708 46.1928M225.2 40.3638H219.852L221.89 35.0088C222.186 34.2012 222.465 33.4111 222.726 32.6562L223.319 30.9005C223.423 31.3394 223.597 31.9188 223.841 32.6562C224.085 33.3936 224.364 34.1661 224.677 35.0088L225.2 36.431L226.646 40.3813L225.2 40.3638Z" fill="#C4B681"/>
<path d="M236.226 29.8294C236.337 29.8607 236.44 29.9162 236.527 29.9921C236.615 30.0679 236.684 30.1623 236.731 30.2684C236.867 30.6028 236.938 30.9604 236.94 31.3218C236.94 31.8017 236.94 32.4513 236.94 33.2707V38.3271C236.94 40.0828 236.94 41.4172 236.94 42.4355C236.935 43.2805 236.883 44.1246 236.783 44.9637C236.727 45.4774 236.616 45.9836 236.453 46.4736C236.303 46.8823 236.117 47.2761 235.895 47.6499V47.966H248.089C248.089 47.7377 248.211 47.4217 248.315 47.0179C248.42 46.6141 248.542 46.2278 248.646 45.8065C248.751 45.3851 248.873 44.9813 248.995 44.595C249.085 44.2723 249.196 43.9556 249.326 43.6469H247.74C247.525 43.9863 247.292 44.3145 247.044 44.6301C246.819 44.9302 246.541 45.186 246.225 45.3851C245.856 45.6147 245.449 45.7753 245.023 45.8591C244.449 45.9724 243.865 46.0254 243.281 46.0171H242.532C242.213 46.0352 241.893 46.0352 241.574 46.0171C241.268 45.9826 240.978 45.8608 240.738 45.666C240.455 45.4238 240.244 45.108 240.128 44.753C239.945 44.1867 239.863 43.5924 239.884 42.9973V37.7302C239.884 35.9393 239.884 34.5172 239.884 33.4638C239.884 32.4104 239.936 31.5676 240.041 30.9356C240.095 30.4329 240.206 29.938 240.372 29.4608C240.507 29.0856 240.682 28.7265 240.895 28.3898V28.0737H234.885V29.6188H235.39C235.679 29.6532 235.964 29.712 236.243 29.7943" fill="#C4B681"/>
<path d="M254.813 46.421C254.391 46.4637 253.965 46.3973 253.576 46.2279C253.476 46.1577 253.396 46.0625 253.345 45.9516C253.293 45.8407 253.27 45.718 253.28 45.5958C253.265 45.4733 253.265 45.3496 253.28 45.2271C253.28 45.0867 253.402 44.8408 253.541 44.4721L254.377 42.2424H262.495L263.418 44.6653C263.529 44.9862 263.616 45.3148 263.679 45.6485C263.701 46.0168 263.701 46.3862 263.679 46.7546C263.679 47.1057 263.679 47.3866 263.592 47.5798C263.574 47.7125 263.539 47.8423 263.488 47.966H268.801V46.421C268.476 46.3992 268.154 46.3403 267.843 46.2454C267.572 46.1643 267.33 46.0058 267.146 45.7889C266.883 45.4699 266.666 45.1154 266.501 44.7355C266.292 44.2615 266.031 43.6294 265.718 42.8218L261.206 30.8829C260.962 30.1982 260.736 29.6188 260.561 29.1272C260.426 28.7722 260.269 28.4262 260.091 28.0913H254.447V29.6188H255.248C255.552 29.6261 255.85 29.7042 256.119 29.847C256.2 29.9038 256.264 29.9805 256.307 30.0696C256.35 30.1587 256.369 30.2574 256.363 30.3562C256.39 30.5366 256.39 30.72 256.363 30.9005L256.241 31.3218L251.765 42.9622C251.503 43.6469 251.277 44.2088 251.068 44.7179C250.906 45.11 250.72 45.4912 250.51 45.8592C250.373 46.1393 250.216 46.4092 250.04 46.6668C249.901 46.895 249.744 47.0882 249.604 47.2813V47.8958H254.83L254.813 46.421ZM257.13 35.0615C257.426 34.2539 257.705 33.4638 257.966 32.7088L258.558 30.9531C258.663 31.3921 258.837 31.9714 259.081 32.7088C259.325 33.4462 259.603 34.2188 259.917 35.0615L261.885 40.434H255.092L257.13 35.0615Z" fill="#C4B681"/>
<path d="M271.362 29.8298C271.472 29.8586 271.573 29.9134 271.658 29.9897C271.743 30.0661 271.809 30.1617 271.849 30.2688C271.984 30.6042 272.061 30.9606 272.076 31.3222C272.076 31.7963 272.076 32.4459 272.076 33.2711C272.076 33.4115 272.076 33.5871 272.076 33.8153C272.076 34.0436 272.076 34.3069 272.076 34.5527C272.076 34.7985 272.076 35.0794 272.076 35.3428C272.076 35.6061 272.076 35.8519 272.076 36.0626L271.849 42.2076C271.849 42.8924 271.849 43.4893 271.849 43.9634C271.849 44.4374 271.849 44.9817 271.71 45.4206C271.654 45.8149 271.561 46.203 271.431 46.5794C271.313 46.927 271.161 47.2621 270.978 47.5801V47.8962H276.361V46.3511H275.42C275.21 46.3418 275.004 46.2942 274.811 46.2107C274.664 46.1156 274.539 45.9898 274.445 45.842C274.341 45.6208 274.276 45.3832 274.253 45.1397C274.232 44.7654 274.232 44.3903 274.253 44.016V31.6031C274.509 32.1298 274.857 32.8672 275.298 33.8153C275.734 34.7634 276.239 35.9222 276.796 37.3268L280.42 45.842C280.658 46.495 281.025 47.0924 281.5 47.5977C281.822 47.8673 282.23 48.0107 282.649 48.0015H283.242L283.921 46.4565C284.147 45.9649 284.426 45.3504 284.74 44.7008L290.14 31.9367V38.784C290.14 40.329 290.14 41.5931 290.14 42.5588C290.14 43.5244 290.14 44.3145 290.14 44.9641C290.119 45.4943 290.061 46.0224 289.966 46.5443C289.892 46.9596 289.793 47.37 289.669 47.7733V48.0893H295.226V46.5443H294.268C294.088 46.5303 293.914 46.4737 293.759 46.3791C293.605 46.2846 293.475 46.1547 293.38 46C293.127 45.4517 293.019 44.847 293.066 44.2443V38.1695C293.066 36.4138 293.066 34.9565 293.066 33.868C293.07 32.9995 293.122 32.132 293.223 31.2695C293.267 30.7439 293.372 30.2254 293.537 29.7245C293.679 29.3469 293.854 28.9827 294.059 28.636V28.3375H289.547C289.387 28.9347 289.189 29.521 288.955 30.0932C288.677 30.7779 288.38 31.4627 288.067 32.2001L282.841 44.2618L276.361 29.3382C276.291 29.1112 276.177 28.9008 276.024 28.7197C275.871 28.5386 275.684 28.3906 275.473 28.2848C274.952 28.1054 274.402 28.028 273.852 28.0566H269.985V29.6016H270.525C270.808 29.6409 271.087 29.6996 271.362 29.7772" fill="#C4B681"/>
<path d="M164.074 71.3348C164.551 71.3348 165.195 71.3348 166.008 71.3348C166.983 71.3569 167.953 71.19 168.865 70.8432C169.648 70.5385 170.355 70.0651 170.938 69.4562C171.487 68.862 171.913 68.1637 172.192 67.402C172.474 66.5897 172.616 65.7345 172.61 64.8738C172.625 64.0662 172.471 63.2645 172.157 62.5211C171.869 61.8473 171.434 61.2473 170.885 60.7654C170.318 60.3088 169.667 59.9688 168.969 59.7647C168.195 59.5313 167.391 59.4188 166.583 59.4311H157.873V60.9585H158.378L159.232 61.1166C159.344 61.1508 159.447 61.2094 159.535 61.2883C159.622 61.3672 159.691 61.4644 159.737 61.5731C159.873 61.9075 159.944 62.2651 159.946 62.6265C159.946 63.0947 159.946 63.7443 159.946 64.5753V70.8081C159.946 72.0371 159.946 73.0554 159.946 73.8982C159.946 74.7409 159.946 75.4783 159.946 76.0753C159.902 76.6002 159.826 77.122 159.72 77.6378C159.632 78.0801 159.51 78.5146 159.354 78.9371V79.2707H164.945V77.7256H164.405C164.137 77.7174 163.872 77.664 163.622 77.5676C163.413 77.4691 163.251 77.2929 163.169 77.076C163.039 76.7511 162.963 76.4072 162.942 76.0577C162.942 75.6188 162.942 75.0218 162.942 74.302V70.9135C163.375 71.0723 163.825 71.1784 164.283 71.2295M162.942 64.5051C162.942 64.0486 162.942 63.557 162.942 63.0479C162.957 62.5486 162.998 62.0505 163.064 61.5555L164.144 61.4501C164.51 61.4309 164.876 61.4309 165.242 61.4501C166.485 61.3192 167.731 61.6709 168.725 62.4334C169.1 62.8381 169.387 63.3175 169.567 63.8406C169.747 64.3637 169.816 64.919 169.771 65.4708C169.801 66.4495 169.486 67.4074 168.882 68.1745C168.558 68.5555 168.149 68.8542 167.689 69.0464C167.229 69.2386 166.731 69.3188 166.234 69.2807C165.14 69.3145 164.047 69.1783 162.994 68.8768L162.942 64.5051Z" fill="#C4B681"/>
<path d="M190.831 76.1979C190.622 75.7238 190.361 75.0742 190.047 74.2666L185.536 62.3277C185.274 61.643 185.065 61.0812 184.874 60.572C184.743 60.218 184.592 59.8721 184.421 59.5361H178.707V61.0636H179.508C179.811 61.0673 180.108 61.1393 180.379 61.2743C180.458 61.3358 180.52 61.4164 180.56 61.5084C180.599 61.6005 180.615 61.7011 180.606 61.801C180.641 61.9807 180.641 62.1656 180.606 62.3453C180.568 62.4826 180.521 62.6175 180.467 62.7491L176.059 74.53C175.816 75.2147 175.589 75.7765 175.38 76.2857C175.215 76.6816 175.029 77.0684 174.823 77.4444C174.683 77.7177 174.526 77.9816 174.352 78.2345C174.196 78.4628 174.056 78.6735 173.899 78.8666V79.4811H179.125V77.936C178.709 77.9687 178.292 77.9026 177.906 77.7429C177.803 77.6755 177.721 77.5807 177.669 77.4691C177.617 77.3575 177.596 77.2335 177.61 77.1109C177.603 76.9881 177.603 76.865 177.61 76.7422C177.685 76.4842 177.778 76.232 177.888 75.9872L178.707 73.7399H186.842L187.765 76.1803C187.877 76.4937 187.958 76.817 188.009 77.146C188.04 77.514 188.04 77.884 188.009 78.2521C188.009 78.6208 188.009 78.9017 187.922 79.0948L187.818 79.4811H193.043V77.936C192.725 77.9058 192.411 77.8471 192.103 77.7605C191.832 77.6794 191.59 77.5208 191.406 77.304C191.145 76.9838 190.928 76.6295 190.762 76.2506M179.247 71.9139L181.268 66.6468L182.121 64.2766C182.383 63.5216 182.574 62.9247 182.696 62.5208C182.801 62.9422 182.975 63.5275 183.219 64.2766C183.463 65.014 183.741 65.8041 184.072 66.6292L186.041 72.0017L179.247 71.9139Z" fill="#C4B681"/>
<path d="M195.657 61.2743C195.767 61.3115 195.869 61.3713 195.956 61.4498C196.043 61.5283 196.113 61.6239 196.162 61.7308C196.289 62.0677 196.36 62.4238 196.371 62.7842C196.371 63.2524 196.371 63.902 196.371 64.7331V69.7193C196.371 71.475 196.371 72.7918 196.371 73.8277C196.367 74.6669 196.314 75.5052 196.214 76.3383C196.159 76.8581 196.048 77.3702 195.883 77.8658C195.726 78.2655 195.54 78.6528 195.326 79.0246V79.3582H207.519C207.577 79.0382 207.653 78.7216 207.746 78.4101C207.85 78.0063 207.955 77.6024 208.077 77.1986C208.199 76.7948 208.303 76.3734 208.425 75.9696C208.518 75.6534 208.629 75.3428 208.756 75.0391H207.171C206.945 75.3902 206.701 75.7238 206.474 76.0223C206.245 76.3179 205.968 76.5731 205.656 76.7773C205.28 76.9904 204.875 77.1444 204.454 77.2337C203.88 77.347 203.296 77.4 202.712 77.3918H201.963C201.643 77.4097 201.324 77.4097 201.005 77.3918C200.695 77.3493 200.401 77.2285 200.151 77.0406C199.883 76.789 199.68 76.4757 199.559 76.1276C199.377 75.5611 199.294 74.967 199.315 74.3719V69.1926C199.315 67.4017 199.315 65.9796 199.315 64.9262C199.315 63.8728 199.367 63.03 199.472 62.398C199.513 61.8948 199.618 61.3991 199.785 60.9232C199.935 60.5544 200.109 60.1965 200.308 59.8522V59.5361H194.315V61.0636H194.821L195.674 61.2216" fill="#C4B681"/>
<path d="M215.584 61.3972C215.665 61.4579 215.729 61.5377 215.772 61.6296C215.814 61.7215 215.834 61.8226 215.828 61.9239C215.855 62.1044 215.855 62.2877 215.828 62.4682L215.706 62.872L211.212 74.53C210.968 75.2147 210.742 75.7765 210.533 76.2857C210.367 76.6816 210.181 77.0684 209.975 77.4444C209.838 77.7191 209.681 77.9832 209.505 78.2345C209.365 78.4628 209.209 78.6735 209.069 78.8666V79.4811H214.295V77.936C213.879 77.9687 213.462 77.9026 213.076 77.7429C212.976 77.6728 212.896 77.5776 212.844 77.4667C212.792 77.3558 212.77 77.2331 212.78 77.1109C212.765 76.9884 212.765 76.8646 212.78 76.7422C212.78 76.6017 212.902 76.3559 213.041 75.9872L213.877 73.7399H221.995L222.918 76.1803C223.026 76.4959 223.114 76.8185 223.179 77.146C223.2 77.5144 223.2 77.8837 223.179 78.2521C223.179 78.6208 223.179 78.9017 223.179 79.0948C223.159 79.2272 223.124 79.3567 223.075 79.4811H225.287V74.2139L220.793 62.3277C220.549 61.643 220.322 61.0812 220.148 60.572C220.013 60.217 219.856 59.8711 219.678 59.5361H213.964V61.0636H214.766C215.068 61.0673 215.365 61.1393 215.637 61.2743M217.378 64.0308C217.64 63.2758 217.831 62.6789 217.971 62.275C218.075 62.6964 218.249 63.2817 218.493 64.0308C218.737 64.7682 219.016 65.5583 219.329 66.3834L221.298 71.7559H214.504L216.542 66.4888C216.833 65.6811 217.111 64.8911 217.378 64.1186" fill="#C4B681"/>
<path d="M228.318 79.4284V77.8834C227.994 77.853 227.673 77.7942 227.36 77.7078C227.088 77.6267 226.846 77.4682 226.663 77.2513C226.404 76.9229 226.188 76.5631 226.018 76.1803C225.809 75.7238 225.548 75.0742 225.234 74.2666V79.4284H228.318Z" fill="#C4B681"/>
<path d="M235.129 63.2057C235.638 62.5833 236.29 62.0952 237.028 61.7835C237.764 61.485 238.551 61.3358 239.345 61.3446C240.503 61.2061 241.671 61.4966 242.633 62.1619C243.594 62.8273 244.283 63.8222 244.57 64.9614H246.034C246.034 64.6805 245.947 64.3645 245.912 63.9958C245.877 63.6271 245.912 63.2583 245.807 62.8896C245.703 62.5209 245.807 62.1347 245.685 61.7835C245.563 61.4324 245.685 61.1164 245.685 60.8355C245.369 60.6086 245.03 60.4145 244.675 60.2561C244.224 60.0451 243.759 59.869 243.281 59.7294C242.709 59.5645 242.127 59.4355 241.539 59.3431C240.963 59.2515 240.381 59.2046 239.798 59.2026C238.447 59.1888 237.11 59.4703 235.878 60.0278C234.695 60.5739 233.634 61.3564 232.76 62.3278C231.852 63.3503 231.153 64.5437 230.705 65.8392C230.192 67.2078 229.938 68.6607 229.955 70.1232C229.934 71.5228 230.164 72.9147 230.635 74.2316C231.062 75.3884 231.727 76.4413 232.586 77.3216C233.442 78.1787 234.469 78.8429 235.599 79.2705C236.848 79.7348 238.171 79.961 239.501 79.9377C240.175 79.9498 240.846 79.8489 241.487 79.6392C242.096 79.437 242.681 79.1661 243.229 78.8315C243.76 78.5089 244.262 78.1387 244.727 77.7254C245.17 77.3354 245.583 76.9129 245.964 76.4613L245.076 75.2323L244.257 75.9522C243.94 76.2453 243.589 76.4988 243.212 76.7071C242.769 76.9677 242.295 77.1684 241.801 77.3041C241.194 77.4738 240.567 77.5566 239.937 77.5499C238.986 77.5648 238.043 77.3794 237.167 77.0056C236.352 76.6607 235.629 76.125 235.059 75.443C234.45 74.6891 233.989 73.8251 233.701 72.8972C233.351 71.761 233.186 70.5751 233.213 69.3858C233.187 68.1631 233.345 66.9436 233.683 65.769C233.951 64.859 234.395 64.0115 234.99 63.2759" fill="#C4B681"/>
<path d="M253.89 61.5904H254.831H256.276C257.12 61.582 257.963 61.6171 258.802 61.6958C259.348 61.7509 259.886 61.8687 260.405 62.047C260.781 62.1829 261.121 62.4053 261.398 62.6966C261.66 62.9917 261.887 63.3156 262.077 63.6622H263.54C263.453 63.3988 263.366 63.0652 263.262 62.7141C263.157 62.363 263.087 61.9767 263.018 61.5904C262.948 61.2042 262.861 60.8355 262.791 60.5019C262.722 60.1683 262.652 59.8698 262.617 59.6416H248.455V61.1691H248.96L249.814 61.3271C249.926 61.3613 250.029 61.4199 250.117 61.4988C250.204 61.5777 250.273 61.6749 250.319 61.7836C250.454 62.1191 250.53 62.4754 250.545 62.837C250.545 63.3111 250.545 63.9607 250.545 64.7859V69.7194C250.545 71.4751 250.545 72.7919 250.545 73.8278C250.541 74.667 250.489 75.5053 250.389 76.3385C250.334 76.8582 250.223 77.3704 250.058 77.8659C249.907 78.2686 249.721 78.6565 249.5 79.0247V79.3583H262.652C262.791 78.7262 262.966 78.024 263.157 77.2163C263.349 76.4087 263.523 75.7415 263.697 75.1972H262.269C262.064 75.5314 261.818 75.8381 261.537 76.1102C261.247 76.4024 260.911 76.6455 260.544 76.8301C260.105 77.056 259.636 77.2157 259.151 77.3041C258.524 77.418 257.888 77.4709 257.252 77.4621C256.085 77.4621 255.284 77.4621 254.848 77.4621C254.541 77.4589 254.241 77.3741 253.977 77.2163C253.881 77.1318 253.808 77.0226 253.768 76.9003C253.704 76.695 253.663 76.4829 253.646 76.2682C253.646 75.9873 253.646 75.5835 253.646 75.0919C253.646 74.6003 253.646 73.9331 253.646 73.1431V69.9125H256.398C256.979 69.8778 257.56 69.8778 258.14 69.9125C258.505 69.9479 258.863 70.0366 259.203 70.1759C259.453 70.287 259.669 70.4626 259.83 70.6851C259.995 70.9345 260.124 71.2064 260.213 71.4927H261.415L261.258 70.5973C261.258 70.1935 261.137 69.7545 261.067 69.298C260.997 68.8416 260.945 68.4026 260.893 67.9637C260.84 67.5248 260.893 67.1736 260.788 66.9103H259.673C259.61 67.0825 259.528 67.2473 259.429 67.4019C259.309 67.5385 259.161 67.6465 258.994 67.7179C258.748 67.8155 258.49 67.8804 258.227 67.911C257.816 67.9348 257.403 67.9348 256.991 67.911H253.507C253.507 66.5416 253.507 65.3126 253.594 64.2065C253.681 63.1004 253.751 62.1874 253.855 61.4324" fill="#C4B681"/>
<path d="M177.801 105.36C177.801 106.326 177.801 107.116 177.801 107.748C177.772 108.278 177.714 108.805 177.627 109.328C177.553 109.744 177.454 110.154 177.331 110.557V110.873H182.887V109.346L181.929 109.24C181.749 109.226 181.575 109.17 181.421 109.075C181.266 108.981 181.136 108.851 181.041 108.696C180.788 108.148 180.68 107.543 180.727 106.94V100.866C180.727 99.11 180.727 97.6703 180.727 96.5818C180.731 95.7075 180.783 94.8341 180.884 93.9658C180.926 93.4456 181.032 92.9326 181.198 92.4383C181.336 92.0536 181.511 91.6832 181.72 91.3322V91.0337H177.209C177.045 91.63 176.847 92.2162 176.616 92.7894C176.338 93.4566 176.041 94.1589 175.728 94.8787L170.502 106.94L164.127 92.3154C164.057 92.0883 163.942 91.8779 163.79 91.6968C163.637 91.5158 163.449 91.3678 163.238 91.262C162.715 91.0914 162.167 91.0142 161.618 91.0337H157.751V92.5787H158.291C158.574 92.6046 158.854 92.6576 159.127 92.7368C159.237 92.7655 159.339 92.8203 159.424 92.8967C159.509 92.973 159.574 93.0687 159.615 93.1757C159.746 93.5124 159.822 93.868 159.841 94.2291C159.841 94.7032 159.841 95.3528 159.841 96.1955C159.841 96.3184 159.841 96.494 159.841 96.7398C159.841 96.9856 159.841 97.2138 159.841 97.4596C159.841 97.7054 159.841 97.9864 159.841 98.2497C159.841 98.5131 159.841 98.7589 159.841 98.9696L159.615 105.115C159.615 105.799 159.615 106.414 159.615 106.87C159.615 107.327 159.615 107.889 159.458 108.328C159.416 108.723 159.328 109.112 159.197 109.486C159.074 109.832 158.923 110.167 158.744 110.487V110.803H164.127V109.276L163.186 109.17C162.976 109.161 162.769 109.113 162.576 109.03C162.418 108.95 162.29 108.821 162.21 108.661C162.107 108.44 162.042 108.202 162.019 107.959C161.998 107.585 161.998 107.209 162.019 106.835V94.4222C162.28 94.949 162.628 95.7039 163.064 96.652C163.499 97.6001 163.987 98.7413 164.562 100.163L168.185 108.661C168.423 109.314 168.791 109.912 169.265 110.417C169.588 110.686 169.996 110.83 170.415 110.821H171.007L171.687 109.276C171.913 108.784 172.192 108.17 172.505 107.52L177.905 94.7558V101.603C177.905 103.148 177.905 104.412 177.905 105.395" fill="#C4B681"/>
<path d="M190.1 96.1783C190.1 95.3531 190.1 94.6332 190.239 94.0363C190.28 93.5117 190.38 92.9935 190.535 92.4913C190.664 92.0798 190.852 91.6894 191.093 91.3325V90.9989H185.083V92.5088H185.849C186.104 92.543 186.355 92.6018 186.599 92.6844C186.793 92.7913 186.941 92.9662 187.017 93.176C187.12 93.5299 187.179 93.8957 187.191 94.2646C187.191 94.7386 187.191 95.4058 187.191 96.2661C187.191 97.1264 187.191 97.6004 187.191 98.2676V100.322V102.2C187.191 102.832 187.191 103.447 187.191 104.061C187.185 105.028 187.338 105.989 187.644 106.906C187.926 107.747 188.39 108.514 189.002 109.153C189.672 109.826 190.481 110.341 191.371 110.663C192.492 111.049 193.671 111.233 194.855 111.207C195.904 111.22 196.945 111.03 197.921 110.645C198.782 110.29 199.564 109.765 200.221 109.1C200.855 108.423 201.347 107.622 201.666 106.748C202.002 105.795 202.167 104.791 202.154 103.781V100.445C202.154 98.689 202.154 97.2668 202.154 96.2309C202.154 95.1951 202.154 94.3523 202.294 93.7378C202.336 93.248 202.436 92.7648 202.59 92.2981C202.735 91.93 202.916 91.5771 203.13 91.2447V90.9111H197.764V92.4562H198.27C198.565 92.4774 198.857 92.5303 199.141 92.6142C199.248 92.6476 199.348 92.7042 199.432 92.7799C199.516 92.8557 199.583 92.9489 199.628 93.0531C199.767 93.3873 199.844 93.7444 199.855 94.1065C199.855 94.5806 199.855 95.2302 199.855 96.0729V103.078C199.961 104.653 199.524 106.216 198.618 107.503C198.239 108.002 197.747 108.405 197.184 108.676C196.621 108.948 196.002 109.081 195.378 109.065C194.601 109.077 193.827 108.977 193.079 108.767C192.462 108.588 191.904 108.249 191.459 107.784C190.994 107.251 190.665 106.612 190.5 105.923C190.273 104.992 190.168 104.036 190.187 103.078V99.1454C190.187 98.0218 190.187 97.0561 190.187 96.2485" fill="#C4B681"/>
<path d="M212.448 109.118C211.37 109.172 210.307 108.836 209.452 108.17C208.673 107.497 208.043 106.665 207.606 105.729H206.143C206.143 106.045 206.212 106.396 206.352 106.783L206.561 107.906C206.648 108.292 206.717 108.644 206.77 108.995C206.822 109.346 206.909 109.662 206.961 109.908C207.738 110.356 208.562 110.715 209.417 110.979C210.306 111.202 211.219 111.308 212.135 111.295C213.315 111.324 214.492 111.158 215.619 110.803C216.471 110.52 217.254 110.059 217.918 109.451C218.496 108.904 218.943 108.232 219.225 107.485C219.504 106.726 219.646 105.924 219.643 105.115C219.645 104.087 219.287 103.092 218.632 102.305C217.845 101.359 216.823 100.638 215.671 100.216L211.891 98.6887C211.242 98.4431 210.649 98.0668 210.149 97.5826C209.795 97.1689 209.609 96.6362 209.626 96.0903C209.625 95.6715 209.696 95.2556 209.836 94.8613C209.967 94.4564 210.201 94.0932 210.515 93.8078C210.87 93.467 211.3 93.2145 211.769 93.0704C212.377 92.8744 213.012 92.7795 213.65 92.7895C214.178 92.7855 214.703 92.8747 215.201 93.0529C215.656 93.2171 216.084 93.4478 216.472 93.7376C216.852 94.0121 217.182 94.3506 217.448 94.7384C217.699 95.0939 217.899 95.4842 218.04 95.8971H219.399C219.225 95.1773 219.085 94.4399 218.963 93.6674C218.841 92.8949 218.719 92.2979 218.632 91.8063C218.082 91.4697 217.499 91.1931 216.89 90.9811C215.939 90.7081 214.952 90.5838 213.964 90.6124C212.909 90.6055 211.859 90.7533 210.846 91.0514C209.994 91.3039 209.196 91.7148 208.494 92.2628C207.855 92.7689 207.342 93.4181 206.996 94.159C206.645 94.9112 206.467 95.7332 206.474 96.5643C206.452 97.5874 206.82 98.5801 207.501 99.3383C208.367 100.214 209.414 100.885 210.567 101.305L214.051 102.709C214.75 102.955 215.379 103.371 215.88 103.921C216.274 104.417 216.472 105.042 216.438 105.676C216.456 106.598 216.133 107.493 215.532 108.187C215.133 108.557 214.662 108.838 214.149 109.014C213.636 109.189 213.092 109.254 212.553 109.205" fill="#C4B681"/>
<path d="M225.234 110.874H235.982C236.122 110.259 236.296 109.539 236.487 108.749C236.679 107.959 236.853 107.274 237.027 106.713H235.599C235.394 107.052 235.149 107.365 234.867 107.643C234.572 107.93 234.238 108.172 233.874 108.363C233.44 108.58 232.976 108.734 232.498 108.819C231.868 108.949 231.225 109.008 230.582 108.995C229.415 108.995 228.614 108.995 228.178 108.995C227.87 108.986 227.569 108.896 227.307 108.732C227.218 108.651 227.152 108.548 227.116 108.433C227.046 108.228 226.999 108.016 226.976 107.801C226.976 107.503 226.976 107.116 226.976 106.607C226.976 106.098 226.976 105.466 226.976 104.676V101.323H229.729C230.309 101.289 230.89 101.289 231.471 101.323C231.838 101.355 232.197 101.45 232.533 101.603C232.787 101.708 233.005 101.885 233.16 102.113C233.332 102.358 233.462 102.631 233.544 102.92H234.815L234.658 102.007C234.658 101.603 234.536 101.182 234.467 100.726C234.397 100.269 234.345 99.8126 234.293 99.3737C234.24 98.9348 234.293 98.6012 234.188 98.3378H233.143C233.083 98.5062 233.001 98.6656 232.899 98.8119C232.789 98.9591 232.637 99.0693 232.464 99.1279C232.226 99.2317 231.973 99.2969 231.714 99.321C231.303 99.3525 230.889 99.3525 230.478 99.321H226.994C226.994 97.9516 226.994 96.7226 227.081 95.634C227.168 94.5455 227.238 93.6149 227.342 92.86H228.283H229.729C230.572 92.856 231.415 92.897 232.254 92.9829C232.802 93.0293 233.34 93.1473 233.857 93.334C234.232 93.4643 234.572 93.6807 234.85 93.9661C235.116 94.2642 235.344 94.5945 235.529 94.9493H236.993C236.993 94.6684 236.818 94.3523 236.731 93.9836C236.624 93.6142 236.537 93.2391 236.47 92.86C236.47 92.4913 236.313 92.1226 236.244 91.7714L236.069 90.9111H225.356L225.234 110.874Z" fill="#C4B681"/>
<path d="M221.785 90.9985V92.5436H222.29C222.58 92.5645 222.866 92.6175 223.144 92.7016C223.255 92.7328 223.358 92.7883 223.445 92.8642C223.532 92.9401 223.602 93.0344 223.649 93.1405C223.78 93.4772 223.856 93.8329 223.875 94.1939C223.875 94.668 223.875 95.3176 223.875 96.1603V101.322C223.875 103.078 223.875 104.412 223.875 105.448C223.871 106.287 223.818 107.126 223.719 107.959C223.662 108.472 223.551 108.979 223.388 109.469C223.242 109.879 223.055 110.273 222.83 110.645V110.961H225.234V91.0863L221.785 90.9985Z" fill="#C4B681"/>
<path d="M245.738 107.713C245.267 107.182 244.932 106.543 244.762 105.852C244.535 104.922 244.429 103.966 244.448 103.008V99.0752C244.448 97.9516 244.448 96.9859 244.448 96.1783C244.448 95.3707 244.448 94.6332 244.57 94.0363C244.62 93.513 244.72 92.9957 244.867 92.4913C244.999 92.0757 245.187 91.6801 245.424 91.315V90.9989H239.432V92.5088H240.181C240.436 92.5409 240.687 92.5998 240.93 92.6844C241.03 92.7319 241.119 92.8003 241.191 92.8851C241.263 92.9698 241.316 93.069 241.348 93.176C241.469 93.5258 241.528 93.8942 241.522 94.2646C241.522 94.7386 241.522 95.4058 241.522 96.2661C241.522 97.1264 241.522 97.6004 241.522 98.2676C241.522 98.9348 241.522 99.637 241.522 100.322C241.522 101.006 241.522 101.568 241.522 102.2C241.522 102.832 241.522 103.447 241.522 104.061C241.511 105.027 241.658 105.988 241.957 106.906C242.24 107.751 242.71 108.52 243.334 109.153C243.994 109.83 244.798 110.346 245.685 110.663C246.807 111.046 247.985 111.23 249.169 111.207C250.218 111.222 251.259 111.031 252.235 110.645C253.105 110.298 253.889 109.765 254.534 109.083C255.178 108.419 255.672 107.622 255.98 106.748C256.315 105.795 256.481 104.791 256.468 103.781V100.445C256.468 98.689 256.468 97.2668 256.468 96.2309C256.468 95.1951 256.468 94.3523 256.607 93.7378C256.646 93.2457 256.751 92.7612 256.921 92.2981C257.055 91.9195 257.237 91.5596 257.461 91.2272V90.9111H252.096V92.4562H252.601C252.89 92.4788 253.176 92.5318 253.454 92.6142C253.562 92.6476 253.662 92.7042 253.746 92.7799C253.83 92.8557 253.897 92.9489 253.942 93.0531C254.081 93.3873 254.158 93.7444 254.169 94.1065C254.169 94.5806 254.169 95.2302 254.169 96.0729V103.078C254.26 104.651 253.825 106.209 252.932 107.503C252.55 107.998 252.057 108.396 251.495 108.664C250.932 108.933 250.314 109.064 249.692 109.048C248.916 109.065 248.142 108.97 247.392 108.767C246.773 108.596 246.212 108.256 245.772 107.784" fill="#C4B681"/>
<path d="M283.015 96.547C283.015 95.4584 283.015 94.5806 283.172 93.931C283.214 93.4108 283.319 92.8978 283.485 92.4035C283.624 92.0188 283.799 91.6484 284.008 91.2974V90.9989H279.514C279.343 91.5952 279.14 92.1813 278.904 92.7547C278.625 93.4218 278.329 94.1241 278.016 94.8439L272.877 106.906L266.484 92.2806C266.414 92.0536 266.3 91.8431 266.147 91.662C265.994 91.481 265.807 91.333 265.596 91.2272C265.076 91.0452 264.525 90.9677 263.976 90.9989H260.108V92.544H260.648C260.932 92.5681 261.212 92.621 261.485 92.702C261.596 92.7332 261.698 92.7887 261.786 92.8646C261.873 92.9405 261.943 93.0348 261.99 93.1409C262.113 93.4792 262.183 93.8345 262.199 94.1943C262.232 94.8435 262.232 95.494 262.199 96.1432C262.199 96.2836 262.199 96.4592 262.199 96.705C262.199 96.9508 262.199 97.179 262.199 97.4248C262.199 97.6706 262.199 97.9516 262.199 98.2149C262.199 98.4783 262.199 98.7241 262.199 98.9348L261.99 105.08C261.99 105.764 261.99 106.379 261.903 106.835C261.816 107.292 261.816 107.854 261.763 108.293C261.707 108.687 261.614 109.075 261.485 109.451C261.369 109.8 261.218 110.136 261.032 110.452V110.768H266.432V109.241L265.474 109.135C265.264 109.126 265.057 109.079 264.864 108.995C264.71 108.91 264.583 108.782 264.498 108.626C264.394 108.405 264.329 108.168 264.307 107.924C264.307 107.626 264.307 107.257 264.307 106.8V94.3875L265.334 96.6172C265.77 97.5653 266.275 98.7065 266.832 100.129L270.456 108.626C270.694 109.279 271.061 109.877 271.536 110.382C271.858 110.652 272.266 110.795 272.685 110.786H273.278C273.521 110.224 273.748 109.715 273.974 109.241L274.776 107.485L280.176 94.721V101.568C280.176 103.113 280.176 104.377 280.176 105.361C280.176 106.344 280.176 107.116 280.089 107.748C280.068 108.279 280.01 108.807 279.914 109.329C279.84 109.744 279.742 110.154 279.618 110.558V110.874H285.175V109.346L284.217 109.241C284.038 109.224 283.864 109.166 283.71 109.072C283.557 108.978 283.426 108.849 283.329 108.697C283.076 108.148 282.968 107.544 283.015 106.941V100.866C283.015 99.1103 283.015 97.6707 283.015 96.5821" fill="#C4B681"/>
</g>
</g>
<defs>
<clipPath id="clip0_654_1212">
<rect width="295" height="139" fill="white"/>
</clipPath>
</defs>
</svg>
