<svg width="32" height="23" viewBox="0 0 32 23" fill="none" xmlns="http://www.w3.org/2000/svg">
<g clip-path="url(#clip0_654_1201)">
<mask id="mask0_654_1201" style="mask-type:luminance" maskUnits="userSpaceOnUse" x="0" y="0" width="32" height="23">
<path d="M31.18 0H0.5625V23H31.18V0Z" fill="white"/>
</mask>
<g mask="url(#mask0_654_1201)">
<path d="M28.9235 4.32157H8.75663C8.18984 4.31205 7.64948 4.08021 7.25202 3.67602C6.85457 3.27183 6.63184 2.72766 6.63184 2.16079C6.63184 1.59392 6.85457 1.04974 7.25202 0.645552C7.64948 0.241362 8.18984 0.00952184 8.75663 0L28.9235 0C29.4903 0.00952184 30.0307 0.241362 30.4282 0.645552C30.8256 1.04974 31.0483 1.59392 31.0483 2.16079C31.0483 2.72766 30.8256 3.27183 30.4282 3.67602C30.0307 4.08021 29.4903 4.31205 28.9235 4.32157Z" fill="white"/>
<path d="M22.985 13.6593H2.81868C2.24569 13.6593 1.69616 13.4317 1.29099 13.0265C0.885825 12.6214 0.658203 12.0719 0.658203 11.4989C0.658203 10.9259 0.885825 10.3763 1.29099 9.97117C1.69616 9.566 2.24569 9.33838 2.81868 9.33838H22.985C23.558 9.33838 24.1075 9.566 24.5127 9.97117C24.9179 10.3763 25.1455 10.9259 25.1455 11.4989C25.1455 12.0719 24.9179 12.6214 24.5127 13.0265C24.1075 13.4317 23.558 13.6593 22.985 13.6593Z" fill="white"/>
<path d="M28.9231 23.0002H8.75618C8.18319 23.0002 7.63366 22.7725 7.22849 22.3674C6.82332 21.9622 6.5957 21.4127 6.5957 20.8397C6.5957 20.2667 6.82332 19.7172 7.22849 19.312C7.63366 18.9068 8.18319 18.6792 8.75618 18.6792H28.9231C29.4961 18.6792 30.0456 18.9068 30.4508 19.312C30.856 19.7172 31.0836 20.2667 31.0836 20.8397C31.0836 21.4127 30.856 21.9622 30.4508 22.3674C30.0456 22.7725 29.4961 23.0002 28.9231 23.0002Z" fill="white"/>
<path d="M4.5032 2.16066C4.50332 2.55048 4.38783 2.93158 4.17135 3.25576C3.95486 3.57994 3.6471 3.83264 3.28699 3.98191C2.92688 4.13117 2.53059 4.17028 2.14824 4.09431C1.7659 4.01833 1.41467 3.83068 1.13898 3.55507C0.863297 3.27947 0.675533 2.9283 0.599438 2.54598C0.523343 2.16366 0.562337 1.76736 0.711487 1.4072C0.860637 1.04704 1.11324 0.739203 1.43736 0.522618C1.76147 0.306033 2.14254 0.19043 2.53236 0.19043C3.05495 0.19043 3.55615 0.397987 3.92574 0.767459C4.29532 1.13693 4.50303 1.63806 4.5032 2.16066Z" fill="white"/>
<path d="M27.2383 11.5C27.2383 11.1103 27.3538 10.7294 27.5703 10.4054C27.7868 10.0814 28.0945 9.82888 28.4545 9.67976C28.8145 9.53064 29.2107 9.49162 29.5929 9.56764C29.9751 9.64367 30.3261 9.83131 30.6017 10.1069C30.8772 10.3824 31.0649 10.7335 31.1409 11.1156C31.2169 11.4978 31.1779 11.894 31.0288 12.254C30.8796 12.614 30.6271 12.9217 30.3031 13.1382C29.9791 13.3547 29.5982 13.4702 29.2085 13.4702C28.686 13.4701 28.185 13.2624 27.8155 12.893C27.4461 12.5235 27.2384 12.0225 27.2383 11.5Z" fill="white"/>
<path d="M4.5032 20.8394C4.50332 21.2292 4.38783 21.6103 4.17135 21.9345C3.95486 22.2587 3.6471 22.5114 3.28699 22.6606C2.92688 22.8099 2.53059 22.849 2.14824 22.773C1.7659 22.697 1.41467 22.5094 1.13898 22.2338C0.863297 21.9582 0.675533 21.607 0.599438 21.2247C0.523343 20.8424 0.562337 20.4461 0.711487 20.0859C0.860637 19.7258 1.11324 19.4179 1.43736 19.2013C1.76147 18.9847 2.14254 18.8691 2.53236 18.8691C2.79115 18.8691 3.04741 18.92 3.28652 19.0189C3.52563 19.1179 3.7429 19.263 3.92592 19.446C4.10893 19.629 4.25411 19.8462 4.35316 20.0853C4.45222 20.3243 4.5032 20.5806 4.5032 20.8394Z" fill="white"/>
</g>
</g>
<defs>
<clipPath id="clip0_654_1201">
<rect width="30.6175" height="23" fill="white" transform="translate(0.5625)"/>
</clipPath>
</defs>
</svg>
