<svg width="38" height="38" viewBox="0 0 38 38" fill="none" xmlns="http://www.w3.org/2000/svg">
<mask id="path-1-outside-1_248_3891" maskUnits="userSpaceOnUse" x="1" y="1" width="36" height="36" fill="black">
<rect fill="white" x="1" y="1" width="36" height="36"/>
<path d="M19.0007 4.5855C22.3361 4.58526 25.5683 5.74154 28.1467 7.85733C30.7251 9.97311 32.49 12.9175 33.1408 16.1887C33.7917 19.46 33.288 22.8557 31.7158 25.7972C30.1436 28.7388 27.6 31.0441 24.5185 32.3205C21.4371 33.5969 18.0084 33.7652 14.8167 32.797C11.6249 31.8287 8.86773 29.7837 7.01483 27.0103C5.16193 24.237 4.328 20.907 4.65513 17.5877C4.98226 14.2685 6.45022 11.1653 8.80886 8.80705C10.1461 7.46709 11.7348 6.40439 13.4838 5.67994C15.2328 4.9555 17.1076 4.58357 19.0007 4.5855ZM19.5054 17.2425C19.7697 17.3182 20.0135 17.4526 20.2187 17.6356C20.4239 17.8186 20.5851 18.0456 20.6904 18.2996C20.7958 18.5536 20.8424 18.8281 20.8269 19.1026C20.8114 19.3771 20.7342 19.6446 20.6011 19.8851L22.5736 21.8582C22.6621 21.9542 22.71 22.0807 22.7074 22.2113C22.7047 22.3418 22.6517 22.4663 22.5593 22.5586C22.467 22.6509 22.3425 22.704 22.212 22.7066C22.0814 22.7093 21.9549 22.6614 21.8589 22.5729L19.888 20.6003C19.5022 20.8139 19.0523 20.881 18.6209 20.7892C18.1896 20.6974 17.806 20.4528 17.5406 20.1006C17.2753 19.7484 17.146 19.3122 17.1767 18.8723C17.2074 18.4324 17.396 18.0184 17.7077 17.7064C17.9261 17.4872 18.1969 17.3275 18.4944 17.2425V12.1232C18.4922 12.0554 18.5036 11.988 18.5279 11.9248C18.5523 11.8615 18.5892 11.8039 18.6363 11.7552C18.6834 11.7065 18.7398 11.6678 18.8022 11.6413C18.8645 11.6149 18.9316 11.6013 18.9994 11.6013C19.0671 11.6013 19.1342 11.6149 19.1965 11.6413C19.2589 11.6678 19.3153 11.7065 19.3624 11.7552C19.4096 11.8039 19.4464 11.8615 19.4708 11.9248C19.4951 11.988 19.5065 12.0554 19.5043 12.1232L19.5054 17.2425ZM19.5785 18.4222C19.4644 18.3085 19.3192 18.231 19.1612 18.1995C19.0032 18.168 18.8394 18.1839 18.6904 18.2451C18.5414 18.3064 18.4139 18.4104 18.3237 18.5439C18.2336 18.6775 18.185 18.8347 18.1839 18.9958C18.1828 19.1569 18.2294 19.3147 18.3178 19.4495C18.4061 19.5842 18.5323 19.6898 18.6805 19.753C18.8287 19.8163 18.9922 19.8343 19.1506 19.8049C19.309 19.7755 19.4552 19.6999 19.5708 19.5877L19.5769 19.58L19.5846 19.574V19.5707C19.7342 19.4167 19.8171 19.21 19.8154 18.9953C19.8136 18.7807 19.7273 18.5753 19.5752 18.4239M19.0007 2.00001C22.9337 2.00018 26.745 3.36404 29.7852 5.85923C32.8254 8.35442 34.9063 11.8266 35.6735 15.684C36.4406 19.5415 35.8466 23.5456 33.9925 27.0142C32.1384 30.4827 29.1389 33.2011 25.5053 34.7061C21.8716 36.2111 17.8285 36.4097 14.0649 35.2679C10.3012 34.1261 7.04992 31.7147 4.8649 28.4445C2.67988 25.1743 1.69636 21.2476 2.0819 17.3335C2.46745 13.4195 4.19821 9.76017 6.97929 6.97912C8.55625 5.39815 10.4301 4.1444 12.4931 3.28992C14.5562 2.43544 16.7677 1.99707 19.0007 2.00001ZM30.3064 7.69435C27.6912 5.07791 24.2496 3.44923 20.5682 3.08582C16.8867 2.72241 13.1932 3.64677 10.1168 5.70138C7.04053 7.75599 4.77181 10.8137 3.69727 14.3536C2.62273 17.8934 2.80885 21.6963 4.22391 25.1143C5.63898 28.5323 8.19544 31.3539 11.4577 33.0983C14.7199 34.8427 18.4861 35.402 22.1145 34.6808C25.7428 33.9597 29.0089 32.0027 31.3561 29.1434C33.7034 26.2841 34.9865 22.6994 34.987 19C34.9899 16.8999 34.5777 14.82 33.7741 12.8798C32.9704 10.9395 31.7912 9.17729 30.3042 7.69435M10.3795 11.0929C10.2847 10.9982 10.2315 10.8696 10.2315 10.7356C10.2315 10.6016 10.2847 10.473 10.3795 10.3782C10.4743 10.2835 10.6028 10.2302 10.7368 10.2302C10.8709 10.2302 10.9994 10.2835 11.0942 10.3782L12.4235 11.7075C12.5183 11.8023 12.5715 11.9309 12.5715 12.0649C12.5715 12.1989 12.5183 12.3275 12.4235 12.4222C12.3287 12.517 12.2002 12.5702 12.0661 12.5702C11.9321 12.5702 11.8036 12.517 11.7088 12.4222L10.3795 11.0929ZM7.31299 19.5041C7.24527 19.5064 7.1778 19.495 7.11459 19.4706C7.05137 19.4462 6.99371 19.4094 6.94502 19.3623C6.89633 19.3152 6.85761 19.2588 6.83117 19.1964C6.80473 19.134 6.7911 19.0669 6.7911 18.9992C6.7911 18.9314 6.80473 18.8644 6.83117 18.802C6.85761 18.7396 6.89633 18.6832 6.94502 18.6361C6.99371 18.589 7.05137 18.5522 7.11459 18.5278C7.1778 18.5034 7.24527 18.492 7.31299 18.4942H9.19369C9.32473 18.4986 9.44895 18.5537 9.54012 18.6479C9.63128 18.7421 9.68225 18.8681 9.68225 18.9992C9.68225 19.1303 9.63128 19.2563 9.54012 19.3505C9.44895 19.4447 9.32473 19.4998 9.19369 19.5041H7.31299ZM11.0936 27.6201C11.0467 27.6671 10.991 27.7043 10.9297 27.7297C10.8684 27.7551 10.8027 27.7682 10.7363 27.7682C10.6699 27.7682 10.6042 27.7551 10.5429 27.7297C10.4816 27.7043 10.4259 27.6671 10.379 27.6201C10.332 27.5732 10.2948 27.5175 10.2694 27.4562C10.244 27.3949 10.2309 27.3292 10.2309 27.2628C10.2309 27.1964 10.244 27.1307 10.2694 27.0694C10.2948 27.0081 10.332 26.9524 10.379 26.9055L11.7083 25.5762C11.7552 25.5292 11.8109 25.492 11.8722 25.4666C11.9335 25.4412 11.9992 25.4281 12.0656 25.4281C12.132 25.4281 12.1977 25.4412 12.259 25.4666C12.3203 25.492 12.376 25.5292 12.4229 25.5762C12.4699 25.6231 12.5071 25.6788 12.5325 25.7401C12.5579 25.8014 12.571 25.8671 12.571 25.9335C12.571 25.9999 12.5579 26.0656 12.5325 26.1269C12.5071 26.1882 12.4699 26.2439 12.4229 26.2908L11.0936 27.6201ZM19.5048 30.6867C19.5049 30.8206 19.4518 30.9492 19.3571 31.044C19.2624 31.1388 19.1339 31.1921 18.9999 31.1922C18.8659 31.1922 18.7374 31.1391 18.6426 31.0444C18.5478 30.9497 18.4945 30.8212 18.4944 30.6872V28.8071C18.4922 28.7393 18.5036 28.6719 18.5279 28.6087C18.5523 28.5454 18.5892 28.4878 18.6363 28.4391C18.6834 28.3904 18.7398 28.3517 18.8022 28.3252C18.8645 28.2988 18.9316 28.2852 18.9994 28.2852C19.0671 28.2852 19.1342 28.2988 19.1965 28.3252C19.2589 28.3517 19.3153 28.3904 19.3624 28.4391C19.4096 28.4878 19.4464 28.5454 19.4708 28.6087C19.4951 28.6719 19.5065 28.7393 19.5043 28.8071L19.5048 30.6867ZM27.6203 26.9077C27.7151 27.0024 27.7683 27.131 27.7683 27.265C27.7683 27.399 27.7151 27.5276 27.6203 27.6223C27.5255 27.7171 27.397 27.7704 27.263 27.7704C27.1289 27.7704 27.0004 27.7171 26.9056 27.6223L25.5763 26.293C25.5294 26.2461 25.4922 26.1904 25.4668 26.1291C25.4414 26.0678 25.4283 26.0021 25.4283 25.9357C25.4283 25.8693 25.4414 25.8036 25.4668 25.7423C25.4922 25.681 25.5294 25.6253 25.5763 25.5784C25.6232 25.5314 25.679 25.4942 25.7403 25.4688C25.8016 25.4434 25.8673 25.4303 25.9337 25.4303C26 25.4303 26.0657 25.4434 26.127 25.4688C26.1884 25.4942 26.2441 25.5314 26.291 25.5784L27.6203 26.9077ZM30.6868 18.4964C30.7545 18.4942 30.822 18.5056 30.8852 18.53C30.9484 18.5544 31.0061 18.5912 31.0548 18.6383C31.1035 18.6854 31.1422 18.7418 31.1686 18.8042C31.1951 18.8666 31.2087 18.9336 31.2087 19.0014C31.2087 19.0691 31.1951 19.1362 31.1686 19.1986C31.1422 19.261 31.1035 19.3174 31.0548 19.3645C31.0061 19.4116 30.9484 19.4484 30.8852 19.4728C30.822 19.4972 30.7545 19.5086 30.6868 19.5063H28.8072C28.6762 19.502 28.552 19.4469 28.4608 19.3527C28.3696 19.2585 28.3187 19.1325 28.3187 19.0014C28.3187 18.8703 28.3696 18.7443 28.4608 18.6501C28.552 18.5559 28.6762 18.5008 28.8072 18.4964H30.6868ZM26.9056 10.3793C27.0004 10.2846 27.1289 10.2313 27.263 10.2313C27.397 10.2313 27.5255 10.2846 27.6203 10.3793C27.7151 10.4741 27.7683 10.6027 27.7683 10.7367C27.7683 10.8707 27.7151 10.9993 27.6203 11.094L26.291 12.4233C26.2441 12.4703 26.1884 12.5075 26.127 12.5329C26.0657 12.5583 26 12.5713 25.9337 12.5713C25.8673 12.5713 25.8016 12.5583 25.7403 12.5329C25.679 12.5075 25.6232 12.4703 25.5763 12.4233C25.5294 12.3764 25.4922 12.3207 25.4668 12.2594C25.4414 12.1981 25.4283 12.1323 25.4283 12.066C25.4283 11.9996 25.4414 11.9339 25.4668 11.8726C25.4922 11.8113 25.5294 11.7556 25.5763 11.7086L26.9056 10.3793ZM18.4944 7.31282C18.4922 7.24511 18.5036 7.17764 18.5279 7.11443C18.5523 7.05121 18.5892 6.99354 18.6363 6.94485C18.6834 6.89617 18.7398 6.85745 18.8022 6.83101C18.8645 6.80456 18.9316 6.79094 18.9994 6.79094C19.0671 6.79094 19.1342 6.80456 19.1965 6.83101C19.2589 6.85745 19.3153 6.89617 19.3624 6.94485C19.4096 6.99354 19.4464 7.05121 19.4708 7.11443C19.4951 7.17764 19.5065 7.24511 19.5043 7.31282V9.19188C19.5 9.32292 19.4449 9.44714 19.3507 9.53831C19.2564 9.62947 19.1305 9.68044 18.9994 9.68044C18.8682 9.68044 18.7423 9.62947 18.648 9.53831C18.5538 9.44714 18.4987 9.32292 18.4944 9.19188V7.31282ZM28.4785 9.52173C26.2857 7.32819 23.4003 5.96283 20.3137 5.6583C17.2271 5.35377 14.1304 6.12892 11.5513 7.85165C8.97221 9.57439 7.07024 12.1381 6.16949 15.106C5.26875 18.0739 5.42497 21.2623 6.61154 24.1279C7.7981 26.9935 9.94159 29.359 12.6768 30.8214C15.4119 32.2837 18.5696 32.7524 21.6116 32.1476C24.6536 31.5428 27.3918 29.9019 29.3596 27.5045C31.3273 25.1071 32.403 22.1016 32.4031 19C32.4058 17.2395 32.0604 15.4957 31.3869 13.8691C30.7134 12.2425 29.7249 10.7651 28.4785 9.52173Z"/>
</mask>
<path d="M19.0007 4.5855C22.3361 4.58526 25.5683 5.74154 28.1467 7.85733C30.7251 9.97311 32.49 12.9175 33.1408 16.1887C33.7917 19.46 33.288 22.8557 31.7158 25.7972C30.1436 28.7388 27.6 31.0441 24.5185 32.3205C21.4371 33.5969 18.0084 33.7652 14.8167 32.797C11.6249 31.8287 8.86773 29.7837 7.01483 27.0103C5.16193 24.237 4.328 20.907 4.65513 17.5877C4.98226 14.2685 6.45022 11.1653 8.80886 8.80705C10.1461 7.46709 11.7348 6.40439 13.4838 5.67994C15.2328 4.9555 17.1076 4.58357 19.0007 4.5855ZM19.5054 17.2425C19.7697 17.3182 20.0135 17.4526 20.2187 17.6356C20.4239 17.8186 20.5851 18.0456 20.6904 18.2996C20.7958 18.5536 20.8424 18.8281 20.8269 19.1026C20.8114 19.3771 20.7342 19.6446 20.6011 19.8851L22.5736 21.8582C22.6621 21.9542 22.71 22.0807 22.7074 22.2113C22.7047 22.3418 22.6517 22.4663 22.5593 22.5586C22.467 22.6509 22.3425 22.704 22.212 22.7066C22.0814 22.7093 21.9549 22.6614 21.8589 22.5729L19.888 20.6003C19.5022 20.8139 19.0523 20.881 18.6209 20.7892C18.1896 20.6974 17.806 20.4528 17.5406 20.1006C17.2753 19.7484 17.146 19.3122 17.1767 18.8723C17.2074 18.4324 17.396 18.0184 17.7077 17.7064C17.9261 17.4872 18.1969 17.3275 18.4944 17.2425V12.1232C18.4922 12.0554 18.5036 11.988 18.5279 11.9248C18.5523 11.8615 18.5892 11.8039 18.6363 11.7552C18.6834 11.7065 18.7398 11.6678 18.8022 11.6413C18.8645 11.6149 18.9316 11.6013 18.9994 11.6013C19.0671 11.6013 19.1342 11.6149 19.1965 11.6413C19.2589 11.6678 19.3153 11.7065 19.3624 11.7552C19.4096 11.8039 19.4464 11.8615 19.4708 11.9248C19.4951 11.988 19.5065 12.0554 19.5043 12.1232L19.5054 17.2425ZM19.5785 18.4222C19.4644 18.3085 19.3192 18.231 19.1612 18.1995C19.0032 18.168 18.8394 18.1839 18.6904 18.2451C18.5414 18.3064 18.4139 18.4104 18.3237 18.5439C18.2336 18.6775 18.185 18.8347 18.1839 18.9958C18.1828 19.1569 18.2294 19.3147 18.3178 19.4495C18.4061 19.5842 18.5323 19.6898 18.6805 19.753C18.8287 19.8163 18.9922 19.8343 19.1506 19.8049C19.309 19.7755 19.4552 19.6999 19.5708 19.5877L19.5769 19.58L19.5846 19.574V19.5707C19.7342 19.4167 19.8171 19.21 19.8154 18.9953C19.8136 18.7807 19.7273 18.5753 19.5752 18.4239M19.0007 2.00001C22.9337 2.00018 26.745 3.36404 29.7852 5.85923C32.8254 8.35442 34.9063 11.8266 35.6735 15.684C36.4406 19.5415 35.8466 23.5456 33.9925 27.0142C32.1384 30.4827 29.1389 33.2011 25.5053 34.7061C21.8716 36.2111 17.8285 36.4097 14.0649 35.2679C10.3012 34.1261 7.04992 31.7147 4.8649 28.4445C2.67988 25.1743 1.69636 21.2476 2.0819 17.3335C2.46745 13.4195 4.19821 9.76017 6.97929 6.97912C8.55625 5.39815 10.4301 4.1444 12.4931 3.28992C14.5562 2.43544 16.7677 1.99707 19.0007 2.00001ZM30.3064 7.69435C27.6912 5.07791 24.2496 3.44923 20.5682 3.08582C16.8867 2.72241 13.1932 3.64677 10.1168 5.70138C7.04053 7.75599 4.77181 10.8137 3.69727 14.3536C2.62273 17.8934 2.80885 21.6963 4.22391 25.1143C5.63898 28.5323 8.19544 31.3539 11.4577 33.0983C14.7199 34.8427 18.4861 35.402 22.1145 34.6808C25.7428 33.9597 29.0089 32.0027 31.3561 29.1434C33.7034 26.2841 34.9865 22.6994 34.987 19C34.9899 16.8999 34.5777 14.82 33.7741 12.8798C32.9704 10.9395 31.7912 9.17729 30.3042 7.69435M10.3795 11.0929C10.2847 10.9982 10.2315 10.8696 10.2315 10.7356C10.2315 10.6016 10.2847 10.473 10.3795 10.3782C10.4743 10.2835 10.6028 10.2302 10.7368 10.2302C10.8709 10.2302 10.9994 10.2835 11.0942 10.3782L12.4235 11.7075C12.5183 11.8023 12.5715 11.9309 12.5715 12.0649C12.5715 12.1989 12.5183 12.3275 12.4235 12.4222C12.3287 12.517 12.2002 12.5702 12.0661 12.5702C11.9321 12.5702 11.8036 12.517 11.7088 12.4222L10.3795 11.0929ZM7.31299 19.5041C7.24527 19.5064 7.1778 19.495 7.11459 19.4706C7.05137 19.4462 6.99371 19.4094 6.94502 19.3623C6.89633 19.3152 6.85761 19.2588 6.83117 19.1964C6.80473 19.134 6.7911 19.0669 6.7911 18.9992C6.7911 18.9314 6.80473 18.8644 6.83117 18.802C6.85761 18.7396 6.89633 18.6832 6.94502 18.6361C6.99371 18.589 7.05137 18.5522 7.11459 18.5278C7.1778 18.5034 7.24527 18.492 7.31299 18.4942H9.19369C9.32473 18.4986 9.44895 18.5537 9.54012 18.6479C9.63128 18.7421 9.68225 18.8681 9.68225 18.9992C9.68225 19.1303 9.63128 19.2563 9.54012 19.3505C9.44895 19.4447 9.32473 19.4998 9.19369 19.5041H7.31299ZM11.0936 27.6201C11.0467 27.6671 10.991 27.7043 10.9297 27.7297C10.8684 27.7551 10.8027 27.7682 10.7363 27.7682C10.6699 27.7682 10.6042 27.7551 10.5429 27.7297C10.4816 27.7043 10.4259 27.6671 10.379 27.6201C10.332 27.5732 10.2948 27.5175 10.2694 27.4562C10.244 27.3949 10.2309 27.3292 10.2309 27.2628C10.2309 27.1964 10.244 27.1307 10.2694 27.0694C10.2948 27.0081 10.332 26.9524 10.379 26.9055L11.7083 25.5762C11.7552 25.5292 11.8109 25.492 11.8722 25.4666C11.9335 25.4412 11.9992 25.4281 12.0656 25.4281C12.132 25.4281 12.1977 25.4412 12.259 25.4666C12.3203 25.492 12.376 25.5292 12.4229 25.5762C12.4699 25.6231 12.5071 25.6788 12.5325 25.7401C12.5579 25.8014 12.571 25.8671 12.571 25.9335C12.571 25.9999 12.5579 26.0656 12.5325 26.1269C12.5071 26.1882 12.4699 26.2439 12.4229 26.2908L11.0936 27.6201ZM19.5048 30.6867C19.5049 30.8206 19.4518 30.9492 19.3571 31.044C19.2624 31.1388 19.1339 31.1921 18.9999 31.1922C18.8659 31.1922 18.7374 31.1391 18.6426 31.0444C18.5478 30.9497 18.4945 30.8212 18.4944 30.6872V28.8071C18.4922 28.7393 18.5036 28.6719 18.5279 28.6087C18.5523 28.5454 18.5892 28.4878 18.6363 28.4391C18.6834 28.3904 18.7398 28.3517 18.8022 28.3252C18.8645 28.2988 18.9316 28.2852 18.9994 28.2852C19.0671 28.2852 19.1342 28.2988 19.1965 28.3252C19.2589 28.3517 19.3153 28.3904 19.3624 28.4391C19.4096 28.4878 19.4464 28.5454 19.4708 28.6087C19.4951 28.6719 19.5065 28.7393 19.5043 28.8071L19.5048 30.6867ZM27.6203 26.9077C27.7151 27.0024 27.7683 27.131 27.7683 27.265C27.7683 27.399 27.7151 27.5276 27.6203 27.6223C27.5255 27.7171 27.397 27.7704 27.263 27.7704C27.1289 27.7704 27.0004 27.7171 26.9056 27.6223L25.5763 26.293C25.5294 26.2461 25.4922 26.1904 25.4668 26.1291C25.4414 26.0678 25.4283 26.0021 25.4283 25.9357C25.4283 25.8693 25.4414 25.8036 25.4668 25.7423C25.4922 25.681 25.5294 25.6253 25.5763 25.5784C25.6232 25.5314 25.679 25.4942 25.7403 25.4688C25.8016 25.4434 25.8673 25.4303 25.9337 25.4303C26 25.4303 26.0657 25.4434 26.127 25.4688C26.1884 25.4942 26.2441 25.5314 26.291 25.5784L27.6203 26.9077ZM30.6868 18.4964C30.7545 18.4942 30.822 18.5056 30.8852 18.53C30.9484 18.5544 31.0061 18.5912 31.0548 18.6383C31.1035 18.6854 31.1422 18.7418 31.1686 18.8042C31.1951 18.8666 31.2087 18.9336 31.2087 19.0014C31.2087 19.0691 31.1951 19.1362 31.1686 19.1986C31.1422 19.261 31.1035 19.3174 31.0548 19.3645C31.0061 19.4116 30.9484 19.4484 30.8852 19.4728C30.822 19.4972 30.7545 19.5086 30.6868 19.5063H28.8072C28.6762 19.502 28.552 19.4469 28.4608 19.3527C28.3696 19.2585 28.3187 19.1325 28.3187 19.0014C28.3187 18.8703 28.3696 18.7443 28.4608 18.6501C28.552 18.5559 28.6762 18.5008 28.8072 18.4964H30.6868ZM26.9056 10.3793C27.0004 10.2846 27.1289 10.2313 27.263 10.2313C27.397 10.2313 27.5255 10.2846 27.6203 10.3793C27.7151 10.4741 27.7683 10.6027 27.7683 10.7367C27.7683 10.8707 27.7151 10.9993 27.6203 11.094L26.291 12.4233C26.2441 12.4703 26.1884 12.5075 26.127 12.5329C26.0657 12.5583 26 12.5713 25.9337 12.5713C25.8673 12.5713 25.8016 12.5583 25.7403 12.5329C25.679 12.5075 25.6232 12.4703 25.5763 12.4233C25.5294 12.3764 25.4922 12.3207 25.4668 12.2594C25.4414 12.1981 25.4283 12.1323 25.4283 12.066C25.4283 11.9996 25.4414 11.9339 25.4668 11.8726C25.4922 11.8113 25.5294 11.7556 25.5763 11.7086L26.9056 10.3793ZM18.4944 7.31282C18.4922 7.24511 18.5036 7.17764 18.5279 7.11443C18.5523 7.05121 18.5892 6.99354 18.6363 6.94485C18.6834 6.89617 18.7398 6.85745 18.8022 6.83101C18.8645 6.80456 18.9316 6.79094 18.9994 6.79094C19.0671 6.79094 19.1342 6.80456 19.1965 6.83101C19.2589 6.85745 19.3153 6.89617 19.3624 6.94485C19.4096 6.99354 19.4464 7.05121 19.4708 7.11443C19.4951 7.17764 19.5065 7.24511 19.5043 7.31282V9.19188C19.5 9.32292 19.4449 9.44714 19.3507 9.53831C19.2564 9.62947 19.1305 9.68044 18.9994 9.68044C18.8682 9.68044 18.7423 9.62947 18.648 9.53831C18.5538 9.44714 18.4987 9.32292 18.4944 9.19188V7.31282ZM28.4785 9.52173C26.2857 7.32819 23.4003 5.96283 20.3137 5.6583C17.2271 5.35377 14.1304 6.12892 11.5513 7.85165C8.97221 9.57439 7.07024 12.1381 6.16949 15.106C5.26875 18.0739 5.42497 21.2623 6.61154 24.1279C7.7981 26.9935 9.94159 29.359 12.6768 30.8214C15.4119 32.2837 18.5696 32.7524 21.6116 32.1476C24.6536 31.5428 27.3918 29.9019 29.3596 27.5045C31.3273 25.1071 32.403 22.1016 32.4031 19C32.4058 17.2395 32.0604 15.4957 31.3869 13.8691C30.7134 12.2425 29.7249 10.7651 28.4785 9.52173Z" fill="#C5B682"/>
<path d="M19.0007 4.5855L19.0003 4.9855H19.0008L19.0007 4.5855ZM8.80886 8.80705L9.09168 9.08992L9.09199 9.08961L8.80886 8.80705ZM19.5054 17.2425L19.1054 17.2425L19.1055 17.544L19.3952 17.627L19.5054 17.2425ZM20.6011 19.8851L20.2511 19.6914L20.1052 19.9549L20.3182 20.1679L20.6011 19.8851ZM22.5736 21.8582L22.8677 21.5871L22.8622 21.5811L22.8565 21.5754L22.5736 21.8582ZM21.8589 22.5729L21.5759 22.8556L21.5817 22.8614L21.5878 22.867L21.8589 22.5729ZM19.888 20.6003L20.171 20.3176L19.958 20.1044L19.6943 20.2504L19.888 20.6003ZM17.7077 17.7064L17.9907 17.9892L17.9911 17.9887L17.7077 17.7064ZM18.4944 17.2425L18.6043 17.6271L18.8944 17.5441V17.2425H18.4944ZM18.4944 12.1232H18.8946L18.8942 12.11L18.4944 12.1232ZM19.5043 12.1232L19.1043 12.11L19.1043 12.1232L19.5043 12.1232ZM19.5708 19.5877L19.8495 19.8747L19.8687 19.856L19.8853 19.8348L19.5708 19.5877ZM19.5769 19.58L19.3297 19.2655L19.292 19.2951L19.2623 19.3329L19.5769 19.58ZM19.5846 19.574L19.8317 19.8885L19.9846 19.7684V19.574H19.5846ZM19.5846 19.5707L19.2977 19.2918L19.1846 19.4083V19.5707H19.5846ZM19.0007 2.00001L19.0002 2.40001L19.0007 2.40001L19.0007 2.00001ZM6.97929 6.97912L7.26213 7.26197L7.26249 7.26161L6.97929 6.97912ZM34.987 19L34.587 18.9995V19L34.987 19ZM10.3795 11.0929L10.0967 11.3758L10.3795 11.0929ZM10.7368 10.2302V9.83023V10.2302ZM11.0942 10.3782L10.8113 10.6611L11.0942 10.3782ZM12.4235 11.7075L12.7063 11.4247L12.4235 11.7075ZM12.5715 12.0649H12.9715H12.5715ZM12.0661 12.5702V12.9702V12.5702ZM11.7088 12.4222L11.9917 12.1394L11.7088 12.4222ZM7.31299 19.5041V19.1039L7.29979 19.1044L7.31299 19.5041ZM7.31299 18.4942L7.29979 18.8942H7.31299V18.4942ZM9.19369 18.4942L9.20689 18.0942H9.19369V18.4942ZM9.68225 18.9992H10.0822H9.68225ZM9.19369 19.5041V19.9044L9.20688 19.9039L9.19369 19.5041ZM11.0936 27.6201L10.8108 27.3373L11.0936 27.6201ZM10.7363 27.7682V27.3682V27.7682ZM10.379 26.9055L10.0961 26.6226L10.379 26.9055ZM11.7083 25.5762L11.9911 25.859L11.7083 25.5762ZM12.0656 25.4281V25.8281V25.4281ZM12.4229 26.2908L12.7058 26.5737L12.4229 26.2908ZM19.5048 30.6867L19.1048 30.6868V30.6869L19.5048 30.6867ZM18.4944 30.6872H18.0944V30.6874L18.4944 30.6872ZM18.4944 28.8071H18.8946L18.8942 28.7939L18.4944 28.8071ZM19.5043 28.8071L19.1043 28.7939L19.1043 28.8072L19.5043 28.8071ZM27.6203 26.9077L27.9031 26.6248L27.6203 26.9077ZM27.7683 27.265H27.3683H27.7683ZM27.263 27.7704V27.3704V27.7704ZM26.9056 27.6223L26.6228 27.9052L26.9056 27.6223ZM25.5763 26.293L25.2935 26.5759L25.5763 26.293ZM25.9337 25.4303V25.0303V25.4303ZM26.291 25.5784L26.0082 25.8612L26.291 25.5784ZM30.6868 18.4964V18.8967L30.7 18.8962L30.6868 18.4964ZM30.6868 19.5063L30.7 19.1063H30.6868V19.5063ZM28.8072 19.5063L28.794 19.9063H28.8072V19.5063ZM28.8072 18.4964V18.0962L28.794 18.0967L28.8072 18.4964ZM26.9056 10.3793L26.6228 10.0965L26.9056 10.3793ZM27.7683 10.7367H27.3683H27.7683ZM27.6203 11.094L27.9031 11.3769L27.6203 11.094ZM26.291 12.4233L26.5738 12.7062L26.291 12.4233ZM25.4283 12.066H25.8283H25.4283ZM25.5763 11.7086L25.8592 11.9915L25.5763 11.7086ZM18.4944 7.31282H18.8946L18.8942 7.29963L18.4944 7.31282ZM18.9994 6.79094V7.19094V6.79094ZM19.5043 7.31282L19.1043 7.29962V7.31282H19.5043ZM19.5043 9.19188L19.9043 9.20508V9.19188H19.5043ZM18.4944 9.19188H18.0942L18.0946 9.20507L18.4944 9.19188ZM28.4785 9.52173L28.1956 9.80452L28.196 9.80493L28.4785 9.52173ZM32.4031 19L32.0031 18.9994V19L32.4031 19ZM19.0007 4.5855L19.0008 4.9855C22.2436 4.98526 25.3861 6.10947 27.893 8.16655L28.1467 7.85733L28.4004 7.54811C25.7505 5.37362 22.4286 4.18525 19.0007 4.1855L19.0007 4.5855ZM28.1467 7.85733L27.893 8.16655C30.3998 10.2236 32.1158 13.0863 32.7485 16.2668L33.1408 16.1887L33.5332 16.1107C32.8643 12.7487 31.0504 9.7226 28.4004 7.54811L28.1467 7.85733ZM33.1408 16.1887L32.7485 16.2668C33.3813 19.4473 32.8916 22.7487 31.363 25.6087L31.7158 25.7972L32.0686 25.9858C33.6844 22.9626 34.202 19.4727 33.5332 16.1107L33.1408 16.1887ZM31.7158 25.7972L31.363 25.6087C29.8344 28.4686 27.3614 30.71 24.3655 31.9509L24.5185 32.3205L24.6716 32.69C27.8386 31.3783 30.4527 29.0089 32.0686 25.9858L31.7158 25.7972ZM24.5185 32.3205L24.3655 31.9509C21.3695 33.1919 18.0359 33.3556 14.9328 32.4142L14.8167 32.797L14.7005 33.1797C17.9808 34.1749 21.5046 34.0018 24.6716 32.69L24.5185 32.3205ZM14.8167 32.797L14.9328 32.4142C11.8296 31.4728 9.14892 29.4845 7.34743 26.7881L7.01483 27.0103L6.68223 27.2325C8.58654 30.0828 11.4203 32.1846 14.7005 33.1797L14.8167 32.797ZM7.01483 27.0103L7.34743 26.7881C5.54594 24.0917 4.73514 20.8541 5.0532 17.627L4.65513 17.5877L4.25706 17.5485C3.92085 20.9599 4.77792 24.3823 6.68223 27.2325L7.01483 27.0103ZM4.65513 17.5877L5.0532 17.627C5.37126 14.3998 6.79848 11.3827 9.09168 9.08992L8.80886 8.80705L8.52604 8.52419C6.10195 10.9479 4.59327 14.1371 4.25706 17.5485L4.65513 17.5877ZM8.80886 8.80705L9.09199 9.08961C10.392 7.78692 11.9366 6.75379 13.6369 6.0495L13.4838 5.67994L13.3307 5.31039C11.5331 6.05499 9.9002 7.14725 8.52573 8.52449L8.80886 8.80705ZM13.4838 5.67994L13.6369 6.0495C15.3372 5.34521 17.1599 4.98362 19.0003 4.9855L19.0007 4.5855L19.0011 4.1855C17.0554 4.18352 15.1284 4.56579 13.3307 5.31039L13.4838 5.67994ZM19.5054 17.2425L19.3952 17.627C19.6017 17.6861 19.7922 17.7911 19.9524 17.9341L20.2187 17.6356L20.485 17.3371C20.2349 17.114 19.9377 16.9502 19.6156 16.8579L19.5054 17.2425ZM20.2187 17.6356L19.9524 17.9341C20.1127 18.0771 20.2387 18.2544 20.3209 18.4528L20.6904 18.2996L21.0599 18.1464C20.9316 17.8368 20.7351 17.5602 20.485 17.3371L20.2187 17.6356ZM20.6904 18.2996L20.3209 18.4528C20.4032 18.6512 20.4397 18.8656 20.4276 19.0801L20.8269 19.1026L21.2263 19.1251C21.2452 18.7905 21.1883 18.456 21.0599 18.1464L20.6904 18.2996ZM20.8269 19.1026L20.4276 19.0801C20.4155 19.2945 20.3552 19.5035 20.2511 19.6914L20.6011 19.8851L20.951 20.0789C21.1133 19.7857 21.2074 19.4597 21.2263 19.1251L20.8269 19.1026ZM20.6011 19.8851L20.3182 20.1679L22.2907 22.141L22.5736 21.8582L22.8565 21.5754L20.8839 19.6023L20.6011 19.8851ZM22.5736 21.8582L22.2795 22.1293C22.298 22.1494 22.308 22.1758 22.3074 22.2031L22.7074 22.2113L23.1073 22.2194C23.112 21.9856 23.0262 21.759 22.8677 21.5871L22.5736 21.8582ZM22.7074 22.2113L22.3074 22.2031C22.3069 22.2304 22.2958 22.2565 22.2765 22.2758L22.5593 22.5586L22.8422 22.8415C23.0075 22.6761 23.1025 22.4532 23.1073 22.2194L22.7074 22.2113ZM22.5593 22.5586L22.2765 22.2758C22.2572 22.2951 22.2311 22.3062 22.2038 22.3067L22.212 22.7066L22.2201 23.1066C22.4539 23.1018 22.6768 23.0068 22.8422 22.8415L22.5593 22.5586ZM22.212 22.7066L22.2038 22.3067C22.1765 22.3073 22.1501 22.2973 22.13 22.2787L21.8589 22.5729L21.5878 22.867C21.7597 23.0255 21.9863 23.1113 22.2201 23.1066L22.212 22.7066ZM21.8589 22.5729L22.1419 22.2901L20.171 20.3176L19.888 20.6003L19.6051 20.8831L21.5759 22.8556L21.8589 22.5729ZM19.888 20.6003L19.6943 20.2504C19.3928 20.4173 19.0412 20.4697 18.7042 20.3979L18.6209 20.7892L18.5376 21.1804C19.0633 21.2923 19.6116 21.2106 20.0818 20.9503L19.888 20.6003ZM18.6209 20.7892L18.7042 20.3979C18.3672 20.3262 18.0674 20.1351 17.8601 19.8599L17.5406 20.1006L17.2211 20.3413C17.5445 20.7705 18.012 21.0685 18.5376 21.1804L18.6209 20.7892ZM17.5406 20.1006L17.8601 19.8599C17.6527 19.5847 17.5518 19.2439 17.5758 18.9002L17.1767 18.8723L16.7777 18.8445C16.7403 19.3806 16.8978 19.9121 17.2211 20.3413L17.5406 20.1006ZM17.1767 18.8723L17.5758 18.9002C17.5998 18.5564 17.7471 18.2329 17.9907 17.9892L17.7077 17.7064L17.4248 17.4237C17.0449 17.8038 16.8151 18.3084 16.7777 18.8445L17.1767 18.8723ZM17.7077 17.7064L17.9911 17.9887C18.1613 17.8179 18.3724 17.6933 18.6043 17.6271L18.4944 17.2425L18.3845 16.8579C18.0214 16.9617 17.6908 17.1566 17.4243 17.4242L17.7077 17.7064ZM18.4944 17.2425H18.8944V12.1232H18.4944H18.0944V17.2425H18.4944ZM18.4944 12.1232L18.8942 12.11C18.8937 12.0959 18.8961 12.0818 18.9012 12.0686L18.5279 11.9248L18.1547 11.7809C18.1111 11.8941 18.0906 12.015 18.0946 12.1364L18.4944 12.1232ZM18.5279 11.9248L18.9012 12.0686C18.9062 12.0555 18.9139 12.0435 18.9237 12.0333L18.6363 11.7552L18.3488 11.4771C18.2644 11.5643 18.1984 11.6676 18.1547 11.7809L18.5279 11.9248ZM18.6363 11.7552L18.9237 12.0333C18.9335 12.0232 18.9453 12.0151 18.9583 12.0096L18.8022 11.6413L18.6461 11.2731C18.5343 11.3204 18.4332 11.3898 18.3488 11.4771L18.6363 11.7552ZM18.8022 11.6413L18.9583 12.0096C18.9713 12.0041 18.9852 12.0013 18.9994 12.0013V11.6013V11.2013C18.878 11.2013 18.7578 11.2257 18.6461 11.2731L18.8022 11.6413ZM18.9994 11.6013V12.0013C19.0135 12.0013 19.0274 12.0041 19.0404 12.0096L19.1965 11.6413L19.3526 11.2731C19.2409 11.2257 19.1207 11.2013 18.9994 11.2013V11.6013ZM19.1965 11.6413L19.0404 12.0096C19.0534 12.0151 19.0652 12.0232 19.075 12.0333L19.3624 11.7552L19.6499 11.4771C19.5655 11.3898 19.4644 11.3204 19.3526 11.2731L19.1965 11.6413ZM19.3624 11.7552L19.075 12.0333C19.0848 12.0435 19.0925 12.0555 19.0975 12.0686L19.4708 11.9248L19.844 11.7809C19.8003 11.6676 19.7343 11.5643 19.6499 11.4771L19.3624 11.7552ZM19.4708 11.9248L19.0975 12.0686C19.1026 12.0818 19.105 12.0959 19.1045 12.11L19.5043 12.1232L19.9041 12.1364C19.9081 12.015 19.8876 11.8941 19.844 11.7809L19.4708 11.9248ZM19.5043 12.1232L19.1043 12.1232L19.1054 17.2425L19.5054 17.2425L19.9054 17.2424L19.9043 12.1231L19.5043 12.1232ZM19.5785 18.4222L19.8609 18.1389C19.691 17.9695 19.4748 17.8541 19.2395 17.8072L19.1612 18.1995L19.083 18.5918C19.1637 18.6078 19.2378 18.6474 19.2961 18.7055L19.5785 18.4222ZM19.1612 18.1995L19.2395 17.8072C19.0041 17.7603 18.7602 17.7839 18.5383 17.8752L18.6904 18.2451L18.8426 18.6151C18.9187 18.5838 19.0023 18.5757 19.083 18.5918L19.1612 18.1995ZM18.6904 18.2451L18.5383 17.8752C18.3164 17.9665 18.1264 18.1213 17.9922 18.3202L18.3237 18.5439L18.6553 18.7677C18.7013 18.6995 18.7665 18.6464 18.8426 18.6151L18.6904 18.2451ZM18.3237 18.5439L17.9922 18.3202C17.858 18.5191 17.7855 18.7532 17.7839 18.9931L18.1839 18.9958L18.5839 18.9984C18.5844 18.9161 18.6093 18.8359 18.6553 18.7677L18.3237 18.5439ZM18.1839 18.9958L17.7839 18.9931C17.7823 19.2331 17.8517 19.4681 17.9833 19.6688L18.3178 19.4495L18.6523 19.2301C18.6071 19.1613 18.5834 19.0807 18.5839 18.9984L18.1839 18.9958ZM18.3178 19.4495L17.9833 19.6688C18.1148 19.8695 18.3028 20.0268 18.5235 20.1209L18.6805 19.753L18.8375 19.3852C18.7618 19.3529 18.6974 19.2989 18.6523 19.2301L18.3178 19.4495ZM18.6805 19.753L18.5235 20.1209C18.7442 20.2151 18.9878 20.242 19.2237 20.1982L19.1506 19.8049L19.0776 19.4116C18.9967 19.4267 18.9132 19.4174 18.8375 19.3852L18.6805 19.753ZM19.1506 19.8049L19.2237 20.1982C19.4596 20.1544 19.6773 20.0418 19.8495 19.8747L19.5708 19.5877L19.2922 19.3007C19.2332 19.358 19.1585 19.3966 19.0776 19.4116L19.1506 19.8049ZM19.5708 19.5877L19.8853 19.8348L19.8914 19.8271L19.5769 19.58L19.2623 19.3329L19.2563 19.3406L19.5708 19.5877ZM19.5769 19.58L19.824 19.8945L19.8317 19.8885L19.5846 19.574L19.3374 19.2594L19.3297 19.2655L19.5769 19.58ZM19.5846 19.574H19.9846V19.5707H19.5846H19.1846V19.574H19.5846ZM19.5846 19.5707L19.8714 19.8495C20.0944 19.6201 20.218 19.312 20.2154 18.9921L19.8154 18.9953L19.4154 18.9986C19.4163 19.108 19.374 19.2134 19.2977 19.2918L19.5846 19.5707ZM19.8154 18.9953L20.2154 18.9921C20.2128 18.6722 20.0842 18.3662 19.8575 18.1404L19.5752 18.4239L19.293 18.7073C19.3705 18.7845 19.4145 18.8892 19.4154 18.9986L19.8154 18.9953ZM19.0007 2.00001L19.0007 2.40001C22.8412 2.40017 26.5628 3.73195 29.5314 6.16843L29.7852 5.85923L30.039 5.55004C26.9273 2.99614 23.0263 1.60018 19.0007 1.60001L19.0007 2.00001ZM29.7852 5.85923L29.5314 6.16843C32.5001 8.60491 34.532 11.9953 35.2812 15.762L35.6735 15.684L36.0658 15.606C35.2806 11.6578 33.1507 8.10394 30.039 5.55004L29.7852 5.85923ZM35.6735 15.684L35.2812 15.762C36.0303 19.5287 35.4502 23.4387 33.6397 26.8256L33.9925 27.0142L34.3452 27.2028C36.243 23.6526 36.851 19.5542 36.0658 15.606L35.6735 15.684ZM33.9925 27.0142L33.6397 26.8256C31.8292 30.2126 28.9004 32.867 25.3522 34.3366L25.5053 34.7061L25.6583 35.0757C29.3775 33.5353 32.4475 30.7529 34.3452 27.2028L33.9925 27.0142ZM25.5053 34.7061L25.3522 34.3366C21.804 35.8062 17.8561 36 14.181 34.8851L14.0649 35.2679L13.9487 35.6507C17.8009 36.8193 21.9392 36.6161 25.6583 35.0757L25.5053 34.7061ZM14.0649 35.2679L14.181 34.8851C10.5059 33.7702 7.3311 31.4155 5.19749 28.2223L4.8649 28.4445L4.53231 28.6667C6.76874 32.0139 10.0966 34.482 13.9487 35.6507L14.0649 35.2679ZM4.8649 28.4445L5.19749 28.2223C3.06389 25.029 2.1035 21.1947 2.47998 17.3728L2.0819 17.3335L1.68383 17.2943C1.28921 21.3005 2.29588 25.3196 4.53231 28.6667L4.8649 28.4445ZM2.0819 17.3335L2.47998 17.3728C2.85645 13.5508 4.54649 9.97758 7.26213 7.26197L6.97929 6.97912L6.69645 6.69628C3.84993 9.54276 2.07845 13.2882 1.68383 17.2943L2.0819 17.3335ZM6.97929 6.97912L7.26249 7.26161C8.80223 5.71795 10.6318 4.49379 12.6462 3.65947L12.4931 3.28992L12.3401 2.92036C10.2283 3.79501 8.31026 5.07836 6.69608 6.69664L6.97929 6.97912ZM12.4931 3.28992L12.6462 3.65947C14.6605 2.82516 16.8199 2.39714 19.0002 2.40001L19.0007 2.00001L19.0013 1.60002C16.7156 1.597 14.4518 2.04571 12.3401 2.92036L12.4931 3.28992ZM30.3064 7.69435L30.5893 7.41158C27.9087 4.72968 24.381 3.06025 20.6075 2.68775L20.5682 3.08582L20.5289 3.48389C24.1182 3.8382 27.4737 5.42614 30.0235 7.97713L30.3064 7.69435ZM20.5682 3.08582L20.6075 2.68775C16.8339 2.31526 13.048 3.26273 9.89469 5.36874L10.1168 5.70138L10.339 6.03401C13.3384 4.0308 16.9395 3.12957 20.5289 3.48389L20.5682 3.08582ZM10.1168 5.70138L9.89469 5.36874C6.74141 7.47475 4.41594 10.609 3.31452 14.2374L3.69727 14.3536L4.08003 14.4698C5.12769 11.0185 7.33965 8.03722 10.339 6.03401L10.1168 5.70138ZM3.69727 14.3536L3.31452 14.2374C2.21309 17.8658 2.40387 21.7638 3.85433 25.2673L4.22391 25.1143L4.59349 24.9613C3.21383 21.6288 3.03236 17.921 4.08003 14.4698L3.69727 14.3536ZM4.22391 25.1143L3.85433 25.2673C5.3048 28.7709 7.92521 31.663 11.2691 33.4511L11.4577 33.0983L11.6463 32.7456C8.46566 31.0448 5.97316 28.2938 4.59349 24.9613L4.22391 25.1143ZM11.4577 33.0983L11.2691 33.4511C14.6129 35.2391 18.4733 35.8124 22.1924 35.0732L22.1145 34.6808L22.0365 34.2885C18.4989 34.9916 14.8269 34.4463 11.6463 32.7456L11.4577 33.0983ZM22.1145 34.6808L22.1924 35.0732C25.9116 34.334 29.2593 32.328 31.6653 29.3972L31.3561 29.1434L31.047 28.8896C28.7584 31.6774 25.5741 33.5854 22.0365 34.2885L22.1145 34.6808ZM31.3561 29.1434L31.6653 29.3972C34.0712 26.4664 35.3865 22.792 35.387 19.0001L34.987 19L34.587 19C34.5865 22.6068 33.3355 26.1018 31.047 28.8896L31.3561 29.1434ZM34.987 19L35.387 19.0006C35.39 16.8478 34.9674 14.7156 34.1436 12.7267L33.7741 12.8798L33.4045 13.0328C34.188 14.9244 34.5898 16.9521 34.587 18.9995L34.987 19ZM33.7741 12.8798L34.1436 12.7267C33.3198 10.7378 32.111 8.93128 30.5866 7.41112L30.3042 7.69435L30.0217 7.97758C31.4714 9.4233 32.6211 11.1413 33.4045 13.0328L33.7741 12.8798ZM10.3795 11.0929L10.6623 10.8101C10.6426 10.7903 10.6315 10.7635 10.6315 10.7356H10.2315H9.83149C9.83149 10.9757 9.92688 11.206 10.0967 11.3758L10.3795 11.0929ZM10.2315 10.7356H10.6315C10.6315 10.7076 10.6426 10.6808 10.6623 10.6611L10.3795 10.3782L10.0967 10.0954C9.92688 10.2652 9.83149 10.4955 9.83149 10.7356H10.2315ZM10.3795 10.3782L10.6623 10.6611C10.6821 10.6413 10.7089 10.6302 10.7368 10.6302V10.2302V9.83023C10.4967 9.83023 10.2664 9.92561 10.0967 10.0954L10.3795 10.3782ZM10.7368 10.2302V10.6302C10.7648 10.6302 10.7916 10.6413 10.8113 10.6611L11.0942 10.3782L11.377 10.0954C11.2072 9.92561 10.977 9.83023 10.7368 9.83023V10.2302ZM11.0942 10.3782L10.8113 10.6611L12.1406 11.9904L12.4235 11.7075L12.7063 11.4247L11.377 10.0954L11.0942 10.3782ZM12.4235 11.7075L12.1406 11.9904C12.1604 12.0101 12.1715 12.0369 12.1715 12.0649H12.5715H12.9715C12.9715 11.8248 12.8761 11.5945 12.7063 11.4247L12.4235 11.7075ZM12.5715 12.0649H12.1715C12.1715 12.0928 12.1604 12.1196 12.1406 12.1394L12.4235 12.4222L12.7063 12.7051C12.8761 12.5353 12.9715 12.305 12.9715 12.0649H12.5715ZM12.4235 12.4222L12.1406 12.1394C12.1209 12.1591 12.0941 12.1702 12.0661 12.1702V12.5702V12.9702C12.3063 12.9702 12.5365 12.8749 12.7063 12.7051L12.4235 12.4222ZM12.0661 12.5702V12.1702C12.0382 12.1702 12.0114 12.1591 11.9917 12.1394L11.7088 12.4222L11.426 12.7051C11.5958 12.8749 11.826 12.9702 12.0661 12.9702V12.5702ZM11.7088 12.4222L11.9917 12.1394L10.6623 10.8101L10.3795 11.0929L10.0967 11.3758L11.426 12.7051L11.7088 12.4222ZM7.31299 19.5041L7.29979 19.1044C7.28569 19.1048 7.27164 19.1024 7.25847 19.0974L7.11459 19.4706L6.9707 19.8438C7.08397 19.8875 7.20486 19.9079 7.32618 19.9039L7.31299 19.5041ZM7.11459 19.4706L7.25847 19.0974C7.24531 19.0923 7.2333 19.0846 7.22316 19.0748L6.94502 19.3623L6.66688 19.6498C6.75412 19.7342 6.85744 19.8002 6.9707 19.8438L7.11459 19.4706ZM6.94502 19.3623L7.22316 19.0748C7.21302 19.065 7.20495 19.0532 7.19944 19.0403L6.83117 19.1964L6.46289 19.3525C6.51027 19.4643 6.57964 19.5653 6.66688 19.6498L6.94502 19.3623ZM6.83117 19.1964L7.19944 19.0403C7.19394 19.0273 7.1911 19.0133 7.1911 18.9992H6.7911H6.3911C6.3911 19.1206 6.41551 19.2407 6.46289 19.3525L6.83117 19.1964ZM6.7911 18.9992H7.1911C7.1911 18.9851 7.19394 18.9711 7.19944 18.9581L6.83117 18.802L6.46289 18.6459C6.41551 18.7577 6.3911 18.8778 6.3911 18.9992H6.7911ZM6.83117 18.802L7.19944 18.9581C7.20495 18.9451 7.21301 18.9334 7.22316 18.9236L6.94502 18.6361L6.66688 18.3486C6.57964 18.433 6.51027 18.5341 6.46289 18.6459L6.83117 18.802ZM6.94502 18.6361L7.22316 18.9236C7.2333 18.9138 7.24531 18.9061 7.25847 18.901L7.11459 18.5278L6.9707 18.1546C6.85744 18.1982 6.75411 18.2642 6.66688 18.3486L6.94502 18.6361ZM7.11459 18.5278L7.25847 18.901C7.27164 18.8959 7.28569 18.8936 7.29979 18.894L7.31299 18.4942L7.32618 18.0945C7.20486 18.0905 7.08397 18.1109 6.9707 18.1546L7.11459 18.5278ZM7.31299 18.4942V18.8942H9.19369V18.4942V18.0942H7.31299V18.4942ZM9.19369 18.4942L9.1805 18.894C9.20779 18.8949 9.23366 18.9064 9.25265 18.926L9.54012 18.6479L9.82759 18.3697C9.66424 18.2009 9.44167 18.1022 9.20688 18.0945L9.19369 18.4942ZM9.54012 18.6479L9.25265 18.926C9.27163 18.9457 9.28225 18.9719 9.28225 18.9992H9.68225H10.0822C10.0822 18.7643 9.99093 18.5386 9.82759 18.3697L9.54012 18.6479ZM9.68225 18.9992H9.28225C9.28225 19.0265 9.27163 19.0527 9.25265 19.0724L9.54012 19.3505L9.82759 19.6286C9.99093 19.4598 10.0822 19.2341 10.0822 18.9992H9.68225ZM9.54012 19.3505L9.25265 19.0724C9.23366 19.092 9.20779 19.1035 9.1805 19.1044L9.19369 19.5041L9.20688 19.9039C9.44166 19.8962 9.66424 19.7975 9.82759 19.6286L9.54012 19.3505ZM9.19369 19.5041V19.1041H7.31299V19.5041V19.9041H9.19369V19.5041ZM11.0936 27.6201L10.8108 27.3373C10.801 27.3471 10.7894 27.3548 10.7766 27.3601L10.9297 27.7297L11.0828 28.0992C11.1926 28.0537 11.2924 27.987 11.3765 27.903L11.0936 27.6201ZM10.9297 27.7297L10.7766 27.3601C10.7638 27.3654 10.7501 27.3682 10.7363 27.3682V27.7682V28.1682C10.8552 28.1682 10.9729 28.1447 11.0828 28.0992L10.9297 27.7297ZM10.7363 27.7682V27.3682C10.7225 27.3682 10.7088 27.3654 10.696 27.3601L10.5429 27.7297L10.3898 28.0992C10.4997 28.1447 10.6174 28.1682 10.7363 28.1682V27.7682ZM10.5429 27.7297L10.696 27.3601C10.6832 27.3548 10.6716 27.3471 10.6618 27.3373L10.379 27.6201L10.0961 27.903C10.1802 27.987 10.28 28.0537 10.3898 28.0992L10.5429 27.7297ZM10.379 27.6201L10.6618 27.3373C10.652 27.3275 10.6443 27.3159 10.639 27.3031L10.2694 27.4562L9.89986 27.6093C9.94536 27.7191 10.012 27.8189 10.0961 27.903L10.379 27.6201ZM10.2694 27.4562L10.639 27.3031C10.6337 27.2903 10.6309 27.2766 10.6309 27.2628H10.2309H9.83094C9.83094 27.3817 9.85436 27.4994 9.89986 27.6093L10.2694 27.4562ZM10.2309 27.2628H10.6309C10.6309 27.249 10.6337 27.2353 10.639 27.2225L10.2694 27.0694L9.89986 26.9163C9.85436 27.0262 9.83094 27.1439 9.83094 27.2628H10.2309ZM10.2694 27.0694L10.639 27.2225C10.6443 27.2097 10.652 27.1981 10.6618 27.1883L10.379 26.9055L10.0961 26.6226C10.012 26.7067 9.94535 26.8065 9.89986 26.9163L10.2694 27.0694ZM10.379 26.9055L10.6618 27.1883L11.9911 25.859L11.7083 25.5762L11.4254 25.2933L10.0961 26.6226L10.379 26.9055ZM11.7083 25.5762L11.9911 25.859C12.0009 25.8492 12.0125 25.8415 12.0253 25.8362L11.8722 25.4666L11.7191 25.0971C11.6093 25.1426 11.5095 25.2092 11.4254 25.2933L11.7083 25.5762ZM11.8722 25.4666L12.0253 25.8362C12.0381 25.8309 12.0518 25.8281 12.0656 25.8281V25.4281V25.0281C11.9467 25.0281 11.829 25.0516 11.7191 25.0971L11.8722 25.4666ZM12.0656 25.4281V25.8281C12.0794 25.8281 12.0931 25.8309 12.1059 25.8362L12.259 25.4666L12.4121 25.0971C12.3022 25.0516 12.1845 25.0281 12.0656 25.0281V25.4281ZM12.259 25.4666L12.1059 25.8362C12.1187 25.8415 12.1303 25.8492 12.1401 25.859L12.4229 25.5762L12.7058 25.2933C12.6217 25.2092 12.5219 25.1426 12.4121 25.0971L12.259 25.4666ZM12.4229 25.5762L12.1401 25.859C12.1499 25.8688 12.1576 25.8804 12.1629 25.8932L12.5325 25.7401L12.902 25.587C12.8565 25.4772 12.7898 25.3774 12.7058 25.2933L12.4229 25.5762ZM12.5325 25.7401L12.1629 25.8932C12.1682 25.906 12.171 25.9197 12.171 25.9335H12.571H12.971C12.971 25.8146 12.9475 25.6969 12.902 25.587L12.5325 25.7401ZM12.571 25.9335H12.171C12.171 25.9473 12.1682 25.961 12.1629 25.9738L12.5325 26.1269L12.902 26.28C12.9475 26.1701 12.971 26.0524 12.971 25.9335H12.571ZM12.5325 26.1269L12.1629 25.9738C12.1576 25.9866 12.1499 25.9982 12.1401 26.008L12.4229 26.2908L12.7058 26.5737C12.7898 26.4896 12.8565 26.3898 12.902 26.28L12.5325 26.1269ZM12.4229 26.2908L12.1401 26.008L10.8108 27.3373L11.0936 27.6201L11.3765 27.903L12.7058 26.5737L12.4229 26.2908ZM19.5048 30.6867L19.1048 30.6869C19.1049 30.7148 19.0938 30.7415 19.0741 30.7613L19.3571 31.044L19.6401 31.3267C19.8097 31.1568 19.905 30.9265 19.9049 30.6864L19.5048 30.6867ZM19.3571 31.044L19.0741 30.7613C19.0543 30.781 19.0276 30.7921 18.9997 30.7922L18.9999 31.1922L19.0001 31.5922C19.2402 31.592 19.4704 31.4965 19.6401 31.3267L19.3571 31.044ZM18.9999 31.1922L18.9997 30.7922C18.9718 30.7922 18.945 30.7811 18.9253 30.7614L18.6426 31.0444L18.3599 31.3274C18.5297 31.497 18.76 31.5923 19.0001 31.5922L18.9999 31.1922ZM18.6426 31.0444L18.9253 30.7614C18.9055 30.7417 18.8944 30.7149 18.8944 30.687L18.4944 30.6872L18.0944 30.6874C18.0945 30.9275 18.19 31.1577 18.3599 31.3274L18.6426 31.0444ZM18.4944 30.6872H18.8944V28.8071H18.4944H18.0944V30.6872H18.4944ZM18.4944 28.8071L18.8942 28.7939C18.8937 28.7798 18.8961 28.7657 18.9012 28.7525L18.5279 28.6087L18.1547 28.4648C18.1111 28.578 18.0906 28.6989 18.0946 28.8202L18.4944 28.8071ZM18.5279 28.6087L18.9012 28.7525C18.9062 28.7394 18.9139 28.7274 18.9237 28.7172L18.6363 28.4391L18.3488 28.1609C18.2644 28.2482 18.1984 28.3515 18.1547 28.4648L18.5279 28.6087ZM18.6363 28.4391L18.9237 28.7172C18.9335 28.7071 18.9453 28.699 18.9583 28.6935L18.8022 28.3252L18.6461 27.957C18.5343 28.0043 18.4332 28.0737 18.3488 28.1609L18.6363 28.4391ZM18.8022 28.3252L18.9583 28.6935C18.9713 28.688 18.9852 28.6852 18.9994 28.6852V28.2852V27.8852C18.878 27.8852 18.7578 27.9096 18.6461 27.957L18.8022 28.3252ZM18.9994 28.2852V28.6852C19.0135 28.6852 19.0274 28.688 19.0404 28.6935L19.1965 28.3252L19.3526 27.957C19.2409 27.9096 19.1207 27.8852 18.9994 27.8852V28.2852ZM19.1965 28.3252L19.0404 28.6935C19.0534 28.699 19.0652 28.7071 19.075 28.7172L19.3624 28.4391L19.6499 28.1609C19.5655 28.0737 19.4644 28.0043 19.3526 27.957L19.1965 28.3252ZM19.3624 28.4391L19.075 28.7172C19.0848 28.7274 19.0925 28.7394 19.0975 28.7525L19.4708 28.6087L19.844 28.4648C19.8003 28.3515 19.7343 28.2482 19.6499 28.1609L19.3624 28.4391ZM19.4708 28.6087L19.0975 28.7525C19.1026 28.7657 19.105 28.7798 19.1045 28.7939L19.5043 28.8071L19.9041 28.8202C19.9081 28.6989 19.8876 28.578 19.844 28.4648L19.4708 28.6087ZM19.5043 28.8071L19.1043 28.8072L19.1048 30.6868L19.5048 30.6867L19.9049 30.6865L19.9043 28.8069L19.5043 28.8071ZM27.6203 26.9077L27.3375 27.1905C27.3572 27.2103 27.3683 27.2371 27.3683 27.265H27.7683H28.1683C28.1683 27.0249 28.0729 26.7946 27.9031 26.6248L27.6203 26.9077ZM27.7683 27.265H27.3683C27.3683 27.2929 27.3572 27.3197 27.3375 27.3395L27.6203 27.6223L27.9031 27.9052C28.0729 27.7354 28.1683 27.5051 28.1683 27.265H27.7683ZM27.6203 27.6223L27.3375 27.3395C27.3177 27.3593 27.2909 27.3704 27.263 27.3704V27.7704V28.1704C27.5031 28.1704 27.7334 28.075 27.9031 27.9052L27.6203 27.6223ZM27.263 27.7704V27.3704C27.235 27.3704 27.2082 27.3593 27.1885 27.3395L26.9056 27.6223L26.6228 27.9052C26.7926 28.075 27.0228 28.1704 27.263 28.1704V27.7704ZM26.9056 27.6223L27.1885 27.3395L25.8592 26.0102L25.5763 26.293L25.2935 26.5759L26.6228 27.9052L26.9056 27.6223ZM25.5763 26.293L25.8592 26.0102C25.8494 26.0004 25.8416 25.9888 25.8363 25.976L25.4668 26.1291L25.0972 26.2822C25.1427 26.392 25.2094 26.4918 25.2935 26.5759L25.5763 26.293ZM25.4668 26.1291L25.8363 25.976C25.831 25.9632 25.8283 25.9495 25.8283 25.9357H25.4283H25.0283C25.0283 26.0546 25.0517 26.1723 25.0972 26.2822L25.4668 26.1291ZM25.4283 25.9357H25.8283C25.8283 25.9219 25.831 25.9082 25.8363 25.8954L25.4668 25.7423L25.0972 25.5892C25.0517 25.6991 25.0283 25.8168 25.0283 25.9357H25.4283ZM25.4668 25.7423L25.8363 25.8954C25.8416 25.8826 25.8494 25.871 25.8592 25.8612L25.5763 25.5784L25.2935 25.2955C25.2094 25.3796 25.1427 25.4794 25.0972 25.5892L25.4668 25.7423ZM25.5763 25.5784L25.8592 25.8612C25.8689 25.8514 25.8806 25.8437 25.8933 25.8384L25.7403 25.4688L25.5872 25.0993C25.4773 25.1448 25.3775 25.2114 25.2935 25.2955L25.5763 25.5784ZM25.7403 25.4688L25.8933 25.8384C25.9061 25.8331 25.9198 25.8303 25.9337 25.8303V25.4303V25.0303C25.8148 25.0303 25.697 25.0538 25.5872 25.0993L25.7403 25.4688ZM25.9337 25.4303V25.8303C25.9475 25.8303 25.9612 25.8331 25.974 25.8384L26.127 25.4688L26.2801 25.0993C26.1703 25.0538 26.0525 25.0303 25.9337 25.0303V25.4303ZM26.127 25.4688L25.974 25.8384C25.9868 25.8437 25.9984 25.8514 26.0082 25.8612L26.291 25.5784L26.5738 25.2955C26.4898 25.2114 26.39 25.1448 26.2801 25.0993L26.127 25.4688ZM26.291 25.5784L26.0082 25.8612L27.3375 27.1905L27.6203 26.9077L27.9031 26.6248L26.5738 25.2955L26.291 25.5784ZM30.6868 18.4964L30.7 18.8962C30.7141 18.8958 30.7282 18.8981 30.7413 18.9032L30.8852 18.53L31.0291 18.1568C30.9158 18.1131 30.7949 18.0927 30.6736 18.0967L30.6868 18.4964ZM30.8852 18.53L30.7413 18.9032C30.7545 18.9083 30.7665 18.916 30.7766 18.9258L31.0548 18.6383L31.3329 18.3508C31.2457 18.2664 31.1424 18.2004 31.0291 18.1568L30.8852 18.53ZM31.0548 18.6383L30.7766 18.9258C30.7868 18.9356 30.7949 18.9473 30.8004 18.9603L31.1686 18.8042L31.5369 18.6481C31.4895 18.5363 31.4202 18.4352 31.3329 18.3508L31.0548 18.6383ZM31.1686 18.8042L30.8004 18.9603C30.8059 18.9733 30.8087 18.9873 30.8087 19.0014H31.2087H31.6087C31.6087 18.88 31.5843 18.7599 31.5369 18.6481L31.1686 18.8042ZM31.2087 19.0014H30.8087C30.8087 19.0155 30.8059 19.0295 30.8004 19.0425L31.1686 19.1986L31.5369 19.3547C31.5843 19.2429 31.6087 19.1228 31.6087 19.0014H31.2087ZM31.1686 19.1986L30.8004 19.0425C30.7949 19.0554 30.7868 19.0672 30.7766 19.077L31.0548 19.3645L31.3329 19.652C31.4202 19.5675 31.4895 19.4665 31.5369 19.3547L31.1686 19.1986ZM31.0548 19.3645L30.7766 19.077C30.7665 19.0868 30.7545 19.0945 30.7413 19.0996L30.8852 19.4728L31.0291 19.846C31.1424 19.8024 31.2457 19.7364 31.3329 19.652L31.0548 19.3645ZM30.8852 19.4728L30.7413 19.0996C30.7282 19.1046 30.7141 19.107 30.7 19.1066L30.6868 19.5063L30.6736 19.9061C30.7949 19.9101 30.9158 19.8897 31.0291 19.846L30.8852 19.4728ZM30.6868 19.5063V19.1063H28.8072V19.5063V19.9063H30.6868V19.5063ZM28.8072 19.5063L28.8204 19.1066C28.7931 19.1057 28.7672 19.0942 28.7483 19.0746L28.4608 19.3527L28.1733 19.6308C28.3367 19.7997 28.5592 19.8984 28.794 19.9061L28.8072 19.5063ZM28.4608 19.3527L28.7483 19.0746C28.7293 19.0549 28.7187 19.0287 28.7187 19.0014H28.3187H27.9187C27.9187 19.2363 28.01 19.462 28.1733 19.6308L28.4608 19.3527ZM28.3187 19.0014H28.7187C28.7187 18.9741 28.7293 18.9478 28.7483 18.9282L28.4608 18.6501L28.1733 18.3719C28.01 18.5408 27.9187 18.7665 27.9187 19.0014H28.3187ZM28.4608 18.6501L28.7483 18.9282C28.7672 18.9086 28.7931 18.8971 28.8204 18.8962L28.8072 18.4964L28.794 18.0967C28.5592 18.1044 28.3367 18.2031 28.1733 18.3719L28.4608 18.6501ZM28.8072 18.4964V18.8964H30.6868V18.4964V18.0964H28.8072V18.4964ZM26.9056 10.3793L27.1885 10.6622C27.2082 10.6424 27.235 10.6313 27.263 10.6313V10.2313V9.83133C27.0228 9.83133 26.7926 9.92672 26.6228 10.0965L26.9056 10.3793ZM27.263 10.2313V10.6313C27.2909 10.6313 27.3177 10.6424 27.3375 10.6622L27.6203 10.3793L27.9031 10.0965C27.7334 9.92672 27.5031 9.83133 27.263 9.83133V10.2313ZM27.6203 10.3793L27.3375 10.6622C27.3572 10.6819 27.3683 10.7087 27.3683 10.7367H27.7683H28.1683C28.1683 10.4966 28.0729 10.2663 27.9031 10.0965L27.6203 10.3793ZM27.7683 10.7367H27.3683C27.3683 10.7646 27.3572 10.7914 27.3375 10.8112L27.6203 11.094L27.9031 11.3769C28.0729 11.2071 28.1683 10.9768 28.1683 10.7367H27.7683ZM27.6203 11.094L27.3375 10.8112L26.0082 12.1405L26.291 12.4233L26.5738 12.7062L27.9031 11.3769L27.6203 11.094ZM26.291 12.4233L26.0082 12.1405C25.9984 12.1503 25.9868 12.158 25.974 12.1633L26.127 12.5329L26.2801 12.9024C26.39 12.8569 26.4898 12.7902 26.5738 12.7062L26.291 12.4233ZM26.127 12.5329L25.974 12.1633C25.9612 12.1686 25.9475 12.1713 25.9337 12.1713V12.5713V12.9713C26.0525 12.9713 26.1703 12.9479 26.2801 12.9024L26.127 12.5329ZM25.9337 12.5713V12.1713C25.9198 12.1713 25.9061 12.1686 25.8933 12.1633L25.7403 12.5329L25.5872 12.9024C25.697 12.9479 25.8148 12.9713 25.9337 12.9713V12.5713ZM25.7403 12.5329L25.8933 12.1633C25.8806 12.158 25.8689 12.1503 25.8592 12.1405L25.5763 12.4233L25.2935 12.7062C25.3775 12.7902 25.4773 12.8569 25.5872 12.9024L25.7403 12.5329ZM25.5763 12.4233L25.8592 12.1405C25.8494 12.1307 25.8416 12.1191 25.8363 12.1063L25.4668 12.2594L25.0972 12.4124C25.1427 12.5223 25.2094 12.6221 25.2935 12.7062L25.5763 12.4233ZM25.4668 12.2594L25.8363 12.1063C25.831 12.0935 25.8283 12.0798 25.8283 12.066H25.4283H25.0283C25.0283 12.1849 25.0517 12.3026 25.0972 12.4124L25.4668 12.2594ZM25.4283 12.066H25.8283C25.8283 12.0521 25.831 12.0384 25.8363 12.0257L25.4668 11.8726L25.0972 11.7195C25.0517 11.8294 25.0283 11.9471 25.0283 12.066H25.4283ZM25.4668 11.8726L25.8363 12.0257C25.8416 12.0129 25.8494 12.0013 25.8592 11.9915L25.5763 11.7086L25.2935 11.4258C25.2094 11.5099 25.1427 11.6097 25.0972 11.7195L25.4668 11.8726ZM25.5763 11.7086L25.8592 11.9915L27.1885 10.6622L26.9056 10.3793L26.6228 10.0965L25.2935 11.4258L25.5763 11.7086ZM18.4944 7.31282L18.8942 7.29963C18.8937 7.28553 18.8961 7.27148 18.9012 7.25831L18.5279 7.11443L18.1547 6.97054C18.1111 7.08381 18.0906 7.2047 18.0946 7.32602L18.4944 7.31282ZM18.5279 7.11443L18.9012 7.25831C18.9062 7.24514 18.9139 7.23313 18.9237 7.22299L18.6363 6.94485L18.3488 6.66672C18.2644 6.75396 18.1984 6.85728 18.1547 6.97054L18.5279 7.11443ZM18.6363 6.94485L18.9237 7.22299C18.9335 7.21285 18.9453 7.20479 18.9583 7.19928L18.8022 6.83101L18.6461 6.46273C18.5343 6.51011 18.4332 6.57948 18.3488 6.66672L18.6363 6.94485ZM18.8022 6.83101L18.9583 7.19928C18.9713 7.19378 18.9852 7.19094 18.9994 7.19094V6.79094V6.39094C18.878 6.39094 18.7578 6.41535 18.6461 6.46273L18.8022 6.83101ZM18.9994 6.79094V7.19094C19.0135 7.19094 19.0274 7.19378 19.0404 7.19928L19.1965 6.83101L19.3526 6.46273C19.2409 6.41535 19.1207 6.39094 18.9994 6.39094V6.79094ZM19.1965 6.83101L19.0404 7.19928C19.0534 7.20479 19.0652 7.21285 19.075 7.22299L19.3624 6.94485L19.6499 6.66672C19.5655 6.57948 19.4644 6.51011 19.3526 6.46273L19.1965 6.83101ZM19.3624 6.94485L19.075 7.22299C19.0848 7.23313 19.0925 7.24514 19.0975 7.25831L19.4708 7.11443L19.844 6.97054C19.8003 6.85728 19.7343 6.75396 19.6499 6.66672L19.3624 6.94485ZM19.4708 7.11443L19.0975 7.25831C19.1026 7.27148 19.105 7.28553 19.1045 7.29963L19.5043 7.31282L19.9041 7.32602C19.9081 7.2047 19.8876 7.08381 19.844 6.97054L19.4708 7.11443ZM19.5043 7.31282H19.1043V9.19188H19.5043H19.9043V7.31282H19.5043ZM19.5043 9.19188L19.1045 9.17869C19.1036 9.20598 19.0921 9.23185 19.0725 9.25084L19.3507 9.53831L19.6288 9.82577C19.7976 9.66243 19.8963 9.43985 19.9041 9.20507L19.5043 9.19188ZM19.3507 9.53831L19.0725 9.25084C19.0529 9.26982 19.0267 9.28044 18.9994 9.28044V9.68044V10.0804C19.2343 10.0804 19.46 9.98912 19.6288 9.82577L19.3507 9.53831ZM18.9994 9.68044V9.28044C18.972 9.28044 18.9458 9.26982 18.9262 9.25084L18.648 9.53831L18.3699 9.82577C18.5387 9.98912 18.7644 10.0804 18.9994 10.0804V9.68044ZM18.648 9.53831L18.9262 9.25084C18.9066 9.23185 18.8951 9.20598 18.8942 9.17869L18.4944 9.19188L18.0946 9.20507C18.1024 9.43985 18.2011 9.66243 18.3699 9.82577L18.648 9.53831ZM18.4944 9.19188H18.8944V7.31282H18.4944H18.0944V9.19188H18.4944ZM28.4785 9.52173L28.7614 9.23894C26.5032 6.97995 23.5316 5.57385 20.353 5.26023L20.3137 5.6583L20.2744 6.05637C23.2689 6.35181 26.0683 7.67643 28.1956 9.80452L28.4785 9.52173ZM20.3137 5.6583L20.353 5.26023C17.1743 4.94662 13.9852 5.74489 11.3291 7.51903L11.5513 7.85165L11.7735 8.18427C14.2757 6.51294 17.2799 5.76093 20.2744 6.05637L20.3137 5.6583ZM11.5513 7.85165L11.3291 7.51903C8.67307 9.29317 6.71435 11.9334 5.78673 14.9898L6.16949 15.106L6.55225 15.2222C7.42612 12.3428 9.27134 9.85561 11.7735 8.18427L11.5513 7.85165ZM6.16949 15.106L5.78673 14.9898C4.85911 18.0463 5.02 21.3298 6.24197 24.2809L6.61154 24.1279L6.98111 23.9749C5.82995 21.1948 5.67839 18.1015 6.55225 15.2222L6.16949 15.106ZM6.61154 24.1279L6.24197 24.2809C7.46394 27.232 9.67138 29.6681 12.4882 31.1741L12.6768 30.8214L12.8654 30.4686C10.2118 29.0499 8.13227 26.755 6.98111 23.9749L6.61154 24.1279ZM12.6768 30.8214L12.4882 31.1741C15.305 32.6801 18.5568 33.1628 21.6896 32.5399L21.6116 32.1476L21.5336 31.7553C18.5823 32.3421 15.5189 31.8873 12.8654 30.4686L12.6768 30.8214ZM21.6116 32.1476L21.6896 32.5399C24.8224 31.9171 27.6422 30.2272 29.6687 27.7583L29.3596 27.5045L29.0504 27.2507C27.1413 29.5766 24.4848 31.1685 21.5336 31.7553L21.6116 32.1476ZM29.3596 27.5045L29.6687 27.7583C31.6952 25.2894 32.803 22.1941 32.8031 19L32.4031 19L32.0031 19C32.003 22.009 30.9594 24.9249 29.0504 27.2507L29.3596 27.5045ZM32.4031 19L32.8031 19.0006C32.8059 17.1874 32.4502 15.3914 31.7565 13.7161L31.3869 13.8691L31.0173 14.0222C31.6707 15.6001 32.0057 17.2916 32.0031 18.9994L32.4031 19ZM31.3869 13.8691L31.7565 13.7161C31.0628 12.0408 30.0447 10.5191 28.7609 9.23853L28.4785 9.52173L28.196 9.80493C29.4051 11.011 30.3639 12.4442 31.0173 14.0222L31.3869 13.8691Z" fill="#C4B581" mask="url(#path-1-outside-1_248_3891)"/>
</svg>
