<svg width="75" height="75" viewBox="0 0 75 75" fill="none" xmlns="http://www.w3.org/2000/svg">
<g opacity="0.7">
<path d="M68.2487 52.1159V14.9C68.2487 11.2 65.227 8.45587 61.5579 8.7642H61.3729C54.8979 9.3192 45.062 12.6184 39.5737 16.0717L39.0495 16.4109C38.1554 16.9659 36.6754 16.9659 35.7812 16.4109L35.0104 15.9484C29.522 12.5259 19.717 9.25753 13.242 8.73337C9.57286 8.42503 6.58203 11.2 6.58203 14.8692V52.1159C6.58203 55.0759 8.98703 57.8509 11.947 58.2209L12.8412 58.3442C19.532 59.2384 29.8612 62.63 35.7812 65.8675L35.9045 65.9292C36.737 66.3917 38.0629 66.3917 38.8645 65.9292C44.7845 62.6609 55.1445 59.2384 61.8662 58.3442L62.8837 58.2209C65.8437 57.8509 68.2487 55.0759 68.2487 52.1159Z" stroke="#EDEDED" stroke-width="4.7323" stroke-linecap="round" stroke-linejoin="round"/>
<path d="M37.415 17.4277V63.6777" stroke="#EDEDED" stroke-width="4.7323" stroke-linecap="round" stroke-linejoin="round"/>
<path d="M24.3105 26.6777H17.373" stroke="#EDEDED" stroke-width="4.7323" stroke-linecap="round" stroke-linejoin="round"/>
<path d="M26.623 35.9277H17.373" stroke="#EDEDED" stroke-width="4.7323" stroke-linecap="round" stroke-linejoin="round"/>
</g>
</svg>
