<svg width="21" height="21" viewBox="0 0 21 21" fill="none" xmlns="http://www.w3.org/2000/svg">
<mask id="path-1-outside-1_520_4553" maskUnits="userSpaceOnUse" x="0.17334" y="-0.677734" width="21" height="21" fill="black">
<rect fill="white" x="0.17334" y="-0.677734" width="21" height="21"/>
<path d="M10.9129 1.80348C12.8237 1.80334 14.6755 2.46577 16.1526 3.67789C17.6297 4.89001 18.6409 6.57682 19.0137 8.45089C19.3866 10.325 19.098 12.2703 18.1973 13.9555C17.2966 15.6407 15.8394 16.9614 14.0741 17.6927C12.3087 18.4239 10.3444 18.5204 8.51591 17.9656C6.6874 17.4109 5.10781 16.2393 4.0463 14.6505C2.98479 13.0617 2.50703 11.1539 2.69444 9.25236C2.88186 7.35078 3.72284 5.573 5.07409 4.22198C5.8402 3.45432 6.75036 2.84551 7.75234 2.43048C8.75432 2.01545 9.8284 1.80238 10.9129 1.80348ZM11.2021 9.05456C11.3535 9.09795 11.4932 9.17494 11.6107 9.2798C11.7283 9.38465 11.8206 9.51468 11.881 9.66019C11.9413 9.80569 11.968 9.96294 11.9592 10.1202C11.9503 10.2775 11.9061 10.4307 11.8298 10.5685L12.9598 11.6989C13.0105 11.7539 13.038 11.8264 13.0364 11.9012C13.0349 11.9759 13.0045 12.0473 12.9516 12.1001C12.8987 12.153 12.8274 12.1834 12.7526 12.185C12.6778 12.1865 12.6054 12.159 12.5504 12.1083L11.4213 10.9783C11.2002 11.1006 10.9425 11.1391 10.6954 11.0865C10.4483 11.0338 10.2285 10.8938 10.0764 10.692C9.92443 10.4902 9.8504 10.2403 9.86798 9.9883C9.88557 9.73627 9.9936 9.49908 10.1722 9.32038C10.2973 9.19479 10.4524 9.10328 10.6229 9.05456V6.12175C10.6216 6.08296 10.6281 6.04431 10.6421 6.00809C10.656 5.97188 10.6771 5.93884 10.7041 5.91094C10.7311 5.88305 10.7634 5.86087 10.7992 5.84572C10.8349 5.83057 10.8733 5.82277 10.9121 5.82277C10.951 5.82277 10.9894 5.83057 11.0251 5.84572C11.0608 5.86087 11.0932 5.88305 11.1202 5.91094C11.1471 5.93884 11.1683 5.97188 11.1822 6.00809C11.1962 6.04431 11.2027 6.08296 11.2014 6.12175L11.2021 9.05456ZM11.2439 9.73044C11.1786 9.66528 11.0954 9.62088 11.0049 9.60283C10.9144 9.58478 10.8205 9.59388 10.7352 9.62899C10.6498 9.6641 10.5767 9.72365 10.5251 9.80016C10.4735 9.87667 10.4456 9.96673 10.445 10.059C10.4444 10.1513 10.4711 10.2417 10.5217 10.3189C10.5723 10.3961 10.6446 10.4566 10.7295 10.4929C10.8144 10.5291 10.9081 10.5394 10.9988 10.5226C11.0896 10.5057 11.1733 10.4624 11.2395 10.3981L11.243 10.3937L11.2474 10.3903V10.3884C11.3331 10.3002 11.3807 10.1818 11.3796 10.0588C11.3786 9.9358 11.3292 9.81816 11.2421 9.73139M10.9129 0.322274C13.1661 0.322367 15.3496 1.10372 17.0913 2.53319C18.833 3.96267 20.0251 5.95183 20.4646 8.16174C20.9041 10.3717 20.5638 12.6656 19.5016 14.6527C18.4394 16.6398 16.721 18.1972 14.6393 19.0594C12.5576 19.9216 10.2414 20.0353 8.08522 19.3812C5.92906 18.7271 4.0664 17.3456 2.81462 15.4721C1.56284 13.5986 0.999386 11.3491 1.22026 9.10674C1.44114 6.8644 2.43268 4.76801 4.02594 3.17477C4.92937 2.26904 6.00288 1.55078 7.18478 1.06125C8.36668 0.571724 9.63367 0.320588 10.9129 0.322274ZM17.3899 3.58452C15.8916 2.08558 13.92 1.15252 11.8109 0.944324C9.70184 0.73613 7.58582 1.26569 5.82342 2.44276C4.06102 3.61983 2.76129 5.37159 2.14569 7.39954C1.5301 9.42749 1.63672 11.6062 2.4474 13.5643C3.25809 15.5225 4.72266 17.1389 6.59158 18.1383C8.46049 19.1376 10.6181 19.458 12.6968 19.0449C14.7754 18.6317 16.6465 17.5106 17.9913 15.8725C19.336 14.2345 20.0711 12.1808 20.0713 10.0615C20.073 8.85833 19.8369 7.66675 19.3765 6.5552C18.9161 5.44366 18.2405 4.43408 17.3886 3.58452M5.9739 5.53154C5.91961 5.47724 5.8891 5.4036 5.8891 5.32682C5.8891 5.25004 5.91961 5.1764 5.9739 5.1221C6.02819 5.06781 6.10183 5.03731 6.17862 5.03731C6.2554 5.03731 6.32904 5.06781 6.38333 5.1221L7.14488 5.88365C7.19918 5.93794 7.22968 6.01158 7.22968 6.08837C7.22968 6.16515 7.19918 6.23879 7.14488 6.29308C7.09059 6.34738 7.01695 6.37788 6.94016 6.37788C6.86338 6.37788 6.78974 6.34738 6.73545 6.29308L5.9739 5.53154ZM4.21711 10.3503C4.17832 10.3515 4.13967 10.345 4.10345 10.331C4.06724 10.3171 4.0342 10.296 4.00631 10.269C3.97841 10.242 3.95623 10.2097 3.94108 10.1739C3.92593 10.1382 3.91813 10.0998 3.91813 10.061C3.91813 10.0222 3.92593 9.98375 3.94108 9.94802C3.95623 9.91228 3.97841 9.87996 4.00631 9.85297C4.0342 9.82598 4.06724 9.80488 4.10345 9.79092C4.13967 9.77696 4.17832 9.77042 4.21711 9.7717H5.29455C5.36962 9.77418 5.44079 9.80574 5.49302 9.85972C5.54525 9.9137 5.57445 9.98587 5.57445 10.061C5.57445 10.1361 5.54525 10.2083 5.49302 10.2622C5.44079 10.3162 5.36962 10.3478 5.29455 10.3503H4.21711ZM6.38302 14.9999C6.35614 15.0267 6.32422 15.0481 6.28909 15.0626C6.25397 15.0772 6.21632 15.0847 6.1783 15.0847C6.14028 15.0847 6.10264 15.0772 6.06751 15.0626C6.03238 15.0481 6.00047 15.0267 5.97358 14.9999C5.9467 14.973 5.92538 14.9411 5.91083 14.9059C5.89628 14.8708 5.88879 14.8332 5.88879 14.7951C5.88879 14.7571 5.89628 14.7195 5.91083 14.6844C5.92538 14.6492 5.9467 14.6173 5.97358 14.5904L6.73513 13.8289C6.76202 13.802 6.79393 13.7807 6.82906 13.7661C6.86418 13.7516 6.90183 13.7441 6.93985 13.7441C6.97787 13.7441 7.01552 13.7516 7.05064 13.7661C7.08577 13.7807 7.11768 13.802 7.14457 13.8289C7.17145 13.8558 7.19278 13.8877 7.20732 13.9228C7.22187 13.9579 7.22936 13.9956 7.22936 14.0336C7.22936 14.0716 7.22187 14.1093 7.20732 14.1444C7.19278 14.1795 7.17145 14.2114 7.14457 14.2383L6.38302 14.9999ZM11.2017 16.7566C11.2018 16.8334 11.1713 16.907 11.1171 16.9614C11.0628 17.0157 10.9892 17.0462 10.9125 17.0462C10.8357 17.0463 10.7621 17.0158 10.7078 16.9616C10.6534 16.9073 10.6229 16.8337 10.6229 16.757V15.6798C10.6216 15.641 10.6281 15.6024 10.6421 15.5662C10.656 15.53 10.6771 15.4969 10.7041 15.469C10.7311 15.4411 10.7634 15.419 10.7992 15.4038C10.8349 15.3887 10.8733 15.3809 10.9121 15.3809C10.951 15.3809 10.9894 15.3887 11.0251 15.4038C11.0608 15.419 11.0932 15.4411 11.1202 15.469C11.1471 15.4969 11.1683 15.53 11.1822 15.5662C11.1962 15.6024 11.2027 15.641 11.2014 15.6798L11.2017 16.7566ZM15.851 14.5917C15.9053 14.646 15.9358 14.7196 15.9358 14.7964C15.9358 14.8732 15.9053 14.9468 15.851 15.0011C15.7967 15.0554 15.7231 15.0859 15.6463 15.0859C15.5695 15.0859 15.4959 15.0554 15.4416 15.0011L14.68 14.2396C14.6532 14.2127 14.6318 14.1808 14.6173 14.1456C14.6027 14.1105 14.5952 14.0729 14.5952 14.0349C14.5952 13.9968 14.6027 13.9592 14.6173 13.9241C14.6318 13.8889 14.6532 13.857 14.68 13.8301C14.7069 13.8033 14.7388 13.7819 14.774 13.7674C14.8091 13.7528 14.8467 13.7453 14.8848 13.7453C14.9228 13.7453 14.9604 13.7528 14.9956 13.7674C15.0307 13.7819 15.0626 13.8033 15.0895 13.8301L15.851 14.5917ZM17.6078 9.77296C17.6466 9.77168 17.6853 9.77822 17.7215 9.79218C17.7577 9.80614 17.7907 9.82724 17.8186 9.85423C17.8465 9.88122 17.8687 9.91354 17.8838 9.94928C17.899 9.98501 17.9068 10.0234 17.9068 10.0622C17.9068 10.1011 17.899 10.1395 17.8838 10.1752C17.8687 10.2109 17.8465 10.2433 17.8186 10.2703C17.7907 10.2972 17.7577 10.3183 17.7215 10.3323C17.6853 10.3463 17.6466 10.3528 17.6078 10.3515H16.531C16.4559 10.349 16.3848 10.3175 16.3325 10.2635C16.2803 10.2095 16.2511 10.1374 16.2511 10.0622C16.2511 9.98713 16.2803 9.91496 16.3325 9.86098C16.3848 9.807 16.4559 9.77544 16.531 9.77296H17.6078ZM15.4416 5.12273C15.4959 5.06844 15.5695 5.03794 15.6463 5.03794C15.7231 5.03794 15.7967 5.06844 15.851 5.12273C15.9053 5.17703 15.9358 5.25067 15.9358 5.32745C15.9358 5.40423 15.9053 5.47787 15.851 5.53217L15.0895 6.29371C15.0626 6.3206 15.0307 6.34192 14.9956 6.35647C14.9604 6.37102 14.9228 6.37851 14.8848 6.37851C14.8467 6.37851 14.8091 6.37102 14.774 6.35647C14.7388 6.34192 14.7069 6.3206 14.68 6.29371C14.6532 6.26683 14.6318 6.23491 14.6173 6.19979C14.6027 6.16466 14.5952 6.12702 14.5952 6.089C14.5952 6.05098 14.6027 6.01333 14.6173 5.9782C14.6318 5.94308 14.6532 5.91116 14.68 5.88428L15.4416 5.12273ZM10.6229 3.36594C10.6216 3.32715 10.6281 3.2885 10.6421 3.25228C10.656 3.21607 10.6771 3.18303 10.7041 3.15514C10.7311 3.12724 10.7634 3.10506 10.7992 3.08991C10.8349 3.07477 10.8733 3.06696 10.9121 3.06696C10.951 3.06696 10.9894 3.07477 11.0251 3.08991C11.0608 3.10506 11.0932 3.12724 11.1202 3.15514C11.1471 3.18303 11.1683 3.21607 11.1822 3.25228C11.1962 3.2885 11.2027 3.32715 11.2014 3.36594V4.44244C11.199 4.51751 11.1674 4.58868 11.1134 4.64091C11.0594 4.69314 10.9873 4.72233 10.9121 4.72233C10.837 4.72233 10.7649 4.69314 10.7109 4.64091C10.6569 4.58868 10.6253 4.51751 10.6229 4.44244V3.36594ZM16.3427 4.63141C15.0865 3.37475 13.4334 2.59254 11.6651 2.41808C9.89684 2.24362 8.12278 2.68769 6.64523 3.67464C5.16767 4.66158 4.07804 6.13032 3.56201 7.8306C3.04598 9.53088 3.13548 11.3575 3.81526 12.9992C4.49503 14.6409 5.72302 15.996 7.28998 16.8338C8.85695 17.6716 10.6659 17.9401 12.4087 17.5936C14.1514 17.2471 15.7201 16.3071 16.8474 14.9336C17.9748 13.5602 18.591 11.8383 18.5911 10.0615C18.5926 9.05285 18.3947 8.05388 18.0089 7.122C17.623 6.19012 17.0568 5.3437 16.3427 4.63141Z"/>
</mask>
<path d="M10.9129 1.80348C12.8237 1.80334 14.6755 2.46577 16.1526 3.67789C17.6297 4.89001 18.6409 6.57682 19.0137 8.45089C19.3866 10.325 19.098 12.2703 18.1973 13.9555C17.2966 15.6407 15.8394 16.9614 14.0741 17.6927C12.3087 18.4239 10.3444 18.5204 8.51591 17.9656C6.6874 17.4109 5.10781 16.2393 4.0463 14.6505C2.98479 13.0617 2.50703 11.1539 2.69444 9.25236C2.88186 7.35078 3.72284 5.573 5.07409 4.22198C5.8402 3.45432 6.75036 2.84551 7.75234 2.43048C8.75432 2.01545 9.8284 1.80238 10.9129 1.80348ZM11.2021 9.05456C11.3535 9.09795 11.4932 9.17494 11.6107 9.2798C11.7283 9.38465 11.8206 9.51468 11.881 9.66019C11.9413 9.80569 11.968 9.96294 11.9592 10.1202C11.9503 10.2775 11.9061 10.4307 11.8298 10.5685L12.9598 11.6989C13.0105 11.7539 13.038 11.8264 13.0364 11.9012C13.0349 11.9759 13.0045 12.0473 12.9516 12.1001C12.8987 12.153 12.8274 12.1834 12.7526 12.185C12.6778 12.1865 12.6054 12.159 12.5504 12.1083L11.4213 10.9783C11.2002 11.1006 10.9425 11.1391 10.6954 11.0865C10.4483 11.0338 10.2285 10.8938 10.0764 10.692C9.92443 10.4902 9.8504 10.2403 9.86798 9.9883C9.88557 9.73627 9.9936 9.49908 10.1722 9.32038C10.2973 9.19479 10.4524 9.10328 10.6229 9.05456V6.12175C10.6216 6.08296 10.6281 6.04431 10.6421 6.00809C10.656 5.97188 10.6771 5.93884 10.7041 5.91094C10.7311 5.88305 10.7634 5.86087 10.7992 5.84572C10.8349 5.83057 10.8733 5.82277 10.9121 5.82277C10.951 5.82277 10.9894 5.83057 11.0251 5.84572C11.0608 5.86087 11.0932 5.88305 11.1202 5.91094C11.1471 5.93884 11.1683 5.97188 11.1822 6.00809C11.1962 6.04431 11.2027 6.08296 11.2014 6.12175L11.2021 9.05456ZM11.2439 9.73044C11.1786 9.66528 11.0954 9.62088 11.0049 9.60283C10.9144 9.58478 10.8205 9.59388 10.7352 9.62899C10.6498 9.6641 10.5767 9.72365 10.5251 9.80016C10.4735 9.87667 10.4456 9.96673 10.445 10.059C10.4444 10.1513 10.4711 10.2417 10.5217 10.3189C10.5723 10.3961 10.6446 10.4566 10.7295 10.4929C10.8144 10.5291 10.9081 10.5394 10.9988 10.5226C11.0896 10.5057 11.1733 10.4624 11.2395 10.3981L11.243 10.3937L11.2474 10.3903V10.3884C11.3331 10.3002 11.3807 10.1818 11.3796 10.0588C11.3786 9.9358 11.3292 9.81816 11.2421 9.73139M10.9129 0.322274C13.1661 0.322367 15.3496 1.10372 17.0913 2.53319C18.833 3.96267 20.0251 5.95183 20.4646 8.16174C20.9041 10.3717 20.5638 12.6656 19.5016 14.6527C18.4394 16.6398 16.721 18.1972 14.6393 19.0594C12.5576 19.9216 10.2414 20.0353 8.08522 19.3812C5.92906 18.7271 4.0664 17.3456 2.81462 15.4721C1.56284 13.5986 0.999386 11.3491 1.22026 9.10674C1.44114 6.8644 2.43268 4.76801 4.02594 3.17477C4.92937 2.26904 6.00288 1.55078 7.18478 1.06125C8.36668 0.571724 9.63367 0.320588 10.9129 0.322274ZM17.3899 3.58452C15.8916 2.08558 13.92 1.15252 11.8109 0.944324C9.70184 0.73613 7.58582 1.26569 5.82342 2.44276C4.06102 3.61983 2.76129 5.37159 2.14569 7.39954C1.5301 9.42749 1.63672 11.6062 2.4474 13.5643C3.25809 15.5225 4.72266 17.1389 6.59158 18.1383C8.46049 19.1376 10.6181 19.458 12.6968 19.0449C14.7754 18.6317 16.6465 17.5106 17.9913 15.8725C19.336 14.2345 20.0711 12.1808 20.0713 10.0615C20.073 8.85833 19.8369 7.66675 19.3765 6.5552C18.9161 5.44366 18.2405 4.43408 17.3886 3.58452M5.9739 5.53154C5.91961 5.47724 5.8891 5.4036 5.8891 5.32682C5.8891 5.25004 5.91961 5.1764 5.9739 5.1221C6.02819 5.06781 6.10183 5.03731 6.17862 5.03731C6.2554 5.03731 6.32904 5.06781 6.38333 5.1221L7.14488 5.88365C7.19918 5.93794 7.22968 6.01158 7.22968 6.08837C7.22968 6.16515 7.19918 6.23879 7.14488 6.29308C7.09059 6.34738 7.01695 6.37788 6.94016 6.37788C6.86338 6.37788 6.78974 6.34738 6.73545 6.29308L5.9739 5.53154ZM4.21711 10.3503C4.17832 10.3515 4.13967 10.345 4.10345 10.331C4.06724 10.3171 4.0342 10.296 4.00631 10.269C3.97841 10.242 3.95623 10.2097 3.94108 10.1739C3.92593 10.1382 3.91813 10.0998 3.91813 10.061C3.91813 10.0222 3.92593 9.98375 3.94108 9.94802C3.95623 9.91228 3.97841 9.87996 4.00631 9.85297C4.0342 9.82598 4.06724 9.80488 4.10345 9.79092C4.13967 9.77696 4.17832 9.77042 4.21711 9.7717H5.29455C5.36962 9.77418 5.44079 9.80574 5.49302 9.85972C5.54525 9.9137 5.57445 9.98587 5.57445 10.061C5.57445 10.1361 5.54525 10.2083 5.49302 10.2622C5.44079 10.3162 5.36962 10.3478 5.29455 10.3503H4.21711ZM6.38302 14.9999C6.35614 15.0267 6.32422 15.0481 6.28909 15.0626C6.25397 15.0772 6.21632 15.0847 6.1783 15.0847C6.14028 15.0847 6.10264 15.0772 6.06751 15.0626C6.03238 15.0481 6.00047 15.0267 5.97358 14.9999C5.9467 14.973 5.92538 14.9411 5.91083 14.9059C5.89628 14.8708 5.88879 14.8332 5.88879 14.7951C5.88879 14.7571 5.89628 14.7195 5.91083 14.6844C5.92538 14.6492 5.9467 14.6173 5.97358 14.5904L6.73513 13.8289C6.76202 13.802 6.79393 13.7807 6.82906 13.7661C6.86418 13.7516 6.90183 13.7441 6.93985 13.7441C6.97787 13.7441 7.01552 13.7516 7.05064 13.7661C7.08577 13.7807 7.11768 13.802 7.14457 13.8289C7.17145 13.8558 7.19278 13.8877 7.20732 13.9228C7.22187 13.9579 7.22936 13.9956 7.22936 14.0336C7.22936 14.0716 7.22187 14.1093 7.20732 14.1444C7.19278 14.1795 7.17145 14.2114 7.14457 14.2383L6.38302 14.9999ZM11.2017 16.7566C11.2018 16.8334 11.1713 16.907 11.1171 16.9614C11.0628 17.0157 10.9892 17.0462 10.9125 17.0462C10.8357 17.0463 10.7621 17.0158 10.7078 16.9616C10.6534 16.9073 10.6229 16.8337 10.6229 16.757V15.6798C10.6216 15.641 10.6281 15.6024 10.6421 15.5662C10.656 15.53 10.6771 15.4969 10.7041 15.469C10.7311 15.4411 10.7634 15.419 10.7992 15.4038C10.8349 15.3887 10.8733 15.3809 10.9121 15.3809C10.951 15.3809 10.9894 15.3887 11.0251 15.4038C11.0608 15.419 11.0932 15.4411 11.1202 15.469C11.1471 15.4969 11.1683 15.53 11.1822 15.5662C11.1962 15.6024 11.2027 15.641 11.2014 15.6798L11.2017 16.7566ZM15.851 14.5917C15.9053 14.646 15.9358 14.7196 15.9358 14.7964C15.9358 14.8732 15.9053 14.9468 15.851 15.0011C15.7967 15.0554 15.7231 15.0859 15.6463 15.0859C15.5695 15.0859 15.4959 15.0554 15.4416 15.0011L14.68 14.2396C14.6532 14.2127 14.6318 14.1808 14.6173 14.1456C14.6027 14.1105 14.5952 14.0729 14.5952 14.0349C14.5952 13.9968 14.6027 13.9592 14.6173 13.9241C14.6318 13.8889 14.6532 13.857 14.68 13.8301C14.7069 13.8033 14.7388 13.7819 14.774 13.7674C14.8091 13.7528 14.8467 13.7453 14.8848 13.7453C14.9228 13.7453 14.9604 13.7528 14.9956 13.7674C15.0307 13.7819 15.0626 13.8033 15.0895 13.8301L15.851 14.5917ZM17.6078 9.77296C17.6466 9.77168 17.6853 9.77822 17.7215 9.79218C17.7577 9.80614 17.7907 9.82724 17.8186 9.85423C17.8465 9.88122 17.8687 9.91354 17.8838 9.94928C17.899 9.98501 17.9068 10.0234 17.9068 10.0622C17.9068 10.1011 17.899 10.1395 17.8838 10.1752C17.8687 10.2109 17.8465 10.2433 17.8186 10.2703C17.7907 10.2972 17.7577 10.3183 17.7215 10.3323C17.6853 10.3463 17.6466 10.3528 17.6078 10.3515H16.531C16.4559 10.349 16.3848 10.3175 16.3325 10.2635C16.2803 10.2095 16.2511 10.1374 16.2511 10.0622C16.2511 9.98713 16.2803 9.91496 16.3325 9.86098C16.3848 9.807 16.4559 9.77544 16.531 9.77296H17.6078ZM15.4416 5.12273C15.4959 5.06844 15.5695 5.03794 15.6463 5.03794C15.7231 5.03794 15.7967 5.06844 15.851 5.12273C15.9053 5.17703 15.9358 5.25067 15.9358 5.32745C15.9358 5.40423 15.9053 5.47787 15.851 5.53217L15.0895 6.29371C15.0626 6.3206 15.0307 6.34192 14.9956 6.35647C14.9604 6.37102 14.9228 6.37851 14.8848 6.37851C14.8467 6.37851 14.8091 6.37102 14.774 6.35647C14.7388 6.34192 14.7069 6.3206 14.68 6.29371C14.6532 6.26683 14.6318 6.23491 14.6173 6.19979C14.6027 6.16466 14.5952 6.12702 14.5952 6.089C14.5952 6.05098 14.6027 6.01333 14.6173 5.9782C14.6318 5.94308 14.6532 5.91116 14.68 5.88428L15.4416 5.12273ZM10.6229 3.36594C10.6216 3.32715 10.6281 3.2885 10.6421 3.25228C10.656 3.21607 10.6771 3.18303 10.7041 3.15514C10.7311 3.12724 10.7634 3.10506 10.7992 3.08991C10.8349 3.07477 10.8733 3.06696 10.9121 3.06696C10.951 3.06696 10.9894 3.07477 11.0251 3.08991C11.0608 3.10506 11.0932 3.12724 11.1202 3.15514C11.1471 3.18303 11.1683 3.21607 11.1822 3.25228C11.1962 3.2885 11.2027 3.32715 11.2014 3.36594V4.44244C11.199 4.51751 11.1674 4.58868 11.1134 4.64091C11.0594 4.69314 10.9873 4.72233 10.9121 4.72233C10.837 4.72233 10.7649 4.69314 10.7109 4.64091C10.6569 4.58868 10.6253 4.51751 10.6229 4.44244V3.36594ZM16.3427 4.63141C15.0865 3.37475 13.4334 2.59254 11.6651 2.41808C9.89684 2.24362 8.12278 2.68769 6.64523 3.67464C5.16767 4.66158 4.07804 6.13032 3.56201 7.8306C3.04598 9.53088 3.13548 11.3575 3.81526 12.9992C4.49503 14.6409 5.72302 15.996 7.28998 16.8338C8.85695 17.6716 10.6659 17.9401 12.4087 17.5936C14.1514 17.2471 15.7201 16.3071 16.8474 14.9336C17.9748 13.5602 18.591 11.8383 18.5911 10.0615C18.5926 9.05285 18.3947 8.05388 18.0089 7.122C17.623 6.19012 17.0568 5.3437 16.3427 4.63141Z" fill="#C5B682"/>
<path d="M10.9129 1.80348L10.9127 2.03264L10.913 2.03264L10.9129 1.80348ZM5.07409 4.22198L5.23611 4.38403L5.23629 4.38385L5.07409 4.22198ZM11.2021 9.05456L10.9729 9.05461L10.9729 9.22729L11.1389 9.27485L11.2021 9.05456ZM11.8298 10.5685L11.6293 10.4575L11.5457 10.6085L11.6677 10.7305L11.8298 10.5685ZM12.9598 11.6989L13.1284 11.5434L13.1219 11.5369L12.9598 11.6989ZM12.5504 12.1083L12.3881 12.2704L12.395 12.2768L12.5504 12.1083ZM11.4213 10.9783L11.5834 10.8163L11.4613 10.6942L11.3103 10.7778L11.4213 10.9783ZM10.1722 9.32038L10.3343 9.48236L10.3345 9.4821L10.1722 9.32038ZM10.6229 9.05456L10.6859 9.27489L10.852 9.22739V9.05456H10.6229ZM10.6229 6.12175H10.8521L10.8519 6.11419L10.6229 6.12175ZM11.2014 6.12175L10.9723 6.11419L10.9723 6.1218L11.2014 6.12175ZM11.2395 10.3981L11.3992 10.5625L11.4102 10.5518L11.4197 10.5397L11.2395 10.3981ZM11.243 10.3937L11.1014 10.2135L11.0798 10.2305L11.0628 10.2521L11.243 10.3937ZM11.2474 10.3903L11.389 10.5705L11.4766 10.5016V10.3903H11.2474ZM11.2474 10.3884L11.0831 10.2286L11.0183 10.2953V10.3884H11.2474ZM10.9129 0.322274L10.9126 0.551431L10.9129 0.551431L10.9129 0.322274ZM4.02594 3.17477L4.18798 3.33681L4.18818 3.3366L4.02594 3.17477ZM20.0713 10.0615L19.8422 10.0611V10.0614L20.0713 10.0615ZM5.9739 5.53154L5.81186 5.69358L5.9739 5.53154ZM5.8891 5.32682H5.65995H5.8891ZM6.17862 5.03731V4.80815V5.03731ZM6.38333 5.1221L6.2213 5.28414L6.38333 5.1221ZM7.14488 5.88365L7.30692 5.72161L7.14488 5.88365ZM7.22968 6.08837H7.45884H7.22968ZM6.94016 6.37788V6.60704V6.37788ZM6.73545 6.29308L6.89749 6.13105L6.73545 6.29308ZM4.21711 10.3503V10.121L4.20955 10.1212L4.21711 10.3503ZM4.21711 9.7717L4.20955 10.0009H4.21711V9.7717ZM5.29455 9.7717L5.30212 9.54254H5.29455V9.7717ZM5.57445 10.061H5.8036H5.57445ZM5.29455 10.3503V10.5795L5.30211 10.5793L5.29455 10.3503ZM6.1783 15.0847V14.8555V15.0847ZM5.88879 14.7951H6.11795H5.88879ZM6.93985 13.7441V13.9732V13.7441ZM11.2017 16.7566L10.9726 16.7567V16.7568L11.2017 16.7566ZM10.6229 16.757H10.3937V16.7571L10.6229 16.757ZM10.6229 15.6798H10.8521L10.8519 15.6723L10.6229 15.6798ZM11.2014 15.6798L10.9723 15.6723L10.9723 15.6799L11.2014 15.6798ZM15.851 14.5917L16.0131 14.4296L15.851 14.5917ZM15.9358 14.7964H15.7067H15.9358ZM15.6463 15.0859V14.8568V15.0859ZM15.4416 15.0011L15.2796 15.1632L15.4416 15.0011ZM14.8848 13.7453V13.5162V13.7453ZM17.6078 9.77296V10.0022L17.6154 10.002L17.6078 9.77296ZM17.6078 10.3515L17.6154 10.1224H17.6078V10.3515ZM16.531 10.3515L16.5234 10.5807H16.531V10.3515ZM16.531 9.77296V9.54368L16.5234 9.54393L16.531 9.77296ZM15.4416 5.12273L15.2796 4.96069L15.4416 5.12273ZM15.9358 5.32745H15.7067H15.9358ZM15.851 5.53217L16.0131 5.69421L15.851 5.53217ZM14.5952 6.089H14.8244H14.5952ZM10.6229 3.36594H10.8521L10.8519 3.35839L10.6229 3.36594ZM10.9121 3.06696V3.29612V3.06696ZM11.2014 3.36594L10.9723 3.35838V3.36594H11.2014ZM11.2014 4.44244L11.4306 4.45V4.44244H11.2014ZM10.6229 4.44244H10.3936L10.3938 4.45L10.6229 4.44244ZM16.3427 4.63141L16.1806 4.79342L16.1808 4.79365L16.3427 4.63141ZM18.5911 10.0615L18.3619 10.0611V10.0614L18.5911 10.0615ZM10.9129 1.80348L10.913 2.03264C12.7707 2.0325 14.5711 2.67655 16.0072 3.85504L16.1526 3.67789L16.298 3.50074C14.7798 2.25499 12.8767 1.57418 10.9129 1.57432L10.9129 1.80348ZM16.1526 3.67789L16.0072 3.85504C17.4434 5.03352 18.4265 6.67353 18.789 8.4956L19.0137 8.45089L19.2385 8.40617C18.8553 6.4801 17.8161 4.74649 16.298 3.50074L16.1526 3.67789ZM19.0137 8.45089L18.789 8.4956C19.1515 10.3177 18.8709 12.2091 17.9952 13.8475L18.1973 13.9555L18.3994 14.0635C19.3251 12.3316 19.6217 10.3322 19.2385 8.40617L19.0137 8.45089ZM18.1973 13.9555L17.9952 13.8475C17.1195 15.4859 15.7027 16.77 13.9864 17.4809L14.0741 17.6927L14.1617 17.9044C15.9761 17.1529 17.4737 15.7955 18.3994 14.0635L18.1973 13.9555ZM14.0741 17.6927L13.9864 17.4809C12.27 18.1919 10.3602 18.2857 8.58244 17.7463L8.51591 17.9656L8.44938 18.1849C10.3286 18.755 12.3474 18.6559 14.1617 17.9044L14.0741 17.6927ZM8.51591 17.9656L8.58244 17.7463C6.80466 17.207 5.2689 16.0679 4.23684 14.5232L4.0463 14.6505L3.85576 14.7778C4.94673 16.4107 6.57014 17.6148 8.44938 18.1849L8.51591 17.9656ZM4.0463 14.6505L4.23684 14.5232C3.20478 12.9785 2.74028 11.1237 2.9225 9.27484L2.69444 9.25236L2.46639 9.22989C2.27378 11.1842 2.76479 13.1449 3.85576 14.7778L4.0463 14.6505ZM2.69444 9.25236L2.9225 9.27484C3.10471 7.42601 3.92236 5.69757 5.23611 4.38403L5.07409 4.22198L4.91206 4.05993C3.52332 5.44844 2.659 7.27554 2.46639 9.22989L2.69444 9.25236ZM5.07409 4.22198L5.23629 4.38385C5.98109 3.63755 6.86593 3.04568 7.84003 2.64219L7.75234 2.43048L7.66465 2.21877C6.63479 2.64534 5.69931 3.27109 4.91189 4.0601L5.07409 4.22198ZM7.75234 2.43048L7.84003 2.64219C8.81414 2.23871 9.85834 2.03156 10.9127 2.03264L10.9129 1.80348L10.9132 1.57432C9.79846 1.57319 8.6945 1.79219 7.66465 2.21877L7.75234 2.43048ZM11.2021 9.05456L11.1389 9.27485C11.2572 9.30875 11.3663 9.36889 11.4582 9.4508L11.6107 9.2798L11.7633 9.10879C11.62 8.98099 11.4497 8.88715 11.2652 8.83427L11.2021 9.05456ZM11.6107 9.2798L11.4582 9.4508C11.55 9.53271 11.6222 9.63428 11.6693 9.74795L11.881 9.66019L12.0927 9.57242C12.0191 9.39507 11.9065 9.2366 11.7633 9.10879L11.6107 9.2798ZM11.881 9.66019L11.6693 9.74795C11.7164 9.86162 11.7373 9.98445 11.7304 10.1073L11.9592 10.1202L12.1879 10.1331C12.1988 9.94142 12.1662 9.74977 12.0927 9.57242L11.881 9.66019ZM11.9592 10.1202L11.7304 10.1073C11.7234 10.2302 11.6889 10.3499 11.6293 10.4575L11.8298 10.5685L12.0302 10.6795C12.1232 10.5116 12.1771 10.3248 12.1879 10.1331L11.9592 10.1202ZM11.8298 10.5685L11.6677 10.7305L12.7977 11.8609L12.9598 11.6989L13.1219 11.5369L11.9918 10.4065L11.8298 10.5685ZM12.9598 11.6989L12.7913 11.8542C12.8019 11.8657 12.8076 11.8808 12.8073 11.8965L13.0364 11.9012L13.2655 11.9058C13.2683 11.7719 13.2191 11.6421 13.1283 11.5436L12.9598 11.6989ZM13.0364 11.9012L12.8073 11.8965C12.807 11.9121 12.8007 11.927 12.7896 11.9381L12.9516 12.1001L13.1137 12.2622C13.2084 12.1675 13.2628 12.0398 13.2655 11.9058L13.0364 11.9012ZM12.9516 12.1001L12.7896 11.9381C12.7785 11.9492 12.7636 11.9555 12.748 11.9558L12.7526 12.185L12.7573 12.4141C12.8912 12.4113 13.0189 12.3569 13.1137 12.2622L12.9516 12.1001ZM12.7526 12.185L12.748 11.9558C12.7323 11.9562 12.7172 11.9504 12.7057 11.9398L12.5504 12.1083L12.395 12.2768C12.4935 12.3676 12.6234 12.4168 12.7573 12.4141L12.7526 12.185ZM12.5504 12.1083L12.7125 11.9463L11.5834 10.8163L11.4213 10.9783L11.2592 11.1402L12.3883 12.2703L12.5504 12.1083ZM11.4213 10.9783L11.3103 10.7778C11.1376 10.8734 10.9361 10.9034 10.7431 10.8623L10.6954 11.0865L10.6476 11.3106C10.9488 11.3747 11.2629 11.3279 11.5323 11.1788L11.4213 10.9783ZM10.6954 11.0865L10.7431 10.8623C10.55 10.8212 10.3783 10.7118 10.2595 10.5541L10.0764 10.692L9.89342 10.8299C10.0787 11.0758 10.3465 11.2465 10.6476 11.3106L10.6954 11.0865ZM10.0764 10.692L10.2595 10.5541C10.1407 10.3964 10.0828 10.2012 10.0966 10.0042L9.86798 9.9883L9.63938 9.97234C9.61795 10.2795 9.70816 10.584 9.89342 10.8299L10.0764 10.692ZM9.86798 9.9883L10.0966 10.0042C10.1103 9.80733 10.1947 9.62199 10.3343 9.48236L10.1722 9.32038L10.0101 9.1584C9.79246 9.37617 9.66082 9.66522 9.63938 9.97234L9.86798 9.9883ZM10.1722 9.32038L10.3345 9.4821C10.432 9.3842 10.553 9.31287 10.6859 9.27489L10.6229 9.05456L10.5599 8.83423C10.3519 8.89369 10.1625 9.00537 10.0098 9.15866L10.1722 9.32038ZM10.6229 9.05456H10.852V6.12175H10.6229H10.3937V9.05456H10.6229ZM10.6229 6.12175L10.8519 6.11419C10.8516 6.10611 10.853 6.09806 10.8559 6.09052L10.6421 6.00809L10.4283 5.92566C10.4033 5.99055 10.3915 6.05981 10.3938 6.12931L10.6229 6.12175ZM10.6421 6.00809L10.8559 6.09052C10.8588 6.08298 10.8632 6.0761 10.8688 6.07029L10.7041 5.91094L10.5394 5.7516C10.4911 5.80158 10.4533 5.86077 10.4283 5.92566L10.6421 6.00809ZM10.7041 5.91094L10.8688 6.07029C10.8744 6.06448 10.8812 6.05986 10.8886 6.0567L10.7992 5.84572L10.7097 5.63474C10.6457 5.66188 10.5878 5.70162 10.5394 5.7516L10.7041 5.91094ZM10.7992 5.84572L10.8886 6.0567C10.8961 6.05355 10.9041 6.05192 10.9121 6.05192V5.82277V5.59361C10.8426 5.59361 10.7738 5.6076 10.7097 5.63474L10.7992 5.84572ZM10.9121 5.82277V6.05192C10.9202 6.05192 10.9282 6.05355 10.9357 6.0567L11.0251 5.84572L11.1146 5.63474C11.0505 5.6076 10.9817 5.59361 10.9121 5.59361V5.82277ZM11.0251 5.84572L10.9357 6.0567C10.9431 6.05986 10.9499 6.06448 10.9555 6.07029L11.1202 5.91094L11.2849 5.7516C11.2365 5.70162 11.1786 5.66188 11.1146 5.63474L11.0251 5.84572ZM11.1202 5.91094L10.9555 6.07029C10.9611 6.0761 10.9655 6.08298 10.9684 6.09052L11.1822 6.00809L11.396 5.92566C11.371 5.86077 11.3332 5.80158 11.2849 5.7516L11.1202 5.91094ZM11.1822 6.00809L10.9684 6.09052C10.9713 6.09806 10.9727 6.10611 10.9724 6.11419L11.2014 6.12175L11.4305 6.12931C11.4328 6.05981 11.421 5.99055 11.396 5.92566L11.1822 6.00809ZM11.2014 6.12175L10.9723 6.1218L10.9729 9.05461L11.2021 9.05456L11.4312 9.05451L11.4306 6.1217L11.2014 6.12175ZM11.2439 9.73044L11.4057 9.56815C11.3084 9.4711 11.1845 9.40498 11.0497 9.3781L11.0049 9.60283L10.9601 9.82757C11.0063 9.83678 11.0488 9.85946 11.0822 9.89273L11.2439 9.73044ZM11.0049 9.60283L11.0497 9.3781C10.9149 9.35122 10.7751 9.36477 10.648 9.41706L10.7352 9.62899L10.8223 9.84092C10.8659 9.82299 10.9139 9.81835 10.9601 9.82757L11.0049 9.60283ZM10.7352 9.62899L10.648 9.41706C10.5209 9.46934 10.412 9.55803 10.3351 9.67198L10.5251 9.80016L10.7151 9.92834C10.7414 9.88926 10.7787 9.85885 10.8223 9.84092L10.7352 9.62899ZM10.5251 9.80016L10.3351 9.67198C10.2583 9.78592 10.2167 9.92005 10.2158 10.0575L10.445 10.059L10.6741 10.0605C10.6745 10.0134 10.6887 9.96741 10.7151 9.92834L10.5251 9.80016ZM10.445 10.059L10.2158 10.0575C10.2149 10.195 10.2547 10.3296 10.33 10.4446L10.5217 10.3189L10.7133 10.1933C10.6875 10.1539 10.6738 10.1077 10.6741 10.0605L10.445 10.059ZM10.5217 10.3189L10.33 10.4446C10.4054 10.5595 10.5131 10.6497 10.6395 10.7036L10.7295 10.4929L10.8194 10.2821C10.7761 10.2636 10.7391 10.2327 10.7133 10.1933L10.5217 10.3189ZM10.7295 10.4929L10.6395 10.7036C10.766 10.7576 10.9055 10.773 11.0407 10.7479L10.9988 10.5226L10.957 10.2973C10.9106 10.3059 10.8628 10.3006 10.8194 10.2821L10.7295 10.4929ZM10.9988 10.5226L11.0407 10.7479C11.1758 10.7228 11.3005 10.6583 11.3992 10.5625L11.2395 10.3981L11.0799 10.2337C11.0461 10.2666 11.0033 10.2887 10.957 10.2973L10.9988 10.5226ZM11.2395 10.3981L11.4197 10.5397L11.4232 10.5353L11.243 10.3937L11.0628 10.2521L11.0594 10.2566L11.2395 10.3981ZM11.243 10.3937L11.3846 10.5739L11.389 10.5705L11.2474 10.3903L11.1058 10.2101L11.1014 10.2135L11.243 10.3937ZM11.2474 10.3903H11.4766V10.3884H11.2474H11.0183V10.3903H11.2474ZM11.2474 10.3884L11.4117 10.5481C11.5395 10.4167 11.6103 10.2402 11.6088 10.0569L11.3796 10.0588L11.1505 10.0606C11.151 10.1233 11.1268 10.1837 11.0831 10.2286L11.2474 10.3884ZM11.3796 10.0588L11.6088 10.0569C11.6073 9.87363 11.5336 9.69833 11.4037 9.569L11.2421 9.73139L11.0804 9.89377C11.1248 9.938 11.15 9.99796 11.1505 10.0606L11.3796 10.0588ZM10.9129 0.322274L10.9129 0.551431C13.1131 0.551522 15.2452 1.31449 16.9459 2.71033L17.0913 2.53319L17.2367 2.35606C15.454 0.892947 13.2192 0.0932119 10.9129 0.0931169L10.9129 0.322274ZM17.0913 2.53319L16.9459 2.71033C18.6466 4.10617 19.8107 6.04853 20.2399 8.20644L20.4646 8.16174L20.6894 8.11705C20.2395 5.85513 19.0193 3.81917 17.2367 2.35606L17.0913 2.53319ZM20.4646 8.16174L20.2399 8.20644C20.669 10.3644 20.3367 12.6043 19.2995 14.5447L19.5016 14.6527L19.7037 14.7607C20.7909 12.7269 21.1392 10.379 20.6894 8.11705L20.4646 8.16174ZM19.5016 14.6527L19.2995 14.5447C18.2623 16.485 16.5844 18.0057 14.5517 18.8477L14.6393 19.0594L14.727 19.2711C16.8577 18.3886 18.6165 16.7946 19.7037 14.7607L19.5016 14.6527ZM14.6393 19.0594L14.5517 18.8477C12.5189 19.6896 10.2572 19.8006 8.15174 19.1619L8.08522 19.3812L8.01869 19.6005C10.2256 20.27 12.5964 20.1536 14.727 19.2711L14.6393 19.0594ZM8.08522 19.3812L8.15174 19.1619C6.04632 18.5232 4.22749 17.1742 3.00516 15.3448L2.81462 15.4721L2.62408 15.5994C3.90532 17.517 5.8118 18.931 8.01869 19.6005L8.08522 19.3812ZM2.81462 15.4721L3.00516 15.3448C1.78283 13.5154 1.23264 11.3188 1.44832 9.12921L1.22026 9.10674L0.992209 9.08428C0.766136 11.3794 1.34285 13.6819 2.62408 15.5994L2.81462 15.4721ZM1.22026 9.10674L1.44832 9.12921C1.66399 6.93963 2.6322 4.89256 4.18798 3.33681L4.02594 3.17477L3.8639 3.01273C2.23315 4.64346 1.21828 6.78918 0.992209 9.08428L1.22026 9.10674ZM4.02594 3.17477L4.18818 3.3366C5.07029 2.45225 6.11846 1.75094 7.27247 1.27297L7.18478 1.06125L7.09709 0.849535C5.88729 1.35062 4.78845 2.08583 3.86369 3.01294L4.02594 3.17477ZM7.18478 1.06125L7.27247 1.27297C8.42647 0.794994 9.66356 0.549785 10.9126 0.551431L10.9129 0.322274L10.9132 0.0931171C9.60378 0.0913911 8.30688 0.348455 7.09709 0.849535L7.18478 1.06125ZM17.3899 3.58452L17.5519 3.42252C16.0162 1.88608 13.9953 0.929677 11.8334 0.716275L11.8109 0.944324L11.7884 1.17237C13.8447 1.37536 15.767 2.28508 17.2278 3.74652L17.3899 3.58452ZM11.8109 0.944324L11.8334 0.716275C9.67159 0.502873 7.50264 1.04568 5.69615 2.2522L5.82342 2.44276L5.9507 2.63332C7.66901 1.4857 9.73209 0.969387 11.7884 1.17237L11.8109 0.944324ZM5.82342 2.44276L5.69615 2.2522C3.88966 3.45871 2.55742 5.25429 1.92642 7.33298L2.14569 7.39954L2.36497 7.4661C2.96517 5.48888 4.23239 3.78095 5.9507 2.63332L5.82342 2.44276ZM2.14569 7.39954L1.92642 7.33298C1.29542 9.41166 1.40471 11.6448 2.23568 13.652L2.4474 13.5643L2.65913 13.4766C1.86873 11.5675 1.76477 9.44332 2.36497 7.4661L2.14569 7.39954ZM2.4474 13.5643L2.23568 13.652C3.06664 15.6591 4.56785 17.316 6.48352 18.3404L6.59158 18.1383L6.69964 17.9362C4.87747 16.9618 3.44954 15.3858 2.65913 13.4766L2.4474 13.5643ZM6.59158 18.1383L6.48352 18.3404C8.39919 19.3647 10.6108 19.6931 12.7414 19.2696L12.6968 19.0449L12.6521 18.8201C10.6254 19.2229 8.5218 18.9105 6.69964 17.9362L6.59158 18.1383ZM12.6968 19.0449L12.7414 19.2696C14.8721 18.8462 16.79 17.697 18.1684 16.0179L17.9913 15.8725L17.8141 15.7271C16.5031 17.3242 14.6788 18.4173 12.6521 18.8201L12.6968 19.0449ZM17.9913 15.8725L18.1684 16.0179C19.5467 14.3389 20.3002 12.2338 20.3005 10.0615L20.0713 10.0615L19.8422 10.0614C19.8419 12.1277 19.1252 14.13 17.8141 15.7271L17.9913 15.8725ZM20.0713 10.0615L20.3005 10.0618C20.3022 8.82846 20.0602 7.60696 19.5882 6.46751L19.3765 6.5552L19.1648 6.6429C19.6136 7.72654 19.8438 8.88821 19.8422 10.0611L20.0713 10.0615ZM19.3765 6.5552L19.5882 6.46751C19.1162 5.32807 18.4237 4.29315 17.5504 3.42226L17.3886 3.58452L17.2268 3.74678C18.0573 4.57502 18.7159 5.55925 19.1648 6.6429L19.3765 6.5552ZM5.9739 5.53154L6.13594 5.3695C6.12462 5.35818 6.11826 5.34283 6.11826 5.32682H5.8891H5.65995C5.65995 5.46438 5.71459 5.59631 5.81186 5.69358L5.9739 5.53154ZM5.8891 5.32682H6.11826C6.11826 5.31081 6.12462 5.29546 6.13594 5.28414L5.9739 5.1221L5.81186 4.96006C5.71459 5.05733 5.65995 5.18926 5.65995 5.32682H5.8891ZM5.9739 5.1221L6.13594 5.28414C6.14726 5.27282 6.16261 5.26646 6.17862 5.26646V5.03731V4.80815C6.04106 4.80815 5.90913 4.86279 5.81186 4.96006L5.9739 5.1221ZM6.17862 5.03731V5.26646C6.19462 5.26646 6.20998 5.27282 6.2213 5.28414L6.38333 5.1221L6.54537 4.96006C6.4481 4.86279 6.31618 4.80815 6.17862 4.80815V5.03731ZM6.38333 5.1221L6.2213 5.28414L6.98284 6.04569L7.14488 5.88365L7.30692 5.72161L6.54537 4.96006L6.38333 5.1221ZM7.14488 5.88365L6.98284 6.04569C6.99416 6.05701 7.00052 6.07236 7.00052 6.08837H7.22968H7.45884C7.45884 5.95081 7.40419 5.81888 7.30692 5.72161L7.14488 5.88365ZM7.22968 6.08837H7.00052C7.00052 6.10437 6.99416 6.11973 6.98284 6.13105L7.14488 6.29308L7.30692 6.45512C7.40419 6.35785 7.45884 6.22593 7.45884 6.08837H7.22968ZM7.14488 6.29308L6.98284 6.13105C6.97152 6.14236 6.95617 6.14872 6.94016 6.14872V6.37788V6.60704C7.07773 6.60704 7.20965 6.55239 7.30692 6.45512L7.14488 6.29308ZM6.94016 6.37788V6.14872C6.92416 6.14872 6.90881 6.14236 6.89749 6.13105L6.73545 6.29308L6.57341 6.45512C6.67068 6.55239 6.8026 6.60704 6.94016 6.60704V6.37788ZM6.73545 6.29308L6.89749 6.13105L6.13594 5.3695L5.9739 5.53154L5.81186 5.69358L6.57341 6.45512L6.73545 6.29308ZM4.21711 10.3503L4.20955 10.1212C4.20147 10.1215 4.19342 10.1201 4.18588 10.1172L4.10345 10.331L4.02102 10.5449C4.08591 10.5699 4.15517 10.5816 4.22467 10.5793L4.21711 10.3503ZM4.10345 10.331L4.18588 10.1172C4.17834 10.1143 4.17146 10.1099 4.16565 10.1043L4.00631 10.269L3.84696 10.4337C3.89694 10.482 3.95613 10.5198 4.02102 10.5449L4.10345 10.331ZM4.00631 10.269L4.16565 10.1043C4.15984 10.0987 4.15522 10.092 4.15207 10.0845L3.94108 10.1739L3.7301 10.2634C3.75724 10.3274 3.79698 10.3853 3.84696 10.4337L4.00631 10.269ZM3.94108 10.1739L4.15207 10.0845C4.14891 10.0771 4.14728 10.0691 4.14728 10.061H3.91813H3.68897C3.68897 10.1305 3.70296 10.1994 3.7301 10.2634L3.94108 10.1739ZM3.91813 10.061H4.14728C4.14728 10.0529 4.14891 10.0449 4.15207 10.0375L3.94108 9.94802L3.7301 9.85858C3.70296 9.92261 3.68897 9.99144 3.68897 10.061H3.91813ZM3.94108 9.94802L4.15207 10.0375C4.15522 10.03 4.15984 10.0233 4.16565 10.0177L4.00631 9.85297L3.84696 9.68828C3.79698 9.73664 3.75724 9.79455 3.7301 9.85858L3.94108 9.94802ZM4.00631 9.85297L4.16565 10.0177C4.17146 10.012 4.17834 10.0076 4.18588 10.0047L4.10345 9.79092L4.02102 9.5771C3.95613 9.60211 3.89694 9.63993 3.84696 9.68828L4.00631 9.85297ZM4.10345 9.79092L4.18588 10.0047C4.19342 10.0018 4.20147 10.0005 4.20955 10.0007L4.21711 9.7717L4.22467 9.54267C4.15517 9.54037 4.08591 9.55208 4.02102 9.5771L4.10345 9.79092ZM4.21711 9.7717V10.0009H5.29455V9.7717V9.54254H4.21711V9.7717ZM5.29455 9.7717L5.287 10.0007C5.30263 10.0012 5.31745 10.0078 5.32833 10.0191L5.49302 9.85972L5.65771 9.70038C5.56413 9.60366 5.43662 9.54711 5.30211 9.54267L5.29455 9.7717ZM5.49302 9.85972L5.32833 10.0191C5.33921 10.0303 5.34529 10.0453 5.34529 10.061H5.57445H5.8036C5.8036 9.9264 5.75129 9.7971 5.65771 9.70038L5.49302 9.85972ZM5.57445 10.061H5.34529C5.34529 10.0766 5.33921 10.0917 5.32833 10.1029L5.49302 10.2622L5.65771 10.4216C5.75129 10.3249 5.8036 10.1956 5.8036 10.061H5.57445ZM5.49302 10.2622L5.32833 10.1029C5.31745 10.1141 5.30263 10.1207 5.287 10.1212L5.29455 10.3503L5.30211 10.5793C5.43662 10.5749 5.56413 10.5183 5.65771 10.4216L5.49302 10.2622ZM5.29455 10.3503V10.1211H4.21711V10.3503V10.5794H5.29455V10.3503ZM6.38302 14.9999L6.22098 14.8378C6.21537 14.8434 6.20872 14.8479 6.2014 14.8509L6.28909 15.0626L6.37679 15.2743C6.43972 15.2483 6.4969 15.2101 6.54506 15.1619L6.38302 14.9999ZM6.28909 15.0626L6.2014 14.8509C6.19408 14.8539 6.18623 14.8555 6.1783 14.8555V15.0847V15.3138C6.24641 15.3138 6.31386 15.3004 6.37679 15.2743L6.28909 15.0626ZM6.1783 15.0847V14.8555C6.17037 14.8555 6.16252 14.8539 6.1552 14.8509L6.06751 15.0626L5.97982 15.2743C6.04275 15.3004 6.11019 15.3138 6.1783 15.3138V15.0847ZM6.06751 15.0626L6.1552 14.8509C6.14788 14.8479 6.14123 14.8434 6.13562 14.8378L5.97358 14.9999L5.81155 15.1619C5.85971 15.2101 5.91689 15.2483 5.97982 15.2743L6.06751 15.0626ZM5.97358 14.9999L6.13562 14.8378C6.13002 14.8322 6.12557 14.8256 6.12254 14.8182L5.91083 14.9059L5.69911 14.9936C5.72518 15.0566 5.76338 15.1137 5.81155 15.1619L5.97358 14.9999ZM5.91083 14.9059L6.12254 14.8182C6.11951 14.8109 6.11795 14.8031 6.11795 14.7951H5.88879H5.65963C5.65963 14.8633 5.67305 14.9307 5.69911 14.9936L5.91083 14.9059ZM5.88879 14.7951H6.11795C6.11795 14.7872 6.11951 14.7794 6.12254 14.772L5.91083 14.6844L5.69911 14.5967C5.67305 14.6596 5.65963 14.727 5.65963 14.7951H5.88879ZM5.91083 14.6844L6.12254 14.772C6.12557 14.7647 6.13002 14.7581 6.13562 14.7525L5.97358 14.5904L5.81155 14.4284C5.76338 14.4766 5.72518 14.5337 5.69911 14.5967L5.91083 14.6844ZM5.97358 14.5904L6.13562 14.7525L6.89717 13.9909L6.73513 13.8289L6.57309 13.6668L5.81155 14.4284L5.97358 14.5904ZM6.73513 13.8289L6.89717 13.9909C6.90277 13.9853 6.90943 13.9809 6.91675 13.9778L6.82906 13.7661L6.74136 13.5544C6.67844 13.5805 6.62126 13.6187 6.57309 13.6668L6.73513 13.8289ZM6.82906 13.7661L6.91675 13.9778C6.92408 13.9748 6.93192 13.9732 6.93985 13.9732V13.7441V13.5149C6.87174 13.5149 6.80429 13.5283 6.74136 13.5544L6.82906 13.7661ZM6.93985 13.7441V13.9732C6.94777 13.9732 6.95562 13.9748 6.96295 13.9778L7.05064 13.7661L7.13834 13.5544C7.07541 13.5283 7.00796 13.5149 6.93985 13.5149V13.7441ZM7.05064 13.7661L6.96295 13.9778C6.97027 13.9809 6.97692 13.9853 6.98253 13.9909L7.14457 13.8289L7.3066 13.6668C7.25844 13.6187 7.20126 13.5805 7.13834 13.5544L7.05064 13.7661ZM7.14457 13.8289L6.98253 13.9909C6.98813 13.9965 6.99258 14.0032 6.99561 14.0105L7.20732 13.9228L7.41904 13.8351C7.39297 13.7722 7.35477 13.715 7.3066 13.6668L7.14457 13.8289ZM7.20732 13.9228L6.99561 14.0105C6.99865 14.0178 7.00021 14.0257 7.00021 14.0336H7.22936H7.45852C7.45852 13.9655 7.4451 13.898 7.41904 13.8351L7.20732 13.9228ZM7.22936 14.0336H7.00021C7.00021 14.0415 6.99865 14.0494 6.99561 14.0567L7.20732 14.1444L7.41904 14.2321C7.4451 14.1692 7.45852 14.1017 7.45852 14.0336H7.22936ZM7.20732 14.1444L6.99561 14.0567C6.99258 14.064 6.98813 14.0707 6.98253 14.0763L7.14457 14.2383L7.3066 14.4004C7.35477 14.3522 7.39297 14.295 7.41904 14.2321L7.20732 14.1444ZM7.14457 14.2383L6.98253 14.0763L6.22098 14.8378L6.38302 14.9999L6.54506 15.1619L7.3066 14.4004L7.14457 14.2383ZM11.2017 16.7566L10.9726 16.7568C10.9726 16.7728 10.9663 16.7881 10.955 16.7994L11.1171 16.9614L11.2792 17.1233C11.3764 17.026 11.431 16.8941 11.4309 16.7565L11.2017 16.7566ZM11.1171 16.9614L10.955 16.7994C10.9437 16.8107 10.9283 16.8171 10.9123 16.8171L10.9125 17.0462L10.9126 17.2754C11.0501 17.2753 11.182 17.2206 11.2792 17.1233L11.1171 16.9614ZM10.9125 17.0462L10.9123 16.8171C10.8964 16.8171 10.881 16.8108 10.8697 16.7995L10.7078 16.9616L10.5458 17.1237C10.6431 17.2209 10.775 17.2755 10.9126 17.2754L10.9125 17.0462ZM10.7078 16.9616L10.8697 16.7995C10.8584 16.7882 10.852 16.7728 10.852 16.7568L10.6229 16.757L10.3937 16.7571C10.3938 16.8946 10.4485 17.0265 10.5458 17.1237L10.7078 16.9616ZM10.6229 16.757H10.852V15.6798H10.6229H10.3937V16.757H10.6229ZM10.6229 15.6798L10.8519 15.6723C10.8516 15.6642 10.853 15.6561 10.8559 15.6486L10.6421 15.5662L10.4283 15.4837C10.4033 15.5486 10.3915 15.6179 10.3938 15.6874L10.6229 15.6798ZM10.6421 15.5662L10.8559 15.6486C10.8588 15.6411 10.8632 15.6342 10.8688 15.6284L10.7041 15.469L10.5394 15.3097C10.4911 15.3597 10.4533 15.4189 10.4283 15.4837L10.6421 15.5662ZM10.7041 15.469L10.8688 15.6284C10.8744 15.6226 10.8812 15.6179 10.8886 15.6148L10.7992 15.4038L10.7097 15.1928C10.6457 15.22 10.5878 15.2597 10.5394 15.3097L10.7041 15.469ZM10.7992 15.4038L10.8886 15.6148C10.8961 15.6116 10.9041 15.61 10.9121 15.61V15.3809V15.1517C10.8426 15.1517 10.7738 15.1657 10.7097 15.1928L10.7992 15.4038ZM10.9121 15.3809V15.61C10.9202 15.61 10.9282 15.6116 10.9357 15.6148L11.0251 15.4038L11.1146 15.1928C11.0505 15.1657 10.9817 15.1517 10.9121 15.1517V15.3809ZM11.0251 15.4038L10.9357 15.6148C10.9431 15.6179 10.9499 15.6226 10.9555 15.6284L11.1202 15.469L11.2849 15.3097C11.2365 15.2597 11.1786 15.22 11.1146 15.1928L11.0251 15.4038ZM11.1202 15.469L10.9555 15.6284C10.9611 15.6342 10.9655 15.6411 10.9684 15.6486L11.1822 15.5662L11.396 15.4837C11.371 15.4189 11.3332 15.3597 11.2849 15.3097L11.1202 15.469ZM11.1822 15.5662L10.9684 15.6486C10.9713 15.6561 10.9727 15.6642 10.9724 15.6723L11.2014 15.6798L11.4305 15.6874C11.4328 15.6179 11.421 15.5486 11.396 15.4837L11.1822 15.5662ZM11.2014 15.6798L10.9723 15.6799L10.9726 16.7567L11.2017 16.7566L11.4309 16.7566L11.4306 15.6798L11.2014 15.6798ZM15.851 14.5917L15.689 14.7537C15.7003 14.765 15.7067 14.7804 15.7067 14.7964H15.9358H16.165C16.165 14.6588 16.1103 14.5269 16.0131 14.4296L15.851 14.5917ZM15.9358 14.7964H15.7067C15.7067 14.8124 15.7003 14.8278 15.689 14.8391L15.851 15.0011L16.0131 15.1632C16.1103 15.0659 16.165 14.934 16.165 14.7964H15.9358ZM15.851 15.0011L15.689 14.8391C15.6777 14.8504 15.6623 14.8568 15.6463 14.8568V15.0859V15.3151C15.7839 15.3151 15.9158 15.2604 16.0131 15.1632L15.851 15.0011ZM15.6463 15.0859V14.8568C15.6303 14.8568 15.615 14.8504 15.6036 14.8391L15.4416 15.0011L15.2796 15.1632C15.3768 15.2604 15.5088 15.3151 15.6463 15.3151V15.0859ZM15.4416 15.0011L15.6036 14.8391L14.8421 14.0775L14.68 14.2396L14.518 14.4016L15.2796 15.1632L15.4416 15.0011ZM14.68 14.2396L14.8421 14.0775C14.8365 14.0719 14.832 14.0653 14.829 14.058L14.6173 14.1456L14.4056 14.2333C14.4316 14.2963 14.4698 14.3534 14.518 14.4016L14.68 14.2396ZM14.6173 14.1456L14.829 14.058C14.826 14.0506 14.8244 14.0428 14.8244 14.0349H14.5952H14.3661C14.3661 14.103 14.3795 14.1704 14.4056 14.2333L14.6173 14.1456ZM14.5952 14.0349H14.8244C14.8244 14.0269 14.826 14.0191 14.829 14.0118L14.6173 13.9241L14.4056 13.8364C14.3795 13.8993 14.3661 13.9667 14.3661 14.0349H14.5952ZM14.6173 13.9241L14.829 14.0118C14.832 14.0044 14.8365 13.9978 14.8421 13.9922L14.68 13.8301L14.518 13.6681C14.4698 13.7163 14.4316 13.7734 14.4056 13.8364L14.6173 13.9241ZM14.68 13.8301L14.8421 13.9922C14.8477 13.9866 14.8543 13.9821 14.8617 13.9791L14.774 13.7674L14.6863 13.5557C14.6233 13.5817 14.5662 13.6199 14.518 13.6681L14.68 13.8301ZM14.774 13.7674L14.8617 13.9791C14.869 13.9761 14.8768 13.9745 14.8848 13.9745V13.7453V13.5162C14.8167 13.5162 14.7492 13.5296 14.6863 13.5557L14.774 13.7674ZM14.8848 13.7453V13.9745C14.8927 13.9745 14.9005 13.9761 14.9079 13.9791L14.9956 13.7674L15.0832 13.5557C15.0203 13.5296 14.9529 13.5162 14.8848 13.5162V13.7453ZM14.9956 13.7674L14.9079 13.9791C14.9152 13.9821 14.9218 13.9866 14.9274 13.9922L15.0895 13.8301L15.2515 13.6681C15.2034 13.6199 15.1462 13.5817 15.0832 13.5557L14.9956 13.7674ZM15.0895 13.8301L14.9274 13.9922L15.689 14.7537L15.851 14.5917L16.0131 14.4296L15.2515 13.6681L15.0895 13.8301ZM17.6078 9.77296L17.6154 10.002C17.6235 10.0017 17.6315 10.0031 17.639 10.006L17.7215 9.79218L17.8039 9.57836C17.739 9.55334 17.6698 9.54163 17.6003 9.54393L17.6078 9.77296ZM17.7215 9.79218L17.639 10.006C17.6466 10.0089 17.6535 10.0133 17.6593 10.0189L17.8186 9.85423L17.978 9.68954C17.928 9.64118 17.8688 9.60337 17.8039 9.57836L17.7215 9.79218ZM17.8186 9.85423L17.6593 10.0189C17.6651 10.0245 17.6697 10.0313 17.6729 10.0387L17.8838 9.94928L18.0948 9.85984C18.0677 9.79581 18.0279 9.7379 17.978 9.68954L17.8186 9.85423ZM17.8838 9.94928L17.6729 10.0387C17.676 10.0462 17.6776 10.0542 17.6776 10.0622H17.9068H18.136C18.136 9.9927 18.122 9.92387 18.0948 9.85984L17.8838 9.94928ZM17.9068 10.0622H17.6776C17.6776 10.0703 17.676 10.0783 17.6729 10.0858L17.8838 10.1752L18.0948 10.2646C18.122 10.2006 18.136 10.1318 18.136 10.0622H17.9068ZM17.8838 10.1752L17.6729 10.0858C17.6697 10.0932 17.6651 10.0999 17.6593 10.1056L17.8186 10.2703L17.978 10.4349C18.0279 10.3866 18.0677 10.3287 18.0948 10.2646L17.8838 10.1752ZM17.8186 10.2703L17.6593 10.1056C17.6535 10.1112 17.6466 10.1156 17.639 10.1185L17.7215 10.3323L17.8039 10.5461C17.8688 10.5211 17.928 10.4833 17.978 10.4349L17.8186 10.2703ZM17.7215 10.3323L17.639 10.1185C17.6315 10.1214 17.6235 10.1228 17.6154 10.1225L17.6078 10.3515L17.6003 10.5806C17.6698 10.5828 17.739 10.5711 17.8039 10.5461L17.7215 10.3323ZM17.6078 10.3515V10.1224H16.531V10.3515V10.5807H17.6078V10.3515ZM16.531 10.3515L16.5386 10.1225C16.5229 10.122 16.5081 10.1154 16.4972 10.1042L16.3325 10.2635L16.1678 10.4228C16.2614 10.5196 16.3889 10.5761 16.5234 10.5806L16.531 10.3515ZM16.3325 10.2635L16.4972 10.1042C16.4863 10.0929 16.4803 10.0779 16.4803 10.0622H16.2511H16.022C16.022 10.1968 16.0743 10.3261 16.1678 10.4228L16.3325 10.2635ZM16.2511 10.0622H16.4803C16.4803 10.0466 16.4863 10.0316 16.4972 10.0203L16.3325 9.86098L16.1678 9.70164C16.0743 9.79835 16.022 9.92766 16.022 10.0622H16.2511ZM16.3325 9.86098L16.4972 10.0203C16.5081 10.0091 16.5229 10.0025 16.5386 10.002L16.531 9.77296L16.5234 9.54393C16.3889 9.54837 16.2614 9.60492 16.1678 9.70164L16.3325 9.86098ZM16.531 9.77296V10.0021H17.6078V9.77296V9.5438H16.531V9.77296ZM15.4416 5.12273L15.6036 5.28477C15.615 5.27345 15.6303 5.26709 15.6463 5.26709V5.03794V4.80878C15.5087 4.80878 15.3768 4.86342 15.2796 4.96069L15.4416 5.12273ZM15.6463 5.03794V5.26709C15.6623 5.26709 15.6777 5.27345 15.689 5.28477L15.851 5.12273L16.0131 4.96069C15.9158 4.86342 15.7839 4.80878 15.6463 4.80878V5.03794ZM15.851 5.12273L15.689 5.28477C15.7003 5.29609 15.7067 5.31144 15.7067 5.32745H15.9358H16.165C16.165 5.18989 16.1103 5.05796 16.0131 4.96069L15.851 5.12273ZM15.9358 5.32745H15.7067C15.7067 5.34346 15.7003 5.35881 15.689 5.37013L15.851 5.53217L16.0131 5.69421C16.1103 5.59694 16.165 5.46501 16.165 5.32745H15.9358ZM15.851 5.53217L15.689 5.37013L14.9274 6.13168L15.0895 6.29371L15.2515 6.45575L16.0131 5.69421L15.851 5.53217ZM15.0895 6.29371L14.9274 6.13168C14.9218 6.13728 14.9152 6.14173 14.9079 6.14476L14.9956 6.35647L15.0832 6.56819C15.1462 6.54212 15.2034 6.50392 15.2515 6.45575L15.0895 6.29371ZM14.9956 6.35647L14.9079 6.14476C14.9005 6.14779 14.8927 6.14935 14.8848 6.14935V6.37851V6.60767C14.9529 6.60767 15.0203 6.59425 15.0832 6.56819L14.9956 6.35647ZM14.8848 6.37851V6.14935C14.8768 6.14935 14.869 6.14779 14.8617 6.14476L14.774 6.35647L14.6863 6.56819C14.7492 6.59425 14.8167 6.60767 14.8848 6.60767V6.37851ZM14.774 6.35647L14.8617 6.14476C14.8543 6.14173 14.8477 6.13728 14.8421 6.13168L14.68 6.29371L14.518 6.45575C14.5662 6.50391 14.6233 6.54212 14.6863 6.56819L14.774 6.35647ZM14.68 6.29371L14.8421 6.13168C14.8365 6.12607 14.832 6.11942 14.829 6.11209L14.6173 6.19979L14.4056 6.28748C14.4316 6.35041 14.4698 6.40759 14.518 6.45575L14.68 6.29371ZM14.6173 6.19979L14.829 6.11209C14.826 6.10477 14.8244 6.09693 14.8244 6.089H14.5952H14.3661C14.3661 6.15711 14.3795 6.22455 14.4056 6.28748L14.6173 6.19979ZM14.5952 6.089H14.8244C14.8244 6.08107 14.826 6.07322 14.829 6.0659L14.6173 5.9782L14.4056 5.89051C14.3795 5.95344 14.3661 6.02089 14.3661 6.089H14.5952ZM14.6173 5.9782L14.829 6.0659C14.832 6.05858 14.8365 6.05192 14.8421 6.04632L14.68 5.88428L14.518 5.72224C14.4698 5.7704 14.4316 5.82758 14.4056 5.89051L14.6173 5.9782ZM14.68 5.88428L14.8421 6.04632L15.6036 5.28477L15.4416 5.12273L15.2796 4.96069L14.518 5.72224L14.68 5.88428ZM10.6229 3.36594L10.8519 3.35839C10.8516 3.35031 10.853 3.34226 10.8559 3.33471L10.6421 3.25228L10.4283 3.16985C10.4033 3.23474 10.3915 3.304 10.3938 3.3735L10.6229 3.36594ZM10.6421 3.25228L10.8559 3.33471C10.8588 3.32717 10.8632 3.32029 10.8688 3.31448L10.7041 3.15514L10.5394 2.99579C10.4911 3.04577 10.4533 3.10497 10.4283 3.16985L10.6421 3.25228ZM10.7041 3.15514L10.8688 3.31448C10.8744 3.30867 10.8812 3.30405 10.8886 3.3009L10.7992 3.08991L10.7097 2.87893C10.6457 2.90607 10.5878 2.94581 10.5394 2.99579L10.7041 3.15514ZM10.7992 3.08991L10.8886 3.3009C10.8961 3.29774 10.9041 3.29612 10.9121 3.29612V3.06696V2.8378C10.8426 2.8378 10.7738 2.85179 10.7097 2.87893L10.7992 3.08991ZM10.9121 3.06696V3.29612C10.9202 3.29612 10.9282 3.29774 10.9357 3.3009L11.0251 3.08991L11.1146 2.87893C11.0505 2.85179 10.9817 2.8378 10.9121 2.8378V3.06696ZM11.0251 3.08991L10.9357 3.3009C10.9431 3.30405 10.9499 3.30867 10.9555 3.31448L11.1202 3.15514L11.2849 2.99579C11.2365 2.94581 11.1786 2.90607 11.1146 2.87893L11.0251 3.08991ZM11.1202 3.15514L10.9555 3.31448C10.9611 3.32029 10.9655 3.32717 10.9684 3.33471L11.1822 3.25228L11.396 3.16985C11.371 3.10497 11.3332 3.04577 11.2849 2.99579L11.1202 3.15514ZM11.1822 3.25228L10.9684 3.33471C10.9713 3.34226 10.9727 3.35031 10.9724 3.35839L11.2014 3.36594L11.4305 3.3735C11.4328 3.304 11.421 3.23474 11.396 3.16985L11.1822 3.25228ZM11.2014 3.36594H10.9723V4.44244H11.2014H11.4306V3.36594H11.2014ZM11.2014 4.44244L10.9724 4.43488C10.9719 4.45052 10.9653 4.46534 10.9541 4.47622L11.1134 4.64091L11.2728 4.8056C11.3695 4.71202 11.426 4.5845 11.4305 4.45L11.2014 4.44244ZM11.1134 4.64091L10.9541 4.47622C10.9428 4.48709 10.9278 4.49318 10.9121 4.49318V4.72233V4.95149C11.0467 4.95149 11.176 4.89918 11.2728 4.8056L11.1134 4.64091ZM10.9121 4.72233V4.49318C10.8965 4.49318 10.8815 4.48709 10.8702 4.47622L10.7109 4.64091L10.5515 4.8056C10.6483 4.89918 10.7776 4.95149 10.9121 4.95149V4.72233ZM10.7109 4.64091L10.8702 4.47622C10.859 4.46534 10.8524 4.45052 10.8519 4.43488L10.6229 4.44244L10.3938 4.45C10.3983 4.5845 10.4548 4.71202 10.5515 4.8056L10.7109 4.64091ZM10.6229 4.44244H10.852V3.36594H10.6229H10.3937V4.44244H10.6229ZM16.3427 4.63141L16.5047 4.4694C15.2111 3.17524 13.5087 2.3697 11.6876 2.19003L11.6651 2.41808L11.6426 2.64613C13.3581 2.81539 14.9619 3.57425 16.1806 4.79342L16.3427 4.63141ZM11.6651 2.41808L11.6876 2.19003C9.86658 2.01036 8.03959 2.46769 6.51794 3.48408L6.64523 3.67464L6.77251 3.86519C8.20598 2.9077 9.92711 2.47687 11.6426 2.64613L11.6651 2.41808ZM6.64523 3.67464L6.51794 3.48408C4.9963 4.50047 3.87416 6.01304 3.34273 7.76405L3.56201 7.8306L3.78129 7.89715C4.28193 6.24761 5.33904 4.82269 6.77251 3.86519L6.64523 3.67464ZM3.56201 7.8306L3.34273 7.76405C2.81131 9.51506 2.90347 11.3962 3.60353 13.0868L3.81526 12.9992L4.02698 12.9115C3.36749 11.3188 3.28066 9.5467 3.78129 7.89715L3.56201 7.8306ZM3.81526 12.9992L3.60353 13.0868C4.30359 14.7775 5.56822 16.1731 7.18194 17.0359L7.28998 16.8338L7.39803 16.6317C5.87782 15.819 4.68647 14.5042 4.02698 12.9115L3.81526 12.9992ZM7.28998 16.8338L7.18194 17.0359C8.79566 17.8987 10.6586 18.1752 12.4534 17.8184L12.4087 17.5936L12.364 17.3689C10.6732 17.705 8.91824 17.4445 7.39803 16.6317L7.28998 16.8338ZM12.4087 17.5936L12.4534 17.8184C14.2481 17.4615 15.8636 16.4934 17.0246 15.079L16.8474 14.9336L16.6703 14.7882C15.5766 16.1207 14.0547 17.0327 12.364 17.3689L12.4087 17.5936ZM16.8474 14.9336L17.0246 15.079C18.1855 13.6646 18.8201 11.8913 18.8202 10.0615L18.5911 10.0615L18.3619 10.0614C18.3618 11.7853 17.764 13.4558 16.6703 14.7882L16.8474 14.9336ZM18.5911 10.0615L18.8202 10.0618C18.8218 9.02299 18.618 7.99412 18.2206 7.03433L18.0089 7.122L17.7972 7.20967C18.1715 8.11365 18.3634 9.0827 18.3619 10.0611L18.5911 10.0615ZM18.0089 7.122L18.2206 7.03433C17.8232 6.07455 17.24 5.20279 16.5045 4.46917L16.3427 4.63141L16.1808 4.79365C16.8735 5.48462 17.4228 6.30569 17.7972 7.20967L18.0089 7.122Z" fill="#C4B581" mask="url(#path-1-outside-1_520_4553)"/>
</svg>
