<svg width="28" height="28" viewBox="0 0 28 28" fill="none" xmlns="http://www.w3.org/2000/svg">
<path d="M14.4176 23.7731H7.27678C3.70638 23.7731 2.52002 21.4003 2.52002 19.0163V9.50279C2.52002 5.9324 3.70638 4.74603 7.27678 4.74603H14.4176C17.988 4.74603 19.1743 5.9324 19.1743 9.50279V19.0163C19.1743 22.5867 17.9767 23.7731 14.4176 23.7731Z" stroke="#9A9A9A" stroke-width="1.69481" stroke-linecap="round" stroke-linejoin="round"/>
<path d="M22.3154 20.0219L19.1743 17.8187V10.6892L22.3154 8.48592C23.852 7.41254 25.1174 8.06787 25.1174 9.95475V18.5644C25.1174 20.4513 23.852 21.1066 22.3154 20.0219Z" stroke="#9A9A9A" stroke-width="1.69481" stroke-linecap="round" stroke-linejoin="round"/>
<path d="M13.2539 13.1295C14.1899 13.1295 14.9487 12.3708 14.9487 11.4347C14.9487 10.4987 14.1899 9.73993 13.2539 9.73993C12.3179 9.73993 11.5591 10.4987 11.5591 11.4347C11.5591 12.3708 12.3179 13.1295 13.2539 13.1295Z" stroke="#9A9A9A" stroke-width="1.69481" stroke-linecap="round" stroke-linejoin="round"/>
</svg>
