<svg width="75" height="75" viewBox="0 0 75 75" fill="none" xmlns="http://www.w3.org/2000/svg">
<g opacity="0.7">
<path d="M58.3946 58.0662L65.2396 54.6437V46.072M44.6738 30.6553L37.8288 34.0778L44.6738 30.6553ZM37.8288 34.0778L30.9838 30.6553L37.8288 34.0778ZM37.8288 34.0778V42.6495V34.0778ZM65.2396 20.357L58.3946 23.7795L65.2396 20.357ZM65.2396 20.357L58.3946 16.9345L65.2396 20.357ZM65.2396 20.357V28.9287V20.357ZM44.6738 10.0895L37.8288 6.66699L30.9838 10.0895H44.6738ZM10.418 20.357L17.263 16.9345L10.418 20.357ZM10.418 20.357L17.263 23.7795L10.418 20.357ZM10.418 20.357V28.9287V20.357ZM37.8288 68.3337L30.9838 64.9112L37.8288 68.3337ZM37.8288 68.3337L44.6738 64.9112L37.8288 68.3337ZM37.8288 68.3337V59.762V68.3337ZM17.263 58.0662L10.418 54.6437V46.072L17.263 58.0662Z" stroke="#EDEDED" stroke-width="4.7323" stroke-linecap="round" stroke-linejoin="round"/>
</g>
</svg>
